G75*
%MOIN*%
%OFA0B0*%
%FSLAX24Y24*%
%IPPOS*%
%LPD*%
%AMOC8*
5,1,8,0,0,1.08239X$1,22.5*
%
%ADD10C,0.1000*%
%ADD11OC8,0.1000*%
%ADD12OC8,0.0520*%
%ADD13C,0.0520*%
%ADD14OC8,0.0600*%
%ADD15C,0.0560*%
%ADD16C,0.0885*%
%ADD17R,0.0515X0.0515*%
%ADD18OC8,0.0680*%
%ADD19C,0.0550*%
%ADD20R,0.2100X0.2450*%
%ADD21C,0.0600*%
%ADD22C,0.1575*%
%ADD23C,0.1650*%
%ADD24C,0.1750*%
%ADD25C,0.1500*%
%ADD26C,0.0600*%
%ADD27C,0.0574*%
%ADD28C,0.1306*%
%ADD29C,0.0660*%
%ADD30C,0.0400*%
%ADD31C,0.0400*%
%ADD32C,0.0100*%
D10*
X002880Y005880D03*
X002880Y011780D03*
X002880Y017680D03*
X002880Y023580D03*
X002880Y029480D03*
D11*
X002880Y027480D03*
X002880Y021580D03*
X002880Y015680D03*
X002880Y009780D03*
X002880Y003880D03*
D12*
X006630Y009180D03*
X008130Y009180D03*
X008130Y010680D03*
X008130Y011680D03*
X006630Y012180D03*
X009130Y013680D03*
X010630Y013680D03*
X012130Y013680D03*
X013630Y013680D03*
X013630Y012180D03*
X014630Y012180D03*
X015630Y012180D03*
X018130Y013180D03*
X018130Y013680D03*
X019130Y013680D03*
X019130Y013180D03*
X019130Y010180D03*
X018130Y010180D03*
X015630Y009180D03*
X015630Y008180D03*
X014630Y008180D03*
X014630Y009180D03*
X013630Y009180D03*
X013630Y008180D03*
X013630Y005180D03*
X014130Y004180D03*
X014630Y005180D03*
X015630Y005180D03*
X015630Y002180D03*
X014630Y002180D03*
X011130Y004180D03*
X008130Y006180D03*
X006630Y015180D03*
X009130Y015680D03*
X010630Y015680D03*
X012130Y015680D03*
X013630Y015680D03*
X018130Y016680D03*
X019130Y016680D03*
X008130Y018180D03*
X006630Y018180D03*
X006630Y021180D03*
X008130Y021180D03*
X006630Y024180D03*
X006830Y026880D03*
X006830Y029880D03*
D13*
X005890Y026680D02*
X005370Y026680D01*
X005370Y025680D02*
X005890Y025680D01*
X005890Y024680D02*
X005370Y024680D01*
X005370Y020680D02*
X005890Y020680D01*
X005890Y019680D02*
X005370Y019680D01*
X005370Y018680D02*
X005890Y018680D01*
X005890Y014680D02*
X005370Y014680D01*
X005370Y013680D02*
X005890Y013680D01*
X005890Y012680D02*
X005370Y012680D01*
X005370Y008680D02*
X005890Y008680D01*
X005890Y007680D02*
X005370Y007680D01*
X005370Y006680D02*
X005890Y006680D01*
X006870Y005680D02*
X007390Y005680D01*
X007390Y004680D02*
X006870Y004680D01*
X006870Y003680D02*
X007390Y003680D01*
X017870Y025180D02*
X018390Y025180D01*
X018390Y026180D02*
X017870Y026180D01*
X017870Y028180D02*
X018390Y028180D01*
X018390Y029180D02*
X017870Y029180D01*
D14*
X019130Y025680D03*
X014130Y029680D03*
X014130Y020680D03*
X011630Y006680D03*
X011630Y005680D03*
X010630Y005680D03*
X010630Y006680D03*
X009630Y006680D03*
D15*
X014630Y030900D02*
X014630Y031460D01*
X015630Y031460D02*
X015630Y030900D01*
X016630Y030900D02*
X016630Y031460D01*
D16*
X011130Y030123D02*
X011130Y029238D01*
X008630Y029623D02*
X008630Y028738D01*
X011130Y024123D02*
X011130Y023238D01*
X008630Y023623D02*
X008630Y022738D01*
D17*
X009630Y021020D03*
X009630Y020350D03*
X009630Y019680D03*
X009630Y019010D03*
X009630Y018340D03*
D18*
X009130Y011680D03*
X010130Y011680D03*
X011130Y011680D03*
X012130Y011680D03*
X012130Y008680D03*
X011130Y008680D03*
X010130Y008680D03*
X009130Y008680D03*
D19*
X015230Y018005D02*
X015230Y018555D01*
X016130Y018555D02*
X016130Y018005D01*
X017030Y018005D02*
X017030Y018555D01*
D20*
X016130Y014430D03*
D21*
X012430Y018680D02*
X011830Y018680D01*
X011830Y019680D02*
X012430Y019680D01*
X012430Y020680D02*
X011830Y020680D01*
X018830Y021180D02*
X019430Y021180D01*
X019430Y022180D02*
X018830Y022180D01*
X018830Y023180D02*
X019430Y023180D01*
X019430Y024180D02*
X018830Y024180D01*
X009630Y030880D02*
X009630Y031480D01*
X008630Y031480D02*
X008630Y030880D01*
X007630Y030880D02*
X007630Y031480D01*
X006630Y031480D02*
X006630Y030880D01*
X005630Y030880D02*
X005630Y031480D01*
X018830Y007180D02*
X019430Y007180D01*
X019430Y006180D02*
X018830Y006180D01*
X018830Y005180D02*
X019430Y005180D01*
X019430Y004180D02*
X018830Y004180D01*
X009630Y002480D02*
X009630Y001880D01*
X008630Y001880D02*
X008630Y002480D01*
X007630Y002480D02*
X007630Y001880D01*
X006630Y001880D02*
X006630Y002480D01*
X005630Y002480D02*
X005630Y001880D01*
D22*
X020630Y002680D03*
X020630Y004680D03*
X020630Y006680D03*
X020630Y008680D03*
X020630Y019680D03*
X020630Y021680D03*
X020630Y023680D03*
X020630Y025680D03*
D23*
X003130Y002180D03*
X012630Y002180D03*
X018630Y002180D03*
X018630Y031180D03*
X012630Y031180D03*
X003130Y031180D03*
D24*
X020410Y029680D03*
D25*
X021630Y031570D03*
X022811Y029680D03*
D26*
X009630Y005680D03*
D27*
X020276Y012802D02*
X020850Y012802D01*
X020850Y013786D02*
X020276Y013786D01*
X020276Y014574D02*
X020850Y014574D01*
X020850Y015558D02*
X020276Y015558D01*
D28*
X021630Y016767D03*
X021630Y011593D03*
D29*
X017130Y008510D02*
X017130Y007850D01*
X017130Y003510D02*
X017130Y002850D01*
X016630Y023350D02*
X016630Y024010D01*
X016630Y028350D02*
X016630Y029010D01*
D30*
X016630Y028680D02*
X016630Y029780D01*
X018630Y029780D01*
X019930Y028480D01*
X021580Y028480D01*
X021680Y028330D01*
X022530Y027480D01*
X022530Y026030D01*
X020680Y024180D01*
X020680Y023880D01*
X020630Y023680D01*
X020330Y023130D01*
X020630Y022830D01*
X020630Y021680D01*
X020730Y021530D01*
X020730Y021130D01*
X022530Y019330D01*
X022530Y017730D01*
X021730Y016930D01*
X021630Y016767D01*
X021630Y016730D01*
X020580Y015680D01*
X020580Y015580D01*
X020563Y015558D01*
X020780Y015530D01*
X021580Y014730D01*
X021580Y011780D01*
X021630Y011593D01*
X021630Y011580D01*
X020330Y010280D01*
X019530Y010280D01*
X019530Y008230D01*
X020630Y007130D01*
X020630Y006680D01*
X020330Y006130D01*
X020630Y005830D01*
X020630Y004680D01*
X020230Y006280D02*
X019280Y006280D01*
X019130Y006180D01*
X019130Y005180D01*
X019130Y004180D02*
X020630Y002680D01*
X019130Y004180D02*
X018980Y004180D01*
X016480Y006680D01*
X016480Y009130D01*
X013630Y011980D01*
X013630Y012180D01*
X014630Y012180D02*
X014780Y012080D01*
X014930Y012080D01*
X016730Y010280D01*
X017980Y010280D01*
X018130Y010180D01*
X019130Y010180D01*
X019280Y010280D01*
X019530Y010280D01*
X019330Y012580D02*
X017930Y012580D01*
X017530Y012980D01*
X017530Y016630D01*
X017430Y016780D01*
X017980Y016780D01*
X018130Y016680D01*
X019130Y016680D01*
X017430Y016780D02*
X016130Y018080D01*
X016130Y018280D01*
X016030Y018430D01*
X016030Y018580D01*
X015230Y019380D01*
X015230Y021080D01*
X014730Y020430D02*
X013080Y018780D01*
X012280Y018780D01*
X012130Y018680D01*
X011830Y018980D01*
X010230Y018980D01*
X010230Y017980D01*
X009130Y016880D01*
X009130Y015680D01*
X010030Y015030D02*
X010530Y015530D01*
X010630Y015680D01*
X012130Y015680D01*
X013630Y015680D02*
X015230Y017280D01*
X015230Y018280D01*
X014730Y020430D02*
X014730Y023030D01*
X016780Y025080D01*
X017980Y025080D01*
X018130Y025180D01*
X018130Y025680D01*
X019130Y025680D01*
X018130Y025680D02*
X018130Y026180D01*
X018130Y028180D02*
X018130Y029180D01*
X016630Y029780D02*
X016630Y031180D01*
X015630Y031180D02*
X015630Y024680D01*
X014130Y023180D01*
X014130Y020680D01*
X012130Y020680D02*
X011830Y020380D01*
X009630Y020380D01*
X009630Y020350D01*
X009630Y019680D02*
X009330Y019680D01*
X008130Y018480D01*
X008130Y018180D01*
X009630Y018980D02*
X009630Y019010D01*
X009630Y018980D02*
X010230Y018980D01*
X009630Y019680D02*
X012130Y019680D01*
X010630Y023180D02*
X011130Y023680D01*
X011230Y023830D01*
X011230Y025930D01*
X014730Y029430D01*
X014730Y031080D01*
X014630Y031180D01*
X014130Y029680D02*
X012630Y029680D01*
X011430Y028480D01*
X009330Y028480D01*
X008630Y029180D01*
X008730Y028830D01*
X006930Y027030D01*
X006830Y026880D01*
X006680Y026680D01*
X005630Y026680D01*
X005530Y026830D01*
X002880Y029480D01*
X002880Y027480D02*
X004680Y025680D01*
X004580Y025530D01*
X002880Y023830D01*
X002880Y023580D01*
X002880Y021580D02*
X003455Y021005D01*
X006630Y024180D01*
X005730Y024680D02*
X006830Y025780D01*
X006830Y026880D01*
X005630Y025680D02*
X004680Y025680D01*
X005630Y024680D02*
X005730Y024680D01*
X008630Y023180D02*
X010630Y023180D01*
X006630Y021180D02*
X006030Y020580D01*
X005630Y020680D01*
X005730Y020680D01*
X006480Y019930D01*
X006480Y019430D01*
X005730Y018680D01*
X005630Y018680D01*
X005630Y019680D02*
X004780Y019680D01*
X004730Y019530D01*
X002880Y017680D01*
X002930Y017530D01*
X005580Y014880D01*
X005630Y014680D01*
X006030Y014580D01*
X006630Y015180D01*
X005730Y014680D02*
X006480Y013930D01*
X006480Y013430D01*
X005730Y012680D01*
X005630Y012680D01*
X006230Y012180D02*
X003830Y009780D01*
X003930Y009630D01*
X003930Y009230D01*
X005380Y007780D01*
X005630Y007680D01*
X005480Y007630D01*
X003730Y005880D01*
X002880Y005880D01*
X002880Y003880D02*
X006130Y003880D01*
X006280Y003930D01*
X006280Y002530D01*
X006630Y002180D01*
X006730Y002030D01*
X006730Y001930D01*
X007380Y001280D01*
X009880Y001280D01*
X012230Y003630D01*
X012380Y003530D01*
X012880Y003530D01*
X013780Y002630D01*
X013780Y002230D01*
X014430Y001580D01*
X014980Y001580D01*
X015480Y002080D01*
X015630Y002180D01*
X016130Y002180D01*
X017130Y003180D01*
X020230Y006280D02*
X020630Y006680D01*
X019330Y012580D02*
X019530Y012780D01*
X020530Y012780D01*
X020563Y012802D01*
X020630Y019680D02*
X019130Y021180D01*
X018980Y021180D01*
X016630Y023530D01*
X016630Y023680D01*
X019130Y023180D02*
X019130Y022180D01*
X019130Y023180D02*
X019280Y023280D01*
X020230Y023280D01*
X020630Y023680D01*
X021580Y028480D02*
X022780Y029680D01*
X022811Y029680D01*
X010030Y015030D02*
X010030Y013780D01*
X009230Y012980D01*
X009230Y011830D01*
X009130Y011680D01*
X008130Y011680D01*
X008030Y011530D01*
X007530Y011030D01*
X007530Y008580D01*
X009430Y006680D01*
X009630Y006680D01*
X009630Y007980D02*
X008880Y007980D01*
X008230Y008630D01*
X008230Y009030D01*
X008130Y009180D01*
X008130Y010680D01*
X006630Y012180D02*
X006230Y012180D01*
X005630Y013680D02*
X004780Y013680D01*
X004730Y013830D01*
X002880Y015680D01*
X004780Y013680D02*
X002880Y011780D01*
X002880Y009780D02*
X003830Y009780D01*
X005630Y007680D02*
X005730Y007680D01*
X007130Y006280D01*
X007280Y006180D01*
X008130Y006180D01*
X007130Y006280D02*
X007130Y005680D01*
X007280Y005630D01*
X007980Y004930D01*
X007980Y004430D01*
X007230Y003680D01*
X007130Y003680D01*
X006280Y003930D02*
X007030Y004680D01*
X007130Y004680D01*
X011630Y006680D02*
X012230Y006080D01*
X012230Y003630D01*
X012630Y008180D02*
X012130Y008680D01*
X012630Y008180D02*
X013630Y008180D01*
X014630Y012180D02*
X014630Y012630D01*
X013730Y013530D01*
X013630Y013680D01*
X012130Y013680D01*
X010630Y013680D01*
X005730Y014680D02*
X005630Y014680D01*
X004780Y019680D02*
X003455Y021005D01*
D31*
X009630Y007980D03*
X015230Y021080D03*
D32*
X019980Y014530D02*
X019130Y013680D01*
X019130Y013180D01*
X018130Y013180D02*
X018130Y013680D01*
X019980Y014530D02*
X020530Y014530D01*
X020563Y014574D01*
X015630Y009180D02*
X015630Y008180D01*
X014630Y009180D02*
X013630Y009180D01*
X012130Y011680D02*
X010630Y010180D01*
X010630Y006680D01*
X011080Y006230D01*
X011080Y005480D01*
X008630Y003030D01*
X008630Y002180D01*
X007630Y002180D02*
X007630Y002680D01*
X010630Y005680D01*
X010580Y005680D01*
X010580Y006080D01*
X010080Y006580D01*
X010080Y008030D01*
X009630Y008480D01*
X009630Y011180D01*
X010130Y011680D01*
X011130Y008680D02*
X011130Y007830D01*
X013630Y005330D01*
X013630Y005180D01*
X014630Y005180D01*
X014130Y004180D02*
X014130Y002680D01*
X014630Y002180D01*
X009630Y021020D02*
X009630Y021030D01*
X008280Y021030D01*
X008130Y021180D01*
M02*
