%
M48
M72
T01C0.0240
T02C0.0315
T03C0.0320
T04C0.0350
T05C0.0360
T06C0.0374
T07C0.0400
T08C0.0440
T09C0.0590
T10C0.0591
T11C0.0900
T12C0.0906
T13C0.0984
T14C0.1250
T15C0.1575
%
T01
X9630Y7980
X15230Y21080
T02
X9630Y21020
X9630Y20350
X9630Y19680
X9630Y19010
X9630Y18340
T03
X8130Y18180
X6630Y18180
X5630Y18680
X5630Y19680
X5630Y20680
X6630Y21180
X8130Y21180
X6630Y24180
X5630Y24680
X5630Y25680
X5630Y26680
X6830Y26880
X6830Y29880
X18130Y29180
X18130Y28180
X18130Y26180
X18130Y25180
X18130Y16680
X19130Y16680
X19130Y13680
X19130Y13180
X18130Y13180
X18130Y13680
X15630Y12180
X14630Y12180
X13630Y12180
X13630Y13680
X12130Y13680
X10630Y13680
X9130Y13680
X9130Y11680
X8130Y11680
X8130Y10680
X8130Y9180
X9130Y8680
X10130Y8680
X11130Y8680
X12130Y8680
X13630Y8180
X13630Y9180
X14630Y9180
X14630Y8180
X15630Y8180
X15630Y9180
X18130Y10180
X19130Y10180
X15630Y5180
X14630Y5180
X14130Y4180
X13630Y5180
X11130Y4180
X8130Y6180
X7130Y5680
X7130Y4680
X7130Y3680
X5630Y6680
X5630Y7680
X5630Y8680
X6630Y9180
X6630Y12180
X5630Y12680
X5630Y13680
X5630Y14680
X6630Y15180
X9130Y15680
X10630Y15680
X12130Y15680
X13630Y15680
X12130Y11680
X11130Y11680
X10130Y11680
X14630Y2180
X15630Y2180
T04
X15230Y18280
X16130Y18280
X17030Y18280
T05
X16630Y31180
X15630Y31180
X14630Y31180
T06
X20563Y15558
X20563Y14574
X20563Y13786
X20563Y12802
T07
X19130Y7180
X19130Y6180
X19130Y5180
X19130Y4180
X11630Y5680
X11630Y6680
X10630Y6680
X10630Y5680
X9630Y5680
X9630Y6680
X9630Y2180
X8630Y2180
X7630Y2180
X6630Y2180
X5630Y2180
X2880Y3880
X2880Y5880
X2880Y9780
X2880Y11780
X2880Y15680
X2880Y17680
X2880Y21580
X2880Y23580
X2880Y27480
X2880Y29480
X5630Y31180
X6630Y31180
X7630Y31180
X8630Y31180
X9630Y31180
X14130Y29680
X19130Y25680
X19130Y24180
X19130Y23180
X19130Y22180
X19130Y21180
X14130Y20680
X12130Y20680
X12130Y19680
X12130Y18680
T08
X16630Y23680
X16630Y28680
X17130Y8180
X17130Y3180
T09
X8630Y23180
X11130Y23680
X8630Y29180
X11130Y29680
T10
X20630Y25680
X20630Y23680
X20630Y21680
X20630Y19680
X20630Y8680
X20630Y6680
X20630Y4680
X20630Y2680
T11
X22811Y29680
X21630Y31570
T12
X21630Y16767
X21630Y11593
T13
X21630Y9680
X21630Y1680
X21630Y18680
X21630Y26680
T14
X3130Y2180
X12630Y2180
X18630Y2180
X20410Y29680
X18630Y31180
X12630Y31180
X3130Y31180
T15
X24630Y24680
X24630Y20680
X24630Y7680
X24630Y3680
M30
