G75*
%MOIN*%
%OFA0B0*%
%FSLAX24Y24*%
%IPPOS*%
%LPD*%
%AMOC8*
5,1,8,0,0,1.08239X$1,22.5*
%
%ADD10C,0.0060*%
D10*
X022746Y005481D02*
X023387Y005481D01*
X023387Y005801D01*
X023280Y005908D01*
X023067Y005908D01*
X022960Y005801D01*
X022960Y005481D01*
X022960Y005263D02*
X023387Y005263D01*
X022960Y005263D02*
X022960Y004943D01*
X023067Y004836D01*
X023387Y004836D01*
X023387Y004619D02*
X023387Y004299D01*
X023280Y004192D01*
X023174Y004299D01*
X023174Y004512D01*
X023067Y004619D01*
X022960Y004512D01*
X022960Y004192D01*
X023067Y006125D02*
X023280Y006125D01*
X023387Y006232D01*
X023387Y006446D01*
X023280Y006552D01*
X023174Y006552D01*
X023174Y006125D01*
X023067Y006125D02*
X022960Y006232D01*
X022960Y006446D01*
X022960Y006770D02*
X023387Y006770D01*
X023174Y006770D02*
X023387Y006984D01*
X023387Y007090D01*
X023280Y007307D02*
X023280Y007734D01*
X023387Y007952D02*
X023067Y007952D01*
X022960Y008058D01*
X022960Y008379D01*
X023387Y008379D01*
X023387Y008596D02*
X023387Y008916D01*
X023280Y009023D01*
X023067Y009023D01*
X022960Y008916D01*
X022960Y008596D01*
X022746Y008596D02*
X023387Y008596D01*
X023280Y009241D02*
X023387Y009348D01*
X023387Y009668D01*
X023174Y009561D02*
X023174Y009348D01*
X023280Y009241D01*
X022960Y009241D02*
X022960Y009561D01*
X023067Y009668D01*
X023174Y009561D01*
X023174Y010530D02*
X023387Y010743D01*
X023387Y010850D01*
X023280Y011067D02*
X023387Y011174D01*
X023387Y011387D01*
X023280Y011494D01*
X023174Y011494D01*
X023174Y011067D01*
X023280Y011067D02*
X023067Y011067D01*
X022960Y011174D01*
X022960Y011387D01*
X023387Y011712D02*
X022960Y011925D01*
X023387Y012139D01*
X023494Y013001D02*
X023067Y013001D01*
X023494Y013428D01*
X023067Y013428D01*
X022960Y013321D01*
X022960Y013107D01*
X023067Y013001D01*
X023494Y013001D02*
X023601Y013107D01*
X023601Y013321D01*
X023494Y013428D01*
X023067Y013645D02*
X023067Y013752D01*
X022960Y013752D01*
X022960Y013645D01*
X023067Y013645D01*
X023067Y013967D02*
X022960Y013967D01*
X023067Y013967D02*
X023494Y014394D01*
X023601Y014394D01*
X023601Y013967D01*
X023387Y015901D02*
X023067Y015901D01*
X022960Y016008D01*
X023067Y016115D01*
X022960Y016221D01*
X023067Y016328D01*
X023387Y016328D01*
X023387Y016546D02*
X023067Y016546D01*
X022960Y016652D01*
X023067Y016759D01*
X022960Y016866D01*
X023067Y016973D01*
X023387Y016973D01*
X023387Y017190D02*
X023067Y017190D01*
X022960Y017297D01*
X023067Y017404D01*
X022960Y017510D01*
X023067Y017617D01*
X023387Y017617D01*
X023067Y017835D02*
X023067Y017942D01*
X022960Y017942D01*
X022960Y017835D01*
X023067Y017835D01*
X022960Y018157D02*
X022960Y018477D01*
X023067Y018584D01*
X023174Y018477D01*
X023174Y018264D01*
X023280Y018157D01*
X023387Y018264D01*
X023387Y018584D01*
X023387Y018802D02*
X022960Y018802D01*
X022960Y019015D02*
X023280Y019015D01*
X023387Y019122D01*
X023280Y019229D01*
X022960Y019229D01*
X022960Y019446D02*
X022960Y019766D01*
X023067Y019873D01*
X023280Y019873D01*
X023387Y019766D01*
X023387Y019446D01*
X023601Y019446D02*
X022960Y019446D01*
X023280Y019015D02*
X023387Y018908D01*
X023387Y018802D01*
X023067Y020091D02*
X023174Y020197D01*
X023174Y020518D01*
X023280Y020518D02*
X022960Y020518D01*
X022960Y020197D01*
X023067Y020091D01*
X023387Y020197D02*
X023387Y020411D01*
X023280Y020518D01*
X023174Y020735D02*
X023387Y021056D01*
X023280Y021272D02*
X023387Y021379D01*
X023387Y021593D01*
X023280Y021699D01*
X023174Y021699D01*
X023174Y021272D01*
X023280Y021272D02*
X023067Y021272D01*
X022960Y021379D01*
X022960Y021593D01*
X022960Y021917D02*
X023387Y021917D01*
X023174Y021917D02*
X023387Y022130D01*
X023387Y022237D01*
X023067Y022454D02*
X023067Y022561D01*
X022960Y022561D01*
X022960Y022454D01*
X023067Y022454D01*
X023067Y022776D02*
X022960Y022883D01*
X022960Y023203D01*
X023067Y023421D02*
X022960Y023528D01*
X022960Y023741D01*
X023067Y023848D01*
X023280Y023848D01*
X023387Y023741D01*
X023387Y023528D01*
X023280Y023421D01*
X023067Y023421D01*
X023387Y023203D02*
X023387Y022883D01*
X023280Y022776D01*
X023067Y022776D01*
X022960Y024065D02*
X023387Y024065D01*
X023387Y024172D01*
X023280Y024279D01*
X023387Y024386D01*
X023280Y024492D01*
X022960Y024492D01*
X022960Y024279D02*
X023280Y024279D01*
X022960Y021056D02*
X023174Y020735D01*
X022960Y020735D02*
X023601Y020735D01*
X023387Y010530D02*
X022960Y010530D01*
M02*
