G75*
%MOIN*%
%OFA0B0*%
%FSLAX24Y24*%
%IPPOS*%
%LPD*%
%AMOC8*
5,1,8,0,0,1.08239X$1,22.5*
%
%ADD10C,0.0000*%
D10*
X002130Y000680D02*
X002130Y032680D01*
X025630Y032680D01*
X025630Y000680D01*
X002130Y000680D01*
X021138Y001680D02*
X021140Y001724D01*
X021146Y001768D01*
X021156Y001811D01*
X021169Y001853D01*
X021187Y001893D01*
X021208Y001932D01*
X021232Y001969D01*
X021259Y002004D01*
X021290Y002036D01*
X021323Y002065D01*
X021359Y002091D01*
X021397Y002113D01*
X021437Y002132D01*
X021478Y002148D01*
X021521Y002160D01*
X021564Y002168D01*
X021608Y002172D01*
X021652Y002172D01*
X021696Y002168D01*
X021739Y002160D01*
X021782Y002148D01*
X021823Y002132D01*
X021863Y002113D01*
X021901Y002091D01*
X021937Y002065D01*
X021970Y002036D01*
X022001Y002004D01*
X022028Y001969D01*
X022052Y001932D01*
X022073Y001893D01*
X022091Y001853D01*
X022104Y001811D01*
X022114Y001768D01*
X022120Y001724D01*
X022122Y001680D01*
X022120Y001636D01*
X022114Y001592D01*
X022104Y001549D01*
X022091Y001507D01*
X022073Y001467D01*
X022052Y001428D01*
X022028Y001391D01*
X022001Y001356D01*
X021970Y001324D01*
X021937Y001295D01*
X021901Y001269D01*
X021863Y001247D01*
X021823Y001228D01*
X021782Y001212D01*
X021739Y001200D01*
X021696Y001192D01*
X021652Y001188D01*
X021608Y001188D01*
X021564Y001192D01*
X021521Y001200D01*
X021478Y001212D01*
X021437Y001228D01*
X021397Y001247D01*
X021359Y001269D01*
X021323Y001295D01*
X021290Y001324D01*
X021259Y001356D01*
X021232Y001391D01*
X021208Y001428D01*
X021187Y001467D01*
X021169Y001507D01*
X021156Y001549D01*
X021146Y001592D01*
X021140Y001636D01*
X021138Y001680D01*
X023843Y003680D02*
X023845Y003736D01*
X023851Y003791D01*
X023861Y003845D01*
X023874Y003899D01*
X023892Y003952D01*
X023913Y004003D01*
X023937Y004053D01*
X023965Y004101D01*
X023997Y004147D01*
X024031Y004191D01*
X024069Y004232D01*
X024109Y004270D01*
X024152Y004305D01*
X024197Y004337D01*
X024245Y004366D01*
X024294Y004392D01*
X024345Y004414D01*
X024397Y004432D01*
X024451Y004446D01*
X024506Y004457D01*
X024561Y004464D01*
X024616Y004467D01*
X024672Y004466D01*
X024727Y004461D01*
X024782Y004452D01*
X024836Y004440D01*
X024889Y004423D01*
X024941Y004403D01*
X024991Y004379D01*
X025039Y004352D01*
X025086Y004322D01*
X025130Y004288D01*
X025172Y004251D01*
X025210Y004211D01*
X025247Y004169D01*
X025280Y004124D01*
X025309Y004078D01*
X025336Y004029D01*
X025358Y003978D01*
X025378Y003926D01*
X025393Y003872D01*
X025405Y003818D01*
X025413Y003763D01*
X025417Y003708D01*
X025417Y003652D01*
X025413Y003597D01*
X025405Y003542D01*
X025393Y003488D01*
X025378Y003434D01*
X025358Y003382D01*
X025336Y003331D01*
X025309Y003282D01*
X025280Y003236D01*
X025247Y003191D01*
X025210Y003149D01*
X025172Y003109D01*
X025130Y003072D01*
X025086Y003038D01*
X025039Y003008D01*
X024991Y002981D01*
X024941Y002957D01*
X024889Y002937D01*
X024836Y002920D01*
X024782Y002908D01*
X024727Y002899D01*
X024672Y002894D01*
X024616Y002893D01*
X024561Y002896D01*
X024506Y002903D01*
X024451Y002914D01*
X024397Y002928D01*
X024345Y002946D01*
X024294Y002968D01*
X024245Y002994D01*
X024197Y003023D01*
X024152Y003055D01*
X024109Y003090D01*
X024069Y003128D01*
X024031Y003169D01*
X023997Y003213D01*
X023965Y003259D01*
X023937Y003307D01*
X023913Y003357D01*
X023892Y003408D01*
X023874Y003461D01*
X023861Y003515D01*
X023851Y003569D01*
X023845Y003624D01*
X023843Y003680D01*
X023843Y007680D02*
X023845Y007736D01*
X023851Y007791D01*
X023861Y007845D01*
X023874Y007899D01*
X023892Y007952D01*
X023913Y008003D01*
X023937Y008053D01*
X023965Y008101D01*
X023997Y008147D01*
X024031Y008191D01*
X024069Y008232D01*
X024109Y008270D01*
X024152Y008305D01*
X024197Y008337D01*
X024245Y008366D01*
X024294Y008392D01*
X024345Y008414D01*
X024397Y008432D01*
X024451Y008446D01*
X024506Y008457D01*
X024561Y008464D01*
X024616Y008467D01*
X024672Y008466D01*
X024727Y008461D01*
X024782Y008452D01*
X024836Y008440D01*
X024889Y008423D01*
X024941Y008403D01*
X024991Y008379D01*
X025039Y008352D01*
X025086Y008322D01*
X025130Y008288D01*
X025172Y008251D01*
X025210Y008211D01*
X025247Y008169D01*
X025280Y008124D01*
X025309Y008078D01*
X025336Y008029D01*
X025358Y007978D01*
X025378Y007926D01*
X025393Y007872D01*
X025405Y007818D01*
X025413Y007763D01*
X025417Y007708D01*
X025417Y007652D01*
X025413Y007597D01*
X025405Y007542D01*
X025393Y007488D01*
X025378Y007434D01*
X025358Y007382D01*
X025336Y007331D01*
X025309Y007282D01*
X025280Y007236D01*
X025247Y007191D01*
X025210Y007149D01*
X025172Y007109D01*
X025130Y007072D01*
X025086Y007038D01*
X025039Y007008D01*
X024991Y006981D01*
X024941Y006957D01*
X024889Y006937D01*
X024836Y006920D01*
X024782Y006908D01*
X024727Y006899D01*
X024672Y006894D01*
X024616Y006893D01*
X024561Y006896D01*
X024506Y006903D01*
X024451Y006914D01*
X024397Y006928D01*
X024345Y006946D01*
X024294Y006968D01*
X024245Y006994D01*
X024197Y007023D01*
X024152Y007055D01*
X024109Y007090D01*
X024069Y007128D01*
X024031Y007169D01*
X023997Y007213D01*
X023965Y007259D01*
X023937Y007307D01*
X023913Y007357D01*
X023892Y007408D01*
X023874Y007461D01*
X023861Y007515D01*
X023851Y007569D01*
X023845Y007624D01*
X023843Y007680D01*
X021138Y009680D02*
X021140Y009724D01*
X021146Y009768D01*
X021156Y009811D01*
X021169Y009853D01*
X021187Y009893D01*
X021208Y009932D01*
X021232Y009969D01*
X021259Y010004D01*
X021290Y010036D01*
X021323Y010065D01*
X021359Y010091D01*
X021397Y010113D01*
X021437Y010132D01*
X021478Y010148D01*
X021521Y010160D01*
X021564Y010168D01*
X021608Y010172D01*
X021652Y010172D01*
X021696Y010168D01*
X021739Y010160D01*
X021782Y010148D01*
X021823Y010132D01*
X021863Y010113D01*
X021901Y010091D01*
X021937Y010065D01*
X021970Y010036D01*
X022001Y010004D01*
X022028Y009969D01*
X022052Y009932D01*
X022073Y009893D01*
X022091Y009853D01*
X022104Y009811D01*
X022114Y009768D01*
X022120Y009724D01*
X022122Y009680D01*
X022120Y009636D01*
X022114Y009592D01*
X022104Y009549D01*
X022091Y009507D01*
X022073Y009467D01*
X022052Y009428D01*
X022028Y009391D01*
X022001Y009356D01*
X021970Y009324D01*
X021937Y009295D01*
X021901Y009269D01*
X021863Y009247D01*
X021823Y009228D01*
X021782Y009212D01*
X021739Y009200D01*
X021696Y009192D01*
X021652Y009188D01*
X021608Y009188D01*
X021564Y009192D01*
X021521Y009200D01*
X021478Y009212D01*
X021437Y009228D01*
X021397Y009247D01*
X021359Y009269D01*
X021323Y009295D01*
X021290Y009324D01*
X021259Y009356D01*
X021232Y009391D01*
X021208Y009428D01*
X021187Y009467D01*
X021169Y009507D01*
X021156Y009549D01*
X021146Y009592D01*
X021140Y009636D01*
X021138Y009680D01*
X021138Y018680D02*
X021140Y018724D01*
X021146Y018768D01*
X021156Y018811D01*
X021169Y018853D01*
X021187Y018893D01*
X021208Y018932D01*
X021232Y018969D01*
X021259Y019004D01*
X021290Y019036D01*
X021323Y019065D01*
X021359Y019091D01*
X021397Y019113D01*
X021437Y019132D01*
X021478Y019148D01*
X021521Y019160D01*
X021564Y019168D01*
X021608Y019172D01*
X021652Y019172D01*
X021696Y019168D01*
X021739Y019160D01*
X021782Y019148D01*
X021823Y019132D01*
X021863Y019113D01*
X021901Y019091D01*
X021937Y019065D01*
X021970Y019036D01*
X022001Y019004D01*
X022028Y018969D01*
X022052Y018932D01*
X022073Y018893D01*
X022091Y018853D01*
X022104Y018811D01*
X022114Y018768D01*
X022120Y018724D01*
X022122Y018680D01*
X022120Y018636D01*
X022114Y018592D01*
X022104Y018549D01*
X022091Y018507D01*
X022073Y018467D01*
X022052Y018428D01*
X022028Y018391D01*
X022001Y018356D01*
X021970Y018324D01*
X021937Y018295D01*
X021901Y018269D01*
X021863Y018247D01*
X021823Y018228D01*
X021782Y018212D01*
X021739Y018200D01*
X021696Y018192D01*
X021652Y018188D01*
X021608Y018188D01*
X021564Y018192D01*
X021521Y018200D01*
X021478Y018212D01*
X021437Y018228D01*
X021397Y018247D01*
X021359Y018269D01*
X021323Y018295D01*
X021290Y018324D01*
X021259Y018356D01*
X021232Y018391D01*
X021208Y018428D01*
X021187Y018467D01*
X021169Y018507D01*
X021156Y018549D01*
X021146Y018592D01*
X021140Y018636D01*
X021138Y018680D01*
X023843Y020680D02*
X023845Y020736D01*
X023851Y020791D01*
X023861Y020845D01*
X023874Y020899D01*
X023892Y020952D01*
X023913Y021003D01*
X023937Y021053D01*
X023965Y021101D01*
X023997Y021147D01*
X024031Y021191D01*
X024069Y021232D01*
X024109Y021270D01*
X024152Y021305D01*
X024197Y021337D01*
X024245Y021366D01*
X024294Y021392D01*
X024345Y021414D01*
X024397Y021432D01*
X024451Y021446D01*
X024506Y021457D01*
X024561Y021464D01*
X024616Y021467D01*
X024672Y021466D01*
X024727Y021461D01*
X024782Y021452D01*
X024836Y021440D01*
X024889Y021423D01*
X024941Y021403D01*
X024991Y021379D01*
X025039Y021352D01*
X025086Y021322D01*
X025130Y021288D01*
X025172Y021251D01*
X025210Y021211D01*
X025247Y021169D01*
X025280Y021124D01*
X025309Y021078D01*
X025336Y021029D01*
X025358Y020978D01*
X025378Y020926D01*
X025393Y020872D01*
X025405Y020818D01*
X025413Y020763D01*
X025417Y020708D01*
X025417Y020652D01*
X025413Y020597D01*
X025405Y020542D01*
X025393Y020488D01*
X025378Y020434D01*
X025358Y020382D01*
X025336Y020331D01*
X025309Y020282D01*
X025280Y020236D01*
X025247Y020191D01*
X025210Y020149D01*
X025172Y020109D01*
X025130Y020072D01*
X025086Y020038D01*
X025039Y020008D01*
X024991Y019981D01*
X024941Y019957D01*
X024889Y019937D01*
X024836Y019920D01*
X024782Y019908D01*
X024727Y019899D01*
X024672Y019894D01*
X024616Y019893D01*
X024561Y019896D01*
X024506Y019903D01*
X024451Y019914D01*
X024397Y019928D01*
X024345Y019946D01*
X024294Y019968D01*
X024245Y019994D01*
X024197Y020023D01*
X024152Y020055D01*
X024109Y020090D01*
X024069Y020128D01*
X024031Y020169D01*
X023997Y020213D01*
X023965Y020259D01*
X023937Y020307D01*
X023913Y020357D01*
X023892Y020408D01*
X023874Y020461D01*
X023861Y020515D01*
X023851Y020569D01*
X023845Y020624D01*
X023843Y020680D01*
X023843Y024680D02*
X023845Y024736D01*
X023851Y024791D01*
X023861Y024845D01*
X023874Y024899D01*
X023892Y024952D01*
X023913Y025003D01*
X023937Y025053D01*
X023965Y025101D01*
X023997Y025147D01*
X024031Y025191D01*
X024069Y025232D01*
X024109Y025270D01*
X024152Y025305D01*
X024197Y025337D01*
X024245Y025366D01*
X024294Y025392D01*
X024345Y025414D01*
X024397Y025432D01*
X024451Y025446D01*
X024506Y025457D01*
X024561Y025464D01*
X024616Y025467D01*
X024672Y025466D01*
X024727Y025461D01*
X024782Y025452D01*
X024836Y025440D01*
X024889Y025423D01*
X024941Y025403D01*
X024991Y025379D01*
X025039Y025352D01*
X025086Y025322D01*
X025130Y025288D01*
X025172Y025251D01*
X025210Y025211D01*
X025247Y025169D01*
X025280Y025124D01*
X025309Y025078D01*
X025336Y025029D01*
X025358Y024978D01*
X025378Y024926D01*
X025393Y024872D01*
X025405Y024818D01*
X025413Y024763D01*
X025417Y024708D01*
X025417Y024652D01*
X025413Y024597D01*
X025405Y024542D01*
X025393Y024488D01*
X025378Y024434D01*
X025358Y024382D01*
X025336Y024331D01*
X025309Y024282D01*
X025280Y024236D01*
X025247Y024191D01*
X025210Y024149D01*
X025172Y024109D01*
X025130Y024072D01*
X025086Y024038D01*
X025039Y024008D01*
X024991Y023981D01*
X024941Y023957D01*
X024889Y023937D01*
X024836Y023920D01*
X024782Y023908D01*
X024727Y023899D01*
X024672Y023894D01*
X024616Y023893D01*
X024561Y023896D01*
X024506Y023903D01*
X024451Y023914D01*
X024397Y023928D01*
X024345Y023946D01*
X024294Y023968D01*
X024245Y023994D01*
X024197Y024023D01*
X024152Y024055D01*
X024109Y024090D01*
X024069Y024128D01*
X024031Y024169D01*
X023997Y024213D01*
X023965Y024259D01*
X023937Y024307D01*
X023913Y024357D01*
X023892Y024408D01*
X023874Y024461D01*
X023861Y024515D01*
X023851Y024569D01*
X023845Y024624D01*
X023843Y024680D01*
X021138Y026680D02*
X021140Y026724D01*
X021146Y026768D01*
X021156Y026811D01*
X021169Y026853D01*
X021187Y026893D01*
X021208Y026932D01*
X021232Y026969D01*
X021259Y027004D01*
X021290Y027036D01*
X021323Y027065D01*
X021359Y027091D01*
X021397Y027113D01*
X021437Y027132D01*
X021478Y027148D01*
X021521Y027160D01*
X021564Y027168D01*
X021608Y027172D01*
X021652Y027172D01*
X021696Y027168D01*
X021739Y027160D01*
X021782Y027148D01*
X021823Y027132D01*
X021863Y027113D01*
X021901Y027091D01*
X021937Y027065D01*
X021970Y027036D01*
X022001Y027004D01*
X022028Y026969D01*
X022052Y026932D01*
X022073Y026893D01*
X022091Y026853D01*
X022104Y026811D01*
X022114Y026768D01*
X022120Y026724D01*
X022122Y026680D01*
X022120Y026636D01*
X022114Y026592D01*
X022104Y026549D01*
X022091Y026507D01*
X022073Y026467D01*
X022052Y026428D01*
X022028Y026391D01*
X022001Y026356D01*
X021970Y026324D01*
X021937Y026295D01*
X021901Y026269D01*
X021863Y026247D01*
X021823Y026228D01*
X021782Y026212D01*
X021739Y026200D01*
X021696Y026192D01*
X021652Y026188D01*
X021608Y026188D01*
X021564Y026192D01*
X021521Y026200D01*
X021478Y026212D01*
X021437Y026228D01*
X021397Y026247D01*
X021359Y026269D01*
X021323Y026295D01*
X021290Y026324D01*
X021259Y026356D01*
X021232Y026391D01*
X021208Y026428D01*
X021187Y026467D01*
X021169Y026507D01*
X021156Y026549D01*
X021146Y026592D01*
X021140Y026636D01*
X021138Y026680D01*
M02*
