G75*
%MOIN*%
%OFA0B0*%
%FSLAX24Y24*%
%IPPOS*%
%LPD*%
%AMOC8*
5,1,8,0,0,1.08239X$1,22.5*
%
%ADD10C,0.0060*%
%ADD11C,0.0040*%
%ADD12C,0.0030*%
%ADD13R,0.1000X0.0250*%
%ADD14C,0.0070*%
%ADD15R,0.0200X0.0150*%
%ADD16C,0.0020*%
%ADD17C,0.0050*%
%ADD18C,0.0080*%
%ADD19C,0.0100*%
%ADD20R,0.0150X0.0200*%
%ADD21R,0.0320X0.0760*%
%ADD22R,0.2200X0.0300*%
%ADD23R,0.0500X0.0350*%
%ADD24R,0.0240X0.0140*%
%ADD25C,0.0120*%
%ADD26C,0.0350*%
%ADD27R,0.0440X0.0300*%
%ADD28R,0.0340X0.0600*%
%ADD29R,0.0300X0.4200*%
%ADD30R,0.0200X0.0750*%
%ADD31R,0.0200X0.0300*%
%ADD32R,0.1400X0.0250*%
%ADD33R,0.0300X0.0550*%
D10*
X002880Y004430D02*
X002880Y004630D01*
X000130Y004880D02*
X000132Y004985D01*
X000138Y005089D01*
X000148Y005193D01*
X000162Y005297D01*
X000180Y005400D01*
X000201Y005503D01*
X000227Y005604D01*
X000257Y005705D01*
X000290Y005804D01*
X000327Y005902D01*
X000368Y005999D01*
X000412Y006093D01*
X000460Y006186D01*
X000512Y006278D01*
X000567Y006367D01*
X000625Y006454D01*
X000686Y006538D01*
X000751Y006621D01*
X000819Y006701D01*
X000890Y006778D01*
X000963Y006852D01*
X001040Y006924D01*
X001119Y006992D01*
X001201Y007058D01*
X001285Y007120D01*
X001371Y007179D01*
X001460Y007235D01*
X001551Y007287D01*
X001643Y007336D01*
X001738Y007381D01*
X001834Y007423D01*
X001931Y007461D01*
X002030Y007495D01*
X002130Y007526D01*
X002232Y007552D01*
X002334Y007575D01*
X002437Y007594D01*
X002541Y007609D01*
X002645Y007620D01*
X002749Y007627D01*
X002854Y007630D01*
X002959Y007629D01*
X003063Y007624D01*
X003167Y007615D01*
X003271Y007602D01*
X003375Y007585D01*
X003477Y007564D01*
X003579Y007540D01*
X003680Y007511D01*
X003779Y007479D01*
X003878Y007443D01*
X003975Y007403D01*
X004070Y007359D01*
X004163Y007312D01*
X004255Y007262D01*
X004345Y007207D01*
X004432Y007150D01*
X004518Y007089D01*
X004600Y007025D01*
X004681Y006958D01*
X004759Y006888D01*
X004834Y006815D01*
X004906Y006739D01*
X004975Y006661D01*
X005042Y006580D01*
X005105Y006496D01*
X005165Y006411D01*
X005221Y006322D01*
X005275Y006232D01*
X005324Y006140D01*
X005370Y006046D01*
X005413Y005950D01*
X005452Y005853D01*
X005487Y005755D01*
X005519Y005655D01*
X005546Y005554D01*
X005570Y005452D01*
X005590Y005349D01*
X005606Y005245D01*
X005618Y005141D01*
X005626Y005037D01*
X005630Y004932D01*
X005630Y004828D01*
X005626Y004723D01*
X005618Y004619D01*
X005606Y004515D01*
X005590Y004411D01*
X005570Y004308D01*
X005546Y004206D01*
X005519Y004105D01*
X005487Y004005D01*
X005452Y003907D01*
X005413Y003810D01*
X005370Y003714D01*
X005324Y003620D01*
X005275Y003528D01*
X005221Y003438D01*
X005165Y003349D01*
X005105Y003264D01*
X005042Y003180D01*
X004975Y003099D01*
X004906Y003021D01*
X004834Y002945D01*
X004759Y002872D01*
X004681Y002802D01*
X004600Y002735D01*
X004518Y002671D01*
X004432Y002610D01*
X004345Y002553D01*
X004255Y002498D01*
X004163Y002448D01*
X004070Y002401D01*
X003975Y002357D01*
X003878Y002317D01*
X003779Y002281D01*
X003680Y002249D01*
X003579Y002220D01*
X003477Y002196D01*
X003375Y002175D01*
X003271Y002158D01*
X003167Y002145D01*
X003063Y002136D01*
X002959Y002131D01*
X002854Y002130D01*
X002749Y002133D01*
X002645Y002140D01*
X002541Y002151D01*
X002437Y002166D01*
X002334Y002185D01*
X002232Y002208D01*
X002130Y002234D01*
X002030Y002265D01*
X001931Y002299D01*
X001834Y002337D01*
X001738Y002379D01*
X001643Y002424D01*
X001551Y002473D01*
X001460Y002525D01*
X001371Y002581D01*
X001285Y002640D01*
X001201Y002702D01*
X001119Y002768D01*
X001040Y002836D01*
X000963Y002908D01*
X000890Y002982D01*
X000819Y003059D01*
X000751Y003139D01*
X000686Y003222D01*
X000625Y003306D01*
X000567Y003393D01*
X000512Y003482D01*
X000460Y003574D01*
X000412Y003667D01*
X000368Y003761D01*
X000327Y003858D01*
X000290Y003956D01*
X000257Y004055D01*
X000227Y004156D01*
X000201Y004257D01*
X000180Y004360D01*
X000162Y004463D01*
X000148Y004567D01*
X000138Y004671D01*
X000132Y004775D01*
X000130Y004880D01*
X002380Y004980D02*
X003380Y004980D01*
X003380Y005230D01*
X002880Y005230D01*
X002380Y005230D01*
X002380Y004980D01*
X002880Y005230D02*
X002880Y005330D01*
X002880Y006630D02*
X002880Y007130D01*
X002630Y006880D02*
X003130Y006880D01*
X002880Y010330D02*
X002880Y010530D01*
X000130Y010780D02*
X000132Y010885D01*
X000138Y010989D01*
X000148Y011093D01*
X000162Y011197D01*
X000180Y011300D01*
X000201Y011403D01*
X000227Y011504D01*
X000257Y011605D01*
X000290Y011704D01*
X000327Y011802D01*
X000368Y011899D01*
X000412Y011993D01*
X000460Y012086D01*
X000512Y012178D01*
X000567Y012267D01*
X000625Y012354D01*
X000686Y012438D01*
X000751Y012521D01*
X000819Y012601D01*
X000890Y012678D01*
X000963Y012752D01*
X001040Y012824D01*
X001119Y012892D01*
X001201Y012958D01*
X001285Y013020D01*
X001371Y013079D01*
X001460Y013135D01*
X001551Y013187D01*
X001643Y013236D01*
X001738Y013281D01*
X001834Y013323D01*
X001931Y013361D01*
X002030Y013395D01*
X002130Y013426D01*
X002232Y013452D01*
X002334Y013475D01*
X002437Y013494D01*
X002541Y013509D01*
X002645Y013520D01*
X002749Y013527D01*
X002854Y013530D01*
X002959Y013529D01*
X003063Y013524D01*
X003167Y013515D01*
X003271Y013502D01*
X003375Y013485D01*
X003477Y013464D01*
X003579Y013440D01*
X003680Y013411D01*
X003779Y013379D01*
X003878Y013343D01*
X003975Y013303D01*
X004070Y013259D01*
X004163Y013212D01*
X004255Y013162D01*
X004345Y013107D01*
X004432Y013050D01*
X004518Y012989D01*
X004600Y012925D01*
X004681Y012858D01*
X004759Y012788D01*
X004834Y012715D01*
X004906Y012639D01*
X004975Y012561D01*
X005042Y012480D01*
X005105Y012396D01*
X005165Y012311D01*
X005221Y012222D01*
X005275Y012132D01*
X005324Y012040D01*
X005370Y011946D01*
X005413Y011850D01*
X005452Y011753D01*
X005487Y011655D01*
X005519Y011555D01*
X005546Y011454D01*
X005570Y011352D01*
X005590Y011249D01*
X005606Y011145D01*
X005618Y011041D01*
X005626Y010937D01*
X005630Y010832D01*
X005630Y010728D01*
X005626Y010623D01*
X005618Y010519D01*
X005606Y010415D01*
X005590Y010311D01*
X005570Y010208D01*
X005546Y010106D01*
X005519Y010005D01*
X005487Y009905D01*
X005452Y009807D01*
X005413Y009710D01*
X005370Y009614D01*
X005324Y009520D01*
X005275Y009428D01*
X005221Y009338D01*
X005165Y009249D01*
X005105Y009164D01*
X005042Y009080D01*
X004975Y008999D01*
X004906Y008921D01*
X004834Y008845D01*
X004759Y008772D01*
X004681Y008702D01*
X004600Y008635D01*
X004518Y008571D01*
X004432Y008510D01*
X004345Y008453D01*
X004255Y008398D01*
X004163Y008348D01*
X004070Y008301D01*
X003975Y008257D01*
X003878Y008217D01*
X003779Y008181D01*
X003680Y008149D01*
X003579Y008120D01*
X003477Y008096D01*
X003375Y008075D01*
X003271Y008058D01*
X003167Y008045D01*
X003063Y008036D01*
X002959Y008031D01*
X002854Y008030D01*
X002749Y008033D01*
X002645Y008040D01*
X002541Y008051D01*
X002437Y008066D01*
X002334Y008085D01*
X002232Y008108D01*
X002130Y008134D01*
X002030Y008165D01*
X001931Y008199D01*
X001834Y008237D01*
X001738Y008279D01*
X001643Y008324D01*
X001551Y008373D01*
X001460Y008425D01*
X001371Y008481D01*
X001285Y008540D01*
X001201Y008602D01*
X001119Y008668D01*
X001040Y008736D01*
X000963Y008808D01*
X000890Y008882D01*
X000819Y008959D01*
X000751Y009039D01*
X000686Y009122D01*
X000625Y009206D01*
X000567Y009293D01*
X000512Y009382D01*
X000460Y009474D01*
X000412Y009567D01*
X000368Y009661D01*
X000327Y009758D01*
X000290Y009856D01*
X000257Y009955D01*
X000227Y010056D01*
X000201Y010157D01*
X000180Y010260D01*
X000162Y010363D01*
X000148Y010467D01*
X000138Y010571D01*
X000132Y010675D01*
X000130Y010780D01*
X002380Y010880D02*
X003380Y010880D01*
X003380Y011130D01*
X002880Y011130D01*
X002380Y011130D01*
X002380Y010880D01*
X002880Y011130D02*
X002880Y011230D01*
X002880Y012530D02*
X002880Y013030D01*
X002630Y012780D02*
X003130Y012780D01*
X002880Y016230D02*
X002880Y016430D01*
X000130Y016680D02*
X000132Y016785D01*
X000138Y016889D01*
X000148Y016993D01*
X000162Y017097D01*
X000180Y017200D01*
X000201Y017303D01*
X000227Y017404D01*
X000257Y017505D01*
X000290Y017604D01*
X000327Y017702D01*
X000368Y017799D01*
X000412Y017893D01*
X000460Y017986D01*
X000512Y018078D01*
X000567Y018167D01*
X000625Y018254D01*
X000686Y018338D01*
X000751Y018421D01*
X000819Y018501D01*
X000890Y018578D01*
X000963Y018652D01*
X001040Y018724D01*
X001119Y018792D01*
X001201Y018858D01*
X001285Y018920D01*
X001371Y018979D01*
X001460Y019035D01*
X001551Y019087D01*
X001643Y019136D01*
X001738Y019181D01*
X001834Y019223D01*
X001931Y019261D01*
X002030Y019295D01*
X002130Y019326D01*
X002232Y019352D01*
X002334Y019375D01*
X002437Y019394D01*
X002541Y019409D01*
X002645Y019420D01*
X002749Y019427D01*
X002854Y019430D01*
X002959Y019429D01*
X003063Y019424D01*
X003167Y019415D01*
X003271Y019402D01*
X003375Y019385D01*
X003477Y019364D01*
X003579Y019340D01*
X003680Y019311D01*
X003779Y019279D01*
X003878Y019243D01*
X003975Y019203D01*
X004070Y019159D01*
X004163Y019112D01*
X004255Y019062D01*
X004345Y019007D01*
X004432Y018950D01*
X004518Y018889D01*
X004600Y018825D01*
X004681Y018758D01*
X004759Y018688D01*
X004834Y018615D01*
X004906Y018539D01*
X004975Y018461D01*
X005042Y018380D01*
X005105Y018296D01*
X005165Y018211D01*
X005221Y018122D01*
X005275Y018032D01*
X005324Y017940D01*
X005370Y017846D01*
X005413Y017750D01*
X005452Y017653D01*
X005487Y017555D01*
X005519Y017455D01*
X005546Y017354D01*
X005570Y017252D01*
X005590Y017149D01*
X005606Y017045D01*
X005618Y016941D01*
X005626Y016837D01*
X005630Y016732D01*
X005630Y016628D01*
X005626Y016523D01*
X005618Y016419D01*
X005606Y016315D01*
X005590Y016211D01*
X005570Y016108D01*
X005546Y016006D01*
X005519Y015905D01*
X005487Y015805D01*
X005452Y015707D01*
X005413Y015610D01*
X005370Y015514D01*
X005324Y015420D01*
X005275Y015328D01*
X005221Y015238D01*
X005165Y015149D01*
X005105Y015064D01*
X005042Y014980D01*
X004975Y014899D01*
X004906Y014821D01*
X004834Y014745D01*
X004759Y014672D01*
X004681Y014602D01*
X004600Y014535D01*
X004518Y014471D01*
X004432Y014410D01*
X004345Y014353D01*
X004255Y014298D01*
X004163Y014248D01*
X004070Y014201D01*
X003975Y014157D01*
X003878Y014117D01*
X003779Y014081D01*
X003680Y014049D01*
X003579Y014020D01*
X003477Y013996D01*
X003375Y013975D01*
X003271Y013958D01*
X003167Y013945D01*
X003063Y013936D01*
X002959Y013931D01*
X002854Y013930D01*
X002749Y013933D01*
X002645Y013940D01*
X002541Y013951D01*
X002437Y013966D01*
X002334Y013985D01*
X002232Y014008D01*
X002130Y014034D01*
X002030Y014065D01*
X001931Y014099D01*
X001834Y014137D01*
X001738Y014179D01*
X001643Y014224D01*
X001551Y014273D01*
X001460Y014325D01*
X001371Y014381D01*
X001285Y014440D01*
X001201Y014502D01*
X001119Y014568D01*
X001040Y014636D01*
X000963Y014708D01*
X000890Y014782D01*
X000819Y014859D01*
X000751Y014939D01*
X000686Y015022D01*
X000625Y015106D01*
X000567Y015193D01*
X000512Y015282D01*
X000460Y015374D01*
X000412Y015467D01*
X000368Y015561D01*
X000327Y015658D01*
X000290Y015756D01*
X000257Y015855D01*
X000227Y015956D01*
X000201Y016057D01*
X000180Y016160D01*
X000162Y016263D01*
X000148Y016367D01*
X000138Y016471D01*
X000132Y016575D01*
X000130Y016680D01*
X002380Y016780D02*
X003380Y016780D01*
X003380Y017030D01*
X002880Y017030D01*
X002380Y017030D01*
X002380Y016780D01*
X002880Y017030D02*
X002880Y017130D01*
X002880Y018430D02*
X002880Y018930D01*
X002630Y018680D02*
X003130Y018680D01*
X002880Y022130D02*
X002880Y022330D01*
X000130Y022580D02*
X000132Y022685D01*
X000138Y022789D01*
X000148Y022893D01*
X000162Y022997D01*
X000180Y023100D01*
X000201Y023203D01*
X000227Y023304D01*
X000257Y023405D01*
X000290Y023504D01*
X000327Y023602D01*
X000368Y023699D01*
X000412Y023793D01*
X000460Y023886D01*
X000512Y023978D01*
X000567Y024067D01*
X000625Y024154D01*
X000686Y024238D01*
X000751Y024321D01*
X000819Y024401D01*
X000890Y024478D01*
X000963Y024552D01*
X001040Y024624D01*
X001119Y024692D01*
X001201Y024758D01*
X001285Y024820D01*
X001371Y024879D01*
X001460Y024935D01*
X001551Y024987D01*
X001643Y025036D01*
X001738Y025081D01*
X001834Y025123D01*
X001931Y025161D01*
X002030Y025195D01*
X002130Y025226D01*
X002232Y025252D01*
X002334Y025275D01*
X002437Y025294D01*
X002541Y025309D01*
X002645Y025320D01*
X002749Y025327D01*
X002854Y025330D01*
X002959Y025329D01*
X003063Y025324D01*
X003167Y025315D01*
X003271Y025302D01*
X003375Y025285D01*
X003477Y025264D01*
X003579Y025240D01*
X003680Y025211D01*
X003779Y025179D01*
X003878Y025143D01*
X003975Y025103D01*
X004070Y025059D01*
X004163Y025012D01*
X004255Y024962D01*
X004345Y024907D01*
X004432Y024850D01*
X004518Y024789D01*
X004600Y024725D01*
X004681Y024658D01*
X004759Y024588D01*
X004834Y024515D01*
X004906Y024439D01*
X004975Y024361D01*
X005042Y024280D01*
X005105Y024196D01*
X005165Y024111D01*
X005221Y024022D01*
X005275Y023932D01*
X005324Y023840D01*
X005370Y023746D01*
X005413Y023650D01*
X005452Y023553D01*
X005487Y023455D01*
X005519Y023355D01*
X005546Y023254D01*
X005570Y023152D01*
X005590Y023049D01*
X005606Y022945D01*
X005618Y022841D01*
X005626Y022737D01*
X005630Y022632D01*
X005630Y022528D01*
X005626Y022423D01*
X005618Y022319D01*
X005606Y022215D01*
X005590Y022111D01*
X005570Y022008D01*
X005546Y021906D01*
X005519Y021805D01*
X005487Y021705D01*
X005452Y021607D01*
X005413Y021510D01*
X005370Y021414D01*
X005324Y021320D01*
X005275Y021228D01*
X005221Y021138D01*
X005165Y021049D01*
X005105Y020964D01*
X005042Y020880D01*
X004975Y020799D01*
X004906Y020721D01*
X004834Y020645D01*
X004759Y020572D01*
X004681Y020502D01*
X004600Y020435D01*
X004518Y020371D01*
X004432Y020310D01*
X004345Y020253D01*
X004255Y020198D01*
X004163Y020148D01*
X004070Y020101D01*
X003975Y020057D01*
X003878Y020017D01*
X003779Y019981D01*
X003680Y019949D01*
X003579Y019920D01*
X003477Y019896D01*
X003375Y019875D01*
X003271Y019858D01*
X003167Y019845D01*
X003063Y019836D01*
X002959Y019831D01*
X002854Y019830D01*
X002749Y019833D01*
X002645Y019840D01*
X002541Y019851D01*
X002437Y019866D01*
X002334Y019885D01*
X002232Y019908D01*
X002130Y019934D01*
X002030Y019965D01*
X001931Y019999D01*
X001834Y020037D01*
X001738Y020079D01*
X001643Y020124D01*
X001551Y020173D01*
X001460Y020225D01*
X001371Y020281D01*
X001285Y020340D01*
X001201Y020402D01*
X001119Y020468D01*
X001040Y020536D01*
X000963Y020608D01*
X000890Y020682D01*
X000819Y020759D01*
X000751Y020839D01*
X000686Y020922D01*
X000625Y021006D01*
X000567Y021093D01*
X000512Y021182D01*
X000460Y021274D01*
X000412Y021367D01*
X000368Y021461D01*
X000327Y021558D01*
X000290Y021656D01*
X000257Y021755D01*
X000227Y021856D01*
X000201Y021957D01*
X000180Y022060D01*
X000162Y022163D01*
X000148Y022267D01*
X000138Y022371D01*
X000132Y022475D01*
X000130Y022580D01*
X002380Y022680D02*
X003380Y022680D01*
X003380Y022930D01*
X002880Y022930D01*
X002380Y022930D01*
X002380Y022680D01*
X002880Y022930D02*
X002880Y023030D01*
X002880Y024330D02*
X002880Y024830D01*
X002630Y024580D02*
X003130Y024580D01*
X002880Y028030D02*
X002880Y028230D01*
X000130Y028480D02*
X000132Y028585D01*
X000138Y028689D01*
X000148Y028793D01*
X000162Y028897D01*
X000180Y029000D01*
X000201Y029103D01*
X000227Y029204D01*
X000257Y029305D01*
X000290Y029404D01*
X000327Y029502D01*
X000368Y029599D01*
X000412Y029693D01*
X000460Y029786D01*
X000512Y029878D01*
X000567Y029967D01*
X000625Y030054D01*
X000686Y030138D01*
X000751Y030221D01*
X000819Y030301D01*
X000890Y030378D01*
X000963Y030452D01*
X001040Y030524D01*
X001119Y030592D01*
X001201Y030658D01*
X001285Y030720D01*
X001371Y030779D01*
X001460Y030835D01*
X001551Y030887D01*
X001643Y030936D01*
X001738Y030981D01*
X001834Y031023D01*
X001931Y031061D01*
X002030Y031095D01*
X002130Y031126D01*
X002232Y031152D01*
X002334Y031175D01*
X002437Y031194D01*
X002541Y031209D01*
X002645Y031220D01*
X002749Y031227D01*
X002854Y031230D01*
X002959Y031229D01*
X003063Y031224D01*
X003167Y031215D01*
X003271Y031202D01*
X003375Y031185D01*
X003477Y031164D01*
X003579Y031140D01*
X003680Y031111D01*
X003779Y031079D01*
X003878Y031043D01*
X003975Y031003D01*
X004070Y030959D01*
X004163Y030912D01*
X004255Y030862D01*
X004345Y030807D01*
X004432Y030750D01*
X004518Y030689D01*
X004600Y030625D01*
X004681Y030558D01*
X004759Y030488D01*
X004834Y030415D01*
X004906Y030339D01*
X004975Y030261D01*
X005042Y030180D01*
X005105Y030096D01*
X005165Y030011D01*
X005221Y029922D01*
X005275Y029832D01*
X005324Y029740D01*
X005370Y029646D01*
X005413Y029550D01*
X005452Y029453D01*
X005487Y029355D01*
X005519Y029255D01*
X005546Y029154D01*
X005570Y029052D01*
X005590Y028949D01*
X005606Y028845D01*
X005618Y028741D01*
X005626Y028637D01*
X005630Y028532D01*
X005630Y028428D01*
X005626Y028323D01*
X005618Y028219D01*
X005606Y028115D01*
X005590Y028011D01*
X005570Y027908D01*
X005546Y027806D01*
X005519Y027705D01*
X005487Y027605D01*
X005452Y027507D01*
X005413Y027410D01*
X005370Y027314D01*
X005324Y027220D01*
X005275Y027128D01*
X005221Y027038D01*
X005165Y026949D01*
X005105Y026864D01*
X005042Y026780D01*
X004975Y026699D01*
X004906Y026621D01*
X004834Y026545D01*
X004759Y026472D01*
X004681Y026402D01*
X004600Y026335D01*
X004518Y026271D01*
X004432Y026210D01*
X004345Y026153D01*
X004255Y026098D01*
X004163Y026048D01*
X004070Y026001D01*
X003975Y025957D01*
X003878Y025917D01*
X003779Y025881D01*
X003680Y025849D01*
X003579Y025820D01*
X003477Y025796D01*
X003375Y025775D01*
X003271Y025758D01*
X003167Y025745D01*
X003063Y025736D01*
X002959Y025731D01*
X002854Y025730D01*
X002749Y025733D01*
X002645Y025740D01*
X002541Y025751D01*
X002437Y025766D01*
X002334Y025785D01*
X002232Y025808D01*
X002130Y025834D01*
X002030Y025865D01*
X001931Y025899D01*
X001834Y025937D01*
X001738Y025979D01*
X001643Y026024D01*
X001551Y026073D01*
X001460Y026125D01*
X001371Y026181D01*
X001285Y026240D01*
X001201Y026302D01*
X001119Y026368D01*
X001040Y026436D01*
X000963Y026508D01*
X000890Y026582D01*
X000819Y026659D01*
X000751Y026739D01*
X000686Y026822D01*
X000625Y026906D01*
X000567Y026993D01*
X000512Y027082D01*
X000460Y027174D01*
X000412Y027267D01*
X000368Y027361D01*
X000327Y027458D01*
X000290Y027556D01*
X000257Y027655D01*
X000227Y027756D01*
X000201Y027857D01*
X000180Y027960D01*
X000162Y028063D01*
X000148Y028167D01*
X000138Y028271D01*
X000132Y028375D01*
X000130Y028480D01*
X002380Y028580D02*
X003380Y028580D01*
X003380Y028830D01*
X002880Y028830D01*
X002380Y028830D01*
X002380Y028580D01*
X002880Y028830D02*
X002880Y028930D01*
X002880Y030230D02*
X002880Y030730D01*
X002630Y030480D02*
X003130Y030480D01*
X005130Y030930D02*
X005380Y030680D01*
X005880Y030680D01*
X006130Y030930D01*
X006380Y030680D01*
X006880Y030680D01*
X007130Y030930D01*
X007380Y030680D01*
X007880Y030680D01*
X008130Y030930D01*
X008380Y030680D01*
X008880Y030680D01*
X009130Y030930D01*
X009380Y030680D01*
X009880Y030680D01*
X010130Y030930D01*
X010130Y031430D01*
X009880Y031680D01*
X009380Y031680D01*
X009130Y031430D01*
X008880Y031680D01*
X008380Y031680D01*
X008130Y031430D01*
X007880Y031680D01*
X007380Y031680D01*
X007130Y031430D01*
X006880Y031680D01*
X006380Y031680D01*
X006130Y031430D01*
X005880Y031680D01*
X005380Y031680D01*
X005130Y031430D01*
X005130Y030930D01*
X006530Y029380D02*
X007130Y029380D01*
X007147Y029378D01*
X007164Y029374D01*
X007180Y029367D01*
X007194Y029357D01*
X007207Y029344D01*
X007217Y029330D01*
X007224Y029314D01*
X007228Y029297D01*
X007230Y029280D01*
X007230Y029130D01*
X007180Y029080D01*
X007180Y027680D01*
X007230Y027630D01*
X007230Y027480D01*
X007228Y027463D01*
X007224Y027446D01*
X007217Y027430D01*
X007207Y027416D01*
X007194Y027403D01*
X007180Y027393D01*
X007164Y027386D01*
X007147Y027382D01*
X007130Y027380D01*
X006530Y027380D01*
X006513Y027382D01*
X006496Y027386D01*
X006480Y027393D01*
X006466Y027403D01*
X006453Y027416D01*
X006443Y027430D01*
X006436Y027446D01*
X006432Y027463D01*
X006430Y027480D01*
X006430Y027630D01*
X006480Y027680D01*
X006480Y029080D01*
X006430Y029130D01*
X006430Y029280D01*
X006432Y029297D01*
X006436Y029314D01*
X006443Y029330D01*
X006453Y029344D01*
X006466Y029357D01*
X006480Y029367D01*
X006496Y029374D01*
X006513Y029378D01*
X006530Y029380D01*
X007530Y028180D02*
X007530Y024180D01*
X009730Y024180D01*
X009730Y028180D01*
X007530Y028180D01*
X008630Y027080D02*
X008630Y026180D01*
X008860Y026180D01*
X008630Y026180D02*
X008630Y025680D01*
X008630Y026180D02*
X008400Y026180D01*
X008630Y026180D02*
X008860Y026630D01*
X008400Y026630D01*
X008630Y026180D01*
X010030Y024680D02*
X010030Y028680D01*
X012230Y028680D01*
X012230Y024680D01*
X010030Y024680D01*
X011130Y026180D02*
X011130Y026680D01*
X011360Y026680D01*
X011130Y026680D02*
X011360Y027130D01*
X010900Y027130D01*
X011130Y026680D01*
X011130Y027580D01*
X011130Y026680D02*
X010900Y026680D01*
X012930Y027930D02*
X013030Y027830D01*
X013030Y022530D01*
X012930Y022430D01*
X012930Y022080D01*
X012932Y022057D01*
X012937Y022034D01*
X012946Y022012D01*
X012959Y021992D01*
X012974Y021974D01*
X012992Y021959D01*
X013012Y021946D01*
X013034Y021937D01*
X013057Y021932D01*
X013080Y021930D01*
X015180Y021930D01*
X015203Y021932D01*
X015226Y021937D01*
X015248Y021946D01*
X015268Y021959D01*
X015286Y021974D01*
X015301Y021992D01*
X015314Y022012D01*
X015323Y022034D01*
X015328Y022057D01*
X015330Y022080D01*
X015330Y022430D01*
X015230Y022530D01*
X015230Y027830D01*
X015330Y027930D01*
X015330Y028280D01*
X015328Y028303D01*
X015323Y028326D01*
X015314Y028348D01*
X015301Y028368D01*
X015286Y028386D01*
X015268Y028401D01*
X015248Y028414D01*
X015226Y028423D01*
X015203Y028428D01*
X015180Y028430D01*
X013080Y028430D01*
X013057Y028428D01*
X013034Y028423D01*
X013012Y028414D01*
X012992Y028401D01*
X012974Y028386D01*
X012959Y028368D01*
X012946Y028348D01*
X012937Y028326D01*
X012932Y028303D01*
X012930Y028280D01*
X012930Y027930D01*
X014230Y030680D02*
X014130Y030780D01*
X014130Y031580D01*
X014230Y031680D01*
X015030Y031680D01*
X015130Y031580D01*
X015230Y031680D01*
X016030Y031680D01*
X016130Y031580D01*
X016230Y031680D01*
X017030Y031680D01*
X017130Y031580D01*
X017130Y030780D01*
X017030Y030680D01*
X016230Y030680D01*
X016130Y030780D01*
X016030Y030680D01*
X015230Y030680D01*
X015130Y030780D01*
X015030Y030680D01*
X014230Y030680D01*
X015930Y027680D02*
X017330Y027680D01*
X017330Y024680D01*
X015930Y024680D01*
X015930Y027680D01*
X017630Y027780D02*
X017630Y027280D01*
X017730Y027180D01*
X017630Y027080D01*
X017630Y026580D01*
X017730Y026680D01*
X017730Y027680D01*
X017630Y027780D01*
X017630Y028280D01*
X017930Y028580D01*
X017930Y028680D01*
X018330Y028680D01*
X018330Y028580D01*
X018630Y028280D01*
X018630Y027780D01*
X018530Y027680D01*
X018530Y026680D01*
X018630Y026580D01*
X018630Y026080D01*
X018330Y025780D01*
X018330Y025680D01*
X017930Y025680D01*
X017930Y025780D01*
X017630Y026080D01*
X017630Y026580D01*
X017930Y026280D01*
X017930Y026180D01*
X018330Y026180D01*
X018330Y026280D01*
X018630Y026580D01*
X018630Y027080D01*
X018530Y027180D01*
X018630Y027280D01*
X018630Y027780D01*
X018330Y028080D01*
X018330Y028180D01*
X017930Y028180D01*
X017930Y028080D01*
X017630Y027780D01*
X020159Y027492D02*
X020800Y027492D01*
X020159Y027065D01*
X020800Y027065D01*
X020800Y026849D02*
X020800Y026636D01*
X020800Y026743D02*
X020159Y026743D01*
X020159Y026849D02*
X020159Y026636D01*
X019430Y016180D02*
X018830Y016180D01*
X018813Y016178D01*
X018796Y016174D01*
X018780Y016167D01*
X018766Y016157D01*
X018753Y016144D01*
X018743Y016130D01*
X018736Y016114D01*
X018732Y016097D01*
X018730Y016080D01*
X018730Y015930D01*
X018780Y015880D01*
X018780Y014480D01*
X018730Y014430D01*
X018730Y014280D01*
X018732Y014263D01*
X018736Y014246D01*
X018743Y014230D01*
X018753Y014216D01*
X018766Y014203D01*
X018780Y014193D01*
X018796Y014186D01*
X018813Y014182D01*
X018830Y014180D01*
X019430Y014180D01*
X019447Y014182D01*
X019464Y014186D01*
X019480Y014193D01*
X019494Y014203D01*
X019507Y014216D01*
X019517Y014230D01*
X019524Y014246D01*
X019528Y014263D01*
X019530Y014280D01*
X019530Y014430D01*
X019480Y014480D01*
X019480Y015880D01*
X019530Y015930D01*
X019530Y016080D01*
X019528Y016097D01*
X019524Y016114D01*
X019517Y016130D01*
X019507Y016144D01*
X019494Y016157D01*
X019480Y016167D01*
X019464Y016174D01*
X019447Y016178D01*
X019430Y016180D01*
X018530Y016080D02*
X018530Y015930D01*
X018480Y015880D01*
X018480Y014480D01*
X018530Y014430D01*
X018530Y014280D01*
X018528Y014263D01*
X018524Y014246D01*
X018517Y014230D01*
X018507Y014216D01*
X018494Y014203D01*
X018480Y014193D01*
X018464Y014186D01*
X018447Y014182D01*
X018430Y014180D01*
X017830Y014180D01*
X017813Y014182D01*
X017796Y014186D01*
X017780Y014193D01*
X017766Y014203D01*
X017753Y014216D01*
X017743Y014230D01*
X017736Y014246D01*
X017732Y014263D01*
X017730Y014280D01*
X017730Y014430D01*
X017780Y014480D01*
X017780Y015880D01*
X017730Y015930D01*
X017730Y016080D01*
X017732Y016097D01*
X017736Y016114D01*
X017743Y016130D01*
X017753Y016144D01*
X017766Y016157D01*
X017780Y016167D01*
X017796Y016174D01*
X017813Y016178D01*
X017830Y016180D01*
X018430Y016180D01*
X018447Y016178D01*
X018464Y016174D01*
X018480Y016167D01*
X018494Y016157D01*
X018507Y016144D01*
X018517Y016130D01*
X018524Y016114D01*
X018528Y016097D01*
X018530Y016080D01*
X018430Y012680D02*
X017830Y012680D01*
X017813Y012678D01*
X017796Y012674D01*
X017780Y012667D01*
X017766Y012657D01*
X017753Y012644D01*
X017743Y012630D01*
X017736Y012614D01*
X017732Y012597D01*
X017730Y012580D01*
X017730Y012430D01*
X017780Y012380D01*
X017780Y010980D01*
X017730Y010930D01*
X017730Y010780D01*
X017732Y010763D01*
X017736Y010746D01*
X017743Y010730D01*
X017753Y010716D01*
X017766Y010703D01*
X017780Y010693D01*
X017796Y010686D01*
X017813Y010682D01*
X017830Y010680D01*
X018430Y010680D01*
X018447Y010682D01*
X018464Y010686D01*
X018480Y010693D01*
X018494Y010703D01*
X018507Y010716D01*
X018517Y010730D01*
X018524Y010746D01*
X018528Y010763D01*
X018530Y010780D01*
X018530Y010930D01*
X018480Y010980D01*
X018480Y012380D01*
X018530Y012430D01*
X018530Y012580D01*
X018528Y012597D01*
X018524Y012614D01*
X018517Y012630D01*
X018507Y012644D01*
X018494Y012657D01*
X018480Y012667D01*
X018464Y012674D01*
X018447Y012678D01*
X018430Y012680D01*
X018730Y012580D02*
X018730Y012430D01*
X018780Y012380D01*
X018780Y010980D01*
X018730Y010930D01*
X018730Y010780D01*
X018732Y010763D01*
X018736Y010746D01*
X018743Y010730D01*
X018753Y010716D01*
X018766Y010703D01*
X018780Y010693D01*
X018796Y010686D01*
X018813Y010682D01*
X018830Y010680D01*
X019430Y010680D01*
X019447Y010682D01*
X019464Y010686D01*
X019480Y010693D01*
X019494Y010703D01*
X019507Y010716D01*
X019517Y010730D01*
X019524Y010746D01*
X019528Y010763D01*
X019530Y010780D01*
X019530Y010930D01*
X019480Y010980D01*
X019480Y012380D01*
X019530Y012430D01*
X019530Y012580D01*
X019528Y012597D01*
X019524Y012614D01*
X019517Y012630D01*
X019507Y012644D01*
X019494Y012657D01*
X019480Y012667D01*
X019464Y012674D01*
X019447Y012678D01*
X019430Y012680D01*
X018830Y012680D01*
X018813Y012678D01*
X018796Y012674D01*
X018780Y012667D01*
X018766Y012657D01*
X018753Y012644D01*
X018743Y012630D01*
X018736Y012614D01*
X018732Y012597D01*
X018730Y012580D01*
X016030Y011580D02*
X016030Y011430D01*
X015980Y011380D01*
X015980Y009980D01*
X016030Y009930D01*
X016030Y009780D01*
X016028Y009763D01*
X016024Y009746D01*
X016017Y009730D01*
X016007Y009716D01*
X015994Y009703D01*
X015980Y009693D01*
X015964Y009686D01*
X015947Y009682D01*
X015930Y009680D01*
X015330Y009680D01*
X015313Y009682D01*
X015296Y009686D01*
X015280Y009693D01*
X015266Y009703D01*
X015253Y009716D01*
X015243Y009730D01*
X015236Y009746D01*
X015232Y009763D01*
X015230Y009780D01*
X015230Y009930D01*
X015280Y009980D01*
X015280Y011380D01*
X015230Y011430D01*
X015230Y011580D01*
X015232Y011597D01*
X015236Y011614D01*
X015243Y011630D01*
X015253Y011644D01*
X015266Y011657D01*
X015280Y011667D01*
X015296Y011674D01*
X015313Y011678D01*
X015330Y011680D01*
X015930Y011680D01*
X015947Y011678D01*
X015964Y011674D01*
X015980Y011667D01*
X015994Y011657D01*
X016007Y011644D01*
X016017Y011630D01*
X016024Y011614D01*
X016028Y011597D01*
X016030Y011580D01*
X015030Y011580D02*
X015030Y011430D01*
X014980Y011380D01*
X014980Y009980D01*
X015030Y009930D01*
X015030Y009780D01*
X015028Y009763D01*
X015024Y009746D01*
X015017Y009730D01*
X015007Y009716D01*
X014994Y009703D01*
X014980Y009693D01*
X014964Y009686D01*
X014947Y009682D01*
X014930Y009680D01*
X014330Y009680D01*
X014313Y009682D01*
X014296Y009686D01*
X014280Y009693D01*
X014266Y009703D01*
X014253Y009716D01*
X014243Y009730D01*
X014236Y009746D01*
X014232Y009763D01*
X014230Y009780D01*
X014230Y009930D01*
X014280Y009980D01*
X014280Y011380D01*
X014230Y011430D01*
X014230Y011580D01*
X014232Y011597D01*
X014236Y011614D01*
X014243Y011630D01*
X014253Y011644D01*
X014266Y011657D01*
X014280Y011667D01*
X014296Y011674D01*
X014313Y011678D01*
X014330Y011680D01*
X014930Y011680D01*
X014947Y011678D01*
X014964Y011674D01*
X014980Y011667D01*
X014994Y011657D01*
X015007Y011644D01*
X015017Y011630D01*
X015024Y011614D01*
X015028Y011597D01*
X015030Y011580D01*
X014030Y011580D02*
X014030Y011430D01*
X013980Y011380D01*
X013980Y009980D01*
X014030Y009930D01*
X014030Y009780D01*
X014028Y009763D01*
X014024Y009746D01*
X014017Y009730D01*
X014007Y009716D01*
X013994Y009703D01*
X013980Y009693D01*
X013964Y009686D01*
X013947Y009682D01*
X013930Y009680D01*
X013330Y009680D01*
X013313Y009682D01*
X013296Y009686D01*
X013280Y009693D01*
X013266Y009703D01*
X013253Y009716D01*
X013243Y009730D01*
X013236Y009746D01*
X013232Y009763D01*
X013230Y009780D01*
X013230Y009930D01*
X013280Y009980D01*
X013280Y011380D01*
X013230Y011430D01*
X013230Y011580D01*
X013232Y011597D01*
X013236Y011614D01*
X013243Y011630D01*
X013253Y011644D01*
X013266Y011657D01*
X013280Y011667D01*
X013296Y011674D01*
X013313Y011678D01*
X013330Y011680D01*
X013930Y011680D01*
X013947Y011678D01*
X013964Y011674D01*
X013980Y011667D01*
X013994Y011657D01*
X014007Y011644D01*
X014017Y011630D01*
X014024Y011614D01*
X014028Y011597D01*
X014030Y011580D01*
X014030Y013230D02*
X013230Y013230D01*
X013213Y013232D01*
X013196Y013236D01*
X013180Y013243D01*
X013166Y013253D01*
X013153Y013266D01*
X013143Y013280D01*
X013136Y013296D01*
X013132Y013313D01*
X013130Y013330D01*
X013130Y016030D01*
X013132Y016047D01*
X013136Y016064D01*
X013143Y016080D01*
X013153Y016094D01*
X013166Y016107D01*
X013180Y016117D01*
X013196Y016124D01*
X013213Y016128D01*
X013230Y016130D01*
X014030Y016130D01*
X014047Y016128D01*
X014064Y016124D01*
X014080Y016117D01*
X014094Y016107D01*
X014107Y016094D01*
X014117Y016080D01*
X014124Y016064D01*
X014128Y016047D01*
X014130Y016030D01*
X014130Y013330D01*
X014128Y013313D01*
X014124Y013296D01*
X014117Y013280D01*
X014107Y013266D01*
X014094Y013253D01*
X014080Y013243D01*
X014064Y013236D01*
X014047Y013232D01*
X014030Y013230D01*
X013630Y014080D02*
X013630Y014550D01*
X013630Y014800D02*
X013630Y015280D01*
X012630Y016030D02*
X012630Y013330D01*
X012628Y013313D01*
X012624Y013296D01*
X012617Y013280D01*
X012607Y013266D01*
X012594Y013253D01*
X012580Y013243D01*
X012564Y013236D01*
X012547Y013232D01*
X012530Y013230D01*
X011730Y013230D01*
X011713Y013232D01*
X011696Y013236D01*
X011680Y013243D01*
X011666Y013253D01*
X011653Y013266D01*
X011643Y013280D01*
X011636Y013296D01*
X011632Y013313D01*
X011630Y013330D01*
X011630Y016030D01*
X011632Y016047D01*
X011636Y016064D01*
X011643Y016080D01*
X011653Y016094D01*
X011666Y016107D01*
X011680Y016117D01*
X011696Y016124D01*
X011713Y016128D01*
X011730Y016130D01*
X012530Y016130D01*
X012547Y016128D01*
X012564Y016124D01*
X012580Y016117D01*
X012594Y016107D01*
X012607Y016094D01*
X012617Y016080D01*
X012624Y016064D01*
X012628Y016047D01*
X012630Y016030D01*
X012130Y015280D02*
X012130Y014800D01*
X012130Y014550D02*
X012130Y014080D01*
X011130Y013330D02*
X011130Y016030D01*
X011128Y016047D01*
X011124Y016064D01*
X011117Y016080D01*
X011107Y016094D01*
X011094Y016107D01*
X011080Y016117D01*
X011064Y016124D01*
X011047Y016128D01*
X011030Y016130D01*
X010230Y016130D01*
X010213Y016128D01*
X010196Y016124D01*
X010180Y016117D01*
X010166Y016107D01*
X010153Y016094D01*
X010143Y016080D01*
X010136Y016064D01*
X010132Y016047D01*
X010130Y016030D01*
X010130Y013330D01*
X010132Y013313D01*
X010136Y013296D01*
X010143Y013280D01*
X010153Y013266D01*
X010166Y013253D01*
X010180Y013243D01*
X010196Y013236D01*
X010213Y013232D01*
X010230Y013230D01*
X011030Y013230D01*
X011047Y013232D01*
X011064Y013236D01*
X011080Y013243D01*
X011094Y013253D01*
X011107Y013266D01*
X011117Y013280D01*
X011124Y013296D01*
X011128Y013313D01*
X011130Y013330D01*
X010630Y014080D02*
X010630Y014550D01*
X010630Y014800D02*
X010630Y015280D01*
X009630Y016030D02*
X009630Y013330D01*
X009628Y013313D01*
X009624Y013296D01*
X009617Y013280D01*
X009607Y013266D01*
X009594Y013253D01*
X009580Y013243D01*
X009564Y013236D01*
X009547Y013232D01*
X009530Y013230D01*
X008730Y013230D01*
X008713Y013232D01*
X008696Y013236D01*
X008680Y013243D01*
X008666Y013253D01*
X008653Y013266D01*
X008643Y013280D01*
X008636Y013296D01*
X008632Y013313D01*
X008630Y013330D01*
X008630Y016030D01*
X008632Y016047D01*
X008636Y016064D01*
X008643Y016080D01*
X008653Y016094D01*
X008666Y016107D01*
X008680Y016117D01*
X008696Y016124D01*
X008713Y016128D01*
X008730Y016130D01*
X009530Y016130D01*
X009547Y016128D01*
X009564Y016124D01*
X009580Y016117D01*
X009594Y016107D01*
X009607Y016094D01*
X009617Y016080D01*
X009624Y016064D01*
X009628Y016047D01*
X009630Y016030D01*
X009130Y015280D02*
X009130Y014800D01*
X009130Y014550D02*
X009130Y014080D01*
X008530Y012130D02*
X007730Y012130D01*
X007713Y012128D01*
X007696Y012124D01*
X007680Y012117D01*
X007666Y012107D01*
X007653Y012094D01*
X007643Y012080D01*
X007636Y012064D01*
X007632Y012047D01*
X007630Y012030D01*
X007630Y010330D01*
X007632Y010313D01*
X007636Y010296D01*
X007643Y010280D01*
X007653Y010266D01*
X007666Y010253D01*
X007680Y010243D01*
X007696Y010236D01*
X007713Y010232D01*
X007730Y010230D01*
X008530Y010230D01*
X008547Y010232D01*
X008564Y010236D01*
X008580Y010243D01*
X008594Y010253D01*
X008607Y010266D01*
X008617Y010280D01*
X008624Y010296D01*
X008628Y010313D01*
X008630Y010330D01*
X008630Y012030D01*
X008628Y012047D01*
X008624Y012064D01*
X008617Y012080D01*
X008607Y012094D01*
X008594Y012107D01*
X008580Y012117D01*
X008564Y012124D01*
X008547Y012128D01*
X008530Y012130D01*
X008130Y011330D02*
X008130Y011280D01*
X008130Y011080D02*
X008130Y011030D01*
X007030Y011430D02*
X006980Y011380D01*
X006980Y009980D01*
X007030Y009930D01*
X007030Y009780D01*
X007028Y009763D01*
X007024Y009746D01*
X007017Y009730D01*
X007007Y009716D01*
X006994Y009703D01*
X006980Y009693D01*
X006964Y009686D01*
X006947Y009682D01*
X006930Y009680D01*
X006330Y009680D01*
X006313Y009682D01*
X006296Y009686D01*
X006280Y009693D01*
X006266Y009703D01*
X006253Y009716D01*
X006243Y009730D01*
X006236Y009746D01*
X006232Y009763D01*
X006230Y009780D01*
X006230Y009930D01*
X006280Y009980D01*
X006280Y011380D01*
X006230Y011430D01*
X006230Y011580D01*
X006232Y011597D01*
X006236Y011614D01*
X006243Y011630D01*
X006253Y011644D01*
X006266Y011657D01*
X006280Y011667D01*
X006296Y011674D01*
X006313Y011678D01*
X006330Y011680D01*
X006930Y011680D01*
X006947Y011678D01*
X006964Y011674D01*
X006980Y011667D01*
X006994Y011657D01*
X007007Y011644D01*
X007017Y011630D01*
X007024Y011614D01*
X007028Y011597D01*
X007030Y011580D01*
X007030Y011430D01*
X007830Y008680D02*
X008430Y008680D01*
X008447Y008678D01*
X008464Y008674D01*
X008480Y008667D01*
X008494Y008657D01*
X008507Y008644D01*
X008517Y008630D01*
X008524Y008614D01*
X008528Y008597D01*
X008530Y008580D01*
X008530Y008430D01*
X008480Y008380D01*
X008480Y006980D01*
X008530Y006930D01*
X008530Y006780D01*
X008528Y006763D01*
X008524Y006746D01*
X008517Y006730D01*
X008507Y006716D01*
X008494Y006703D01*
X008480Y006693D01*
X008464Y006686D01*
X008447Y006682D01*
X008430Y006680D01*
X007830Y006680D01*
X007813Y006682D01*
X007796Y006686D01*
X007780Y006693D01*
X007766Y006703D01*
X007753Y006716D01*
X007743Y006730D01*
X007736Y006746D01*
X007732Y006763D01*
X007730Y006780D01*
X007730Y006930D01*
X007780Y006980D01*
X007780Y008380D01*
X007730Y008430D01*
X007730Y008580D01*
X007732Y008597D01*
X007736Y008614D01*
X007743Y008630D01*
X007753Y008644D01*
X007766Y008657D01*
X007780Y008667D01*
X007796Y008674D01*
X007813Y008678D01*
X007830Y008680D01*
X009380Y007180D02*
X009130Y006930D01*
X009130Y005430D01*
X009380Y005180D01*
X009880Y005180D01*
X010130Y005430D01*
X010380Y005180D01*
X010880Y005180D01*
X011130Y005430D01*
X011380Y005180D01*
X011880Y005180D01*
X012130Y005430D01*
X012130Y006930D01*
X011880Y007180D01*
X011380Y007180D01*
X011130Y006930D01*
X010880Y007180D01*
X010380Y007180D01*
X010130Y006930D01*
X009880Y007180D01*
X009380Y007180D01*
X011730Y004580D02*
X011880Y004580D01*
X011930Y004530D01*
X013330Y004530D01*
X013380Y004580D01*
X013530Y004580D01*
X013547Y004578D01*
X013564Y004574D01*
X013580Y004567D01*
X013594Y004557D01*
X013607Y004544D01*
X013617Y004530D01*
X013624Y004514D01*
X013628Y004497D01*
X013630Y004480D01*
X013630Y003880D01*
X013628Y003863D01*
X013624Y003846D01*
X013617Y003830D01*
X013607Y003816D01*
X013594Y003803D01*
X013580Y003793D01*
X013564Y003786D01*
X013547Y003782D01*
X013530Y003780D01*
X013380Y003780D01*
X013330Y003830D01*
X011930Y003830D01*
X011880Y003780D01*
X011730Y003780D01*
X011713Y003782D01*
X011696Y003786D01*
X011680Y003793D01*
X011666Y003803D01*
X011653Y003816D01*
X011643Y003830D01*
X011636Y003846D01*
X011632Y003863D01*
X011630Y003880D01*
X011630Y004480D01*
X011632Y004497D01*
X011636Y004514D01*
X011643Y004530D01*
X011653Y004544D01*
X011666Y004557D01*
X011680Y004567D01*
X011696Y004574D01*
X011713Y004578D01*
X011730Y004580D01*
X013230Y005780D02*
X013230Y005930D01*
X013280Y005980D01*
X013280Y007380D01*
X013230Y007430D01*
X013230Y007580D01*
X013232Y007597D01*
X013236Y007614D01*
X013243Y007630D01*
X013253Y007644D01*
X013266Y007657D01*
X013280Y007667D01*
X013296Y007674D01*
X013313Y007678D01*
X013330Y007680D01*
X013930Y007680D01*
X013947Y007678D01*
X013964Y007674D01*
X013980Y007667D01*
X013994Y007657D01*
X014007Y007644D01*
X014017Y007630D01*
X014024Y007614D01*
X014028Y007597D01*
X014030Y007580D01*
X014030Y007430D01*
X013980Y007380D01*
X013980Y005980D01*
X014030Y005930D01*
X014030Y005780D01*
X014028Y005763D01*
X014024Y005746D01*
X014017Y005730D01*
X014007Y005716D01*
X013994Y005703D01*
X013980Y005693D01*
X013964Y005686D01*
X013947Y005682D01*
X013930Y005680D01*
X013330Y005680D01*
X013313Y005682D01*
X013296Y005686D01*
X013280Y005693D01*
X013266Y005703D01*
X013253Y005716D01*
X013243Y005730D01*
X013236Y005746D01*
X013232Y005763D01*
X013230Y005780D01*
X014230Y005780D02*
X014230Y005930D01*
X014280Y005980D01*
X014280Y007380D01*
X014230Y007430D01*
X014230Y007580D01*
X014232Y007597D01*
X014236Y007614D01*
X014243Y007630D01*
X014253Y007644D01*
X014266Y007657D01*
X014280Y007667D01*
X014296Y007674D01*
X014313Y007678D01*
X014330Y007680D01*
X014930Y007680D01*
X014947Y007678D01*
X014964Y007674D01*
X014980Y007667D01*
X014994Y007657D01*
X015007Y007644D01*
X015017Y007630D01*
X015024Y007614D01*
X015028Y007597D01*
X015030Y007580D01*
X015030Y007430D01*
X014980Y007380D01*
X014980Y005980D01*
X015030Y005930D01*
X015030Y005780D01*
X015028Y005763D01*
X015024Y005746D01*
X015017Y005730D01*
X015007Y005716D01*
X014994Y005703D01*
X014980Y005693D01*
X014964Y005686D01*
X014947Y005682D01*
X014930Y005680D01*
X014330Y005680D01*
X014313Y005682D01*
X014296Y005686D01*
X014280Y005693D01*
X014266Y005703D01*
X014253Y005716D01*
X014243Y005730D01*
X014236Y005746D01*
X014232Y005763D01*
X014230Y005780D01*
X015230Y005780D02*
X015230Y005930D01*
X015280Y005980D01*
X015280Y007380D01*
X015230Y007430D01*
X015230Y007580D01*
X015232Y007597D01*
X015236Y007614D01*
X015243Y007630D01*
X015253Y007644D01*
X015266Y007657D01*
X015280Y007667D01*
X015296Y007674D01*
X015313Y007678D01*
X015330Y007680D01*
X015930Y007680D01*
X015947Y007678D01*
X015964Y007674D01*
X015980Y007667D01*
X015994Y007657D01*
X016007Y007644D01*
X016017Y007630D01*
X016024Y007614D01*
X016028Y007597D01*
X016030Y007580D01*
X016030Y007430D01*
X015980Y007380D01*
X015980Y005980D01*
X016030Y005930D01*
X016030Y005780D01*
X016028Y005763D01*
X016024Y005746D01*
X016017Y005730D01*
X016007Y005716D01*
X015994Y005703D01*
X015980Y005693D01*
X015964Y005686D01*
X015947Y005682D01*
X015930Y005680D01*
X015330Y005680D01*
X015313Y005682D01*
X015296Y005686D01*
X015280Y005693D01*
X015266Y005703D01*
X015253Y005716D01*
X015243Y005730D01*
X015236Y005746D01*
X015232Y005763D01*
X015230Y005780D01*
X016430Y007180D02*
X016430Y004180D01*
X017830Y004180D01*
X017830Y007180D01*
X016430Y007180D01*
X017833Y008510D02*
X017726Y008617D01*
X017726Y009044D01*
X017833Y009151D01*
X018047Y009151D01*
X018153Y009044D01*
X018153Y008617D01*
X018047Y008510D01*
X017833Y008510D01*
X018371Y008617D02*
X018371Y009151D01*
X018371Y008617D02*
X018478Y008510D01*
X018691Y008510D01*
X018798Y008617D01*
X018798Y009151D01*
X019015Y009151D02*
X019442Y009151D01*
X019229Y009151D02*
X019229Y008510D01*
X022760Y012180D02*
X025063Y012680D01*
X025063Y013180D01*
X022760Y013680D01*
X022760Y014680D02*
X025063Y015180D01*
X025063Y015680D01*
X022760Y016180D01*
X014130Y002180D02*
X014132Y002243D01*
X014138Y002305D01*
X014148Y002367D01*
X014161Y002429D01*
X014179Y002489D01*
X014200Y002548D01*
X014225Y002606D01*
X014254Y002662D01*
X014286Y002716D01*
X014321Y002768D01*
X014359Y002817D01*
X014401Y002865D01*
X014445Y002909D01*
X014493Y002951D01*
X014542Y002989D01*
X014594Y003024D01*
X014648Y003056D01*
X014704Y003085D01*
X014762Y003110D01*
X014821Y003131D01*
X014881Y003149D01*
X014943Y003162D01*
X015005Y003172D01*
X015067Y003178D01*
X015130Y003180D01*
X015193Y003178D01*
X015255Y003172D01*
X015317Y003162D01*
X015379Y003149D01*
X015439Y003131D01*
X015498Y003110D01*
X015556Y003085D01*
X015612Y003056D01*
X015666Y003024D01*
X015718Y002989D01*
X015767Y002951D01*
X015815Y002909D01*
X015859Y002865D01*
X015901Y002817D01*
X015939Y002768D01*
X015974Y002716D01*
X016006Y002662D01*
X016035Y002606D01*
X016060Y002548D01*
X016081Y002489D01*
X016099Y002429D01*
X016112Y002367D01*
X016122Y002305D01*
X016128Y002243D01*
X016130Y002180D01*
X016128Y002117D01*
X016122Y002055D01*
X016112Y001993D01*
X016099Y001931D01*
X016081Y001871D01*
X016060Y001812D01*
X016035Y001754D01*
X016006Y001698D01*
X015974Y001644D01*
X015939Y001592D01*
X015901Y001543D01*
X015859Y001495D01*
X015815Y001451D01*
X015767Y001409D01*
X015718Y001371D01*
X015666Y001336D01*
X015612Y001304D01*
X015556Y001275D01*
X015498Y001250D01*
X015439Y001229D01*
X015379Y001211D01*
X015317Y001198D01*
X015255Y001188D01*
X015193Y001182D01*
X015130Y001180D01*
X015067Y001182D01*
X015005Y001188D01*
X014943Y001198D01*
X014881Y001211D01*
X014821Y001229D01*
X014762Y001250D01*
X014704Y001275D01*
X014648Y001304D01*
X014594Y001336D01*
X014542Y001371D01*
X014493Y001409D01*
X014445Y001451D01*
X014401Y001495D01*
X014359Y001543D01*
X014321Y001592D01*
X014286Y001644D01*
X014254Y001698D01*
X014225Y001754D01*
X014200Y001812D01*
X014179Y001871D01*
X014161Y001931D01*
X014148Y001993D01*
X014138Y002055D01*
X014132Y002117D01*
X014130Y002180D01*
X010130Y001930D02*
X009880Y001680D01*
X009380Y001680D01*
X009130Y001930D01*
X008880Y001680D01*
X008380Y001680D01*
X008130Y001930D01*
X007880Y001680D01*
X007380Y001680D01*
X007130Y001930D01*
X006880Y001680D01*
X006380Y001680D01*
X006130Y001930D01*
X005880Y001680D01*
X005380Y001680D01*
X005130Y001930D01*
X005130Y002430D01*
X005380Y002680D01*
X005880Y002680D01*
X006130Y002430D01*
X006380Y002680D01*
X006880Y002680D01*
X007130Y002430D01*
X007380Y002680D01*
X007880Y002680D01*
X008130Y002430D01*
X008380Y002680D01*
X008880Y002680D01*
X009130Y002430D01*
X009380Y002680D01*
X009880Y002680D01*
X010130Y002430D01*
X010130Y001930D01*
X006930Y015680D02*
X006330Y015680D01*
X006313Y015682D01*
X006296Y015686D01*
X006280Y015693D01*
X006266Y015703D01*
X006253Y015716D01*
X006243Y015730D01*
X006236Y015746D01*
X006232Y015763D01*
X006230Y015780D01*
X006230Y015930D01*
X006280Y015980D01*
X006280Y017380D01*
X006230Y017430D01*
X006230Y017580D01*
X006232Y017597D01*
X006236Y017614D01*
X006243Y017630D01*
X006253Y017644D01*
X006266Y017657D01*
X006280Y017667D01*
X006296Y017674D01*
X006313Y017678D01*
X006330Y017680D01*
X006930Y017680D01*
X006947Y017678D01*
X006964Y017674D01*
X006980Y017667D01*
X006994Y017657D01*
X007007Y017644D01*
X007017Y017630D01*
X007024Y017614D01*
X007028Y017597D01*
X007030Y017580D01*
X007030Y017430D01*
X006980Y017380D01*
X006980Y015980D01*
X007030Y015930D01*
X007030Y015780D01*
X007028Y015763D01*
X007024Y015746D01*
X007017Y015730D01*
X007007Y015716D01*
X006994Y015703D01*
X006980Y015693D01*
X006964Y015686D01*
X006947Y015682D01*
X006930Y015680D01*
X007830Y018680D02*
X008430Y018680D01*
X008447Y018682D01*
X008464Y018686D01*
X008480Y018693D01*
X008494Y018703D01*
X008507Y018716D01*
X008517Y018730D01*
X008524Y018746D01*
X008528Y018763D01*
X008530Y018780D01*
X008530Y018930D01*
X008480Y018980D01*
X008480Y020380D01*
X008530Y020430D01*
X008530Y020580D01*
X008528Y020597D01*
X008524Y020614D01*
X008517Y020630D01*
X008507Y020644D01*
X008494Y020657D01*
X008480Y020667D01*
X008464Y020674D01*
X008447Y020678D01*
X008430Y020680D01*
X007830Y020680D01*
X007813Y020678D01*
X007796Y020674D01*
X007780Y020667D01*
X007766Y020657D01*
X007753Y020644D01*
X007743Y020630D01*
X007736Y020614D01*
X007732Y020597D01*
X007730Y020580D01*
X007730Y020430D01*
X007780Y020380D01*
X007780Y018980D01*
X007730Y018930D01*
X007730Y018780D01*
X007732Y018763D01*
X007736Y018746D01*
X007743Y018730D01*
X007753Y018716D01*
X007766Y018703D01*
X007780Y018693D01*
X007796Y018686D01*
X007813Y018682D01*
X007830Y018680D01*
X006930Y021680D02*
X006330Y021680D01*
X006313Y021682D01*
X006296Y021686D01*
X006280Y021693D01*
X006266Y021703D01*
X006253Y021716D01*
X006243Y021730D01*
X006236Y021746D01*
X006232Y021763D01*
X006230Y021780D01*
X006230Y021930D01*
X006280Y021980D01*
X006280Y023380D01*
X006230Y023430D01*
X006230Y023580D01*
X006232Y023597D01*
X006236Y023614D01*
X006243Y023630D01*
X006253Y023644D01*
X006266Y023657D01*
X006280Y023667D01*
X006296Y023674D01*
X006313Y023678D01*
X006330Y023680D01*
X006930Y023680D01*
X006947Y023678D01*
X006964Y023674D01*
X006980Y023667D01*
X006994Y023657D01*
X007007Y023644D01*
X007017Y023630D01*
X007024Y023614D01*
X007028Y023597D01*
X007030Y023580D01*
X007030Y023430D01*
X006980Y023380D01*
X006980Y021980D01*
X007030Y021930D01*
X007030Y021780D01*
X007028Y021763D01*
X007024Y021746D01*
X007017Y021730D01*
X007007Y021716D01*
X006994Y021703D01*
X006980Y021693D01*
X006964Y021686D01*
X006947Y021682D01*
X006930Y021680D01*
D11*
X013600Y023463D02*
X013600Y023644D01*
X013660Y023704D01*
X013780Y023704D01*
X013840Y023644D01*
X013840Y023463D01*
X013960Y023463D02*
X013600Y023463D01*
X013840Y023583D02*
X013960Y023704D01*
X013960Y023832D02*
X013900Y023832D01*
X013660Y024072D01*
X013600Y024072D01*
X013600Y023832D01*
X016306Y014660D02*
X016459Y014660D01*
X016536Y014584D01*
X016536Y014277D01*
X016459Y014200D01*
X016306Y014200D01*
X016229Y014277D01*
X016229Y014584D01*
X016306Y014660D01*
X016383Y014353D02*
X016536Y014200D01*
X016690Y014200D02*
X016997Y014200D01*
X016843Y014200D02*
X016843Y014660D01*
X016690Y014507D01*
X021650Y014391D02*
X021650Y014237D01*
X021726Y014160D01*
X021650Y014007D02*
X022110Y013700D01*
X022110Y014007D02*
X021650Y013700D01*
X022110Y014160D02*
X021803Y014467D01*
X021726Y014467D01*
X021650Y014391D01*
X022110Y014467D02*
X022110Y014160D01*
X022166Y009060D02*
X022166Y008713D01*
X022339Y008540D01*
X022513Y008713D01*
X022513Y009060D01*
X021997Y009060D02*
X021650Y009060D01*
X021650Y008800D01*
X021823Y008887D01*
X021910Y008887D01*
X021997Y008800D01*
X021997Y008627D01*
X021910Y008540D01*
X021737Y008540D01*
X021650Y008627D01*
X021737Y008220D02*
X021650Y008134D01*
X021650Y007787D01*
X021737Y007700D01*
X021910Y007700D01*
X021997Y007787D01*
X021997Y008134D01*
X021910Y008220D01*
X021737Y008220D01*
X022166Y008220D02*
X022166Y007787D01*
X022252Y007700D01*
X022426Y007700D01*
X022513Y007787D01*
X022513Y008220D01*
X022681Y008220D02*
X023028Y008220D01*
X022855Y008220D02*
X022855Y007700D01*
X022881Y003860D02*
X022881Y003513D01*
X023055Y003340D01*
X023228Y003513D01*
X023228Y003860D01*
X022713Y003774D02*
X022626Y003860D01*
X022452Y003860D01*
X022366Y003774D01*
X022713Y003774D02*
X022713Y003687D01*
X022366Y003340D01*
X022713Y003340D01*
X022541Y003020D02*
X022541Y002500D01*
X022194Y003020D01*
X022194Y002500D01*
X022023Y002500D02*
X021850Y002500D01*
X021937Y002500D02*
X021937Y003020D01*
X022023Y003020D02*
X021850Y003020D01*
X021850Y003340D02*
X022197Y003340D01*
X022023Y003340D02*
X022023Y003860D01*
X021850Y003687D01*
X021850Y019500D02*
X022197Y019500D01*
X022366Y019500D02*
X022713Y019847D01*
X022713Y019934D01*
X022626Y020020D01*
X022452Y020020D01*
X022366Y019934D01*
X022366Y019500D02*
X022713Y019500D01*
X022881Y019673D02*
X023055Y019500D01*
X023228Y019673D01*
X023228Y020020D01*
X022881Y020020D02*
X022881Y019673D01*
X022023Y019500D02*
X022023Y020020D01*
X021850Y019847D01*
D12*
X016928Y029695D02*
X016928Y029985D01*
X016734Y029985D02*
X016734Y029695D01*
X016633Y029695D02*
X016536Y029792D01*
X016585Y029792D02*
X016440Y029792D01*
X016440Y029695D02*
X016440Y029985D01*
X016585Y029985D01*
X016633Y029937D01*
X016633Y029840D01*
X016585Y029792D01*
X016734Y029985D02*
X016928Y029695D01*
X016338Y029743D02*
X016338Y029937D01*
X016290Y029985D01*
X016145Y029985D01*
X016145Y029695D01*
X016290Y029695D01*
X016338Y029743D01*
X015228Y029743D02*
X015228Y029840D01*
X015131Y029840D01*
X015034Y029743D02*
X015083Y029695D01*
X015179Y029695D01*
X015228Y029743D01*
X015034Y029743D02*
X015034Y029937D01*
X015083Y029985D01*
X015179Y029985D01*
X015228Y029937D01*
X014933Y029985D02*
X014933Y029695D01*
X014933Y029840D02*
X014740Y029840D01*
X014638Y029743D02*
X014590Y029695D01*
X014493Y029695D01*
X014445Y029743D01*
X014445Y029937D01*
X014493Y029985D01*
X014590Y029985D01*
X014638Y029937D01*
X014740Y029985D02*
X014740Y029695D01*
X009028Y030195D02*
X009028Y030388D01*
X008931Y030485D01*
X008834Y030388D01*
X008834Y030195D01*
X008733Y030243D02*
X008685Y030195D01*
X008540Y030195D01*
X008540Y030485D01*
X008685Y030485D01*
X008733Y030437D01*
X008733Y030243D01*
X008834Y030340D02*
X009028Y030340D01*
X008438Y030292D02*
X008438Y030243D01*
X008390Y030195D01*
X008293Y030195D01*
X008245Y030243D01*
X008293Y030340D02*
X008390Y030340D01*
X008438Y030292D01*
X008438Y030437D02*
X008390Y030485D01*
X008293Y030485D01*
X008245Y030437D01*
X008245Y030388D01*
X008293Y030340D01*
X007928Y030195D02*
X007734Y030195D01*
X007734Y030485D01*
X007633Y030437D02*
X007585Y030485D01*
X007488Y030485D01*
X007440Y030437D01*
X007440Y030243D01*
X007488Y030195D01*
X007585Y030195D01*
X007633Y030243D01*
X007338Y030243D02*
X007290Y030195D01*
X007193Y030195D01*
X007145Y030243D01*
X007193Y030340D02*
X007290Y030340D01*
X007338Y030292D01*
X007338Y030243D01*
X007193Y030340D02*
X007145Y030388D01*
X007145Y030437D01*
X007193Y030485D01*
X007290Y030485D01*
X007338Y030437D01*
X006588Y030437D02*
X006540Y030485D01*
X006443Y030485D01*
X006395Y030437D01*
X006395Y030243D01*
X006443Y030195D01*
X006540Y030195D01*
X006588Y030243D01*
X006588Y030340D01*
X006492Y030340D01*
X004815Y031043D02*
X004767Y030995D01*
X004815Y031043D02*
X004815Y031140D01*
X004767Y031188D01*
X004670Y031188D01*
X004622Y031140D01*
X004622Y031092D01*
X004670Y030995D01*
X004525Y030995D01*
X004525Y031188D01*
X004525Y031290D02*
X004718Y031290D01*
X004815Y031386D01*
X004718Y031483D01*
X004525Y031483D01*
X006345Y025997D02*
X006635Y025997D01*
X006635Y025900D02*
X006635Y026094D01*
X006442Y025900D02*
X006345Y025997D01*
X006393Y025799D02*
X006345Y025751D01*
X006345Y025654D01*
X006393Y025606D01*
X006442Y025606D01*
X006490Y025654D01*
X006490Y025751D01*
X006538Y025799D01*
X006587Y025799D01*
X006635Y025751D01*
X006635Y025654D01*
X006587Y025606D01*
X006587Y025505D02*
X006345Y025505D01*
X006345Y025311D02*
X006587Y025311D01*
X006635Y025359D01*
X006635Y025456D01*
X006587Y025505D01*
X006683Y025702D02*
X006296Y025702D01*
X006393Y020094D02*
X006345Y020045D01*
X006345Y019949D01*
X006393Y019900D01*
X006393Y019799D02*
X006345Y019751D01*
X006345Y019654D01*
X006393Y019606D01*
X006442Y019606D01*
X006490Y019654D01*
X006490Y019751D01*
X006538Y019799D01*
X006587Y019799D01*
X006635Y019751D01*
X006635Y019654D01*
X006587Y019606D01*
X006587Y019505D02*
X006345Y019505D01*
X006345Y019311D02*
X006587Y019311D01*
X006635Y019359D01*
X006635Y019456D01*
X006587Y019505D01*
X006683Y019702D02*
X006296Y019702D01*
X006635Y019900D02*
X006442Y020094D01*
X006393Y020094D01*
X006635Y020094D02*
X006635Y019900D01*
X006538Y014094D02*
X006587Y014094D01*
X006635Y014045D01*
X006635Y013949D01*
X006587Y013900D01*
X006587Y013799D02*
X006538Y013799D01*
X006490Y013751D01*
X006490Y013654D01*
X006442Y013606D01*
X006393Y013606D01*
X006345Y013654D01*
X006345Y013751D01*
X006393Y013799D01*
X006393Y013900D02*
X006345Y013949D01*
X006345Y014045D01*
X006393Y014094D01*
X006442Y014094D01*
X006490Y014045D01*
X006538Y014094D01*
X006490Y014045D02*
X006490Y013997D01*
X006587Y013799D02*
X006635Y013751D01*
X006635Y013654D01*
X006587Y013606D01*
X006587Y013505D02*
X006345Y013505D01*
X006345Y013311D02*
X006587Y013311D01*
X006635Y013359D01*
X006635Y013456D01*
X006587Y013505D01*
X006683Y013702D02*
X006296Y013702D01*
X006490Y008094D02*
X006490Y007900D01*
X006345Y008045D01*
X006635Y008045D01*
X006587Y007799D02*
X006538Y007799D01*
X006490Y007751D01*
X006490Y007654D01*
X006442Y007606D01*
X006393Y007606D01*
X006345Y007654D01*
X006345Y007751D01*
X006393Y007799D01*
X006296Y007702D02*
X006683Y007702D01*
X006635Y007654D02*
X006635Y007751D01*
X006587Y007799D01*
X006635Y007654D02*
X006587Y007606D01*
X006587Y007505D02*
X006345Y007505D01*
X006345Y007311D02*
X006587Y007311D01*
X006635Y007359D01*
X006635Y007456D01*
X006587Y007505D01*
X007845Y005094D02*
X007845Y004900D01*
X007990Y004900D01*
X007942Y004997D01*
X007942Y005045D01*
X007990Y005094D01*
X008087Y005094D01*
X008135Y005045D01*
X008135Y004949D01*
X008087Y004900D01*
X008087Y004799D02*
X008038Y004799D01*
X007990Y004751D01*
X007990Y004654D01*
X007942Y004606D01*
X007893Y004606D01*
X007845Y004654D01*
X007845Y004751D01*
X007893Y004799D01*
X007796Y004702D02*
X008183Y004702D01*
X008135Y004654D02*
X008135Y004751D01*
X008087Y004799D01*
X008135Y004654D02*
X008087Y004606D01*
X008087Y004505D02*
X007845Y004505D01*
X007845Y004311D02*
X008087Y004311D01*
X008135Y004359D01*
X008135Y004456D01*
X008087Y004505D01*
X008293Y001485D02*
X008245Y001437D01*
X008245Y001388D01*
X008293Y001340D01*
X008390Y001340D01*
X008438Y001292D01*
X008438Y001243D01*
X008390Y001195D01*
X008293Y001195D01*
X008245Y001243D01*
X008293Y001485D02*
X008390Y001485D01*
X008438Y001437D01*
X008540Y001485D02*
X008685Y001485D01*
X008733Y001437D01*
X008733Y001243D01*
X008685Y001195D01*
X008540Y001195D01*
X008540Y001485D01*
X008834Y001388D02*
X008834Y001195D01*
X008834Y001340D02*
X009028Y001340D01*
X009028Y001388D02*
X009028Y001195D01*
X009028Y001388D02*
X008931Y001485D01*
X008834Y001388D01*
X007928Y001195D02*
X007734Y001195D01*
X007734Y001485D01*
X007633Y001437D02*
X007585Y001485D01*
X007488Y001485D01*
X007440Y001437D01*
X007440Y001243D01*
X007488Y001195D01*
X007585Y001195D01*
X007633Y001243D01*
X007338Y001243D02*
X007290Y001195D01*
X007193Y001195D01*
X007145Y001243D01*
X007193Y001340D02*
X007290Y001340D01*
X007338Y001292D01*
X007338Y001243D01*
X007193Y001340D02*
X007145Y001388D01*
X007145Y001437D01*
X007193Y001485D01*
X007290Y001485D01*
X007338Y001437D01*
X006588Y001437D02*
X006540Y001485D01*
X006443Y001485D01*
X006395Y001437D01*
X006395Y001243D01*
X006443Y001195D01*
X006540Y001195D01*
X006588Y001243D01*
X006588Y001340D01*
X006492Y001340D01*
X004915Y001943D02*
X004867Y001895D01*
X004915Y001943D02*
X004915Y002040D01*
X004867Y002088D01*
X004770Y002088D01*
X004722Y002040D01*
X004722Y001992D01*
X004770Y001895D01*
X004625Y001895D01*
X004625Y002088D01*
X004625Y002190D02*
X004818Y002190D01*
X004915Y002286D01*
X004818Y002383D01*
X004625Y002383D01*
D13*
X002880Y004655D03*
X002880Y010555D03*
X002880Y016455D03*
X002880Y022355D03*
X002880Y028255D03*
D14*
X004534Y028031D02*
X004534Y027821D01*
X004640Y027716D01*
X005060Y027716D01*
X005165Y027821D01*
X005165Y028031D01*
X005060Y028136D01*
X005165Y028360D02*
X005165Y028781D01*
X005165Y028571D02*
X004534Y028571D01*
X004745Y028360D01*
X004640Y028136D02*
X004534Y028031D01*
X004640Y022881D02*
X004534Y022776D01*
X004534Y022566D01*
X004640Y022460D01*
X004640Y022236D02*
X004534Y022131D01*
X004534Y021921D01*
X004640Y021816D01*
X005060Y021816D01*
X005165Y021921D01*
X005165Y022131D01*
X005060Y022236D01*
X005165Y022460D02*
X004745Y022881D01*
X004640Y022881D01*
X005165Y022881D02*
X005165Y022460D01*
X005060Y016981D02*
X004955Y016981D01*
X004850Y016876D01*
X004850Y016771D01*
X004850Y016876D02*
X004745Y016981D01*
X004640Y016981D01*
X004534Y016876D01*
X004534Y016666D01*
X004640Y016560D01*
X004640Y016336D02*
X004534Y016231D01*
X004534Y016021D01*
X004640Y015916D01*
X005060Y015916D01*
X005165Y016021D01*
X005165Y016231D01*
X005060Y016336D01*
X005060Y016560D02*
X005165Y016666D01*
X005165Y016876D01*
X005060Y016981D01*
X004850Y011081D02*
X004850Y010660D01*
X004534Y010976D01*
X005165Y010976D01*
X005060Y010436D02*
X005165Y010331D01*
X005165Y010121D01*
X005060Y010016D01*
X004640Y010016D01*
X004534Y010121D01*
X004534Y010331D01*
X004640Y010436D01*
X004534Y005681D02*
X004534Y005260D01*
X004850Y005260D01*
X004745Y005471D01*
X004745Y005576D01*
X004850Y005681D01*
X005060Y005681D01*
X005165Y005576D01*
X005165Y005366D01*
X005060Y005260D01*
X005060Y005036D02*
X005165Y004931D01*
X005165Y004721D01*
X005060Y004616D01*
X004640Y004616D01*
X004534Y004721D01*
X004534Y004931D01*
X004640Y005036D01*
X020454Y004260D02*
X020741Y004260D01*
X020670Y004475D02*
X020670Y004044D01*
X020454Y004260D02*
X020670Y004475D01*
X020648Y007024D02*
X020648Y007455D01*
X020504Y007311D01*
X020504Y007024D02*
X020791Y007024D01*
X020670Y021044D02*
X020670Y021475D01*
X020454Y021260D01*
X020741Y021260D01*
X020791Y024024D02*
X020504Y024024D01*
X020648Y024024D02*
X020648Y024455D01*
X020504Y024311D01*
D15*
X019130Y016255D03*
X018130Y016255D03*
X018130Y014105D03*
X019130Y014105D03*
X019130Y012755D03*
X018130Y012755D03*
X018130Y010605D03*
X019130Y010605D03*
X015630Y009605D03*
X014630Y009605D03*
X013630Y009605D03*
X013630Y007755D03*
X014630Y007755D03*
X015630Y007755D03*
X015630Y005605D03*
X014630Y005605D03*
X013630Y005605D03*
X013630Y011755D03*
X014630Y011755D03*
X015630Y011755D03*
X008130Y008755D03*
X006630Y009605D03*
X006630Y011755D03*
X006630Y015605D03*
X006630Y017755D03*
X008130Y018605D03*
X008130Y020755D03*
X006630Y021605D03*
X006630Y023755D03*
X006830Y027305D03*
X006830Y029455D03*
X008130Y006605D03*
D16*
X008150Y006748D02*
X008150Y006858D01*
X008187Y006895D01*
X008260Y006895D01*
X008297Y006858D01*
X008297Y006748D01*
X008370Y006748D02*
X008150Y006748D01*
X008297Y006821D02*
X008370Y006895D01*
X008333Y006969D02*
X008370Y007006D01*
X008370Y007079D01*
X008333Y007116D01*
X008260Y007116D01*
X008223Y007079D01*
X008223Y007042D01*
X008260Y006969D01*
X008150Y006969D01*
X008150Y007116D01*
X006870Y009748D02*
X006650Y009748D01*
X006650Y009858D01*
X006687Y009895D01*
X006760Y009895D01*
X006797Y009858D01*
X006797Y009748D01*
X006797Y009821D02*
X006870Y009895D01*
X006760Y009969D02*
X006760Y010116D01*
X006870Y010079D02*
X006650Y010079D01*
X006760Y009969D01*
X006797Y015748D02*
X006797Y015858D01*
X006760Y015895D01*
X006687Y015895D01*
X006650Y015858D01*
X006650Y015748D01*
X006870Y015748D01*
X006797Y015821D02*
X006870Y015895D01*
X006833Y015969D02*
X006870Y016006D01*
X006870Y016079D01*
X006833Y016116D01*
X006797Y016116D01*
X006760Y016079D01*
X006760Y016042D01*
X006760Y016079D02*
X006723Y016116D01*
X006687Y016116D01*
X006650Y016079D01*
X006650Y016006D01*
X006687Y015969D01*
X008090Y019990D02*
X008090Y020100D01*
X008127Y020137D01*
X008200Y020137D01*
X008237Y020100D01*
X008237Y019990D01*
X008310Y019990D02*
X008090Y019990D01*
X008237Y020063D02*
X008310Y020137D01*
X008310Y020211D02*
X008310Y020358D01*
X008310Y020284D02*
X008090Y020284D01*
X008163Y020211D01*
X008127Y020432D02*
X008090Y020469D01*
X008090Y020542D01*
X008127Y020579D01*
X008273Y020432D01*
X008310Y020469D01*
X008310Y020542D01*
X008273Y020579D01*
X008127Y020579D01*
X008127Y020432D02*
X008273Y020432D01*
X006870Y021748D02*
X006650Y021748D01*
X006650Y021858D01*
X006687Y021895D01*
X006760Y021895D01*
X006797Y021858D01*
X006797Y021748D01*
X006797Y021821D02*
X006870Y021895D01*
X006870Y021969D02*
X006723Y022116D01*
X006687Y022116D01*
X006650Y022079D01*
X006650Y022006D01*
X006687Y021969D01*
X006870Y021969D02*
X006870Y022116D01*
X006850Y027448D02*
X006850Y027558D01*
X006887Y027595D01*
X006960Y027595D01*
X006997Y027558D01*
X006997Y027448D01*
X007070Y027448D02*
X006850Y027448D01*
X006997Y027521D02*
X007070Y027595D01*
X007070Y027669D02*
X007070Y027816D01*
X007070Y027742D02*
X006850Y027742D01*
X006923Y027669D01*
X017730Y027780D02*
X018530Y027780D01*
X017730Y027780D01*
X018130Y027680D02*
X018130Y026680D01*
X017730Y026580D02*
X018530Y026580D01*
X017730Y026580D01*
X017730Y026080D02*
X018530Y026080D01*
X018530Y027080D02*
X017730Y027080D01*
X017730Y027280D02*
X018530Y027280D01*
X018530Y028280D02*
X017730Y028280D01*
X017890Y016279D02*
X017890Y016132D01*
X018000Y016132D01*
X017963Y016205D01*
X017963Y016242D01*
X018000Y016279D01*
X018073Y016279D01*
X018110Y016242D01*
X018110Y016169D01*
X018073Y016132D01*
X018110Y016058D02*
X018110Y015911D01*
X018110Y015984D02*
X017890Y015984D01*
X017963Y015911D01*
X017927Y015837D02*
X018000Y015837D01*
X018037Y015800D01*
X018037Y015690D01*
X018110Y015690D02*
X017890Y015690D01*
X017890Y015800D01*
X017927Y015837D01*
X018037Y015763D02*
X018110Y015837D01*
X018890Y015779D02*
X018927Y015705D01*
X019000Y015632D01*
X019000Y015742D01*
X019037Y015779D01*
X019073Y015779D01*
X019110Y015742D01*
X019110Y015669D01*
X019073Y015632D01*
X019000Y015632D01*
X019110Y015558D02*
X019110Y015411D01*
X019110Y015484D02*
X018890Y015484D01*
X018963Y015411D01*
X018927Y015337D02*
X019000Y015337D01*
X019037Y015300D01*
X019037Y015190D01*
X019110Y015190D02*
X018890Y015190D01*
X018890Y015300D01*
X018927Y015337D01*
X019037Y015263D02*
X019110Y015337D01*
X019073Y012779D02*
X019110Y012742D01*
X019110Y012669D01*
X019073Y012632D01*
X019037Y012632D01*
X019000Y012669D01*
X019000Y012742D01*
X019037Y012779D01*
X019073Y012779D01*
X019000Y012742D02*
X018963Y012779D01*
X018927Y012779D01*
X018890Y012742D01*
X018890Y012669D01*
X018927Y012632D01*
X018963Y012632D01*
X019000Y012669D01*
X019110Y012558D02*
X019110Y012411D01*
X019110Y012484D02*
X018890Y012484D01*
X018963Y012411D01*
X018927Y012337D02*
X019000Y012337D01*
X019037Y012300D01*
X019037Y012190D01*
X019110Y012190D02*
X018890Y012190D01*
X018890Y012300D01*
X018927Y012337D01*
X019037Y012263D02*
X019110Y012337D01*
X018110Y012337D02*
X018037Y012263D01*
X018037Y012300D02*
X018037Y012190D01*
X018110Y012190D02*
X017890Y012190D01*
X017890Y012300D01*
X017927Y012337D01*
X018000Y012337D01*
X018037Y012300D01*
X018110Y012411D02*
X018110Y012558D01*
X018110Y012484D02*
X017890Y012484D01*
X017963Y012411D01*
X017890Y012632D02*
X017890Y012779D01*
X017927Y012779D01*
X018073Y012632D01*
X018110Y012632D01*
X015610Y010742D02*
X015610Y010669D01*
X015573Y010632D01*
X015610Y010558D02*
X015610Y010411D01*
X015610Y010484D02*
X015390Y010484D01*
X015463Y010411D01*
X015427Y010337D02*
X015500Y010337D01*
X015537Y010300D01*
X015537Y010190D01*
X015610Y010190D02*
X015390Y010190D01*
X015390Y010300D01*
X015427Y010337D01*
X015537Y010263D02*
X015610Y010337D01*
X015427Y010632D02*
X015390Y010669D01*
X015390Y010742D01*
X015427Y010779D01*
X015463Y010779D01*
X015500Y010742D01*
X015537Y010779D01*
X015573Y010779D01*
X015610Y010742D01*
X015500Y010742D02*
X015500Y010705D01*
X014870Y010079D02*
X014833Y010116D01*
X014687Y010116D01*
X014650Y010079D01*
X014650Y010006D01*
X014687Y009969D01*
X014723Y009969D01*
X014760Y010006D01*
X014760Y010116D01*
X014870Y010079D02*
X014870Y010006D01*
X014833Y009969D01*
X014870Y009895D02*
X014797Y009821D01*
X014797Y009858D02*
X014797Y009748D01*
X014870Y009748D02*
X014650Y009748D01*
X014650Y009858D01*
X014687Y009895D01*
X014760Y009895D01*
X014797Y009858D01*
X013610Y011190D02*
X013390Y011190D01*
X013390Y011300D01*
X013427Y011337D01*
X013500Y011337D01*
X013537Y011300D01*
X013537Y011190D01*
X013537Y011263D02*
X013610Y011337D01*
X013573Y011411D02*
X013537Y011411D01*
X013500Y011448D01*
X013500Y011521D01*
X013537Y011558D01*
X013573Y011558D01*
X013610Y011521D01*
X013610Y011448D01*
X013573Y011411D01*
X013500Y011448D02*
X013463Y011411D01*
X013427Y011411D01*
X013390Y011448D01*
X013390Y011521D01*
X013427Y011558D01*
X013463Y011558D01*
X013500Y011521D01*
X014820Y007579D02*
X014820Y007432D01*
X014820Y007505D02*
X014600Y007505D01*
X014673Y007432D01*
X014820Y007358D02*
X014820Y007211D01*
X014820Y007284D02*
X014600Y007284D01*
X014673Y007211D01*
X014637Y007137D02*
X014710Y007137D01*
X014747Y007100D01*
X014747Y006990D01*
X014820Y006990D02*
X014600Y006990D01*
X014600Y007100D01*
X014637Y007137D01*
X014747Y007063D02*
X014820Y007137D01*
X015590Y007084D02*
X015810Y007084D01*
X015810Y007011D02*
X015810Y007158D01*
X015700Y007232D02*
X015700Y007379D01*
X015810Y007342D02*
X015590Y007342D01*
X015700Y007232D01*
X015590Y007084D02*
X015663Y007011D01*
X015627Y006937D02*
X015700Y006937D01*
X015737Y006900D01*
X015737Y006790D01*
X015810Y006790D02*
X015590Y006790D01*
X015590Y006900D01*
X015627Y006937D01*
X015737Y006863D02*
X015810Y006937D01*
X013710Y006316D02*
X013710Y006169D01*
X013563Y006316D01*
X013527Y006316D01*
X013490Y006279D01*
X013490Y006206D01*
X013527Y006169D01*
X013490Y006021D02*
X013710Y006021D01*
X013710Y005948D02*
X013710Y006095D01*
X013563Y005948D02*
X013490Y006021D01*
X013527Y005874D02*
X013600Y005874D01*
X013637Y005837D01*
X013637Y005727D01*
X013710Y005727D02*
X013490Y005727D01*
X013490Y005837D01*
X013527Y005874D01*
X013637Y005800D02*
X013710Y005874D01*
X012066Y004160D02*
X011992Y004123D01*
X011919Y004050D01*
X012029Y004050D01*
X012066Y004013D01*
X012066Y003977D01*
X012029Y003940D01*
X011956Y003940D01*
X011919Y003977D01*
X011919Y004050D01*
X011845Y004050D02*
X011808Y004013D01*
X011698Y004013D01*
X011698Y003940D02*
X011698Y004160D01*
X011808Y004160D01*
X011845Y004123D01*
X011845Y004050D01*
X011771Y004013D02*
X011845Y003940D01*
D17*
X012330Y006455D02*
X012480Y006455D01*
X012555Y006530D01*
X012555Y006605D01*
X012480Y006680D01*
X012255Y006680D01*
X012255Y006530D01*
X012330Y006455D01*
X012255Y006680D02*
X012405Y006830D01*
X012555Y006905D01*
X010376Y007430D02*
X010301Y007355D01*
X010151Y007355D01*
X010076Y007430D01*
X009916Y007505D02*
X009916Y007805D01*
X010076Y007730D02*
X010151Y007805D01*
X010301Y007805D01*
X010376Y007730D01*
X010376Y007655D01*
X010301Y007580D01*
X010376Y007505D01*
X010376Y007430D01*
X010301Y007580D02*
X010226Y007580D01*
X009916Y007505D02*
X009766Y007355D01*
X009615Y007505D01*
X009615Y007805D01*
X009455Y007730D02*
X009380Y007805D01*
X009230Y007805D01*
X009155Y007730D01*
X009155Y007655D01*
X009230Y007580D01*
X009380Y007580D01*
X009455Y007505D01*
X009455Y007430D01*
X009380Y007355D01*
X009230Y007355D01*
X009155Y007430D01*
X009555Y005005D02*
X009555Y004555D01*
X009405Y004555D02*
X009705Y004555D01*
X009405Y004855D02*
X009555Y005005D01*
X009405Y003305D02*
X009405Y003080D01*
X009555Y003155D01*
X009630Y003155D01*
X009705Y003080D01*
X009705Y002930D01*
X009630Y002855D01*
X009480Y002855D01*
X009405Y002930D01*
X009405Y003305D02*
X009705Y003305D01*
X006692Y003726D02*
X006636Y003753D01*
X006582Y003784D01*
X006530Y003818D01*
X006480Y003855D01*
X006480Y005505D01*
X007080Y005233D02*
X007080Y005127D01*
X007577Y005630D02*
X007634Y005601D01*
X007690Y005568D01*
X007743Y005533D01*
X007794Y005493D01*
X007842Y005451D01*
X007888Y005406D01*
X007931Y005359D01*
X007971Y005309D01*
X008008Y005256D01*
X008041Y005201D01*
X008072Y005145D01*
X008098Y005086D01*
X008121Y005026D01*
X008141Y004965D01*
X008156Y004903D01*
X008168Y004840D01*
X008176Y004776D01*
X008180Y004712D01*
X008180Y004648D01*
X008176Y004584D01*
X008168Y004520D01*
X008156Y004457D01*
X008141Y004395D01*
X008121Y004334D01*
X008098Y004274D01*
X008072Y004215D01*
X008041Y004159D01*
X008008Y004104D01*
X007971Y004051D01*
X007931Y004001D01*
X007888Y003954D01*
X007842Y003909D01*
X007794Y003867D01*
X007743Y003827D01*
X007690Y003792D01*
X007634Y003759D01*
X007577Y003730D01*
X007080Y004127D02*
X007080Y004233D01*
X006480Y005505D02*
X006528Y005540D01*
X006578Y005573D01*
X006629Y005603D01*
X006683Y005630D01*
X005580Y007127D02*
X005580Y007233D01*
X006077Y006730D02*
X006134Y006759D01*
X006190Y006792D01*
X006243Y006827D01*
X006294Y006867D01*
X006342Y006909D01*
X006388Y006954D01*
X006431Y007001D01*
X006471Y007051D01*
X006508Y007104D01*
X006541Y007159D01*
X006572Y007215D01*
X006598Y007274D01*
X006621Y007334D01*
X006641Y007395D01*
X006656Y007457D01*
X006668Y007520D01*
X006676Y007584D01*
X006680Y007648D01*
X006680Y007712D01*
X006676Y007776D01*
X006668Y007840D01*
X006656Y007903D01*
X006641Y007965D01*
X006621Y008026D01*
X006598Y008086D01*
X006572Y008145D01*
X006541Y008201D01*
X006508Y008256D01*
X006471Y008309D01*
X006431Y008359D01*
X006388Y008406D01*
X006342Y008451D01*
X006294Y008493D01*
X006243Y008533D01*
X006190Y008568D01*
X006134Y008601D01*
X006077Y008630D01*
X005580Y008233D02*
X005580Y008127D01*
X004980Y006855D02*
X005030Y006818D01*
X005082Y006784D01*
X005136Y006753D01*
X005192Y006726D01*
X004980Y006855D02*
X004980Y008505D01*
X005028Y008540D01*
X005078Y008573D01*
X005129Y008603D01*
X005183Y008630D01*
X004980Y012855D02*
X004980Y014505D01*
X005580Y014233D02*
X005580Y014127D01*
X006077Y014630D02*
X006134Y014601D01*
X006190Y014568D01*
X006243Y014533D01*
X006294Y014493D01*
X006342Y014451D01*
X006388Y014406D01*
X006431Y014359D01*
X006471Y014309D01*
X006508Y014256D01*
X006541Y014201D01*
X006572Y014145D01*
X006598Y014086D01*
X006621Y014026D01*
X006641Y013965D01*
X006656Y013903D01*
X006668Y013840D01*
X006676Y013776D01*
X006680Y013712D01*
X006680Y013648D01*
X006676Y013584D01*
X006668Y013520D01*
X006656Y013457D01*
X006641Y013395D01*
X006621Y013334D01*
X006598Y013274D01*
X006572Y013215D01*
X006541Y013159D01*
X006508Y013104D01*
X006471Y013051D01*
X006431Y013001D01*
X006388Y012954D01*
X006342Y012909D01*
X006294Y012867D01*
X006243Y012827D01*
X006190Y012792D01*
X006134Y012759D01*
X006077Y012730D01*
X005580Y013127D02*
X005580Y013233D01*
X005192Y012726D02*
X005136Y012753D01*
X005082Y012784D01*
X005030Y012818D01*
X004980Y012855D01*
X004980Y014505D02*
X005028Y014540D01*
X005078Y014573D01*
X005129Y014603D01*
X005183Y014630D01*
X004980Y018855D02*
X004980Y020505D01*
X005580Y020233D02*
X005580Y020127D01*
X006077Y020630D02*
X006134Y020601D01*
X006190Y020568D01*
X006243Y020533D01*
X006294Y020493D01*
X006342Y020451D01*
X006388Y020406D01*
X006431Y020359D01*
X006471Y020309D01*
X006508Y020256D01*
X006541Y020201D01*
X006572Y020145D01*
X006598Y020086D01*
X006621Y020026D01*
X006641Y019965D01*
X006656Y019903D01*
X006668Y019840D01*
X006676Y019776D01*
X006680Y019712D01*
X006680Y019648D01*
X006676Y019584D01*
X006668Y019520D01*
X006656Y019457D01*
X006641Y019395D01*
X006621Y019334D01*
X006598Y019274D01*
X006572Y019215D01*
X006541Y019159D01*
X006508Y019104D01*
X006471Y019051D01*
X006431Y019001D01*
X006388Y018954D01*
X006342Y018909D01*
X006294Y018867D01*
X006243Y018827D01*
X006190Y018792D01*
X006134Y018759D01*
X006077Y018730D01*
X005580Y019127D02*
X005580Y019233D01*
X005192Y018726D02*
X005136Y018753D01*
X005082Y018784D01*
X005030Y018818D01*
X004980Y018855D01*
X004980Y020505D02*
X005028Y020540D01*
X005078Y020573D01*
X005129Y020603D01*
X005183Y020630D01*
X004980Y024855D02*
X004980Y026505D01*
X005580Y026233D02*
X005580Y026127D01*
X006077Y026630D02*
X006134Y026601D01*
X006190Y026568D01*
X006243Y026533D01*
X006294Y026493D01*
X006342Y026451D01*
X006388Y026406D01*
X006431Y026359D01*
X006471Y026309D01*
X006508Y026256D01*
X006541Y026201D01*
X006572Y026145D01*
X006598Y026086D01*
X006621Y026026D01*
X006641Y025965D01*
X006656Y025903D01*
X006668Y025840D01*
X006676Y025776D01*
X006680Y025712D01*
X006680Y025648D01*
X006676Y025584D01*
X006668Y025520D01*
X006656Y025457D01*
X006641Y025395D01*
X006621Y025334D01*
X006598Y025274D01*
X006572Y025215D01*
X006541Y025159D01*
X006508Y025104D01*
X006471Y025051D01*
X006431Y025001D01*
X006388Y024954D01*
X006342Y024909D01*
X006294Y024867D01*
X006243Y024827D01*
X006190Y024792D01*
X006134Y024759D01*
X006077Y024730D01*
X005580Y025127D02*
X005580Y025233D01*
X005192Y024726D02*
X005136Y024753D01*
X005082Y024784D01*
X005030Y024818D01*
X004980Y024855D01*
X004980Y026505D02*
X005028Y026540D01*
X005078Y026573D01*
X005129Y026603D01*
X005183Y026630D01*
X005405Y030055D02*
X005705Y030055D01*
X005555Y030055D02*
X005555Y030505D01*
X005405Y030355D01*
X005380Y031855D02*
X005230Y031855D01*
X005155Y031930D01*
X005230Y032080D02*
X005380Y032080D01*
X005455Y032005D01*
X005455Y031930D01*
X005380Y031855D01*
X005230Y032080D02*
X005155Y032155D01*
X005155Y032230D01*
X005230Y032305D01*
X005380Y032305D01*
X005455Y032230D01*
X005615Y032305D02*
X005615Y032005D01*
X005766Y031855D01*
X005916Y032005D01*
X005916Y032305D01*
X006076Y032155D02*
X006226Y032305D01*
X006226Y031855D01*
X006076Y031855D02*
X006376Y031855D01*
X009405Y031930D02*
X009480Y031855D01*
X009630Y031855D01*
X009705Y031930D01*
X009705Y032080D01*
X009630Y032155D01*
X009555Y032155D01*
X009405Y032080D01*
X009405Y032305D01*
X009705Y032305D01*
X010855Y027966D02*
X010855Y027665D01*
X010855Y027816D02*
X010405Y027816D01*
X010555Y027665D01*
X010480Y027505D02*
X010405Y027430D01*
X010405Y027205D01*
X010855Y027205D01*
X010855Y027430D01*
X010780Y027505D01*
X010480Y027505D01*
X008355Y027391D02*
X008355Y027240D01*
X008280Y027165D01*
X008130Y027165D02*
X008055Y027316D01*
X008055Y027391D01*
X008130Y027466D01*
X008280Y027466D01*
X008355Y027391D01*
X008130Y027165D02*
X007905Y027165D01*
X007905Y027466D01*
X007980Y027005D02*
X007905Y026930D01*
X007905Y026705D01*
X008355Y026705D01*
X008355Y026930D01*
X008280Y027005D01*
X007980Y027005D01*
X009130Y021730D02*
X009130Y017630D01*
X013130Y017630D01*
X013130Y021730D01*
X009130Y021730D01*
X011580Y021680D02*
X012730Y021630D01*
X012830Y021530D01*
X012830Y017830D01*
X012730Y017730D01*
X011580Y017680D01*
X011880Y016805D02*
X011805Y016730D01*
X011805Y016430D01*
X011880Y016355D01*
X012030Y016355D01*
X012105Y016430D01*
X012265Y016430D02*
X012265Y016505D01*
X012340Y016580D01*
X012491Y016580D01*
X012566Y016505D01*
X012566Y016430D01*
X012491Y016355D01*
X012340Y016355D01*
X012265Y016430D01*
X012340Y016580D02*
X012265Y016655D01*
X012265Y016730D01*
X012340Y016805D01*
X012491Y016805D01*
X012566Y016730D01*
X012566Y016655D01*
X012491Y016580D01*
X012105Y016730D02*
X012030Y016805D01*
X011880Y016805D01*
X011066Y016805D02*
X011066Y016730D01*
X010765Y016430D01*
X010765Y016355D01*
X010605Y016430D02*
X010530Y016355D01*
X010380Y016355D01*
X010305Y016430D01*
X010305Y016730D01*
X010380Y016805D01*
X010530Y016805D01*
X010605Y016730D01*
X010765Y016805D02*
X011066Y016805D01*
X010030Y018030D02*
X010030Y018680D01*
X009230Y018680D01*
X009230Y018030D01*
X010030Y018030D01*
X010030Y018043D02*
X009230Y018043D01*
X009230Y018092D02*
X010030Y018092D01*
X010030Y018140D02*
X009230Y018140D01*
X009230Y018189D02*
X010030Y018189D01*
X010030Y018237D02*
X009230Y018237D01*
X009230Y018286D02*
X010030Y018286D01*
X010030Y018334D02*
X009230Y018334D01*
X009230Y018383D02*
X010030Y018383D01*
X010030Y018431D02*
X009230Y018431D01*
X009230Y018480D02*
X010030Y018480D01*
X010030Y018528D02*
X009230Y018528D01*
X009230Y018577D02*
X010030Y018577D01*
X010030Y018625D02*
X009230Y018625D01*
X009230Y018674D02*
X010030Y018674D01*
X009566Y016805D02*
X009416Y016730D01*
X009265Y016580D01*
X009491Y016580D01*
X009566Y016505D01*
X009566Y016430D01*
X009491Y016355D01*
X009340Y016355D01*
X009265Y016430D01*
X009265Y016580D01*
X009105Y016430D02*
X009030Y016355D01*
X008880Y016355D01*
X008805Y016430D01*
X008805Y016730D01*
X008880Y016805D01*
X009030Y016805D01*
X009105Y016730D01*
X012490Y017910D02*
X012492Y017930D01*
X012498Y017948D01*
X012507Y017966D01*
X012519Y017981D01*
X012534Y017993D01*
X012552Y018002D01*
X012570Y018008D01*
X012590Y018010D01*
X012610Y018008D01*
X012628Y018002D01*
X012646Y017993D01*
X012661Y017981D01*
X012673Y017966D01*
X012682Y017948D01*
X012688Y017930D01*
X012690Y017910D01*
X012688Y017890D01*
X012682Y017872D01*
X012673Y017854D01*
X012661Y017839D01*
X012646Y017827D01*
X012628Y017818D01*
X012610Y017812D01*
X012590Y017810D01*
X012570Y017812D01*
X012552Y017818D01*
X012534Y017827D01*
X012519Y017839D01*
X012507Y017854D01*
X012498Y017872D01*
X012492Y017890D01*
X012490Y017910D01*
X013380Y016805D02*
X013305Y016730D01*
X013305Y016430D01*
X013380Y016355D01*
X013530Y016355D01*
X013605Y016430D01*
X013765Y016430D02*
X013840Y016355D01*
X013991Y016355D01*
X014066Y016430D01*
X014066Y016730D01*
X013991Y016805D01*
X013840Y016805D01*
X013765Y016730D01*
X013765Y016655D01*
X013840Y016580D01*
X014066Y016580D01*
X013605Y016730D02*
X013530Y016805D01*
X013380Y016805D01*
X009355Y010966D02*
X009355Y010665D01*
X009355Y010816D02*
X008905Y010816D01*
X009055Y010665D01*
X008905Y010505D02*
X009280Y010505D01*
X009355Y010430D01*
X009355Y010280D01*
X009280Y010205D01*
X008905Y010205D01*
X006301Y003305D02*
X006151Y003305D01*
X006076Y003230D01*
X005916Y003305D02*
X005916Y003005D01*
X005766Y002855D01*
X005615Y003005D01*
X005615Y003305D01*
X005455Y003230D02*
X005380Y003305D01*
X005230Y003305D01*
X005155Y003230D01*
X005155Y003155D01*
X005230Y003080D01*
X005380Y003080D01*
X005455Y003005D01*
X005455Y002930D01*
X005380Y002855D01*
X005230Y002855D01*
X005155Y002930D01*
X006076Y002855D02*
X006376Y003155D01*
X006376Y003230D01*
X006301Y003305D01*
X006376Y002855D02*
X006076Y002855D01*
X005555Y001505D02*
X005405Y001355D01*
X005555Y001505D02*
X005555Y001055D01*
X005405Y001055D02*
X005705Y001055D01*
X016445Y001455D02*
X016895Y001455D01*
X016895Y001755D01*
X016895Y001915D02*
X016895Y002216D01*
X016895Y002376D02*
X016895Y002601D01*
X016820Y002676D01*
X016520Y002676D01*
X016445Y002601D01*
X016445Y002376D01*
X016895Y002376D01*
X016670Y002066D02*
X016670Y001915D01*
X016445Y001915D02*
X016895Y001915D01*
X016445Y001915D02*
X016445Y002216D01*
X016595Y002836D02*
X016445Y002986D01*
X016895Y002986D01*
X016895Y002836D02*
X016895Y003136D01*
X018005Y006234D02*
X018005Y006459D01*
X018080Y006534D01*
X018380Y006534D01*
X018455Y006459D01*
X018455Y006234D01*
X018005Y006234D01*
X018080Y006695D02*
X018005Y006770D01*
X018005Y006920D01*
X018080Y006995D01*
X018155Y006995D01*
X018230Y006920D01*
X018305Y006995D01*
X018380Y006995D01*
X018455Y006920D01*
X018455Y006770D01*
X018380Y006695D01*
X018230Y006845D02*
X018230Y006920D01*
X015755Y024755D02*
X015305Y024755D01*
X015305Y024980D01*
X015380Y025055D01*
X015680Y025055D01*
X015755Y024980D01*
X015755Y024755D01*
X015755Y025215D02*
X015455Y025516D01*
X015380Y025516D01*
X015305Y025441D01*
X015305Y025290D01*
X015380Y025215D01*
X015755Y025215D02*
X015755Y025516D01*
X017055Y026205D02*
X017055Y026505D01*
X017205Y026665D02*
X017055Y026816D01*
X017505Y026816D01*
X017505Y026966D02*
X017505Y026665D01*
X017280Y026355D02*
X017280Y026205D01*
X017505Y026205D02*
X017055Y026205D01*
X016825Y030155D02*
X016712Y030155D01*
X016655Y030212D01*
X016768Y030325D02*
X016825Y030325D01*
X016882Y030268D01*
X016882Y030212D01*
X016825Y030155D01*
X016825Y030325D02*
X016882Y030382D01*
X016882Y030439D01*
X016825Y030495D01*
X016712Y030495D01*
X016655Y030439D01*
X015882Y030439D02*
X015825Y030495D01*
X015712Y030495D01*
X015655Y030439D01*
X015882Y030439D02*
X015882Y030382D01*
X015655Y030155D01*
X015882Y030155D01*
X014882Y030155D02*
X014655Y030155D01*
X014768Y030155D02*
X014768Y030495D01*
X014655Y030382D01*
X014715Y031855D02*
X014715Y032305D01*
X014941Y032305D01*
X015016Y032230D01*
X015016Y032080D01*
X014941Y032005D01*
X014715Y032005D01*
X014480Y031930D02*
X014480Y032305D01*
X014405Y032305D02*
X014555Y032305D01*
X014480Y031930D02*
X014405Y031855D01*
X014330Y031855D01*
X014255Y031930D01*
X015176Y031855D02*
X015476Y031855D01*
X015326Y031855D02*
X015326Y032305D01*
X015176Y032155D01*
D18*
X020095Y031373D02*
X020095Y030743D01*
X020095Y031373D02*
X020724Y031373D01*
X022595Y031373D02*
X025724Y031373D01*
X025724Y027987D01*
X020095Y027987D01*
X020095Y028617D01*
X020880Y027656D02*
X020880Y026530D01*
X021821Y027313D02*
X025622Y027313D01*
X025622Y025209D01*
X025622Y025208D02*
X025657Y025165D01*
X025689Y025119D01*
X025718Y025070D01*
X025743Y025020D01*
X025765Y024969D01*
X025783Y024916D01*
X025797Y024861D01*
X025808Y024806D01*
X025815Y024751D01*
X025818Y024695D01*
X025817Y024639D01*
X025812Y024583D01*
X025804Y024527D01*
X025791Y024473D01*
X025775Y024419D01*
X025756Y024367D01*
X025732Y024316D01*
X025705Y024266D01*
X025675Y024219D01*
X025642Y024174D01*
X025606Y024131D01*
X025606Y024132D02*
X025606Y024132D01*
X025606Y024132D01*
X025606Y024132D01*
X025606Y024132D01*
X025606Y024132D01*
X025606Y024132D01*
X025606Y024132D01*
X025606Y021228D01*
X025643Y021188D01*
X025677Y021146D01*
X025708Y021102D01*
X025736Y021056D01*
X025761Y021007D01*
X025782Y020957D01*
X025799Y020906D01*
X025813Y020854D01*
X025824Y020801D01*
X025830Y020747D01*
X025833Y020693D01*
X025832Y020639D01*
X025827Y020585D01*
X025818Y020531D01*
X025806Y020478D01*
X025790Y020427D01*
X025770Y020376D01*
X025747Y020327D01*
X025721Y020280D01*
X025691Y020235D01*
X025658Y020191D01*
X025622Y020151D01*
X025622Y018063D01*
X021821Y018063D01*
X021821Y017737D01*
X020880Y017737D01*
X020880Y018830D01*
X020880Y020530D02*
X020880Y020830D01*
X020880Y022530D02*
X020880Y022830D01*
X020880Y024530D02*
X020880Y024830D01*
X021821Y027313D02*
X021821Y027656D01*
X020880Y027656D01*
X025606Y024132D02*
X025606Y024132D01*
X021821Y010656D02*
X020880Y010656D01*
X020880Y009530D01*
X021821Y010313D02*
X021821Y010656D01*
X021821Y010313D02*
X025622Y010313D01*
X025622Y008209D01*
X025622Y008208D02*
X025657Y008165D01*
X025689Y008119D01*
X025718Y008070D01*
X025743Y008020D01*
X025765Y007969D01*
X025783Y007916D01*
X025797Y007861D01*
X025808Y007806D01*
X025815Y007751D01*
X025818Y007695D01*
X025817Y007639D01*
X025812Y007583D01*
X025804Y007527D01*
X025791Y007473D01*
X025775Y007419D01*
X025756Y007367D01*
X025732Y007316D01*
X025705Y007266D01*
X025675Y007219D01*
X025642Y007174D01*
X025606Y007131D01*
X025606Y007132D02*
X025606Y007132D01*
X025606Y007132D01*
X025606Y007132D01*
X025606Y007132D01*
X025606Y007132D01*
X025606Y007132D01*
X025606Y007132D01*
X025606Y004228D01*
X025643Y004188D01*
X025677Y004146D01*
X025708Y004102D01*
X025736Y004056D01*
X025761Y004007D01*
X025782Y003957D01*
X025799Y003906D01*
X025813Y003854D01*
X025824Y003801D01*
X025830Y003747D01*
X025833Y003693D01*
X025832Y003639D01*
X025827Y003585D01*
X025818Y003531D01*
X025806Y003478D01*
X025790Y003427D01*
X025770Y003376D01*
X025747Y003327D01*
X025721Y003280D01*
X025691Y003235D01*
X025658Y003191D01*
X025622Y003151D01*
X025622Y001063D01*
X021821Y001063D01*
X021821Y000737D01*
X020880Y000737D01*
X020880Y001830D01*
X020880Y003530D02*
X020880Y003830D01*
X020880Y005530D02*
X020880Y005830D01*
X020880Y007530D02*
X020880Y007830D01*
X025606Y007132D02*
X025606Y007132D01*
X016130Y002930D02*
X016130Y001430D01*
X012630Y009180D02*
X008630Y009180D01*
X008630Y009580D01*
X008630Y009780D01*
X008630Y009580D02*
X008630Y011180D01*
X012630Y011180D01*
X012630Y009180D01*
D19*
X015130Y013480D02*
X015480Y013280D01*
X016780Y013280D01*
X017130Y013480D01*
X017130Y013780D01*
X017180Y013780D01*
X017380Y013980D01*
X017380Y016130D01*
X014880Y016130D01*
X014880Y013980D01*
X015080Y013780D01*
X015130Y013780D01*
X015130Y013480D01*
X015130Y013780D02*
X017130Y013780D01*
X020012Y011267D02*
X020012Y017093D01*
X025642Y017093D01*
X025642Y011267D01*
X020012Y011267D01*
X019880Y007680D02*
X019880Y007430D01*
X020130Y007430D01*
X020130Y006930D01*
X019880Y006930D01*
X019880Y006430D01*
X020130Y006430D01*
X020130Y005930D01*
X019880Y005930D01*
X019880Y005430D01*
X020130Y005430D01*
X020130Y004930D01*
X019880Y004930D01*
X019880Y004430D01*
X020130Y004430D01*
X020130Y003930D01*
X019880Y003930D01*
X019880Y003680D01*
X021130Y003680D01*
X021130Y004030D01*
X023580Y004030D01*
X023720Y004160D01*
X024280Y004180D02*
X024480Y004280D01*
X024480Y005700D01*
X024480Y005660D02*
X024480Y007080D01*
X024280Y007180D01*
X021130Y007180D01*
X021130Y007680D01*
X019880Y007680D01*
X021130Y007330D02*
X023580Y007330D01*
X023720Y007200D01*
X024280Y004180D02*
X021130Y004180D01*
X021130Y004030D02*
X021130Y007180D01*
X016130Y002930D02*
X016087Y002984D01*
X016041Y003036D01*
X015992Y003085D01*
X015940Y003132D01*
X015886Y003175D01*
X015830Y003216D01*
X015771Y003253D01*
X015711Y003287D01*
X015648Y003317D01*
X015585Y003344D01*
X015519Y003368D01*
X015453Y003388D01*
X015385Y003404D01*
X015317Y003416D01*
X015248Y003424D01*
X015179Y003429D01*
X015109Y003430D01*
X015040Y003427D01*
X014971Y003420D01*
X014903Y003409D01*
X014835Y003395D01*
X014768Y003376D01*
X014702Y003354D01*
X014637Y003329D01*
X014574Y003300D01*
X014513Y003267D01*
X014454Y003231D01*
X014397Y003192D01*
X014341Y003150D01*
X014289Y003105D01*
X014239Y003057D01*
X014192Y003006D01*
X014147Y002952D01*
X014106Y002897D01*
X014068Y002839D01*
X014033Y002779D01*
X014001Y002717D01*
X013973Y002654D01*
X013949Y002589D01*
X013928Y002523D01*
X013911Y002455D01*
X013897Y002387D01*
X013888Y002318D01*
X013882Y002249D01*
X013880Y002180D01*
X013882Y002111D01*
X013888Y002042D01*
X013897Y001973D01*
X013911Y001905D01*
X013928Y001837D01*
X013949Y001771D01*
X013973Y001706D01*
X014001Y001643D01*
X014033Y001581D01*
X014068Y001521D01*
X014106Y001463D01*
X014147Y001408D01*
X014192Y001354D01*
X014239Y001303D01*
X014289Y001255D01*
X014341Y001210D01*
X014397Y001168D01*
X014454Y001129D01*
X014513Y001093D01*
X014574Y001060D01*
X014637Y001031D01*
X014702Y001006D01*
X014768Y000984D01*
X014835Y000965D01*
X014903Y000951D01*
X014971Y000940D01*
X015040Y000933D01*
X015109Y000930D01*
X015179Y000931D01*
X015248Y000936D01*
X015317Y000944D01*
X015385Y000956D01*
X015453Y000972D01*
X015519Y000992D01*
X015585Y001016D01*
X015648Y001043D01*
X015711Y001073D01*
X015771Y001107D01*
X015830Y001144D01*
X015886Y001185D01*
X015940Y001228D01*
X015992Y001275D01*
X016041Y001324D01*
X016087Y001376D01*
X016130Y001430D01*
X008847Y009680D02*
X008849Y009713D01*
X008855Y009746D01*
X008865Y009779D01*
X008878Y009809D01*
X008895Y009838D01*
X008916Y009865D01*
X008939Y009889D01*
X008965Y009910D01*
X008993Y009928D01*
X009024Y009942D01*
X009055Y009953D01*
X009088Y009960D01*
X009122Y009963D01*
X009155Y009962D01*
X009188Y009957D01*
X009221Y009948D01*
X009252Y009935D01*
X009281Y009919D01*
X009308Y009900D01*
X009333Y009877D01*
X009355Y009852D01*
X009374Y009824D01*
X009389Y009794D01*
X009401Y009763D01*
X009409Y009730D01*
X009413Y009697D01*
X009413Y009663D01*
X009409Y009630D01*
X009401Y009597D01*
X009389Y009566D01*
X009374Y009536D01*
X009355Y009508D01*
X009333Y009483D01*
X009308Y009460D01*
X009281Y009441D01*
X009252Y009425D01*
X009221Y009412D01*
X009188Y009403D01*
X009155Y009398D01*
X009122Y009397D01*
X009088Y009400D01*
X009055Y009407D01*
X009024Y009418D01*
X008993Y009432D01*
X008965Y009450D01*
X008939Y009471D01*
X008916Y009495D01*
X008895Y009522D01*
X008878Y009551D01*
X008865Y009581D01*
X008855Y009614D01*
X008849Y009647D01*
X008847Y009680D01*
X008430Y011080D02*
X008130Y011080D01*
X007830Y011080D01*
X007830Y011280D02*
X008130Y011280D01*
X008430Y011280D01*
X019880Y020680D02*
X021130Y020680D01*
X021130Y021030D01*
X023580Y021030D01*
X023720Y021160D01*
X024280Y021180D02*
X024480Y021280D01*
X024480Y022700D01*
X024480Y022660D02*
X024480Y024080D01*
X024280Y024180D01*
X021130Y024180D01*
X021130Y024680D01*
X019880Y024680D01*
X019880Y024430D01*
X020130Y024430D01*
X020130Y023930D01*
X019880Y023930D01*
X019880Y023430D01*
X020130Y023430D01*
X020130Y022930D01*
X019880Y022930D01*
X019880Y022430D01*
X020130Y022430D01*
X020130Y021930D01*
X019880Y021930D01*
X019880Y021430D01*
X020130Y021430D01*
X020130Y020930D01*
X019880Y020930D01*
X019880Y020680D01*
X021130Y021030D02*
X021130Y024180D01*
X021130Y024330D02*
X023580Y024330D01*
X023720Y024200D01*
X024280Y021180D02*
X021130Y021180D01*
D20*
X013705Y004180D03*
X011555Y004180D03*
D21*
X014130Y021550D03*
X014130Y028810D03*
D22*
X011130Y025180D03*
X008630Y024680D03*
D23*
X008630Y024005D03*
X011130Y024505D03*
X008630Y028355D03*
X011130Y028855D03*
D24*
X018130Y028750D03*
X018130Y025610D03*
D25*
X013880Y014800D02*
X013630Y014800D01*
X013380Y014800D01*
X013380Y014550D02*
X013630Y014550D01*
X013880Y014550D01*
X012380Y014550D02*
X012130Y014550D01*
X011880Y014550D01*
X011880Y014800D02*
X012130Y014800D01*
X012380Y014800D01*
X010880Y014800D02*
X010630Y014800D01*
X010380Y014800D01*
X010380Y014550D02*
X010630Y014550D01*
X010880Y014550D01*
X009380Y014550D02*
X009130Y014550D01*
X008880Y014550D01*
X008880Y014800D02*
X009130Y014800D01*
X009380Y014800D01*
D26*
X015230Y017080D02*
X015230Y017380D01*
X016130Y017380D02*
X016130Y017080D01*
X017030Y017080D02*
X017030Y017380D01*
D27*
X017030Y016930D03*
X016130Y016930D03*
X015230Y016930D03*
D28*
X015230Y016480D03*
X016130Y016480D03*
X017030Y016480D03*
D29*
X011280Y019680D03*
D30*
X011530Y017955D03*
X011530Y021405D03*
D31*
X011530Y020180D03*
X011530Y019180D03*
D32*
X016630Y025105D03*
X017130Y006755D03*
D33*
X017130Y007455D03*
X017130Y003905D03*
X016630Y024405D03*
X016630Y027955D03*
M02*
