G75*
%MOIN*%
%OFA0B0*%
%FSLAX24Y24*%
%IPPOS*%
%LPD*%
%AMOC8*
5,1,8,0,0,1.08239X$1,22.5*
%
%ADD10C,0.0060*%
%ADD11C,0.0030*%
%ADD12R,0.0250X0.1500*%
%ADD13C,0.0070*%
%ADD14R,0.0150X0.0200*%
%ADD15C,0.0020*%
%ADD16C,0.0050*%
%ADD17C,0.0080*%
%ADD18C,0.0100*%
%ADD19R,0.0320X0.0760*%
%ADD20C,0.0040*%
%ADD21R,0.2200X0.0300*%
%ADD22R,0.0500X0.0350*%
%ADD23R,0.0140X0.0240*%
%ADD24C,0.0120*%
%ADD25R,0.0250X0.1400*%
%ADD26R,0.0550X0.0300*%
%ADD27C,0.0350*%
%ADD28R,0.0440X0.0300*%
%ADD29R,0.0340X0.0600*%
%ADD30R,0.0200X0.0150*%
%ADD31C,0.0010*%
D10*
X003050Y003691D02*
X003650Y003691D01*
X003350Y003391D02*
X003350Y003991D01*
X005200Y003691D02*
X005650Y003691D01*
X005650Y002941D01*
X005900Y002941D01*
X005900Y004441D01*
X005650Y004441D01*
X005650Y003691D01*
X002500Y003691D02*
X002502Y003809D01*
X002508Y003927D01*
X002518Y004045D01*
X002532Y004162D01*
X002550Y004279D01*
X002572Y004396D01*
X002597Y004511D01*
X002627Y004625D01*
X002661Y004739D01*
X002698Y004851D01*
X002739Y004962D01*
X002784Y005071D01*
X002832Y005179D01*
X002884Y005285D01*
X002940Y005390D01*
X002999Y005492D01*
X003061Y005592D01*
X003127Y005690D01*
X003196Y005786D01*
X003269Y005880D01*
X003344Y005971D01*
X003423Y006059D01*
X003504Y006145D01*
X003589Y006228D01*
X003676Y006308D01*
X003765Y006385D01*
X003858Y006459D01*
X003952Y006529D01*
X004049Y006597D01*
X004149Y006661D01*
X004250Y006722D01*
X004353Y006779D01*
X004459Y006833D01*
X004566Y006884D01*
X004674Y006930D01*
X004784Y006973D01*
X004896Y007012D01*
X005009Y007048D01*
X005123Y007079D01*
X005238Y007107D01*
X005353Y007131D01*
X005470Y007151D01*
X005587Y007167D01*
X005705Y007179D01*
X005823Y007187D01*
X005941Y007191D01*
X006059Y007191D01*
X006177Y007187D01*
X006295Y007179D01*
X006413Y007167D01*
X006530Y007151D01*
X006647Y007131D01*
X006762Y007107D01*
X006877Y007079D01*
X006991Y007048D01*
X007104Y007012D01*
X007216Y006973D01*
X007326Y006930D01*
X007434Y006884D01*
X007541Y006833D01*
X007647Y006779D01*
X007750Y006722D01*
X007851Y006661D01*
X007951Y006597D01*
X008048Y006529D01*
X008142Y006459D01*
X008235Y006385D01*
X008324Y006308D01*
X008411Y006228D01*
X008496Y006145D01*
X008577Y006059D01*
X008656Y005971D01*
X008731Y005880D01*
X008804Y005786D01*
X008873Y005690D01*
X008939Y005592D01*
X009001Y005492D01*
X009060Y005390D01*
X009116Y005285D01*
X009168Y005179D01*
X009216Y005071D01*
X009261Y004962D01*
X009302Y004851D01*
X009339Y004739D01*
X009373Y004625D01*
X009403Y004511D01*
X009428Y004396D01*
X009450Y004279D01*
X009468Y004162D01*
X009482Y004045D01*
X009492Y003927D01*
X009498Y003809D01*
X009500Y003691D01*
X009498Y003573D01*
X009492Y003455D01*
X009482Y003337D01*
X009468Y003220D01*
X009450Y003103D01*
X009428Y002986D01*
X009403Y002871D01*
X009373Y002757D01*
X009339Y002643D01*
X009302Y002531D01*
X009261Y002420D01*
X009216Y002311D01*
X009168Y002203D01*
X009116Y002097D01*
X009060Y001992D01*
X009001Y001890D01*
X008939Y001790D01*
X008873Y001692D01*
X008804Y001596D01*
X008731Y001502D01*
X008656Y001411D01*
X008577Y001323D01*
X008496Y001237D01*
X008411Y001154D01*
X008324Y001074D01*
X008235Y000997D01*
X008142Y000923D01*
X008048Y000853D01*
X007951Y000785D01*
X007851Y000721D01*
X007750Y000660D01*
X007647Y000603D01*
X007541Y000549D01*
X007434Y000498D01*
X007326Y000452D01*
X007216Y000409D01*
X007104Y000370D01*
X006991Y000334D01*
X006877Y000303D01*
X006762Y000275D01*
X006647Y000251D01*
X006530Y000231D01*
X006413Y000215D01*
X006295Y000203D01*
X006177Y000195D01*
X006059Y000191D01*
X005941Y000191D01*
X005823Y000195D01*
X005705Y000203D01*
X005587Y000215D01*
X005470Y000231D01*
X005353Y000251D01*
X005238Y000275D01*
X005123Y000303D01*
X005009Y000334D01*
X004896Y000370D01*
X004784Y000409D01*
X004674Y000452D01*
X004566Y000498D01*
X004459Y000549D01*
X004353Y000603D01*
X004250Y000660D01*
X004149Y000721D01*
X004049Y000785D01*
X003952Y000853D01*
X003858Y000923D01*
X003765Y000997D01*
X003676Y001074D01*
X003589Y001154D01*
X003504Y001237D01*
X003423Y001323D01*
X003344Y001411D01*
X003269Y001502D01*
X003196Y001596D01*
X003127Y001692D01*
X003061Y001790D01*
X002999Y001890D01*
X002940Y001992D01*
X002884Y002097D01*
X002832Y002203D01*
X002784Y002311D01*
X002739Y002420D01*
X002698Y002531D01*
X002661Y002643D01*
X002627Y002757D01*
X002597Y002871D01*
X002572Y002986D01*
X002550Y003103D01*
X002532Y003220D01*
X002518Y003337D01*
X002508Y003455D01*
X002502Y003573D01*
X002500Y003691D01*
X001750Y007791D02*
X001600Y007791D01*
X001583Y007793D01*
X001566Y007797D01*
X001550Y007804D01*
X001536Y007814D01*
X001523Y007827D01*
X001513Y007841D01*
X001506Y007857D01*
X001502Y007874D01*
X001500Y007891D01*
X001500Y008491D01*
X001502Y008508D01*
X001506Y008525D01*
X001513Y008541D01*
X001523Y008555D01*
X001536Y008568D01*
X001550Y008578D01*
X001566Y008585D01*
X001583Y008589D01*
X001600Y008591D01*
X001750Y008591D01*
X001800Y008541D01*
X003200Y008541D01*
X003250Y008591D01*
X003400Y008591D01*
X003417Y008589D01*
X003434Y008585D01*
X003450Y008578D01*
X003464Y008568D01*
X003477Y008555D01*
X003487Y008541D01*
X003494Y008525D01*
X003498Y008508D01*
X003500Y008491D01*
X003500Y007891D01*
X003498Y007874D01*
X003494Y007857D01*
X003487Y007841D01*
X003477Y007827D01*
X003464Y007814D01*
X003450Y007804D01*
X003434Y007797D01*
X003417Y007793D01*
X003400Y007791D01*
X003250Y007791D01*
X003200Y007841D01*
X001800Y007841D01*
X001750Y007791D01*
X001750Y008791D02*
X001600Y008791D01*
X001583Y008793D01*
X001566Y008797D01*
X001550Y008804D01*
X001536Y008814D01*
X001523Y008827D01*
X001513Y008841D01*
X001506Y008857D01*
X001502Y008874D01*
X001500Y008891D01*
X001500Y009491D01*
X001502Y009508D01*
X001506Y009525D01*
X001513Y009541D01*
X001523Y009555D01*
X001536Y009568D01*
X001550Y009578D01*
X001566Y009585D01*
X001583Y009589D01*
X001600Y009591D01*
X001750Y009591D01*
X001800Y009541D01*
X003200Y009541D01*
X003250Y009591D01*
X003400Y009591D01*
X003417Y009589D01*
X003434Y009585D01*
X003450Y009578D01*
X003464Y009568D01*
X003477Y009555D01*
X003487Y009541D01*
X003494Y009525D01*
X003498Y009508D01*
X003500Y009491D01*
X003500Y008891D01*
X003498Y008874D01*
X003494Y008857D01*
X003487Y008841D01*
X003477Y008827D01*
X003464Y008814D01*
X003450Y008804D01*
X003434Y008797D01*
X003417Y008793D01*
X003400Y008791D01*
X003250Y008791D01*
X003200Y008841D01*
X001800Y008841D01*
X001750Y008791D01*
X001000Y011191D02*
X001002Y011254D01*
X001008Y011316D01*
X001018Y011378D01*
X001031Y011440D01*
X001049Y011500D01*
X001070Y011559D01*
X001095Y011617D01*
X001124Y011673D01*
X001156Y011727D01*
X001191Y011779D01*
X001229Y011828D01*
X001271Y011876D01*
X001315Y011920D01*
X001363Y011962D01*
X001412Y012000D01*
X001464Y012035D01*
X001518Y012067D01*
X001574Y012096D01*
X001632Y012121D01*
X001691Y012142D01*
X001751Y012160D01*
X001813Y012173D01*
X001875Y012183D01*
X001937Y012189D01*
X002000Y012191D01*
X002063Y012189D01*
X002125Y012183D01*
X002187Y012173D01*
X002249Y012160D01*
X002309Y012142D01*
X002368Y012121D01*
X002426Y012096D01*
X002482Y012067D01*
X002536Y012035D01*
X002588Y012000D01*
X002637Y011962D01*
X002685Y011920D01*
X002729Y011876D01*
X002771Y011828D01*
X002809Y011779D01*
X002844Y011727D01*
X002876Y011673D01*
X002905Y011617D01*
X002930Y011559D01*
X002951Y011500D01*
X002969Y011440D01*
X002982Y011378D01*
X002992Y011316D01*
X002998Y011254D01*
X003000Y011191D01*
X002998Y011128D01*
X002992Y011066D01*
X002982Y011004D01*
X002969Y010942D01*
X002951Y010882D01*
X002930Y010823D01*
X002905Y010765D01*
X002876Y010709D01*
X002844Y010655D01*
X002809Y010603D01*
X002771Y010554D01*
X002729Y010506D01*
X002685Y010462D01*
X002637Y010420D01*
X002588Y010382D01*
X002536Y010347D01*
X002482Y010315D01*
X002426Y010286D01*
X002368Y010261D01*
X002309Y010240D01*
X002249Y010222D01*
X002187Y010209D01*
X002125Y010199D01*
X002063Y010193D01*
X002000Y010191D01*
X001937Y010193D01*
X001875Y010199D01*
X001813Y010209D01*
X001751Y010222D01*
X001691Y010240D01*
X001632Y010261D01*
X001574Y010286D01*
X001518Y010315D01*
X001464Y010347D01*
X001412Y010382D01*
X001363Y010420D01*
X001315Y010462D01*
X001271Y010506D01*
X001229Y010554D01*
X001191Y010603D01*
X001156Y010655D01*
X001124Y010709D01*
X001095Y010765D01*
X001070Y010823D01*
X001049Y010882D01*
X001031Y010942D01*
X001018Y011004D01*
X001008Y011066D01*
X001002Y011128D01*
X001000Y011191D01*
X001000Y014191D02*
X001002Y014254D01*
X001008Y014316D01*
X001018Y014378D01*
X001031Y014440D01*
X001049Y014500D01*
X001070Y014559D01*
X001095Y014617D01*
X001124Y014673D01*
X001156Y014727D01*
X001191Y014779D01*
X001229Y014828D01*
X001271Y014876D01*
X001315Y014920D01*
X001363Y014962D01*
X001412Y015000D01*
X001464Y015035D01*
X001518Y015067D01*
X001574Y015096D01*
X001632Y015121D01*
X001691Y015142D01*
X001751Y015160D01*
X001813Y015173D01*
X001875Y015183D01*
X001937Y015189D01*
X002000Y015191D01*
X002063Y015189D01*
X002125Y015183D01*
X002187Y015173D01*
X002249Y015160D01*
X002309Y015142D01*
X002368Y015121D01*
X002426Y015096D01*
X002482Y015067D01*
X002536Y015035D01*
X002588Y015000D01*
X002637Y014962D01*
X002685Y014920D01*
X002729Y014876D01*
X002771Y014828D01*
X002809Y014779D01*
X002844Y014727D01*
X002876Y014673D01*
X002905Y014617D01*
X002930Y014559D01*
X002951Y014500D01*
X002969Y014440D01*
X002982Y014378D01*
X002992Y014316D01*
X002998Y014254D01*
X003000Y014191D01*
X002998Y014128D01*
X002992Y014066D01*
X002982Y014004D01*
X002969Y013942D01*
X002951Y013882D01*
X002930Y013823D01*
X002905Y013765D01*
X002876Y013709D01*
X002844Y013655D01*
X002809Y013603D01*
X002771Y013554D01*
X002729Y013506D01*
X002685Y013462D01*
X002637Y013420D01*
X002588Y013382D01*
X002536Y013347D01*
X002482Y013315D01*
X002426Y013286D01*
X002368Y013261D01*
X002309Y013240D01*
X002249Y013222D01*
X002187Y013209D01*
X002125Y013199D01*
X002063Y013193D01*
X002000Y013191D01*
X001937Y013193D01*
X001875Y013199D01*
X001813Y013209D01*
X001751Y013222D01*
X001691Y013240D01*
X001632Y013261D01*
X001574Y013286D01*
X001518Y013315D01*
X001464Y013347D01*
X001412Y013382D01*
X001363Y013420D01*
X001315Y013462D01*
X001271Y013506D01*
X001229Y013554D01*
X001191Y013603D01*
X001156Y013655D01*
X001124Y013709D01*
X001095Y013765D01*
X001070Y013823D01*
X001049Y013882D01*
X001031Y013942D01*
X001018Y014004D01*
X001008Y014066D01*
X001002Y014128D01*
X001000Y014191D01*
X001600Y015791D02*
X001750Y015791D01*
X001800Y015841D01*
X003200Y015841D01*
X003250Y015791D01*
X003400Y015791D01*
X003417Y015793D01*
X003434Y015797D01*
X003450Y015804D01*
X003464Y015814D01*
X003477Y015827D01*
X003487Y015841D01*
X003494Y015857D01*
X003498Y015874D01*
X003500Y015891D01*
X003500Y016491D01*
X003498Y016508D01*
X003494Y016525D01*
X003487Y016541D01*
X003477Y016555D01*
X003464Y016568D01*
X003450Y016578D01*
X003434Y016585D01*
X003417Y016589D01*
X003400Y016591D01*
X003250Y016591D01*
X003200Y016541D01*
X001800Y016541D01*
X001750Y016591D01*
X001600Y016591D01*
X001583Y016589D01*
X001566Y016585D01*
X001550Y016578D01*
X001536Y016568D01*
X001523Y016555D01*
X001513Y016541D01*
X001506Y016525D01*
X001502Y016508D01*
X001500Y016491D01*
X001500Y015891D01*
X001502Y015874D01*
X001506Y015857D01*
X001513Y015841D01*
X001523Y015827D01*
X001536Y015814D01*
X001550Y015804D01*
X001566Y015797D01*
X001583Y015793D01*
X001600Y015791D01*
X001750Y017191D02*
X001250Y017191D01*
X001000Y017441D01*
X001000Y017941D01*
X001250Y018191D01*
X001000Y018441D01*
X001000Y018941D01*
X001250Y019191D01*
X001000Y019441D01*
X001000Y019941D01*
X001250Y020191D01*
X001000Y020441D01*
X001000Y020941D01*
X001250Y021191D01*
X001000Y021441D01*
X001000Y021941D01*
X001250Y022191D01*
X001750Y022191D01*
X002000Y021941D01*
X002000Y021441D01*
X001750Y021191D01*
X002000Y020941D01*
X002000Y020441D01*
X001750Y020191D01*
X002000Y019941D01*
X002000Y019441D01*
X001750Y019191D01*
X002000Y018941D01*
X002000Y018441D01*
X001750Y018191D01*
X002000Y017941D01*
X002000Y017441D01*
X001750Y017191D01*
X003500Y016941D02*
X003500Y018441D01*
X003750Y018691D01*
X004250Y018691D01*
X004500Y018441D01*
X004750Y018691D01*
X005250Y018691D01*
X005500Y018441D01*
X005750Y018691D01*
X006250Y018691D01*
X006500Y018441D01*
X006500Y016941D01*
X006250Y016691D01*
X005750Y016691D01*
X005500Y016941D01*
X005250Y016691D01*
X004750Y016691D01*
X004500Y016941D01*
X004250Y016691D01*
X003750Y016691D01*
X003500Y016941D01*
X004600Y014591D02*
X004750Y014591D01*
X004800Y014541D01*
X006200Y014541D01*
X006250Y014591D01*
X006400Y014591D01*
X006417Y014589D01*
X006434Y014585D01*
X006450Y014578D01*
X006464Y014568D01*
X006477Y014555D01*
X006487Y014541D01*
X006494Y014525D01*
X006498Y014508D01*
X006500Y014491D01*
X006500Y013891D01*
X006498Y013874D01*
X006494Y013857D01*
X006487Y013841D01*
X006477Y013827D01*
X006464Y013814D01*
X006450Y013804D01*
X006434Y013797D01*
X006417Y013793D01*
X006400Y013791D01*
X006250Y013791D01*
X006200Y013841D01*
X004800Y013841D01*
X004750Y013791D01*
X004600Y013791D01*
X004583Y013793D01*
X004566Y013797D01*
X004550Y013804D01*
X004536Y013814D01*
X004523Y013827D01*
X004513Y013841D01*
X004506Y013857D01*
X004502Y013874D01*
X004500Y013891D01*
X004500Y014491D01*
X004502Y014508D01*
X004506Y014525D01*
X004513Y014541D01*
X004523Y014555D01*
X004536Y014568D01*
X004550Y014578D01*
X004566Y014585D01*
X004583Y014589D01*
X004600Y014591D01*
X006600Y012591D02*
X006600Y012441D01*
X006650Y012391D01*
X006650Y010991D01*
X006600Y010941D01*
X006600Y010791D01*
X006602Y010774D01*
X006606Y010757D01*
X006613Y010741D01*
X006623Y010727D01*
X006636Y010714D01*
X006650Y010704D01*
X006666Y010697D01*
X006683Y010693D01*
X006700Y010691D01*
X007300Y010691D01*
X007317Y010693D01*
X007334Y010697D01*
X007350Y010704D01*
X007364Y010714D01*
X007377Y010727D01*
X007387Y010741D01*
X007394Y010757D01*
X007398Y010774D01*
X007400Y010791D01*
X007400Y010941D01*
X007350Y010991D01*
X007350Y012391D01*
X007400Y012441D01*
X007400Y012591D01*
X007398Y012608D01*
X007394Y012625D01*
X007387Y012641D01*
X007377Y012655D01*
X007364Y012668D01*
X007350Y012678D01*
X007334Y012685D01*
X007317Y012689D01*
X007300Y012691D01*
X006700Y012691D01*
X006683Y012689D01*
X006666Y012685D01*
X006650Y012678D01*
X006636Y012668D01*
X006623Y012655D01*
X006613Y012641D01*
X006606Y012625D01*
X006602Y012608D01*
X006600Y012591D01*
X006250Y009591D02*
X006100Y009591D01*
X006083Y009589D01*
X006066Y009585D01*
X006050Y009578D01*
X006036Y009568D01*
X006023Y009555D01*
X006013Y009541D01*
X006006Y009525D01*
X006002Y009508D01*
X006000Y009491D01*
X006000Y008891D01*
X006002Y008874D01*
X006006Y008857D01*
X006013Y008841D01*
X006023Y008827D01*
X006036Y008814D01*
X006050Y008804D01*
X006066Y008797D01*
X006083Y008793D01*
X006100Y008791D01*
X006250Y008791D01*
X006300Y008841D01*
X007700Y008841D01*
X007750Y008791D01*
X007900Y008791D01*
X007917Y008793D01*
X007934Y008797D01*
X007950Y008804D01*
X007964Y008814D01*
X007977Y008827D01*
X007987Y008841D01*
X007994Y008857D01*
X007998Y008874D01*
X008000Y008891D01*
X008000Y009491D01*
X007998Y009508D01*
X007994Y009525D01*
X007987Y009541D01*
X007977Y009555D01*
X007964Y009568D01*
X007950Y009578D01*
X007934Y009585D01*
X007917Y009589D01*
X007900Y009591D01*
X007750Y009591D01*
X007700Y009541D01*
X006300Y009541D01*
X006250Y009591D01*
X006250Y008591D02*
X006300Y008541D01*
X007700Y008541D01*
X007750Y008591D01*
X007900Y008591D01*
X007917Y008589D01*
X007934Y008585D01*
X007950Y008578D01*
X007964Y008568D01*
X007977Y008555D01*
X007987Y008541D01*
X007994Y008525D01*
X007998Y008508D01*
X008000Y008491D01*
X008000Y007891D01*
X007998Y007874D01*
X007994Y007857D01*
X007987Y007841D01*
X007977Y007827D01*
X007964Y007814D01*
X007950Y007804D01*
X007934Y007797D01*
X007917Y007793D01*
X007900Y007791D01*
X007750Y007791D01*
X007700Y007841D01*
X006300Y007841D01*
X006250Y007791D01*
X006100Y007791D01*
X006083Y007793D01*
X006066Y007797D01*
X006050Y007804D01*
X006036Y007814D01*
X006023Y007827D01*
X006013Y007841D01*
X006006Y007857D01*
X006002Y007874D01*
X006000Y007891D01*
X006000Y008491D01*
X006002Y008508D01*
X006006Y008525D01*
X006013Y008541D01*
X006023Y008555D01*
X006036Y008568D01*
X006050Y008578D01*
X006066Y008585D01*
X006083Y008589D01*
X006100Y008591D01*
X006250Y008591D01*
X010000Y008891D02*
X010000Y009491D01*
X010002Y009508D01*
X010006Y009525D01*
X010013Y009541D01*
X010023Y009555D01*
X010036Y009568D01*
X010050Y009578D01*
X010066Y009585D01*
X010083Y009589D01*
X010100Y009591D01*
X010250Y009591D01*
X010300Y009541D01*
X011700Y009541D01*
X011750Y009591D01*
X011900Y009591D01*
X011917Y009589D01*
X011934Y009585D01*
X011950Y009578D01*
X011964Y009568D01*
X011977Y009555D01*
X011987Y009541D01*
X011994Y009525D01*
X011998Y009508D01*
X012000Y009491D01*
X012000Y008891D01*
X011998Y008874D01*
X011994Y008857D01*
X011987Y008841D01*
X011977Y008827D01*
X011964Y008814D01*
X011950Y008804D01*
X011934Y008797D01*
X011917Y008793D01*
X011900Y008791D01*
X011750Y008791D01*
X011700Y008841D01*
X010300Y008841D01*
X010250Y008791D01*
X010100Y008791D01*
X010083Y008793D01*
X010066Y008797D01*
X010050Y008804D01*
X010036Y008814D01*
X010023Y008827D01*
X010013Y008841D01*
X010006Y008857D01*
X010002Y008874D01*
X010000Y008891D01*
X011600Y011241D02*
X012400Y011241D01*
X012417Y011243D01*
X012434Y011247D01*
X012450Y011254D01*
X012464Y011264D01*
X012477Y011277D01*
X012487Y011291D01*
X012494Y011307D01*
X012498Y011324D01*
X012500Y011341D01*
X012500Y014041D01*
X012498Y014058D01*
X012494Y014075D01*
X012487Y014091D01*
X012477Y014105D01*
X012464Y014118D01*
X012450Y014128D01*
X012434Y014135D01*
X012417Y014139D01*
X012400Y014141D01*
X011600Y014141D01*
X011583Y014139D01*
X011566Y014135D01*
X011550Y014128D01*
X011536Y014118D01*
X011523Y014105D01*
X011513Y014091D01*
X011506Y014075D01*
X011502Y014058D01*
X011500Y014041D01*
X011500Y011341D01*
X011502Y011324D01*
X011506Y011307D01*
X011513Y011291D01*
X011523Y011277D01*
X011536Y011264D01*
X011550Y011254D01*
X011566Y011247D01*
X011583Y011243D01*
X011600Y011241D01*
X012000Y012091D02*
X012000Y012561D01*
X012000Y012811D02*
X012000Y013291D01*
X011000Y013091D02*
X011000Y013571D01*
X011000Y013821D02*
X011000Y014291D01*
X010500Y015041D02*
X010502Y015058D01*
X010506Y015075D01*
X010513Y015091D01*
X010523Y015105D01*
X010536Y015118D01*
X010550Y015128D01*
X010566Y015135D01*
X010583Y015139D01*
X010600Y015141D01*
X011400Y015141D01*
X011417Y015139D01*
X011434Y015135D01*
X011450Y015128D01*
X011464Y015118D01*
X011477Y015105D01*
X011487Y015091D01*
X011494Y015075D01*
X011498Y015058D01*
X011500Y015041D01*
X011500Y012341D01*
X011498Y012324D01*
X011494Y012307D01*
X011487Y012291D01*
X011477Y012277D01*
X011464Y012264D01*
X011450Y012254D01*
X011434Y012247D01*
X011417Y012243D01*
X011400Y012241D01*
X010600Y012241D01*
X010583Y012243D01*
X010566Y012247D01*
X010550Y012254D01*
X010536Y012264D01*
X010523Y012277D01*
X010513Y012291D01*
X010506Y012307D01*
X010502Y012324D01*
X010500Y012341D01*
X010500Y015041D01*
X011500Y015991D02*
X011500Y017391D01*
X008500Y017391D01*
X008500Y015991D01*
X011500Y015991D01*
X012950Y017441D02*
X015050Y017441D01*
X015073Y017443D01*
X015096Y017448D01*
X015118Y017457D01*
X015138Y017470D01*
X015156Y017485D01*
X015171Y017503D01*
X015184Y017523D01*
X015193Y017545D01*
X015198Y017568D01*
X015200Y017591D01*
X015200Y017941D01*
X015100Y018041D01*
X015100Y023341D01*
X015200Y023441D01*
X015200Y023791D01*
X015198Y023814D01*
X015193Y023837D01*
X015184Y023859D01*
X015171Y023879D01*
X015156Y023897D01*
X015138Y023912D01*
X015118Y023925D01*
X015096Y023934D01*
X015073Y023939D01*
X015050Y023941D01*
X012950Y023941D01*
X012927Y023939D01*
X012904Y023934D01*
X012882Y023925D01*
X012862Y023912D01*
X012844Y023897D01*
X012829Y023879D01*
X012816Y023859D01*
X012807Y023837D01*
X012802Y023814D01*
X012800Y023791D01*
X012800Y023441D01*
X012900Y023341D01*
X012900Y018041D01*
X012800Y017941D01*
X012800Y017591D01*
X012802Y017568D01*
X012807Y017545D01*
X012816Y017523D01*
X012829Y017503D01*
X012844Y017485D01*
X012862Y017470D01*
X012882Y017457D01*
X012904Y017448D01*
X012927Y017443D01*
X012950Y017441D01*
X012600Y019691D02*
X012600Y023691D01*
X010400Y023691D01*
X010400Y019691D01*
X012600Y019691D01*
X011500Y021191D02*
X011500Y021691D01*
X011730Y021691D01*
X011500Y021691D02*
X011500Y022591D01*
X011270Y022141D02*
X011730Y022141D01*
X011500Y021691D01*
X011270Y022141D01*
X011270Y021691D02*
X011500Y021691D01*
X010100Y023691D02*
X010100Y019691D01*
X007900Y019691D01*
X007900Y023691D01*
X010100Y023691D01*
X009000Y022591D02*
X009000Y021691D01*
X009230Y021691D01*
X009000Y021691D02*
X009230Y022141D01*
X008770Y022141D01*
X009000Y021691D01*
X008770Y021691D01*
X009000Y021691D02*
X009000Y021191D01*
X007800Y021341D02*
X007800Y023041D01*
X007798Y023058D01*
X007794Y023075D01*
X007787Y023091D01*
X007777Y023105D01*
X007764Y023118D01*
X007750Y023128D01*
X007734Y023135D01*
X007717Y023139D01*
X007700Y023141D01*
X006900Y023141D01*
X006883Y023139D01*
X006866Y023135D01*
X006850Y023128D01*
X006836Y023118D01*
X006823Y023105D01*
X006813Y023091D01*
X006806Y023075D01*
X006802Y023058D01*
X006800Y023041D01*
X006800Y021341D01*
X006802Y021324D01*
X006806Y021307D01*
X006813Y021291D01*
X006823Y021277D01*
X006836Y021264D01*
X006850Y021254D01*
X006866Y021247D01*
X006883Y021243D01*
X006900Y021241D01*
X007700Y021241D01*
X007717Y021243D01*
X007734Y021247D01*
X007750Y021254D01*
X007764Y021264D01*
X007777Y021277D01*
X007787Y021291D01*
X007794Y021307D01*
X007798Y021324D01*
X007800Y021341D01*
X007300Y022041D02*
X007300Y022091D01*
X007300Y022291D02*
X007300Y022341D01*
X007400Y024191D02*
X006600Y024191D01*
X006500Y024291D01*
X006400Y024191D01*
X005600Y024191D01*
X005500Y024291D01*
X005400Y024191D01*
X004600Y024191D01*
X004500Y024291D01*
X004500Y025091D01*
X004600Y025191D01*
X005400Y025191D01*
X005500Y025091D01*
X005600Y025191D01*
X006400Y025191D01*
X006500Y025091D01*
X006600Y025191D01*
X007400Y025191D01*
X007500Y025091D01*
X007500Y024291D01*
X007400Y024191D01*
X015500Y016891D02*
X015500Y016491D01*
X015600Y016491D01*
X015900Y016191D01*
X016400Y016191D01*
X016500Y016291D01*
X017500Y016291D01*
X017600Y016191D01*
X018100Y016191D01*
X018400Y016491D01*
X018500Y016491D01*
X018500Y016891D01*
X018400Y016891D01*
X018100Y017191D01*
X017600Y017191D01*
X017500Y017091D01*
X016500Y017091D01*
X016400Y017191D01*
X015900Y017191D01*
X015600Y016891D01*
X015500Y016891D01*
X016000Y016891D02*
X016000Y016491D01*
X016100Y016491D01*
X016400Y016191D01*
X016900Y016191D01*
X017000Y016291D01*
X017100Y016191D01*
X017600Y016191D01*
X017900Y016491D01*
X018000Y016491D01*
X018000Y016891D01*
X017900Y016891D01*
X017600Y017191D01*
X017100Y017191D01*
X017000Y017091D01*
X016900Y017191D01*
X016400Y017191D01*
X016100Y016891D01*
X016000Y016891D01*
X017500Y018291D02*
X017500Y019091D01*
X017600Y019191D01*
X018400Y019191D01*
X018500Y019091D01*
X018600Y019191D01*
X019400Y019191D01*
X019500Y019091D01*
X019500Y018291D01*
X019400Y018191D01*
X018600Y018191D01*
X018500Y018291D01*
X018400Y018191D01*
X017600Y018191D01*
X017500Y018291D01*
X019529Y023646D02*
X019529Y023860D01*
X019529Y023753D02*
X020170Y023753D01*
X020170Y023646D02*
X020170Y023860D01*
X020170Y024076D02*
X019529Y024076D01*
X020170Y024503D01*
X019529Y024503D01*
X015900Y009591D02*
X015750Y009591D01*
X015700Y009541D01*
X014300Y009541D01*
X014250Y009591D01*
X014100Y009591D01*
X014083Y009589D01*
X014066Y009585D01*
X014050Y009578D01*
X014036Y009568D01*
X014023Y009555D01*
X014013Y009541D01*
X014006Y009525D01*
X014002Y009508D01*
X014000Y009491D01*
X014000Y008891D01*
X014002Y008874D01*
X014006Y008857D01*
X014013Y008841D01*
X014023Y008827D01*
X014036Y008814D01*
X014050Y008804D01*
X014066Y008797D01*
X014083Y008793D01*
X014100Y008791D01*
X014250Y008791D01*
X014300Y008841D01*
X015700Y008841D01*
X015750Y008791D01*
X015900Y008791D01*
X015917Y008793D01*
X015934Y008797D01*
X015950Y008804D01*
X015964Y008814D01*
X015977Y008827D01*
X015987Y008841D01*
X015994Y008857D01*
X015998Y008874D01*
X016000Y008891D01*
X016000Y009491D01*
X015998Y009508D01*
X015994Y009525D01*
X015987Y009541D01*
X015977Y009555D01*
X015964Y009568D01*
X015950Y009578D01*
X015934Y009585D01*
X015917Y009589D01*
X015900Y009591D01*
X015900Y008591D02*
X015750Y008591D01*
X015700Y008541D01*
X014300Y008541D01*
X014250Y008591D01*
X014100Y008591D01*
X014083Y008589D01*
X014066Y008585D01*
X014050Y008578D01*
X014036Y008568D01*
X014023Y008555D01*
X014013Y008541D01*
X014006Y008525D01*
X014002Y008508D01*
X014000Y008491D01*
X014000Y007891D01*
X014002Y007874D01*
X014006Y007857D01*
X014013Y007841D01*
X014023Y007827D01*
X014036Y007814D01*
X014050Y007804D01*
X014066Y007797D01*
X014083Y007793D01*
X014100Y007791D01*
X014250Y007791D01*
X014300Y007841D01*
X015700Y007841D01*
X015750Y007791D01*
X015900Y007791D01*
X015917Y007793D01*
X015934Y007797D01*
X015950Y007804D01*
X015964Y007814D01*
X015977Y007827D01*
X015987Y007841D01*
X015994Y007857D01*
X015998Y007874D01*
X016000Y007891D01*
X016000Y008491D01*
X015998Y008508D01*
X015994Y008525D01*
X015987Y008541D01*
X015977Y008555D01*
X015964Y008568D01*
X015950Y008578D01*
X015934Y008585D01*
X015917Y008589D01*
X015900Y008591D01*
X013400Y004441D02*
X013150Y004441D01*
X013150Y003691D01*
X013150Y002941D01*
X013400Y002941D01*
X013400Y004441D01*
X010000Y003691D02*
X010002Y003809D01*
X010008Y003927D01*
X010018Y004045D01*
X010032Y004162D01*
X010050Y004279D01*
X010072Y004396D01*
X010097Y004511D01*
X010127Y004625D01*
X010161Y004739D01*
X010198Y004851D01*
X010239Y004962D01*
X010284Y005071D01*
X010332Y005179D01*
X010384Y005285D01*
X010440Y005390D01*
X010499Y005492D01*
X010561Y005592D01*
X010627Y005690D01*
X010696Y005786D01*
X010769Y005880D01*
X010844Y005971D01*
X010923Y006059D01*
X011004Y006145D01*
X011089Y006228D01*
X011176Y006308D01*
X011265Y006385D01*
X011358Y006459D01*
X011452Y006529D01*
X011549Y006597D01*
X011649Y006661D01*
X011750Y006722D01*
X011853Y006779D01*
X011959Y006833D01*
X012066Y006884D01*
X012174Y006930D01*
X012284Y006973D01*
X012396Y007012D01*
X012509Y007048D01*
X012623Y007079D01*
X012738Y007107D01*
X012853Y007131D01*
X012970Y007151D01*
X013087Y007167D01*
X013205Y007179D01*
X013323Y007187D01*
X013441Y007191D01*
X013559Y007191D01*
X013677Y007187D01*
X013795Y007179D01*
X013913Y007167D01*
X014030Y007151D01*
X014147Y007131D01*
X014262Y007107D01*
X014377Y007079D01*
X014491Y007048D01*
X014604Y007012D01*
X014716Y006973D01*
X014826Y006930D01*
X014934Y006884D01*
X015041Y006833D01*
X015147Y006779D01*
X015250Y006722D01*
X015351Y006661D01*
X015451Y006597D01*
X015548Y006529D01*
X015642Y006459D01*
X015735Y006385D01*
X015824Y006308D01*
X015911Y006228D01*
X015996Y006145D01*
X016077Y006059D01*
X016156Y005971D01*
X016231Y005880D01*
X016304Y005786D01*
X016373Y005690D01*
X016439Y005592D01*
X016501Y005492D01*
X016560Y005390D01*
X016616Y005285D01*
X016668Y005179D01*
X016716Y005071D01*
X016761Y004962D01*
X016802Y004851D01*
X016839Y004739D01*
X016873Y004625D01*
X016903Y004511D01*
X016928Y004396D01*
X016950Y004279D01*
X016968Y004162D01*
X016982Y004045D01*
X016992Y003927D01*
X016998Y003809D01*
X017000Y003691D01*
X016998Y003573D01*
X016992Y003455D01*
X016982Y003337D01*
X016968Y003220D01*
X016950Y003103D01*
X016928Y002986D01*
X016903Y002871D01*
X016873Y002757D01*
X016839Y002643D01*
X016802Y002531D01*
X016761Y002420D01*
X016716Y002311D01*
X016668Y002203D01*
X016616Y002097D01*
X016560Y001992D01*
X016501Y001890D01*
X016439Y001790D01*
X016373Y001692D01*
X016304Y001596D01*
X016231Y001502D01*
X016156Y001411D01*
X016077Y001323D01*
X015996Y001237D01*
X015911Y001154D01*
X015824Y001074D01*
X015735Y000997D01*
X015642Y000923D01*
X015548Y000853D01*
X015451Y000785D01*
X015351Y000721D01*
X015250Y000660D01*
X015147Y000603D01*
X015041Y000549D01*
X014934Y000498D01*
X014826Y000452D01*
X014716Y000409D01*
X014604Y000370D01*
X014491Y000334D01*
X014377Y000303D01*
X014262Y000275D01*
X014147Y000251D01*
X014030Y000231D01*
X013913Y000215D01*
X013795Y000203D01*
X013677Y000195D01*
X013559Y000191D01*
X013441Y000191D01*
X013323Y000195D01*
X013205Y000203D01*
X013087Y000215D01*
X012970Y000231D01*
X012853Y000251D01*
X012738Y000275D01*
X012623Y000303D01*
X012509Y000334D01*
X012396Y000370D01*
X012284Y000409D01*
X012174Y000452D01*
X012066Y000498D01*
X011959Y000549D01*
X011853Y000603D01*
X011750Y000660D01*
X011649Y000721D01*
X011549Y000785D01*
X011452Y000853D01*
X011358Y000923D01*
X011265Y000997D01*
X011176Y001074D01*
X011089Y001154D01*
X011004Y001237D01*
X010923Y001323D01*
X010844Y001411D01*
X010769Y001502D01*
X010696Y001596D01*
X010627Y001692D01*
X010561Y001790D01*
X010499Y001890D01*
X010440Y001992D01*
X010384Y002097D01*
X010332Y002203D01*
X010284Y002311D01*
X010239Y002420D01*
X010198Y002531D01*
X010161Y002643D01*
X010127Y002757D01*
X010097Y002871D01*
X010072Y002986D01*
X010050Y003103D01*
X010032Y003220D01*
X010018Y003337D01*
X010008Y003455D01*
X010002Y003573D01*
X010000Y003691D01*
X010550Y003691D02*
X011150Y003691D01*
X010850Y003391D02*
X010850Y003991D01*
X012700Y003691D02*
X013150Y003691D01*
X013750Y003691D02*
X014300Y003691D01*
X020130Y004191D02*
X022433Y004691D01*
X022433Y005191D01*
X020130Y005691D01*
X020130Y006691D02*
X022433Y007191D01*
X022433Y007691D01*
X020130Y008191D01*
X006800Y003691D02*
X006250Y003691D01*
D11*
X008063Y014206D02*
X008015Y014254D01*
X008015Y014447D01*
X008063Y014496D01*
X008160Y014496D01*
X008208Y014447D01*
X008208Y014254D01*
X008160Y014206D01*
X008063Y014206D01*
X008112Y014302D02*
X008208Y014206D01*
X008310Y014206D02*
X008503Y014206D01*
X008406Y014206D02*
X008406Y014496D01*
X008310Y014399D01*
X002505Y018270D02*
X002457Y018222D01*
X002505Y018270D02*
X002505Y018367D01*
X002457Y018415D01*
X002408Y018415D01*
X002360Y018367D01*
X002360Y018270D01*
X002312Y018222D01*
X002263Y018222D01*
X002215Y018270D01*
X002215Y018367D01*
X002263Y018415D01*
X002215Y018516D02*
X002215Y018661D01*
X002263Y018710D01*
X002457Y018710D01*
X002505Y018661D01*
X002505Y018516D01*
X002215Y018516D01*
X002312Y018811D02*
X002215Y018908D01*
X002312Y019004D01*
X002505Y019004D01*
X002360Y019004D02*
X002360Y018811D01*
X002312Y018811D02*
X002505Y018811D01*
X002457Y019322D02*
X002505Y019370D01*
X002505Y019467D01*
X002457Y019515D01*
X002408Y019515D01*
X002360Y019467D01*
X002360Y019370D01*
X002312Y019322D01*
X002263Y019322D01*
X002215Y019370D01*
X002215Y019467D01*
X002263Y019515D01*
X002263Y019616D02*
X002457Y019616D01*
X002505Y019665D01*
X002505Y019761D01*
X002457Y019810D01*
X002505Y019911D02*
X002215Y019911D01*
X002263Y019810D02*
X002215Y019761D01*
X002215Y019665D01*
X002263Y019616D01*
X002505Y019911D02*
X002505Y020104D01*
X002457Y020661D02*
X002263Y020661D01*
X002215Y020709D01*
X002215Y020806D01*
X002263Y020854D01*
X002360Y020854D02*
X002360Y020758D01*
X002360Y020854D02*
X002457Y020854D01*
X002505Y020806D01*
X002505Y020709D01*
X002457Y020661D01*
X002457Y021416D02*
X002505Y021465D01*
X002505Y021561D01*
X002457Y021610D01*
X002360Y021610D01*
X002312Y021561D01*
X002312Y021513D01*
X002360Y021416D01*
X002215Y021416D01*
X002215Y021610D01*
X002215Y021711D02*
X002408Y021711D01*
X002505Y021808D01*
X002408Y021904D01*
X002215Y021904D01*
X004243Y024006D02*
X004437Y024006D01*
X004485Y024054D01*
X004485Y024151D01*
X004437Y024199D01*
X004485Y024300D02*
X004195Y024300D01*
X004243Y024199D02*
X004195Y024151D01*
X004195Y024054D01*
X004243Y024006D01*
X004340Y024300D02*
X004340Y024494D01*
X004243Y024595D02*
X004437Y024595D01*
X004485Y024643D01*
X004485Y024740D01*
X004437Y024788D01*
X004340Y024788D01*
X004340Y024692D01*
X004243Y024788D02*
X004195Y024740D01*
X004195Y024643D01*
X004243Y024595D01*
X004195Y024494D02*
X004485Y024494D01*
X007515Y024561D02*
X007515Y024416D01*
X007805Y024416D01*
X007708Y024416D02*
X007708Y024561D01*
X007660Y024610D01*
X007563Y024610D01*
X007515Y024561D01*
X007515Y024711D02*
X007805Y024904D01*
X007515Y024904D01*
X007515Y024711D02*
X007805Y024711D01*
X007805Y024610D02*
X007708Y024513D01*
X007757Y024315D02*
X007563Y024315D01*
X007515Y024267D01*
X007515Y024122D01*
X007805Y024122D01*
X007805Y024267D01*
X007757Y024315D01*
X017429Y017879D02*
X017526Y017686D01*
X017623Y017879D01*
X017724Y017976D02*
X017821Y017976D01*
X017772Y017976D02*
X017772Y017686D01*
X017724Y017686D02*
X017821Y017686D01*
X017920Y017686D02*
X017920Y017879D01*
X018065Y017879D01*
X018114Y017831D01*
X018114Y017686D01*
X018920Y017734D02*
X018969Y017686D01*
X019065Y017686D01*
X019114Y017734D01*
X019114Y017831D01*
X019017Y017831D01*
X018920Y017927D02*
X018920Y017734D01*
X018920Y017927D02*
X018969Y017976D01*
X019065Y017976D01*
X019114Y017927D01*
D12*
X013725Y003691D03*
X006225Y003691D03*
D13*
X006190Y005346D02*
X006610Y005346D01*
X006400Y005346D02*
X006400Y005976D01*
X006190Y005766D01*
X005965Y005871D02*
X005860Y005976D01*
X005650Y005976D01*
X005545Y005871D01*
X005545Y005451D01*
X005650Y005346D01*
X005860Y005346D01*
X005965Y005451D01*
X012545Y005451D02*
X012650Y005346D01*
X012860Y005346D01*
X012965Y005451D01*
X013190Y005451D02*
X013295Y005346D01*
X013505Y005346D01*
X013610Y005451D01*
X013610Y005661D01*
X013505Y005766D01*
X013400Y005766D01*
X013190Y005661D01*
X013190Y005976D01*
X013610Y005976D01*
X012965Y005871D02*
X012860Y005976D01*
X012650Y005976D01*
X012545Y005871D01*
X012545Y005451D01*
X015869Y021565D02*
X015725Y021708D01*
X016156Y021708D01*
X016156Y021565D02*
X016156Y021852D01*
X018705Y021730D02*
X018920Y021515D01*
X018920Y021802D01*
X018705Y021730D02*
X019136Y021730D01*
D14*
X016075Y009191D03*
X016075Y008191D03*
X013925Y008191D03*
X013925Y009191D03*
X012075Y009191D03*
X009925Y009191D03*
X008075Y009191D03*
X008075Y008191D03*
X005925Y008191D03*
X005925Y009191D03*
X003575Y009191D03*
X003575Y008191D03*
X001425Y008191D03*
X001425Y009191D03*
X004425Y014191D03*
X003575Y016191D03*
X001425Y016191D03*
X006575Y014191D03*
D15*
X006099Y014321D02*
X005952Y014321D01*
X006062Y014431D01*
X006062Y014211D01*
X005878Y014211D02*
X005731Y014211D01*
X005804Y014211D02*
X005804Y014431D01*
X005731Y014357D01*
X005657Y014321D02*
X005620Y014284D01*
X005510Y014284D01*
X005583Y014284D02*
X005657Y014211D01*
X005657Y014321D02*
X005657Y014394D01*
X005620Y014431D01*
X005510Y014431D01*
X005510Y014211D01*
X006797Y012289D02*
X006833Y012289D01*
X006870Y012253D01*
X006907Y012289D01*
X006943Y012289D01*
X006980Y012253D01*
X006980Y012179D01*
X006943Y012143D01*
X006980Y012068D02*
X006980Y011922D01*
X006980Y011995D02*
X006760Y011995D01*
X006833Y011922D01*
X006797Y011847D02*
X006870Y011847D01*
X006907Y011811D01*
X006907Y011701D01*
X006907Y011774D02*
X006980Y011847D01*
X006980Y011701D02*
X006760Y011701D01*
X006760Y011811D01*
X006797Y011847D01*
X006797Y012143D02*
X006760Y012179D01*
X006760Y012253D01*
X006797Y012289D01*
X006870Y012253D02*
X006870Y012216D01*
X006562Y009381D02*
X006562Y009161D01*
X006489Y009161D02*
X006636Y009161D01*
X006489Y009307D02*
X006562Y009381D01*
X006341Y009381D02*
X006341Y009161D01*
X006268Y009161D02*
X006415Y009161D01*
X006268Y009307D02*
X006341Y009381D01*
X006194Y009344D02*
X006194Y009271D01*
X006157Y009234D01*
X006047Y009234D01*
X006120Y009234D02*
X006194Y009161D01*
X006047Y009161D02*
X006047Y009381D01*
X006157Y009381D01*
X006194Y009344D01*
X007310Y008271D02*
X007310Y008051D01*
X007310Y008124D02*
X007420Y008124D01*
X007457Y008161D01*
X007457Y008234D01*
X007420Y008271D01*
X007310Y008271D01*
X007383Y008124D02*
X007457Y008051D01*
X007531Y008051D02*
X007678Y008051D01*
X007604Y008051D02*
X007604Y008271D01*
X007531Y008197D01*
X007752Y008234D02*
X007789Y008271D01*
X007862Y008271D01*
X007899Y008234D01*
X007899Y008197D01*
X007752Y008051D01*
X007899Y008051D01*
X010068Y008951D02*
X010068Y009171D01*
X010178Y009171D01*
X010215Y009134D01*
X010215Y009061D01*
X010178Y009024D01*
X010068Y009024D01*
X010141Y009024D02*
X010215Y008951D01*
X010289Y008987D02*
X010326Y008951D01*
X010399Y008951D01*
X010436Y008987D01*
X010436Y009061D01*
X010399Y009097D01*
X010362Y009097D01*
X010289Y009061D01*
X010289Y009171D01*
X010436Y009171D01*
X014068Y009171D02*
X014068Y008951D01*
X014068Y009024D02*
X014178Y009024D01*
X014215Y009061D01*
X014215Y009134D01*
X014178Y009171D01*
X014068Y009171D01*
X014141Y009024D02*
X014215Y008951D01*
X014289Y008987D02*
X014326Y008951D01*
X014399Y008951D01*
X014436Y008987D01*
X014436Y009134D01*
X014399Y009171D01*
X014326Y009171D01*
X014289Y009134D01*
X014289Y009097D01*
X014326Y009061D01*
X014436Y009061D01*
X015510Y008431D02*
X015510Y008211D01*
X015510Y008284D02*
X015620Y008284D01*
X015657Y008321D01*
X015657Y008394D01*
X015620Y008431D01*
X015510Y008431D01*
X015583Y008284D02*
X015657Y008211D01*
X015731Y008247D02*
X015731Y008284D01*
X015768Y008321D01*
X015841Y008321D01*
X015878Y008284D01*
X015878Y008247D01*
X015841Y008211D01*
X015768Y008211D01*
X015731Y008247D01*
X015768Y008321D02*
X015731Y008357D01*
X015731Y008394D01*
X015768Y008431D01*
X015841Y008431D01*
X015878Y008394D01*
X015878Y008357D01*
X015841Y008321D01*
X015900Y016291D02*
X015900Y017091D01*
X016400Y017091D02*
X016400Y016291D01*
X016400Y017091D01*
X016500Y016691D02*
X017500Y016691D01*
X017600Y016291D02*
X017600Y017091D01*
X017600Y016291D01*
X017100Y016291D02*
X017100Y017091D01*
X016900Y017091D02*
X016900Y016291D01*
X017510Y017301D02*
X017510Y017521D01*
X017657Y017521D01*
X017731Y017447D02*
X017804Y017521D01*
X017804Y017301D01*
X017731Y017301D02*
X017878Y017301D01*
X018100Y017091D02*
X018100Y016291D01*
X017583Y017411D02*
X017510Y017411D01*
X015730Y017709D02*
X015510Y017709D01*
X015510Y017819D01*
X015547Y017855D01*
X015620Y017855D01*
X015657Y017819D01*
X015657Y017709D01*
X015657Y017782D02*
X015730Y017855D01*
X015620Y017930D02*
X015510Y018040D01*
X015730Y018040D01*
X015620Y018076D02*
X015620Y017930D01*
X015657Y018609D02*
X015657Y018719D01*
X015620Y018755D01*
X015547Y018755D01*
X015510Y018719D01*
X015510Y018609D01*
X015730Y018609D01*
X015657Y018682D02*
X015730Y018755D01*
X015693Y018830D02*
X015730Y018866D01*
X015730Y018940D01*
X015693Y018976D01*
X015657Y018976D01*
X015620Y018940D01*
X015620Y018903D01*
X015620Y018940D02*
X015583Y018976D01*
X015547Y018976D01*
X015510Y018940D01*
X015510Y018866D01*
X015547Y018830D01*
X003378Y016394D02*
X003341Y016431D01*
X003268Y016431D01*
X003231Y016394D01*
X003157Y016394D02*
X003157Y016321D01*
X003120Y016284D01*
X003010Y016284D01*
X003083Y016284D02*
X003157Y016211D01*
X003231Y016211D02*
X003378Y016357D01*
X003378Y016394D01*
X003378Y016211D02*
X003231Y016211D01*
X003157Y016394D02*
X003120Y016431D01*
X003010Y016431D01*
X003010Y016211D01*
X003010Y009431D02*
X003120Y009431D01*
X003157Y009394D01*
X003157Y009321D01*
X003120Y009284D01*
X003010Y009284D01*
X003083Y009284D02*
X003157Y009211D01*
X003231Y009247D02*
X003268Y009211D01*
X003341Y009211D01*
X003378Y009247D01*
X003378Y009284D01*
X003341Y009321D01*
X003231Y009321D01*
X003231Y009247D01*
X003231Y009321D02*
X003304Y009394D01*
X003378Y009431D01*
X003010Y009431D02*
X003010Y009211D01*
X001862Y008171D02*
X001862Y007951D01*
X001789Y007951D02*
X001936Y007951D01*
X001789Y008097D02*
X001862Y008171D01*
X001715Y008134D02*
X001715Y008061D01*
X001678Y008024D01*
X001568Y008024D01*
X001641Y008024D02*
X001715Y007951D01*
X001568Y007951D02*
X001568Y008171D01*
X001678Y008171D01*
X001715Y008134D01*
D16*
X001175Y007341D02*
X002825Y007341D01*
X002553Y006741D02*
X002447Y006741D01*
X002950Y006244D02*
X002921Y006187D01*
X002888Y006131D01*
X002853Y006078D01*
X002813Y006027D01*
X002771Y005979D01*
X002726Y005933D01*
X002679Y005890D01*
X002629Y005850D01*
X002576Y005813D01*
X002521Y005780D01*
X002465Y005749D01*
X002406Y005723D01*
X002346Y005700D01*
X002285Y005680D01*
X002223Y005665D01*
X002160Y005653D01*
X002096Y005645D01*
X002032Y005641D01*
X001968Y005641D01*
X001904Y005645D01*
X001840Y005653D01*
X001777Y005665D01*
X001715Y005680D01*
X001654Y005700D01*
X001594Y005723D01*
X001535Y005749D01*
X001479Y005780D01*
X001424Y005813D01*
X001371Y005850D01*
X001321Y005890D01*
X001274Y005933D01*
X001229Y005979D01*
X001187Y006027D01*
X001147Y006078D01*
X001112Y006131D01*
X001079Y006187D01*
X001050Y006244D01*
X001447Y006741D02*
X001553Y006741D01*
X001046Y007129D02*
X001073Y007185D01*
X001104Y007239D01*
X001138Y007291D01*
X001175Y007341D01*
X002825Y007341D02*
X002860Y007293D01*
X002893Y007243D01*
X002923Y007192D01*
X002950Y007138D01*
X002096Y005366D02*
X002096Y004916D01*
X001946Y004916D02*
X002246Y004916D01*
X001946Y005216D02*
X002096Y005366D01*
X001786Y005291D02*
X001711Y005366D01*
X001560Y005366D01*
X001485Y005291D01*
X001485Y005216D01*
X001560Y005141D01*
X001711Y005141D01*
X001786Y005066D01*
X001786Y004991D01*
X001711Y004916D01*
X001560Y004916D01*
X001485Y004991D01*
X001325Y004991D02*
X001250Y004916D01*
X001100Y004916D01*
X001025Y004991D01*
X001025Y005366D01*
X001325Y005366D02*
X001325Y004991D01*
X001636Y004840D02*
X001636Y005441D01*
X003500Y009691D02*
X019500Y009691D01*
X019500Y015691D01*
X003500Y015691D01*
X003500Y009691D01*
X003315Y010466D02*
X003765Y010466D01*
X003765Y010766D01*
X003765Y010926D02*
X003765Y011226D01*
X003765Y011386D02*
X003765Y011612D01*
X003690Y011687D01*
X003390Y011687D01*
X003315Y011612D01*
X003315Y011386D01*
X003765Y011386D01*
X003540Y011076D02*
X003540Y010926D01*
X003315Y010926D02*
X003765Y010926D01*
X003315Y010926D02*
X003315Y011226D01*
X003465Y011847D02*
X003315Y011997D01*
X003765Y011997D01*
X003765Y011847D02*
X003765Y012147D01*
X004070Y012691D02*
X004072Y012732D01*
X004078Y012772D01*
X004087Y012812D01*
X004101Y012851D01*
X004118Y012888D01*
X004138Y012923D01*
X004162Y012957D01*
X004189Y012988D01*
X004218Y013016D01*
X004251Y013041D01*
X004285Y013063D01*
X004321Y013082D01*
X004359Y013097D01*
X004399Y013109D01*
X004439Y013117D01*
X004480Y013121D01*
X004520Y013121D01*
X004561Y013117D01*
X004601Y013109D01*
X004641Y013097D01*
X004679Y013082D01*
X004715Y013063D01*
X004749Y013041D01*
X004782Y013016D01*
X004811Y012988D01*
X004838Y012957D01*
X004862Y012923D01*
X004882Y012888D01*
X004899Y012851D01*
X004913Y012812D01*
X004922Y012772D01*
X004928Y012732D01*
X004930Y012691D01*
X004928Y012650D01*
X004922Y012610D01*
X004913Y012570D01*
X004899Y012531D01*
X004882Y012494D01*
X004862Y012459D01*
X004838Y012425D01*
X004811Y012394D01*
X004782Y012366D01*
X004749Y012341D01*
X004715Y012319D01*
X004679Y012300D01*
X004641Y012285D01*
X004601Y012273D01*
X004561Y012265D01*
X004520Y012261D01*
X004480Y012261D01*
X004439Y012265D01*
X004399Y012273D01*
X004359Y012285D01*
X004321Y012300D01*
X004285Y012319D01*
X004251Y012341D01*
X004218Y012366D01*
X004189Y012394D01*
X004162Y012425D01*
X004138Y012459D01*
X004118Y012494D01*
X004101Y012531D01*
X004087Y012570D01*
X004078Y012610D01*
X004072Y012650D01*
X004070Y012691D01*
X003765Y013466D02*
X003765Y013766D01*
X003765Y013926D02*
X003765Y014226D01*
X003765Y014386D02*
X003765Y014612D01*
X003690Y014687D01*
X003390Y014687D01*
X003315Y014612D01*
X003315Y014386D01*
X003765Y014386D01*
X003540Y014076D02*
X003540Y013926D01*
X003315Y013926D02*
X003765Y013926D01*
X003315Y013926D02*
X003315Y014226D01*
X003390Y014847D02*
X003315Y014922D01*
X003315Y015072D01*
X003390Y015147D01*
X003465Y015147D01*
X003765Y014847D01*
X003765Y015147D01*
X004070Y014691D02*
X004072Y014732D01*
X004078Y014772D01*
X004087Y014812D01*
X004101Y014851D01*
X004118Y014888D01*
X004138Y014923D01*
X004162Y014957D01*
X004189Y014988D01*
X004218Y015016D01*
X004251Y015041D01*
X004285Y015063D01*
X004321Y015082D01*
X004359Y015097D01*
X004399Y015109D01*
X004439Y015117D01*
X004480Y015121D01*
X004520Y015121D01*
X004561Y015117D01*
X004601Y015109D01*
X004641Y015097D01*
X004679Y015082D01*
X004715Y015063D01*
X004749Y015041D01*
X004782Y015016D01*
X004811Y014988D01*
X004838Y014957D01*
X004862Y014923D01*
X004882Y014888D01*
X004899Y014851D01*
X004913Y014812D01*
X004922Y014772D01*
X004928Y014732D01*
X004930Y014691D01*
X004928Y014650D01*
X004922Y014610D01*
X004913Y014570D01*
X004899Y014531D01*
X004882Y014494D01*
X004862Y014459D01*
X004838Y014425D01*
X004811Y014394D01*
X004782Y014366D01*
X004749Y014341D01*
X004715Y014319D01*
X004679Y014300D01*
X004641Y014285D01*
X004601Y014273D01*
X004561Y014265D01*
X004520Y014261D01*
X004480Y014261D01*
X004439Y014265D01*
X004399Y014273D01*
X004359Y014285D01*
X004321Y014300D01*
X004285Y014319D01*
X004251Y014341D01*
X004218Y014366D01*
X004189Y014394D01*
X004162Y014425D01*
X004138Y014459D01*
X004118Y014494D01*
X004101Y014531D01*
X004087Y014570D01*
X004078Y014610D01*
X004072Y014650D01*
X004070Y014691D01*
X003765Y013466D02*
X003315Y013466D01*
X004070Y010691D02*
X004072Y010732D01*
X004078Y010772D01*
X004087Y010812D01*
X004101Y010851D01*
X004118Y010888D01*
X004138Y010923D01*
X004162Y010957D01*
X004189Y010988D01*
X004218Y011016D01*
X004251Y011041D01*
X004285Y011063D01*
X004321Y011082D01*
X004359Y011097D01*
X004399Y011109D01*
X004439Y011117D01*
X004480Y011121D01*
X004520Y011121D01*
X004561Y011117D01*
X004601Y011109D01*
X004641Y011097D01*
X004679Y011082D01*
X004715Y011063D01*
X004749Y011041D01*
X004782Y011016D01*
X004811Y010988D01*
X004838Y010957D01*
X004862Y010923D01*
X004882Y010888D01*
X004899Y010851D01*
X004913Y010812D01*
X004922Y010772D01*
X004928Y010732D01*
X004930Y010691D01*
X004928Y010650D01*
X004922Y010610D01*
X004913Y010570D01*
X004899Y010531D01*
X004882Y010494D01*
X004862Y010459D01*
X004838Y010425D01*
X004811Y010394D01*
X004782Y010366D01*
X004749Y010341D01*
X004715Y010319D01*
X004679Y010300D01*
X004641Y010285D01*
X004601Y010273D01*
X004561Y010265D01*
X004520Y010261D01*
X004480Y010261D01*
X004439Y010265D01*
X004399Y010273D01*
X004359Y010285D01*
X004321Y010300D01*
X004285Y010319D01*
X004251Y010341D01*
X004218Y010366D01*
X004189Y010394D01*
X004162Y010425D01*
X004138Y010459D01*
X004118Y010494D01*
X004101Y010531D01*
X004087Y010570D01*
X004078Y010610D01*
X004072Y010650D01*
X004070Y010691D01*
X005219Y016066D02*
X005144Y016141D01*
X005219Y016066D02*
X005369Y016066D01*
X005444Y016141D01*
X005444Y016216D01*
X005369Y016291D01*
X005219Y016291D01*
X005144Y016366D01*
X005144Y016441D01*
X005219Y016516D01*
X005369Y016516D01*
X005444Y016441D01*
X005604Y016516D02*
X005604Y016216D01*
X005754Y016066D01*
X005904Y016216D01*
X005904Y016516D01*
X006065Y016441D02*
X006140Y016516D01*
X006290Y016516D01*
X006365Y016441D01*
X006365Y016366D01*
X006290Y016291D01*
X006365Y016216D01*
X006365Y016141D01*
X006290Y016066D01*
X006140Y016066D01*
X006065Y016141D01*
X006215Y016291D02*
X006290Y016291D01*
X008554Y016366D02*
X008779Y016366D01*
X008854Y016441D01*
X008854Y016741D01*
X008779Y016816D01*
X008554Y016816D01*
X008554Y016366D01*
X009015Y016366D02*
X009315Y016666D01*
X009315Y016741D01*
X009240Y016816D01*
X009090Y016816D01*
X009015Y016741D01*
X009015Y016366D02*
X009315Y016366D01*
X011675Y014741D02*
X011675Y014441D01*
X011750Y014366D01*
X011900Y014366D01*
X011975Y014441D01*
X012135Y014441D02*
X012135Y014591D01*
X012361Y014591D01*
X012436Y014516D01*
X012436Y014441D01*
X012361Y014366D01*
X012210Y014366D01*
X012135Y014441D01*
X012135Y014591D02*
X012286Y014741D01*
X012436Y014816D01*
X012500Y015191D02*
X012500Y010191D01*
X018500Y010191D01*
X018500Y015191D01*
X012500Y015191D01*
X011975Y014741D02*
X011900Y014816D01*
X011750Y014816D01*
X011675Y014741D01*
X011140Y012016D02*
X010990Y012016D01*
X010915Y011941D01*
X010915Y011866D01*
X010990Y011791D01*
X011215Y011791D01*
X011215Y011641D02*
X011215Y011941D01*
X011140Y012016D01*
X011215Y011641D02*
X011140Y011566D01*
X010990Y011566D01*
X010915Y011641D01*
X010754Y011641D02*
X010679Y011566D01*
X010529Y011566D01*
X010454Y011641D01*
X010454Y011941D01*
X010529Y012016D01*
X010679Y012016D01*
X010754Y011941D01*
X010575Y007841D02*
X008925Y007841D01*
X009197Y007241D02*
X009303Y007241D01*
X008800Y006744D02*
X008829Y006687D01*
X008862Y006631D01*
X008897Y006578D01*
X008937Y006527D01*
X008979Y006479D01*
X009024Y006433D01*
X009071Y006390D01*
X009121Y006350D01*
X009174Y006313D01*
X009229Y006280D01*
X009285Y006249D01*
X009344Y006223D01*
X009404Y006200D01*
X009465Y006180D01*
X009527Y006165D01*
X009590Y006153D01*
X009654Y006145D01*
X009718Y006141D01*
X009782Y006141D01*
X009846Y006145D01*
X009910Y006153D01*
X009973Y006165D01*
X010035Y006180D01*
X010096Y006200D01*
X010156Y006223D01*
X010215Y006249D01*
X010271Y006280D01*
X010326Y006313D01*
X010379Y006350D01*
X010429Y006390D01*
X010476Y006433D01*
X010521Y006479D01*
X010563Y006527D01*
X010603Y006578D01*
X010638Y006631D01*
X010671Y006687D01*
X010700Y006744D01*
X010303Y007241D02*
X010197Y007241D01*
X008925Y007841D02*
X008888Y007791D01*
X008854Y007739D01*
X008823Y007685D01*
X008796Y007629D01*
X010575Y007841D02*
X010610Y007793D01*
X010643Y007743D01*
X010673Y007692D01*
X010700Y007638D01*
X010246Y006116D02*
X009946Y006116D01*
X009946Y005891D01*
X010096Y005966D01*
X010171Y005966D01*
X010246Y005891D01*
X010246Y005741D01*
X010171Y005666D01*
X010021Y005666D01*
X009946Y005741D01*
X009786Y005741D02*
X009786Y005816D01*
X009711Y005891D01*
X009560Y005891D01*
X009485Y005966D01*
X009485Y006041D01*
X009560Y006116D01*
X009711Y006116D01*
X009786Y006041D01*
X009636Y006191D02*
X009636Y005590D01*
X009711Y005666D02*
X009786Y005741D01*
X009711Y005666D02*
X009560Y005666D01*
X009485Y005741D01*
X009325Y005741D02*
X009325Y006116D01*
X009025Y006116D02*
X009025Y005741D01*
X009100Y005666D01*
X009250Y005666D01*
X009325Y005741D01*
X018070Y010691D02*
X018072Y010732D01*
X018078Y010772D01*
X018087Y010812D01*
X018101Y010851D01*
X018118Y010888D01*
X018138Y010923D01*
X018162Y010957D01*
X018189Y010988D01*
X018218Y011016D01*
X018251Y011041D01*
X018285Y011063D01*
X018321Y011082D01*
X018359Y011097D01*
X018399Y011109D01*
X018439Y011117D01*
X018480Y011121D01*
X018520Y011121D01*
X018561Y011117D01*
X018601Y011109D01*
X018641Y011097D01*
X018679Y011082D01*
X018715Y011063D01*
X018749Y011041D01*
X018782Y011016D01*
X018811Y010988D01*
X018838Y010957D01*
X018862Y010923D01*
X018882Y010888D01*
X018899Y010851D01*
X018913Y010812D01*
X018922Y010772D01*
X018928Y010732D01*
X018930Y010691D01*
X018928Y010650D01*
X018922Y010610D01*
X018913Y010570D01*
X018899Y010531D01*
X018882Y010494D01*
X018862Y010459D01*
X018838Y010425D01*
X018811Y010394D01*
X018782Y010366D01*
X018749Y010341D01*
X018715Y010319D01*
X018679Y010300D01*
X018641Y010285D01*
X018601Y010273D01*
X018561Y010265D01*
X018520Y010261D01*
X018480Y010261D01*
X018439Y010265D01*
X018399Y010273D01*
X018359Y010285D01*
X018321Y010300D01*
X018285Y010319D01*
X018251Y010341D01*
X018218Y010366D01*
X018189Y010394D01*
X018162Y010425D01*
X018138Y010459D01*
X018118Y010494D01*
X018101Y010531D01*
X018087Y010570D01*
X018078Y010610D01*
X018072Y010650D01*
X018070Y010691D01*
X018070Y012691D02*
X018072Y012732D01*
X018078Y012772D01*
X018087Y012812D01*
X018101Y012851D01*
X018118Y012888D01*
X018138Y012923D01*
X018162Y012957D01*
X018189Y012988D01*
X018218Y013016D01*
X018251Y013041D01*
X018285Y013063D01*
X018321Y013082D01*
X018359Y013097D01*
X018399Y013109D01*
X018439Y013117D01*
X018480Y013121D01*
X018520Y013121D01*
X018561Y013117D01*
X018601Y013109D01*
X018641Y013097D01*
X018679Y013082D01*
X018715Y013063D01*
X018749Y013041D01*
X018782Y013016D01*
X018811Y012988D01*
X018838Y012957D01*
X018862Y012923D01*
X018882Y012888D01*
X018899Y012851D01*
X018913Y012812D01*
X018922Y012772D01*
X018928Y012732D01*
X018930Y012691D01*
X018928Y012650D01*
X018922Y012610D01*
X018913Y012570D01*
X018899Y012531D01*
X018882Y012494D01*
X018862Y012459D01*
X018838Y012425D01*
X018811Y012394D01*
X018782Y012366D01*
X018749Y012341D01*
X018715Y012319D01*
X018679Y012300D01*
X018641Y012285D01*
X018601Y012273D01*
X018561Y012265D01*
X018520Y012261D01*
X018480Y012261D01*
X018439Y012265D01*
X018399Y012273D01*
X018359Y012285D01*
X018321Y012300D01*
X018285Y012319D01*
X018251Y012341D01*
X018218Y012366D01*
X018189Y012394D01*
X018162Y012425D01*
X018138Y012459D01*
X018118Y012494D01*
X018101Y012531D01*
X018087Y012570D01*
X018078Y012610D01*
X018072Y012650D01*
X018070Y012691D01*
X018070Y014691D02*
X018072Y014732D01*
X018078Y014772D01*
X018087Y014812D01*
X018101Y014851D01*
X018118Y014888D01*
X018138Y014923D01*
X018162Y014957D01*
X018189Y014988D01*
X018218Y015016D01*
X018251Y015041D01*
X018285Y015063D01*
X018321Y015082D01*
X018359Y015097D01*
X018399Y015109D01*
X018439Y015117D01*
X018480Y015121D01*
X018520Y015121D01*
X018561Y015117D01*
X018601Y015109D01*
X018641Y015097D01*
X018679Y015082D01*
X018715Y015063D01*
X018749Y015041D01*
X018782Y015016D01*
X018811Y014988D01*
X018838Y014957D01*
X018862Y014923D01*
X018882Y014888D01*
X018899Y014851D01*
X018913Y014812D01*
X018922Y014772D01*
X018928Y014732D01*
X018930Y014691D01*
X018928Y014650D01*
X018922Y014610D01*
X018913Y014570D01*
X018899Y014531D01*
X018882Y014494D01*
X018862Y014459D01*
X018838Y014425D01*
X018811Y014394D01*
X018782Y014366D01*
X018749Y014341D01*
X018715Y014319D01*
X018679Y014300D01*
X018641Y014285D01*
X018601Y014273D01*
X018561Y014265D01*
X018520Y014261D01*
X018480Y014261D01*
X018439Y014265D01*
X018399Y014273D01*
X018359Y014285D01*
X018321Y014300D01*
X018285Y014319D01*
X018251Y014341D01*
X018218Y014366D01*
X018189Y014394D01*
X018162Y014425D01*
X018138Y014459D01*
X018118Y014494D01*
X018101Y014531D01*
X018087Y014570D01*
X018078Y014610D01*
X018072Y014650D01*
X018070Y014691D01*
X020169Y021895D02*
X021169Y021895D01*
X021169Y022895D01*
X020169Y022895D01*
X020169Y022520D01*
X020044Y022520D01*
X020044Y022270D01*
X020169Y022270D01*
X020169Y021895D01*
X020169Y002895D01*
X022169Y002895D01*
X022169Y022895D01*
X021169Y022895D01*
X020169Y022520D02*
X020169Y022270D01*
X011225Y022216D02*
X011225Y022441D01*
X011150Y022516D01*
X010850Y022516D01*
X010775Y022441D01*
X010775Y022216D01*
X011225Y022216D01*
X011225Y022676D02*
X011225Y022976D01*
X011225Y022826D02*
X010775Y022826D01*
X010925Y022676D01*
X008725Y022751D02*
X008650Y022676D01*
X008725Y022751D02*
X008725Y022901D01*
X008650Y022976D01*
X008500Y022976D01*
X008425Y022901D01*
X008425Y022826D01*
X008500Y022676D01*
X008275Y022676D01*
X008275Y022976D01*
X008350Y022516D02*
X008275Y022441D01*
X008275Y022216D01*
X008725Y022216D01*
X008725Y022441D01*
X008650Y022516D01*
X008350Y022516D01*
X007195Y023666D02*
X007252Y023722D01*
X007252Y023779D01*
X007195Y023836D01*
X007138Y023836D01*
X007195Y023836D02*
X007252Y023892D01*
X007252Y023949D01*
X007195Y024006D01*
X007082Y024006D01*
X007025Y023949D01*
X007025Y023722D02*
X007082Y023666D01*
X007195Y023666D01*
X006252Y023666D02*
X006025Y023666D01*
X006252Y023892D01*
X006252Y023949D01*
X006195Y024006D01*
X006082Y024006D01*
X006025Y023949D01*
X005252Y023666D02*
X005025Y023666D01*
X005138Y023666D02*
X005138Y024006D01*
X005025Y023892D01*
X004286Y023466D02*
X003985Y023466D01*
X004136Y023466D02*
X004136Y023916D01*
X003985Y023766D01*
X003825Y023916D02*
X003825Y023541D01*
X003750Y023466D01*
X003600Y023466D01*
X003525Y023541D01*
X003525Y023916D01*
X004700Y025366D02*
X004625Y025441D01*
X004700Y025366D02*
X004775Y025366D01*
X004850Y025441D01*
X004850Y025816D01*
X004775Y025816D02*
X004925Y025816D01*
X005085Y025816D02*
X005311Y025816D01*
X005386Y025741D01*
X005386Y025591D01*
X005311Y025516D01*
X005085Y025516D01*
X005085Y025366D02*
X005085Y025816D01*
X005546Y025666D02*
X005696Y025816D01*
X005696Y025366D01*
X005546Y025366D02*
X005846Y025366D01*
X005965Y019316D02*
X005965Y018866D01*
X005815Y018866D02*
X006115Y018866D01*
X005815Y019166D02*
X005965Y019316D01*
X003265Y017416D02*
X003115Y017341D01*
X002965Y017191D01*
X003190Y017191D01*
X003265Y017116D01*
X003265Y017041D01*
X003190Y016966D01*
X003040Y016966D01*
X002965Y017041D01*
X002965Y017191D01*
X002625Y017580D02*
X002550Y017505D01*
X002625Y017580D02*
X002625Y017730D01*
X002550Y017805D01*
X002400Y017805D01*
X002325Y017730D01*
X002325Y017655D01*
X002400Y017505D01*
X002175Y017505D01*
X002175Y017805D01*
X000825Y021505D02*
X000825Y021805D01*
X000825Y021655D02*
X000375Y021655D01*
X000525Y021505D01*
D17*
X004000Y023191D02*
X004000Y019191D01*
X006000Y019191D01*
X006000Y023191D01*
X004400Y023191D01*
X004600Y023191D01*
X004400Y023191D02*
X004000Y023191D01*
X003000Y014941D02*
X003000Y013441D01*
X003000Y011941D02*
X003000Y010441D01*
X015807Y021755D02*
X015807Y022385D01*
X015807Y021755D02*
X016437Y021755D01*
X015799Y024057D02*
X015799Y024765D01*
X015807Y024255D02*
X015807Y027385D01*
X019193Y027385D01*
X019193Y021755D01*
X018563Y021755D01*
X019201Y024057D02*
X019201Y024765D01*
X019406Y002261D02*
X017594Y002261D01*
X017594Y002084D01*
X018106Y002084D02*
X018106Y001297D01*
X017594Y001297D02*
X017594Y001120D01*
X019406Y001120D01*
X019406Y001297D01*
X019406Y002084D02*
X019406Y002261D01*
D18*
X017382Y003277D02*
X023012Y003277D01*
X023012Y009104D01*
X017382Y009104D01*
X017382Y003277D01*
X010250Y012741D02*
X010250Y014891D01*
X010050Y015091D01*
X010000Y015091D01*
X010000Y015391D01*
X009650Y015591D01*
X008350Y015591D01*
X008000Y015391D01*
X008000Y015091D01*
X007950Y015091D01*
X007750Y014891D01*
X007750Y012741D01*
X010250Y012741D01*
X010000Y015091D02*
X008000Y015091D01*
X003000Y014941D02*
X002957Y014995D01*
X002911Y015047D01*
X002862Y015096D01*
X002810Y015143D01*
X002756Y015186D01*
X002700Y015227D01*
X002641Y015264D01*
X002581Y015298D01*
X002518Y015328D01*
X002455Y015355D01*
X002389Y015379D01*
X002323Y015399D01*
X002255Y015415D01*
X002187Y015427D01*
X002118Y015435D01*
X002049Y015440D01*
X001979Y015441D01*
X001910Y015438D01*
X001841Y015431D01*
X001773Y015420D01*
X001705Y015406D01*
X001638Y015387D01*
X001572Y015365D01*
X001507Y015340D01*
X001444Y015311D01*
X001383Y015278D01*
X001324Y015242D01*
X001267Y015203D01*
X001211Y015161D01*
X001159Y015116D01*
X001109Y015068D01*
X001062Y015017D01*
X001017Y014963D01*
X000976Y014908D01*
X000938Y014850D01*
X000903Y014790D01*
X000871Y014728D01*
X000843Y014665D01*
X000819Y014600D01*
X000798Y014534D01*
X000781Y014466D01*
X000767Y014398D01*
X000758Y014329D01*
X000752Y014260D01*
X000750Y014191D01*
X000752Y014122D01*
X000758Y014053D01*
X000767Y013984D01*
X000781Y013916D01*
X000798Y013848D01*
X000819Y013782D01*
X000843Y013717D01*
X000871Y013654D01*
X000903Y013592D01*
X000938Y013532D01*
X000976Y013474D01*
X001017Y013419D01*
X001062Y013365D01*
X001109Y013314D01*
X001159Y013266D01*
X001211Y013221D01*
X001267Y013179D01*
X001324Y013140D01*
X001383Y013104D01*
X001444Y013071D01*
X001507Y013042D01*
X001572Y013017D01*
X001638Y012995D01*
X001705Y012976D01*
X001773Y012962D01*
X001841Y012951D01*
X001910Y012944D01*
X001979Y012941D01*
X002049Y012942D01*
X002118Y012947D01*
X002187Y012955D01*
X002255Y012967D01*
X002323Y012983D01*
X002389Y013003D01*
X002455Y013027D01*
X002518Y013054D01*
X002581Y013084D01*
X002641Y013118D01*
X002700Y013155D01*
X002756Y013196D01*
X002810Y013239D01*
X002862Y013286D01*
X002911Y013335D01*
X002957Y013387D01*
X003000Y013441D01*
X003000Y011941D02*
X002957Y011995D01*
X002911Y012047D01*
X002862Y012096D01*
X002810Y012143D01*
X002756Y012186D01*
X002700Y012227D01*
X002641Y012264D01*
X002581Y012298D01*
X002518Y012328D01*
X002455Y012355D01*
X002389Y012379D01*
X002323Y012399D01*
X002255Y012415D01*
X002187Y012427D01*
X002118Y012435D01*
X002049Y012440D01*
X001979Y012441D01*
X001910Y012438D01*
X001841Y012431D01*
X001773Y012420D01*
X001705Y012406D01*
X001638Y012387D01*
X001572Y012365D01*
X001507Y012340D01*
X001444Y012311D01*
X001383Y012278D01*
X001324Y012242D01*
X001267Y012203D01*
X001211Y012161D01*
X001159Y012116D01*
X001109Y012068D01*
X001062Y012017D01*
X001017Y011963D01*
X000976Y011908D01*
X000938Y011850D01*
X000903Y011790D01*
X000871Y011728D01*
X000843Y011665D01*
X000819Y011600D01*
X000798Y011534D01*
X000781Y011466D01*
X000767Y011398D01*
X000758Y011329D01*
X000752Y011260D01*
X000750Y011191D01*
X000752Y011122D01*
X000758Y011053D01*
X000767Y010984D01*
X000781Y010916D01*
X000798Y010848D01*
X000819Y010782D01*
X000843Y010717D01*
X000871Y010654D01*
X000903Y010592D01*
X000938Y010532D01*
X000976Y010474D01*
X001017Y010419D01*
X001062Y010365D01*
X001109Y010314D01*
X001159Y010266D01*
X001211Y010221D01*
X001267Y010179D01*
X001324Y010140D01*
X001383Y010104D01*
X001444Y010071D01*
X001507Y010042D01*
X001572Y010017D01*
X001638Y009995D01*
X001705Y009976D01*
X001773Y009962D01*
X001841Y009951D01*
X001910Y009944D01*
X001979Y009941D01*
X002049Y009942D01*
X002118Y009947D01*
X002187Y009955D01*
X002255Y009967D01*
X002323Y009983D01*
X002389Y010003D01*
X002455Y010027D01*
X002518Y010054D01*
X002581Y010084D01*
X002641Y010118D01*
X002700Y010155D01*
X002756Y010196D01*
X002810Y010239D01*
X002862Y010286D01*
X002911Y010335D01*
X002957Y010387D01*
X003000Y010441D01*
X007000Y022091D02*
X007300Y022091D01*
X007600Y022091D01*
X007600Y022291D02*
X007300Y022291D01*
X007000Y022291D01*
X004217Y022691D02*
X004219Y022724D01*
X004225Y022757D01*
X004235Y022790D01*
X004248Y022820D01*
X004265Y022849D01*
X004286Y022876D01*
X004309Y022900D01*
X004335Y022921D01*
X004363Y022939D01*
X004394Y022953D01*
X004425Y022964D01*
X004458Y022971D01*
X004492Y022974D01*
X004525Y022973D01*
X004558Y022968D01*
X004591Y022959D01*
X004622Y022946D01*
X004651Y022930D01*
X004678Y022911D01*
X004703Y022888D01*
X004725Y022863D01*
X004744Y022835D01*
X004759Y022805D01*
X004771Y022774D01*
X004779Y022741D01*
X004783Y022708D01*
X004783Y022674D01*
X004779Y022641D01*
X004771Y022608D01*
X004759Y022577D01*
X004744Y022547D01*
X004725Y022519D01*
X004703Y022494D01*
X004678Y022471D01*
X004651Y022452D01*
X004622Y022436D01*
X004591Y022423D01*
X004558Y022414D01*
X004525Y022409D01*
X004492Y022408D01*
X004458Y022411D01*
X004425Y022418D01*
X004394Y022429D01*
X004363Y022443D01*
X004335Y022461D01*
X004309Y022482D01*
X004286Y022506D01*
X004265Y022533D01*
X004248Y022562D01*
X004235Y022592D01*
X004225Y022625D01*
X004219Y022658D01*
X004217Y022691D01*
X015500Y022191D02*
X015500Y020941D01*
X015750Y020941D01*
X015750Y021191D01*
X016250Y021191D01*
X016250Y020941D01*
X016750Y020941D01*
X016750Y021191D01*
X017250Y021191D01*
X017250Y020941D01*
X017750Y020941D01*
X017750Y021191D01*
X018250Y021191D01*
X018250Y020941D01*
X018750Y020941D01*
X018750Y021191D01*
X019250Y021191D01*
X019250Y020941D01*
X019500Y020941D01*
X019500Y022191D01*
X019150Y022191D01*
X019150Y024641D01*
X019020Y024781D01*
X019000Y025341D02*
X018900Y025541D01*
X017480Y025541D01*
X017520Y025541D02*
X016100Y025541D01*
X016000Y025341D01*
X016000Y022191D01*
X015500Y022191D01*
X015850Y022191D02*
X015850Y024641D01*
X015980Y024781D01*
X016000Y022191D02*
X019150Y022191D01*
X019000Y022191D02*
X019000Y025341D01*
D19*
X014000Y024321D03*
X014000Y017061D03*
D20*
X013830Y018974D02*
X013470Y018974D01*
X013470Y019154D01*
X013530Y019214D01*
X013650Y019214D01*
X013710Y019154D01*
X013710Y018974D01*
X013710Y019094D02*
X013830Y019214D01*
X013830Y019342D02*
X013770Y019342D01*
X013530Y019582D01*
X013470Y019582D01*
X013470Y019342D01*
X019564Y022292D02*
X019924Y022292D01*
X019924Y022172D02*
X019924Y022412D01*
X019684Y022172D02*
X019564Y022292D01*
D21*
X011500Y020191D03*
X009000Y020191D03*
D22*
X009000Y019516D03*
X011500Y019516D03*
X011500Y023866D03*
X009000Y023866D03*
D23*
X015430Y016691D03*
X018570Y016691D03*
D24*
X012250Y012811D02*
X012000Y012811D01*
X011750Y012811D01*
X011750Y012561D02*
X012000Y012561D01*
X012250Y012561D01*
X011250Y013571D02*
X011000Y013571D01*
X010750Y013571D01*
X010750Y013821D02*
X011000Y013821D01*
X011250Y013821D01*
D25*
X011075Y016691D03*
D26*
X011775Y016691D03*
X008225Y016691D03*
D27*
X008100Y011791D02*
X008100Y011491D01*
X009000Y011491D02*
X009000Y011791D01*
X009900Y011791D02*
X009900Y011491D01*
D28*
X009900Y011941D03*
X009000Y011941D03*
X008100Y011941D03*
D29*
X008100Y012391D03*
X009000Y012391D03*
X009900Y012391D03*
D30*
X007000Y012766D03*
X007000Y010616D03*
D31*
X019110Y001036D02*
X019185Y001036D01*
X019210Y001011D01*
X019210Y000911D01*
X019185Y000886D01*
X019110Y000886D01*
X019110Y001036D01*
X019258Y001011D02*
X019283Y001036D01*
X019333Y001036D01*
X019358Y001011D01*
X019358Y000986D01*
X019333Y000961D01*
X019358Y000936D01*
X019358Y000911D01*
X019333Y000886D01*
X019283Y000886D01*
X019258Y000911D01*
X019308Y000961D02*
X019333Y000961D01*
M02*
