G75*
%MOIN*%
%OFA0B0*%
%FSLAX24Y24*%
%IPPOS*%
%LPD*%
%AMOC8*
5,1,8,0,0,1.08239X$1,22.5*
%
%ADD10C,0.1190*%
%ADD11OC8,0.1280*%
%ADD12C,0.1280*%
%ADD13OC8,0.0560*%
%ADD14C,0.0560*%
%ADD15OC8,0.0640*%
%ADD16C,0.0600*%
%ADD17C,0.0925*%
%ADD18OC8,0.0720*%
%ADD19C,0.0640*%
%ADD20C,0.0640*%
%ADD21C,0.1040*%
%ADD22C,0.0700*%
%ADD23R,0.0640X0.0640*%
%ADD24R,0.0740X0.0740*%
%ADD25C,0.0740*%
%ADD26C,0.2481*%
%ADD27C,0.0614*%
%ADD28C,0.1346*%
%ADD29C,0.0590*%
%ADD30R,0.2140X0.2490*%
%ADD31R,0.0540X0.0619*%
%ADD32C,0.1790*%
%ADD33C,0.1540*%
%ADD34R,0.0840X0.0540*%
%ADD35R,0.0158X0.0434*%
%ADD36R,0.0276X0.0434*%
%ADD37C,0.0296*%
%ADD38C,0.0004*%
%ADD39R,0.0552X0.0631*%
%ADD40C,0.0440*%
D10*
X021170Y024311D03*
D11*
X015000Y003691D03*
X007500Y003691D03*
D12*
X004500Y003691D03*
X012000Y003691D03*
D13*
X013500Y008191D03*
X013500Y009191D03*
X012500Y009191D03*
X012000Y011691D03*
X011000Y012691D03*
X012000Y013691D03*
X011000Y014691D03*
X007000Y014191D03*
X007000Y013191D03*
X007000Y010191D03*
X008500Y009191D03*
X009500Y009191D03*
X008500Y008191D03*
X005500Y008191D03*
X005500Y009191D03*
X004000Y009191D03*
X004000Y008191D03*
X002500Y011191D03*
X001500Y011191D03*
X001000Y009191D03*
X001000Y008191D03*
X001500Y014191D03*
X002500Y014191D03*
X004000Y014191D03*
X004000Y016191D03*
X001000Y016191D03*
X007300Y021691D03*
X007300Y022691D03*
X016500Y009191D03*
X016500Y008191D03*
D14*
X010750Y007451D02*
X010750Y006931D01*
X009750Y006931D02*
X009750Y007451D01*
X008750Y007451D02*
X008750Y006931D01*
X003000Y006951D02*
X003000Y006431D01*
X002000Y006431D02*
X002000Y006951D01*
X001000Y006951D02*
X001000Y006431D01*
X015000Y016431D02*
X015000Y016951D01*
X016000Y016951D02*
X016000Y016431D01*
X018000Y016431D02*
X018000Y016951D01*
X019000Y016951D02*
X019000Y016431D01*
D15*
X014000Y016191D03*
X014000Y025191D03*
X006000Y017191D03*
X005000Y017191D03*
X005000Y018191D03*
X004000Y018191D03*
X004000Y017191D03*
D16*
X005000Y024411D02*
X005000Y024971D01*
X006000Y024971D02*
X006000Y024411D01*
X007000Y024411D02*
X007000Y024971D01*
X018000Y018971D02*
X018000Y018411D01*
X019000Y018411D02*
X019000Y018971D01*
D17*
X011500Y019133D02*
X011500Y018248D01*
X009000Y018248D02*
X009000Y019133D01*
X009000Y024248D02*
X009000Y025133D01*
X011500Y025133D02*
X011500Y024248D01*
D18*
X006500Y022691D03*
X006500Y021691D03*
X006500Y020691D03*
X006500Y019691D03*
X003500Y019691D03*
X003500Y020691D03*
X003500Y021691D03*
X003500Y022691D03*
D19*
X001800Y021691D02*
X001200Y021691D01*
X001200Y020691D02*
X001800Y020691D01*
X001800Y019691D02*
X001200Y019691D01*
X001200Y018691D02*
X001800Y018691D01*
X001800Y017691D02*
X001200Y017691D01*
X016000Y019891D02*
X016000Y020491D01*
X017000Y020491D02*
X017000Y019891D01*
X018000Y019891D02*
X018000Y020491D01*
X019000Y020491D02*
X019000Y019891D01*
D20*
X014000Y014691D03*
X013000Y014691D03*
X013000Y013691D03*
X013000Y012691D03*
X013000Y010691D03*
X006000Y018191D03*
D21*
X005500Y003691D03*
X005500Y000791D03*
X004500Y000791D03*
X007500Y000791D03*
X012000Y000791D03*
X013000Y000791D03*
X015000Y000791D03*
X013000Y003691D03*
D22*
X012830Y016691D02*
X012170Y016691D01*
X007830Y016691D02*
X007170Y016691D01*
D23*
X005500Y013191D03*
X005500Y012191D03*
X005500Y011191D03*
X005500Y010191D03*
X013000Y011691D03*
X017500Y012191D03*
X017500Y013191D03*
X017500Y014191D03*
X017500Y015191D03*
X017500Y011191D03*
D24*
X020669Y022395D03*
D25*
X020669Y021395D03*
X020669Y020395D03*
X020669Y019395D03*
X020669Y018395D03*
X020669Y017395D03*
X020669Y016395D03*
X020669Y015395D03*
X020669Y014395D03*
X020669Y013395D03*
X020669Y012395D03*
X020669Y011395D03*
X020669Y010395D03*
X020669Y009395D03*
X020669Y008395D03*
X020669Y007395D03*
X020669Y006395D03*
X020669Y005395D03*
X020669Y004395D03*
X020669Y003395D03*
X021669Y003395D03*
X021669Y004395D03*
X021669Y005395D03*
X021669Y006395D03*
X021669Y007395D03*
X021669Y008395D03*
X021669Y009395D03*
X021669Y010395D03*
X021669Y011395D03*
X021669Y012395D03*
X021669Y013395D03*
X021669Y014395D03*
X021669Y015395D03*
X021669Y016395D03*
X021669Y017395D03*
X021669Y018395D03*
X021669Y019395D03*
X021669Y020395D03*
X021669Y021395D03*
X021669Y022395D03*
D26*
X001878Y001478D03*
X021169Y001478D03*
X001878Y024313D03*
D27*
X017646Y007569D02*
X018220Y007569D01*
X018220Y006584D02*
X017646Y006584D01*
X017646Y005797D02*
X018220Y005797D01*
X018220Y004813D02*
X017646Y004813D01*
D28*
X019000Y003604D03*
X019000Y008777D03*
D29*
X009900Y010316D02*
X009900Y010866D01*
X009000Y010866D02*
X009000Y010316D01*
X008100Y010316D02*
X008100Y010866D01*
D30*
X009000Y014441D03*
D31*
X017654Y001691D03*
X019346Y001691D03*
D32*
X017500Y022070D03*
D33*
X017500Y024472D03*
D34*
X016500Y024391D03*
X015700Y024391D03*
X018600Y022191D03*
X019400Y022191D03*
D35*
X018189Y023324D03*
X017992Y023324D03*
X017795Y023324D03*
X017598Y023324D03*
X017402Y023324D03*
X017205Y023324D03*
X017008Y023324D03*
X016811Y023324D03*
D36*
X016535Y023324D03*
X016230Y023324D03*
X018465Y023324D03*
X018770Y023324D03*
D37*
X018638Y023759D03*
X016362Y023759D03*
D38*
X016035Y023759D02*
X015563Y023759D01*
X015563Y023761D02*
X016035Y023761D01*
X016035Y023764D02*
X015563Y023764D01*
X015563Y023766D02*
X016035Y023766D01*
X016035Y023769D02*
X015563Y023769D01*
X015563Y023771D02*
X016035Y023771D01*
X016035Y023773D02*
X015563Y023773D01*
X015563Y023776D02*
X016035Y023776D01*
X016035Y023778D02*
X015563Y023778D01*
X015563Y023781D02*
X016035Y023781D01*
X016035Y023783D02*
X015563Y023783D01*
X015563Y023786D02*
X016035Y023786D01*
X016035Y023788D02*
X015563Y023788D01*
X015563Y023789D02*
X015571Y023839D01*
X015590Y023886D01*
X015619Y023927D01*
X015656Y023961D01*
X015942Y023961D01*
X015980Y023927D01*
X015619Y023927D01*
X015617Y023925D02*
X015981Y023925D01*
X015980Y023927D02*
X016008Y023886D01*
X016027Y023839D01*
X015571Y023839D01*
X015571Y023837D02*
X016028Y023837D01*
X016027Y023839D02*
X016035Y023789D01*
X016035Y023317D01*
X016029Y023272D01*
X016015Y023230D01*
X015992Y023192D01*
X015963Y023158D01*
X015927Y023131D01*
X015887Y023112D01*
X015844Y023101D01*
X015762Y023101D01*
X015748Y023102D02*
X015700Y023117D01*
X015656Y023142D01*
X015618Y023177D01*
X015589Y023219D01*
X015571Y023266D01*
X015563Y023317D01*
X015563Y023789D01*
X015563Y023790D02*
X016035Y023790D01*
X016035Y023793D02*
X015564Y023793D01*
X015564Y023795D02*
X016034Y023795D01*
X016034Y023798D02*
X015564Y023798D01*
X015565Y023800D02*
X016034Y023800D01*
X016033Y023803D02*
X015565Y023803D01*
X015566Y023805D02*
X016033Y023805D01*
X016032Y023808D02*
X015566Y023808D01*
X015566Y023810D02*
X016032Y023810D01*
X016032Y023812D02*
X015567Y023812D01*
X015567Y023815D02*
X016031Y023815D01*
X016031Y023817D02*
X015568Y023817D01*
X015568Y023820D02*
X016030Y023820D01*
X016030Y023822D02*
X015568Y023822D01*
X015569Y023825D02*
X016030Y023825D01*
X016029Y023827D02*
X015569Y023827D01*
X015570Y023829D02*
X016029Y023829D01*
X016028Y023832D02*
X015570Y023832D01*
X015570Y023834D02*
X016028Y023834D01*
X016026Y023842D02*
X015572Y023842D01*
X015573Y023844D02*
X016025Y023844D01*
X016024Y023847D02*
X015574Y023847D01*
X015575Y023849D02*
X016023Y023849D01*
X016022Y023851D02*
X015576Y023851D01*
X015577Y023854D02*
X016021Y023854D01*
X016020Y023856D02*
X015578Y023856D01*
X015579Y023859D02*
X016019Y023859D01*
X016018Y023861D02*
X015580Y023861D01*
X015581Y023864D02*
X016017Y023864D01*
X016016Y023866D02*
X015582Y023866D01*
X015583Y023868D02*
X016015Y023868D01*
X016014Y023871D02*
X015584Y023871D01*
X015585Y023873D02*
X016013Y023873D01*
X016012Y023876D02*
X015586Y023876D01*
X015587Y023878D02*
X016011Y023878D01*
X016010Y023881D02*
X015588Y023881D01*
X015589Y023883D02*
X016009Y023883D01*
X016008Y023886D02*
X015590Y023886D01*
X015592Y023888D02*
X016007Y023888D01*
X016005Y023890D02*
X015593Y023890D01*
X015595Y023893D02*
X016003Y023893D01*
X016002Y023895D02*
X015597Y023895D01*
X015598Y023898D02*
X016000Y023898D01*
X015998Y023900D02*
X015600Y023900D01*
X015602Y023903D02*
X015997Y023903D01*
X015995Y023905D02*
X015603Y023905D01*
X015605Y023907D02*
X015993Y023907D01*
X015992Y023910D02*
X015607Y023910D01*
X015609Y023912D02*
X015990Y023912D01*
X015988Y023915D02*
X015610Y023915D01*
X015612Y023917D02*
X015986Y023917D01*
X015985Y023920D02*
X015614Y023920D01*
X015615Y023922D02*
X015983Y023922D01*
X015977Y023929D02*
X015621Y023929D01*
X015624Y023932D02*
X015974Y023932D01*
X015972Y023934D02*
X015627Y023934D01*
X015629Y023937D02*
X015969Y023937D01*
X015966Y023939D02*
X015632Y023939D01*
X015635Y023942D02*
X015964Y023942D01*
X015961Y023944D02*
X015638Y023944D01*
X015640Y023946D02*
X015958Y023946D01*
X015956Y023949D02*
X015643Y023949D01*
X015646Y023951D02*
X015953Y023951D01*
X015950Y023954D02*
X015648Y023954D01*
X015651Y023956D02*
X015948Y023956D01*
X015945Y023959D02*
X015654Y023959D01*
X015656Y023961D02*
X015700Y023986D01*
X015749Y024000D01*
X015799Y024004D01*
X015850Y024000D01*
X015748Y024000D01*
X015740Y023998D02*
X015859Y023998D01*
X015867Y023995D02*
X015732Y023995D01*
X015723Y023993D02*
X015875Y023993D01*
X015883Y023990D02*
X015715Y023990D01*
X015707Y023988D02*
X015891Y023988D01*
X015898Y023986D02*
X015942Y023961D01*
X015938Y023964D02*
X015661Y023964D01*
X015665Y023966D02*
X015934Y023966D01*
X015929Y023968D02*
X015669Y023968D01*
X015674Y023971D02*
X015925Y023971D01*
X015921Y023973D02*
X015678Y023973D01*
X015682Y023976D02*
X015916Y023976D01*
X015912Y023978D02*
X015687Y023978D01*
X015691Y023981D02*
X015908Y023981D01*
X015903Y023983D02*
X015695Y023983D01*
X015700Y023985D02*
X015899Y023985D01*
X015898Y023986D02*
X015850Y024000D01*
X015815Y024003D02*
X015783Y024003D01*
X015563Y023756D02*
X016035Y023756D01*
X016035Y023754D02*
X015563Y023754D01*
X015563Y023751D02*
X016035Y023751D01*
X016035Y023749D02*
X015563Y023749D01*
X015563Y023747D02*
X016035Y023747D01*
X016035Y023744D02*
X015563Y023744D01*
X015563Y023742D02*
X016035Y023742D01*
X016035Y023739D02*
X015563Y023739D01*
X015563Y023737D02*
X016035Y023737D01*
X016035Y023734D02*
X015563Y023734D01*
X015563Y023732D02*
X016035Y023732D01*
X016035Y023730D02*
X015563Y023730D01*
X015563Y023727D02*
X016035Y023727D01*
X016035Y023725D02*
X015563Y023725D01*
X015563Y023722D02*
X016035Y023722D01*
X016035Y023720D02*
X015563Y023720D01*
X015563Y023717D02*
X016035Y023717D01*
X016035Y023715D02*
X015563Y023715D01*
X015563Y023712D02*
X016035Y023712D01*
X016035Y023710D02*
X015563Y023710D01*
X015563Y023708D02*
X016035Y023708D01*
X016035Y023705D02*
X015563Y023705D01*
X015563Y023703D02*
X016035Y023703D01*
X016035Y023700D02*
X015563Y023700D01*
X015563Y023698D02*
X016035Y023698D01*
X016035Y023695D02*
X015563Y023695D01*
X015563Y023693D02*
X016035Y023693D01*
X016035Y023691D02*
X015563Y023691D01*
X015563Y023688D02*
X016035Y023688D01*
X016035Y023686D02*
X015563Y023686D01*
X015563Y023683D02*
X016035Y023683D01*
X016035Y023681D02*
X015563Y023681D01*
X015563Y023678D02*
X016035Y023678D01*
X016035Y023676D02*
X015563Y023676D01*
X015563Y023673D02*
X016035Y023673D01*
X016035Y023671D02*
X015563Y023671D01*
X015563Y023669D02*
X016035Y023669D01*
X016035Y023666D02*
X015563Y023666D01*
X015563Y023664D02*
X016035Y023664D01*
X016035Y023661D02*
X015563Y023661D01*
X015563Y023659D02*
X016035Y023659D01*
X016035Y023656D02*
X015563Y023656D01*
X015563Y023654D02*
X016035Y023654D01*
X016035Y023652D02*
X015563Y023652D01*
X015563Y023649D02*
X016035Y023649D01*
X016035Y023647D02*
X015563Y023647D01*
X015563Y023644D02*
X016035Y023644D01*
X016035Y023642D02*
X015563Y023642D01*
X015563Y023639D02*
X016035Y023639D01*
X016035Y023637D02*
X015563Y023637D01*
X015563Y023634D02*
X016035Y023634D01*
X016035Y023632D02*
X015563Y023632D01*
X015563Y023630D02*
X016035Y023630D01*
X016035Y023627D02*
X015563Y023627D01*
X015563Y023625D02*
X016035Y023625D01*
X016035Y023622D02*
X015563Y023622D01*
X015563Y023620D02*
X016035Y023620D01*
X016035Y023617D02*
X015563Y023617D01*
X015563Y023615D02*
X016035Y023615D01*
X016035Y023613D02*
X015563Y023613D01*
X015563Y023610D02*
X016035Y023610D01*
X016035Y023608D02*
X015563Y023608D01*
X015563Y023605D02*
X016035Y023605D01*
X016035Y023603D02*
X015563Y023603D01*
X015563Y023600D02*
X016035Y023600D01*
X016035Y023598D02*
X015563Y023598D01*
X015563Y023596D02*
X016035Y023596D01*
X016035Y023593D02*
X015563Y023593D01*
X015563Y023591D02*
X016035Y023591D01*
X016035Y023588D02*
X015563Y023588D01*
X015563Y023586D02*
X016035Y023586D01*
X016035Y023583D02*
X015563Y023583D01*
X015563Y023581D02*
X016035Y023581D01*
X016035Y023578D02*
X015563Y023578D01*
X015563Y023576D02*
X016035Y023576D01*
X016035Y023574D02*
X015563Y023574D01*
X015563Y023571D02*
X016035Y023571D01*
X016035Y023569D02*
X015563Y023569D01*
X015563Y023566D02*
X016035Y023566D01*
X016035Y023564D02*
X015563Y023564D01*
X015563Y023561D02*
X016035Y023561D01*
X016035Y023559D02*
X015563Y023559D01*
X015563Y023557D02*
X016035Y023557D01*
X016035Y023554D02*
X015563Y023554D01*
X015563Y023552D02*
X016035Y023552D01*
X016035Y023549D02*
X015563Y023549D01*
X015563Y023547D02*
X016035Y023547D01*
X016035Y023544D02*
X015563Y023544D01*
X015563Y023542D02*
X016035Y023542D01*
X016035Y023539D02*
X015563Y023539D01*
X015563Y023537D02*
X016035Y023537D01*
X016035Y023535D02*
X015563Y023535D01*
X015563Y023532D02*
X016035Y023532D01*
X016035Y023530D02*
X015563Y023530D01*
X015563Y023527D02*
X016035Y023527D01*
X016035Y023525D02*
X015563Y023525D01*
X015563Y023522D02*
X016035Y023522D01*
X016035Y023520D02*
X015563Y023520D01*
X015563Y023518D02*
X016035Y023518D01*
X016035Y023515D02*
X015563Y023515D01*
X015563Y023513D02*
X016035Y023513D01*
X016035Y023510D02*
X015563Y023510D01*
X015563Y023508D02*
X016035Y023508D01*
X016035Y023505D02*
X015563Y023505D01*
X015563Y023503D02*
X016035Y023503D01*
X016035Y023500D02*
X015563Y023500D01*
X015563Y023498D02*
X016035Y023498D01*
X016035Y023496D02*
X015563Y023496D01*
X015563Y023493D02*
X016035Y023493D01*
X016035Y023491D02*
X015563Y023491D01*
X015563Y023488D02*
X016035Y023488D01*
X016035Y023486D02*
X015563Y023486D01*
X015563Y023483D02*
X016035Y023483D01*
X016035Y023481D02*
X015563Y023481D01*
X015563Y023479D02*
X016035Y023479D01*
X016035Y023476D02*
X015563Y023476D01*
X015563Y023474D02*
X016035Y023474D01*
X016035Y023471D02*
X015563Y023471D01*
X015563Y023469D02*
X016035Y023469D01*
X016035Y023466D02*
X015563Y023466D01*
X015563Y023464D02*
X016035Y023464D01*
X016035Y023461D02*
X015563Y023461D01*
X015563Y023459D02*
X016035Y023459D01*
X016035Y023457D02*
X015563Y023457D01*
X015563Y023454D02*
X016035Y023454D01*
X016035Y023452D02*
X015563Y023452D01*
X015563Y023449D02*
X016035Y023449D01*
X016035Y023447D02*
X015563Y023447D01*
X015563Y023444D02*
X016035Y023444D01*
X016035Y023442D02*
X015563Y023442D01*
X015563Y023440D02*
X016035Y023440D01*
X016035Y023437D02*
X015563Y023437D01*
X015563Y023435D02*
X016035Y023435D01*
X016035Y023432D02*
X015563Y023432D01*
X015563Y023430D02*
X016035Y023430D01*
X016035Y023427D02*
X015563Y023427D01*
X015563Y023425D02*
X016035Y023425D01*
X016035Y023422D02*
X015563Y023422D01*
X015563Y023420D02*
X016035Y023420D01*
X016035Y023418D02*
X015563Y023418D01*
X015563Y023415D02*
X016035Y023415D01*
X016035Y023413D02*
X015563Y023413D01*
X015563Y023410D02*
X016035Y023410D01*
X016035Y023408D02*
X015563Y023408D01*
X015563Y023405D02*
X016035Y023405D01*
X016035Y023403D02*
X015563Y023403D01*
X015563Y023401D02*
X016035Y023401D01*
X016035Y023398D02*
X015563Y023398D01*
X015563Y023396D02*
X016035Y023396D01*
X016035Y023393D02*
X015563Y023393D01*
X015563Y023391D02*
X016035Y023391D01*
X016035Y023388D02*
X015563Y023388D01*
X015563Y023386D02*
X016035Y023386D01*
X016035Y023383D02*
X015563Y023383D01*
X015563Y023381D02*
X016035Y023381D01*
X016035Y023379D02*
X015563Y023379D01*
X015563Y023376D02*
X016035Y023376D01*
X016035Y023374D02*
X015563Y023374D01*
X015563Y023371D02*
X016035Y023371D01*
X016035Y023369D02*
X015563Y023369D01*
X015563Y023366D02*
X016035Y023366D01*
X016035Y023364D02*
X015563Y023364D01*
X015563Y023362D02*
X016035Y023362D01*
X016035Y023359D02*
X015563Y023359D01*
X015563Y023357D02*
X016035Y023357D01*
X016035Y023354D02*
X015563Y023354D01*
X015563Y023352D02*
X016035Y023352D01*
X016035Y023349D02*
X015563Y023349D01*
X015563Y023347D02*
X016035Y023347D01*
X016035Y023344D02*
X015563Y023344D01*
X015563Y023342D02*
X016035Y023342D01*
X016035Y023340D02*
X015563Y023340D01*
X015563Y023337D02*
X016035Y023337D01*
X016035Y023335D02*
X015563Y023335D01*
X015563Y023332D02*
X016035Y023332D01*
X016035Y023330D02*
X015563Y023330D01*
X015563Y023327D02*
X016035Y023327D01*
X016035Y023325D02*
X015563Y023325D01*
X015563Y023323D02*
X016035Y023323D01*
X016035Y023320D02*
X015563Y023320D01*
X015563Y023318D02*
X016035Y023318D01*
X016035Y023315D02*
X015563Y023315D01*
X015564Y023313D02*
X016035Y023313D01*
X016035Y023310D02*
X015564Y023310D01*
X015564Y023308D02*
X016034Y023308D01*
X016034Y023305D02*
X015565Y023305D01*
X015565Y023303D02*
X016034Y023303D01*
X016033Y023301D02*
X015565Y023301D01*
X015566Y023298D02*
X016033Y023298D01*
X016033Y023296D02*
X015566Y023296D01*
X015567Y023293D02*
X016032Y023293D01*
X016032Y023291D02*
X015567Y023291D01*
X015567Y023288D02*
X016032Y023288D01*
X016031Y023286D02*
X015568Y023286D01*
X015568Y023284D02*
X016031Y023284D01*
X016031Y023281D02*
X015568Y023281D01*
X015569Y023279D02*
X016030Y023279D01*
X016030Y023276D02*
X015569Y023276D01*
X015570Y023274D02*
X016030Y023274D01*
X016029Y023271D02*
X015570Y023271D01*
X015570Y023269D02*
X016028Y023269D01*
X016027Y023266D02*
X015571Y023266D01*
X015572Y023264D02*
X016026Y023264D01*
X016026Y023262D02*
X015572Y023262D01*
X015573Y023259D02*
X016025Y023259D01*
X016024Y023257D02*
X015574Y023257D01*
X015575Y023254D02*
X016023Y023254D01*
X016022Y023252D02*
X015576Y023252D01*
X015577Y023249D02*
X016021Y023249D01*
X016021Y023247D02*
X015578Y023247D01*
X015579Y023245D02*
X016020Y023245D01*
X016019Y023242D02*
X015580Y023242D01*
X015581Y023240D02*
X016018Y023240D01*
X016017Y023237D02*
X015582Y023237D01*
X015583Y023235D02*
X016016Y023235D01*
X016015Y023232D02*
X015584Y023232D01*
X015585Y023230D02*
X016015Y023230D01*
X016013Y023227D02*
X015586Y023227D01*
X015587Y023225D02*
X016012Y023225D01*
X016010Y023223D02*
X015588Y023223D01*
X015589Y023220D02*
X016009Y023220D01*
X016007Y023218D02*
X015590Y023218D01*
X015592Y023215D02*
X016006Y023215D01*
X016005Y023213D02*
X015593Y023213D01*
X015595Y023210D02*
X016003Y023210D01*
X016002Y023208D02*
X015597Y023208D01*
X015598Y023206D02*
X016000Y023206D01*
X015999Y023203D02*
X015600Y023203D01*
X015602Y023201D02*
X015997Y023201D01*
X015996Y023198D02*
X015603Y023198D01*
X015605Y023196D02*
X015995Y023196D01*
X015993Y023193D02*
X015607Y023193D01*
X015608Y023191D02*
X015991Y023191D01*
X015989Y023188D02*
X015610Y023188D01*
X015612Y023186D02*
X015987Y023186D01*
X015985Y023184D02*
X015613Y023184D01*
X015615Y023181D02*
X015983Y023181D01*
X015981Y023179D02*
X015617Y023179D01*
X015619Y023176D02*
X015979Y023176D01*
X015976Y023174D02*
X015621Y023174D01*
X015624Y023171D02*
X015974Y023171D01*
X015972Y023169D02*
X015626Y023169D01*
X015629Y023167D02*
X015970Y023167D01*
X015968Y023164D02*
X015632Y023164D01*
X015634Y023162D02*
X015966Y023162D01*
X015963Y023159D02*
X015637Y023159D01*
X015640Y023157D02*
X015961Y023157D01*
X015957Y023154D02*
X015642Y023154D01*
X015645Y023152D02*
X015954Y023152D01*
X015951Y023149D02*
X015648Y023149D01*
X015650Y023147D02*
X015948Y023147D01*
X015944Y023145D02*
X015653Y023145D01*
X015655Y023142D02*
X015941Y023142D01*
X015938Y023140D02*
X015660Y023140D01*
X015664Y023137D02*
X015935Y023137D01*
X015932Y023135D02*
X015668Y023135D01*
X015672Y023132D02*
X015928Y023132D01*
X015924Y023130D02*
X015677Y023130D01*
X015681Y023128D02*
X015919Y023128D01*
X015914Y023125D02*
X015685Y023125D01*
X015689Y023123D02*
X015909Y023123D01*
X015904Y023120D02*
X015694Y023120D01*
X015698Y023118D02*
X015899Y023118D01*
X015894Y023115D02*
X015704Y023115D01*
X015712Y023113D02*
X015889Y023113D01*
X015881Y023110D02*
X015720Y023110D01*
X015728Y023108D02*
X015872Y023108D01*
X015863Y023106D02*
X015736Y023106D01*
X015744Y023103D02*
X015853Y023103D01*
X015844Y023101D02*
X015799Y023098D01*
X015748Y023102D01*
X015796Y023098D02*
X015804Y023098D01*
X015799Y024842D02*
X015753Y024847D01*
X015709Y024861D01*
X015709Y024860D02*
X015886Y024860D01*
X015879Y024858D02*
X015717Y024858D01*
X015725Y024856D02*
X015872Y024856D01*
X015866Y024853D02*
X015733Y024853D01*
X015741Y024851D02*
X015859Y024851D01*
X015852Y024848D02*
X015799Y024842D01*
X015810Y024843D02*
X015787Y024843D01*
X015763Y024846D02*
X015831Y024846D01*
X015852Y024848D02*
X015748Y024848D01*
X015709Y024861D02*
X015668Y024883D01*
X015632Y024912D01*
X015602Y024948D01*
X015581Y024989D01*
X015567Y025034D01*
X015563Y025080D01*
X016035Y025080D01*
X016030Y025028D01*
X016012Y024977D01*
X015984Y024932D01*
X015947Y024894D01*
X015902Y024866D01*
X015852Y024848D01*
X015893Y024863D02*
X015704Y024863D01*
X015700Y024865D02*
X015900Y024865D01*
X015905Y024868D02*
X015695Y024868D01*
X015691Y024870D02*
X015909Y024870D01*
X015912Y024873D02*
X015686Y024873D01*
X015682Y024875D02*
X015916Y024875D01*
X015920Y024877D02*
X015677Y024877D01*
X015673Y024880D02*
X015924Y024880D01*
X015928Y024882D02*
X015668Y024882D01*
X015665Y024885D02*
X015932Y024885D01*
X015935Y024887D02*
X015662Y024887D01*
X015659Y024890D02*
X015939Y024890D01*
X015943Y024892D02*
X015656Y024892D01*
X015653Y024895D02*
X015947Y024895D01*
X015949Y024897D02*
X015650Y024897D01*
X015647Y024899D02*
X015952Y024899D01*
X015954Y024902D02*
X015644Y024902D01*
X015641Y024904D02*
X015957Y024904D01*
X015959Y024907D02*
X015638Y024907D01*
X015636Y024909D02*
X015961Y024909D01*
X015964Y024912D02*
X015633Y024912D01*
X015630Y024914D02*
X015966Y024914D01*
X015969Y024916D02*
X015628Y024916D01*
X015626Y024919D02*
X015971Y024919D01*
X015974Y024921D02*
X015624Y024921D01*
X015622Y024924D02*
X015976Y024924D01*
X015978Y024926D02*
X015620Y024926D01*
X015618Y024929D02*
X015981Y024929D01*
X015983Y024931D02*
X015616Y024931D01*
X015614Y024934D02*
X015985Y024934D01*
X015987Y024936D02*
X015612Y024936D01*
X015611Y024938D02*
X015988Y024938D01*
X015990Y024941D02*
X015609Y024941D01*
X015607Y024943D02*
X015991Y024943D01*
X015993Y024946D02*
X015605Y024946D01*
X015603Y024948D02*
X015994Y024948D01*
X015996Y024951D02*
X015601Y024951D01*
X015600Y024953D02*
X015997Y024953D01*
X015999Y024955D02*
X015599Y024955D01*
X015597Y024958D02*
X016000Y024958D01*
X016002Y024960D02*
X015596Y024960D01*
X015595Y024963D02*
X016003Y024963D01*
X016005Y024965D02*
X015593Y024965D01*
X015592Y024968D02*
X016006Y024968D01*
X016008Y024970D02*
X015591Y024970D01*
X015590Y024973D02*
X016009Y024973D01*
X016011Y024975D02*
X015588Y024975D01*
X015587Y024977D02*
X016012Y024977D01*
X016013Y024980D02*
X015586Y024980D01*
X015584Y024982D02*
X016014Y024982D01*
X016015Y024985D02*
X015583Y024985D01*
X015582Y024987D02*
X016016Y024987D01*
X016017Y024990D02*
X015581Y024990D01*
X015580Y024992D02*
X016017Y024992D01*
X016018Y024994D02*
X015579Y024994D01*
X015578Y024997D02*
X016019Y024997D01*
X016020Y024999D02*
X015578Y024999D01*
X015577Y025002D02*
X016021Y025002D01*
X016022Y025004D02*
X015576Y025004D01*
X015576Y025007D02*
X016023Y025007D01*
X016023Y025009D02*
X015575Y025009D01*
X015574Y025012D02*
X016024Y025012D01*
X016025Y025014D02*
X015573Y025014D01*
X015573Y025016D02*
X016026Y025016D01*
X016027Y025019D02*
X015572Y025019D01*
X015571Y025021D02*
X016028Y025021D01*
X016028Y025024D02*
X015570Y025024D01*
X015570Y025026D02*
X016029Y025026D01*
X016030Y025029D02*
X015569Y025029D01*
X015568Y025031D02*
X016030Y025031D01*
X016030Y025033D02*
X015568Y025033D01*
X015567Y025036D02*
X016031Y025036D01*
X016031Y025038D02*
X015567Y025038D01*
X015567Y025041D02*
X016031Y025041D01*
X016031Y025043D02*
X015566Y025043D01*
X015566Y025046D02*
X016032Y025046D01*
X016032Y025048D02*
X015566Y025048D01*
X015566Y025051D02*
X016032Y025051D01*
X016032Y025053D02*
X015566Y025053D01*
X015565Y025055D02*
X016033Y025055D01*
X016033Y025058D02*
X015565Y025058D01*
X015565Y025060D02*
X016033Y025060D01*
X016034Y025063D02*
X015565Y025063D01*
X015564Y025065D02*
X016034Y025065D01*
X016034Y025068D02*
X015564Y025068D01*
X015564Y025070D02*
X016034Y025070D01*
X016035Y025072D02*
X015564Y025072D01*
X015564Y025075D02*
X016035Y025075D01*
X016035Y025077D02*
X015563Y025077D01*
X015563Y025080D02*
X015563Y025317D01*
X015568Y025362D01*
X015581Y025406D01*
X016016Y025406D01*
X016017Y025404D02*
X015580Y025404D01*
X015580Y025402D02*
X016018Y025402D01*
X016019Y025399D02*
X015579Y025399D01*
X015578Y025397D02*
X016019Y025397D01*
X016020Y025394D02*
X015577Y025394D01*
X015577Y025392D02*
X016021Y025392D01*
X016022Y025389D02*
X015576Y025389D01*
X015575Y025387D02*
X016023Y025387D01*
X016024Y025384D02*
X015574Y025384D01*
X015574Y025382D02*
X016025Y025382D01*
X016026Y025380D02*
X015573Y025380D01*
X015572Y025377D02*
X016026Y025377D01*
X016027Y025375D02*
X015571Y025375D01*
X015571Y025372D02*
X016028Y025372D01*
X016029Y025370D02*
X015570Y025370D01*
X015569Y025367D02*
X016029Y025367D01*
X016029Y025369D02*
X016035Y025317D01*
X016035Y025080D01*
X016035Y025082D02*
X015563Y025082D01*
X015563Y025085D02*
X016035Y025085D01*
X016035Y025087D02*
X015563Y025087D01*
X015563Y025090D02*
X016035Y025090D01*
X016035Y025092D02*
X015563Y025092D01*
X015563Y025094D02*
X016035Y025094D01*
X016035Y025097D02*
X015563Y025097D01*
X015563Y025099D02*
X016035Y025099D01*
X016035Y025102D02*
X015563Y025102D01*
X015563Y025104D02*
X016035Y025104D01*
X016035Y025107D02*
X015563Y025107D01*
X015563Y025109D02*
X016035Y025109D01*
X016035Y025111D02*
X015563Y025111D01*
X015563Y025114D02*
X016035Y025114D01*
X016035Y025116D02*
X015563Y025116D01*
X015563Y025119D02*
X016035Y025119D01*
X016035Y025121D02*
X015563Y025121D01*
X015563Y025124D02*
X016035Y025124D01*
X016035Y025126D02*
X015563Y025126D01*
X015563Y025129D02*
X016035Y025129D01*
X016035Y025131D02*
X015563Y025131D01*
X015563Y025133D02*
X016035Y025133D01*
X016035Y025136D02*
X015563Y025136D01*
X015563Y025138D02*
X016035Y025138D01*
X016035Y025141D02*
X015563Y025141D01*
X015563Y025143D02*
X016035Y025143D01*
X016035Y025146D02*
X015563Y025146D01*
X015563Y025148D02*
X016035Y025148D01*
X016035Y025150D02*
X015563Y025150D01*
X015563Y025153D02*
X016035Y025153D01*
X016035Y025155D02*
X015563Y025155D01*
X015563Y025158D02*
X016035Y025158D01*
X016035Y025160D02*
X015563Y025160D01*
X015563Y025163D02*
X016035Y025163D01*
X016035Y025165D02*
X015563Y025165D01*
X015563Y025168D02*
X016035Y025168D01*
X016035Y025170D02*
X015563Y025170D01*
X015563Y025172D02*
X016035Y025172D01*
X016035Y025175D02*
X015563Y025175D01*
X015563Y025177D02*
X016035Y025177D01*
X016035Y025180D02*
X015563Y025180D01*
X015563Y025182D02*
X016035Y025182D01*
X016035Y025185D02*
X015563Y025185D01*
X015563Y025187D02*
X016035Y025187D01*
X016035Y025189D02*
X015563Y025189D01*
X015563Y025192D02*
X016035Y025192D01*
X016035Y025194D02*
X015563Y025194D01*
X015563Y025197D02*
X016035Y025197D01*
X016035Y025199D02*
X015563Y025199D01*
X015563Y025202D02*
X016035Y025202D01*
X016035Y025204D02*
X015563Y025204D01*
X015563Y025207D02*
X016035Y025207D01*
X016035Y025209D02*
X015563Y025209D01*
X015563Y025211D02*
X016035Y025211D01*
X016035Y025214D02*
X015563Y025214D01*
X015563Y025216D02*
X016035Y025216D01*
X016035Y025219D02*
X015563Y025219D01*
X015563Y025221D02*
X016035Y025221D01*
X016035Y025224D02*
X015563Y025224D01*
X015563Y025226D02*
X016035Y025226D01*
X016035Y025228D02*
X015563Y025228D01*
X015563Y025231D02*
X016035Y025231D01*
X016035Y025233D02*
X015563Y025233D01*
X015563Y025236D02*
X016035Y025236D01*
X016035Y025238D02*
X015563Y025238D01*
X015563Y025241D02*
X016035Y025241D01*
X016035Y025243D02*
X015563Y025243D01*
X015563Y025246D02*
X016035Y025246D01*
X016035Y025248D02*
X015563Y025248D01*
X015563Y025250D02*
X016035Y025250D01*
X016035Y025253D02*
X015563Y025253D01*
X015563Y025255D02*
X016035Y025255D01*
X016035Y025258D02*
X015563Y025258D01*
X015563Y025260D02*
X016035Y025260D01*
X016035Y025263D02*
X015563Y025263D01*
X015563Y025265D02*
X016035Y025265D01*
X016035Y025267D02*
X015563Y025267D01*
X015563Y025270D02*
X016035Y025270D01*
X016035Y025272D02*
X015563Y025272D01*
X015563Y025275D02*
X016035Y025275D01*
X016035Y025277D02*
X015563Y025277D01*
X015563Y025280D02*
X016035Y025280D01*
X016035Y025282D02*
X015563Y025282D01*
X015563Y025285D02*
X016035Y025285D01*
X016035Y025287D02*
X015563Y025287D01*
X015563Y025289D02*
X016035Y025289D01*
X016035Y025292D02*
X015563Y025292D01*
X015563Y025294D02*
X016035Y025294D01*
X016035Y025297D02*
X015563Y025297D01*
X015563Y025299D02*
X016035Y025299D01*
X016035Y025302D02*
X015563Y025302D01*
X015563Y025304D02*
X016035Y025304D01*
X016035Y025306D02*
X015563Y025306D01*
X015563Y025309D02*
X016035Y025309D01*
X016035Y025311D02*
X015563Y025311D01*
X015563Y025314D02*
X016035Y025314D01*
X016035Y025316D02*
X015563Y025316D01*
X015563Y025319D02*
X016035Y025319D01*
X016035Y025321D02*
X015563Y025321D01*
X015564Y025324D02*
X016035Y025324D01*
X016034Y025326D02*
X015564Y025326D01*
X015564Y025328D02*
X016034Y025328D01*
X016034Y025331D02*
X015564Y025331D01*
X015565Y025333D02*
X016033Y025333D01*
X016033Y025336D02*
X015565Y025336D01*
X015565Y025338D02*
X016033Y025338D01*
X016033Y025341D02*
X015565Y025341D01*
X015566Y025343D02*
X016032Y025343D01*
X016032Y025345D02*
X015566Y025345D01*
X015566Y025348D02*
X016032Y025348D01*
X016031Y025350D02*
X015566Y025350D01*
X015567Y025353D02*
X016031Y025353D01*
X016031Y025355D02*
X015567Y025355D01*
X015567Y025358D02*
X016031Y025358D01*
X016030Y025360D02*
X015567Y025360D01*
X015568Y025363D02*
X016030Y025363D01*
X016030Y025365D02*
X015568Y025365D01*
X015581Y025406D02*
X015603Y025447D01*
X015633Y025483D01*
X015668Y025512D01*
X015709Y025533D01*
X015886Y025533D01*
X015879Y025536D02*
X015717Y025536D01*
X015725Y025538D02*
X015872Y025538D01*
X015865Y025540D02*
X015733Y025540D01*
X015741Y025543D02*
X015858Y025543D01*
X015852Y025545D02*
X015901Y025528D01*
X015946Y025500D01*
X015983Y025463D01*
X016012Y025419D01*
X015588Y025419D01*
X015589Y025421D02*
X016010Y025421D01*
X016009Y025423D02*
X015590Y025423D01*
X015592Y025426D02*
X016007Y025426D01*
X016005Y025428D02*
X015593Y025428D01*
X015594Y025431D02*
X016004Y025431D01*
X016002Y025433D02*
X015596Y025433D01*
X015597Y025436D02*
X016001Y025436D01*
X015999Y025438D02*
X015598Y025438D01*
X015600Y025441D02*
X015998Y025441D01*
X015996Y025443D02*
X015601Y025443D01*
X015602Y025445D02*
X015995Y025445D01*
X015993Y025448D02*
X015604Y025448D01*
X015606Y025450D02*
X015992Y025450D01*
X015990Y025453D02*
X015608Y025453D01*
X015610Y025455D02*
X015988Y025455D01*
X015987Y025458D02*
X015612Y025458D01*
X015614Y025460D02*
X015985Y025460D01*
X015984Y025462D02*
X015616Y025462D01*
X015618Y025465D02*
X015982Y025465D01*
X015979Y025467D02*
X015620Y025467D01*
X015622Y025470D02*
X015977Y025470D01*
X015974Y025472D02*
X015624Y025472D01*
X015626Y025475D02*
X015972Y025475D01*
X015969Y025477D02*
X015628Y025477D01*
X015630Y025479D02*
X015967Y025479D01*
X015964Y025482D02*
X015632Y025482D01*
X015635Y025484D02*
X015962Y025484D01*
X015959Y025487D02*
X015638Y025487D01*
X015641Y025489D02*
X015957Y025489D01*
X015955Y025492D02*
X015644Y025492D01*
X015647Y025494D02*
X015952Y025494D01*
X015950Y025497D02*
X015650Y025497D01*
X015653Y025499D02*
X015947Y025499D01*
X015944Y025501D02*
X015656Y025501D01*
X015659Y025504D02*
X015940Y025504D01*
X015936Y025506D02*
X015662Y025506D01*
X015665Y025509D02*
X015932Y025509D01*
X015928Y025511D02*
X015668Y025511D01*
X015672Y025514D02*
X015924Y025514D01*
X015920Y025516D02*
X015677Y025516D01*
X015681Y025518D02*
X015917Y025518D01*
X015913Y025521D02*
X015686Y025521D01*
X015690Y025523D02*
X015909Y025523D01*
X015905Y025526D02*
X015695Y025526D01*
X015700Y025528D02*
X015900Y025528D01*
X015893Y025531D02*
X015704Y025531D01*
X015709Y025533D02*
X015753Y025546D01*
X015799Y025551D01*
X015852Y025545D01*
X015850Y025545D02*
X015749Y025545D01*
X015767Y025548D02*
X015827Y025548D01*
X015805Y025550D02*
X015793Y025550D01*
X015586Y025416D02*
X016013Y025416D01*
X016013Y025414D02*
X015585Y025414D01*
X015584Y025411D02*
X016014Y025411D01*
X016015Y025409D02*
X015583Y025409D01*
X016012Y025419D02*
X016029Y025369D01*
X018965Y025317D02*
X018969Y025362D01*
X018983Y025406D01*
X019418Y025406D01*
X019418Y025404D02*
X018982Y025404D01*
X018981Y025402D02*
X019419Y025402D01*
X019420Y025399D02*
X018981Y025399D01*
X018980Y025397D02*
X019421Y025397D01*
X019422Y025394D02*
X018979Y025394D01*
X018978Y025392D02*
X019423Y025392D01*
X019424Y025389D02*
X018978Y025389D01*
X018977Y025387D02*
X019424Y025387D01*
X019425Y025384D02*
X018976Y025384D01*
X018975Y025382D02*
X019426Y025382D01*
X019427Y025380D02*
X018975Y025380D01*
X018974Y025377D02*
X019428Y025377D01*
X019429Y025375D02*
X018973Y025375D01*
X018972Y025372D02*
X019430Y025372D01*
X019431Y025370D02*
X018972Y025370D01*
X018971Y025367D02*
X019431Y025367D01*
X019431Y025369D02*
X019437Y025317D01*
X019437Y025080D01*
X018965Y025080D01*
X018965Y025317D01*
X018965Y025316D02*
X019437Y025316D01*
X019437Y025314D02*
X018965Y025314D01*
X018965Y025311D02*
X019437Y025311D01*
X019437Y025309D02*
X018965Y025309D01*
X018965Y025306D02*
X019437Y025306D01*
X019437Y025304D02*
X018965Y025304D01*
X018965Y025302D02*
X019437Y025302D01*
X019437Y025299D02*
X018965Y025299D01*
X018965Y025297D02*
X019437Y025297D01*
X019437Y025294D02*
X018965Y025294D01*
X018965Y025292D02*
X019437Y025292D01*
X019437Y025289D02*
X018965Y025289D01*
X018965Y025287D02*
X019437Y025287D01*
X019437Y025285D02*
X018965Y025285D01*
X018965Y025282D02*
X019437Y025282D01*
X019437Y025280D02*
X018965Y025280D01*
X018965Y025277D02*
X019437Y025277D01*
X019437Y025275D02*
X018965Y025275D01*
X018965Y025272D02*
X019437Y025272D01*
X019437Y025270D02*
X018965Y025270D01*
X018965Y025267D02*
X019437Y025267D01*
X019437Y025265D02*
X018965Y025265D01*
X018965Y025263D02*
X019437Y025263D01*
X019437Y025260D02*
X018965Y025260D01*
X018965Y025258D02*
X019437Y025258D01*
X019437Y025255D02*
X018965Y025255D01*
X018965Y025253D02*
X019437Y025253D01*
X019437Y025250D02*
X018965Y025250D01*
X018965Y025248D02*
X019437Y025248D01*
X019437Y025246D02*
X018965Y025246D01*
X018965Y025243D02*
X019437Y025243D01*
X019437Y025241D02*
X018965Y025241D01*
X018965Y025238D02*
X019437Y025238D01*
X019437Y025236D02*
X018965Y025236D01*
X018965Y025233D02*
X019437Y025233D01*
X019437Y025231D02*
X018965Y025231D01*
X018965Y025228D02*
X019437Y025228D01*
X019437Y025226D02*
X018965Y025226D01*
X018965Y025224D02*
X019437Y025224D01*
X019437Y025221D02*
X018965Y025221D01*
X018965Y025219D02*
X019437Y025219D01*
X019437Y025216D02*
X018965Y025216D01*
X018965Y025214D02*
X019437Y025214D01*
X019437Y025211D02*
X018965Y025211D01*
X018965Y025209D02*
X019437Y025209D01*
X019437Y025207D02*
X018965Y025207D01*
X018965Y025204D02*
X019437Y025204D01*
X019437Y025202D02*
X018965Y025202D01*
X018965Y025199D02*
X019437Y025199D01*
X019437Y025197D02*
X018965Y025197D01*
X018965Y025194D02*
X019437Y025194D01*
X019437Y025192D02*
X018965Y025192D01*
X018965Y025189D02*
X019437Y025189D01*
X019437Y025187D02*
X018965Y025187D01*
X018965Y025185D02*
X019437Y025185D01*
X019437Y025182D02*
X018965Y025182D01*
X018965Y025180D02*
X019437Y025180D01*
X019437Y025177D02*
X018965Y025177D01*
X018965Y025175D02*
X019437Y025175D01*
X019437Y025172D02*
X018965Y025172D01*
X018965Y025170D02*
X019437Y025170D01*
X019437Y025168D02*
X018965Y025168D01*
X018965Y025165D02*
X019437Y025165D01*
X019437Y025163D02*
X018965Y025163D01*
X018965Y025160D02*
X019437Y025160D01*
X019437Y025158D02*
X018965Y025158D01*
X018965Y025155D02*
X019437Y025155D01*
X019437Y025153D02*
X018965Y025153D01*
X018965Y025150D02*
X019437Y025150D01*
X019437Y025148D02*
X018965Y025148D01*
X018965Y025146D02*
X019437Y025146D01*
X019437Y025143D02*
X018965Y025143D01*
X018965Y025141D02*
X019437Y025141D01*
X019437Y025138D02*
X018965Y025138D01*
X018965Y025136D02*
X019437Y025136D01*
X019437Y025133D02*
X018965Y025133D01*
X018965Y025131D02*
X019437Y025131D01*
X019437Y025129D02*
X018965Y025129D01*
X018965Y025126D02*
X019437Y025126D01*
X019437Y025124D02*
X018965Y025124D01*
X018965Y025121D02*
X019437Y025121D01*
X019437Y025119D02*
X018965Y025119D01*
X018965Y025116D02*
X019437Y025116D01*
X019437Y025114D02*
X018965Y025114D01*
X018965Y025111D02*
X019437Y025111D01*
X019437Y025109D02*
X018965Y025109D01*
X018965Y025107D02*
X019437Y025107D01*
X019437Y025104D02*
X018965Y025104D01*
X018965Y025102D02*
X019437Y025102D01*
X019437Y025099D02*
X018965Y025099D01*
X018965Y025097D02*
X019437Y025097D01*
X019437Y025094D02*
X018965Y025094D01*
X018965Y025092D02*
X019437Y025092D01*
X019437Y025090D02*
X018965Y025090D01*
X018965Y025087D02*
X019437Y025087D01*
X019437Y025085D02*
X018965Y025085D01*
X018965Y025082D02*
X019437Y025082D01*
X019437Y025080D02*
X019431Y025028D01*
X019414Y024977D01*
X019386Y024932D01*
X019348Y024894D01*
X019304Y024866D01*
X019254Y024848D01*
X019201Y024842D01*
X019155Y024847D01*
X019110Y024861D01*
X019069Y024883D01*
X019033Y024912D01*
X019004Y024948D01*
X019396Y024948D01*
X019394Y024946D02*
X019006Y024946D01*
X019004Y024948D02*
X018982Y024989D01*
X018969Y025034D01*
X018965Y025080D01*
X018965Y025077D02*
X019437Y025077D01*
X019436Y025075D02*
X018965Y025075D01*
X018965Y025072D02*
X019436Y025072D01*
X019436Y025070D02*
X018966Y025070D01*
X018966Y025068D02*
X019436Y025068D01*
X019435Y025065D02*
X018966Y025065D01*
X018966Y025063D02*
X019435Y025063D01*
X019435Y025060D02*
X018966Y025060D01*
X018967Y025058D02*
X019435Y025058D01*
X019434Y025055D02*
X018967Y025055D01*
X018967Y025053D02*
X019434Y025053D01*
X019434Y025051D02*
X018967Y025051D01*
X018968Y025048D02*
X019434Y025048D01*
X019433Y025046D02*
X018968Y025046D01*
X018968Y025043D02*
X019433Y025043D01*
X019433Y025041D02*
X018968Y025041D01*
X018969Y025038D02*
X019432Y025038D01*
X019432Y025036D02*
X018969Y025036D01*
X018969Y025033D02*
X019432Y025033D01*
X019432Y025031D02*
X018970Y025031D01*
X018971Y025029D02*
X019431Y025029D01*
X019431Y025026D02*
X018971Y025026D01*
X018972Y025024D02*
X019430Y025024D01*
X019429Y025021D02*
X018973Y025021D01*
X018973Y025019D02*
X019428Y025019D01*
X019427Y025016D02*
X018974Y025016D01*
X018975Y025014D02*
X019427Y025014D01*
X019426Y025012D02*
X018976Y025012D01*
X018976Y025009D02*
X019425Y025009D01*
X019424Y025007D02*
X018977Y025007D01*
X018978Y025004D02*
X019423Y025004D01*
X019422Y025002D02*
X018979Y025002D01*
X018979Y024999D02*
X019422Y024999D01*
X019421Y024997D02*
X018980Y024997D01*
X018981Y024994D02*
X019420Y024994D01*
X019419Y024992D02*
X018981Y024992D01*
X018982Y024990D02*
X019418Y024990D01*
X019417Y024987D02*
X018983Y024987D01*
X018985Y024985D02*
X019417Y024985D01*
X019416Y024982D02*
X018986Y024982D01*
X018987Y024980D02*
X019415Y024980D01*
X019414Y024977D02*
X018989Y024977D01*
X018990Y024975D02*
X019413Y024975D01*
X019411Y024973D02*
X018991Y024973D01*
X018992Y024970D02*
X019409Y024970D01*
X019408Y024968D02*
X018994Y024968D01*
X018995Y024965D02*
X019406Y024965D01*
X019405Y024963D02*
X018996Y024963D01*
X018998Y024960D02*
X019403Y024960D01*
X019402Y024958D02*
X018999Y024958D01*
X019000Y024955D02*
X019400Y024955D01*
X019399Y024953D02*
X019002Y024953D01*
X019003Y024951D02*
X019397Y024951D01*
X019393Y024943D02*
X019008Y024943D01*
X019010Y024941D02*
X019391Y024941D01*
X019390Y024938D02*
X019012Y024938D01*
X019014Y024936D02*
X019388Y024936D01*
X019387Y024934D02*
X019016Y024934D01*
X019018Y024931D02*
X019385Y024931D01*
X019382Y024929D02*
X019020Y024929D01*
X019022Y024926D02*
X019380Y024926D01*
X019378Y024924D02*
X019024Y024924D01*
X019026Y024921D02*
X019375Y024921D01*
X019373Y024919D02*
X019028Y024919D01*
X019030Y024916D02*
X019370Y024916D01*
X019368Y024914D02*
X019032Y024914D01*
X019034Y024912D02*
X019365Y024912D01*
X019363Y024909D02*
X019037Y024909D01*
X019040Y024907D02*
X019361Y024907D01*
X019358Y024904D02*
X019043Y024904D01*
X019046Y024902D02*
X019356Y024902D01*
X019353Y024899D02*
X019049Y024899D01*
X019052Y024897D02*
X019351Y024897D01*
X019349Y024895D02*
X019055Y024895D01*
X019058Y024892D02*
X019345Y024892D01*
X019341Y024890D02*
X019061Y024890D01*
X019064Y024887D02*
X019337Y024887D01*
X019333Y024885D02*
X019067Y024885D01*
X019070Y024882D02*
X019329Y024882D01*
X019326Y024880D02*
X019074Y024880D01*
X019079Y024877D02*
X019322Y024877D01*
X019318Y024875D02*
X019083Y024875D01*
X019088Y024873D02*
X019314Y024873D01*
X019310Y024870D02*
X019092Y024870D01*
X019097Y024868D02*
X019306Y024868D01*
X019302Y024865D02*
X019101Y024865D01*
X019106Y024863D02*
X019295Y024863D01*
X019288Y024860D02*
X019110Y024860D01*
X019118Y024858D02*
X019281Y024858D01*
X019274Y024856D02*
X019126Y024856D01*
X019134Y024853D02*
X019267Y024853D01*
X019260Y024851D02*
X019142Y024851D01*
X019150Y024848D02*
X019253Y024848D01*
X019232Y024846D02*
X019165Y024846D01*
X019189Y024843D02*
X019211Y024843D01*
X019437Y025319D02*
X018965Y025319D01*
X018965Y025321D02*
X019436Y025321D01*
X019436Y025324D02*
X018965Y025324D01*
X018966Y025326D02*
X019436Y025326D01*
X019436Y025328D02*
X018966Y025328D01*
X018966Y025331D02*
X019435Y025331D01*
X019435Y025333D02*
X018966Y025333D01*
X018967Y025336D02*
X019435Y025336D01*
X019434Y025338D02*
X018967Y025338D01*
X018967Y025341D02*
X019434Y025341D01*
X019434Y025343D02*
X018967Y025343D01*
X018968Y025345D02*
X019434Y025345D01*
X019433Y025348D02*
X018968Y025348D01*
X018968Y025350D02*
X019433Y025350D01*
X019433Y025353D02*
X018968Y025353D01*
X018969Y025355D02*
X019432Y025355D01*
X019432Y025358D02*
X018969Y025358D01*
X018969Y025360D02*
X019432Y025360D01*
X019432Y025363D02*
X018969Y025363D01*
X018970Y025365D02*
X019431Y025365D01*
X019431Y025369D02*
X019413Y025419D01*
X018989Y025419D01*
X018991Y025421D02*
X019412Y025421D01*
X019413Y025419D02*
X019385Y025463D01*
X019348Y025500D01*
X019303Y025528D01*
X019253Y025545D01*
X019201Y025551D01*
X019155Y025546D01*
X019111Y025533D01*
X019070Y025512D01*
X019034Y025483D01*
X019005Y025447D01*
X018983Y025406D01*
X018984Y025409D02*
X019417Y025409D01*
X019416Y025411D02*
X018985Y025411D01*
X018987Y025414D02*
X019415Y025414D01*
X019414Y025416D02*
X018988Y025416D01*
X018992Y025423D02*
X019410Y025423D01*
X019409Y025426D02*
X018993Y025426D01*
X018995Y025428D02*
X019407Y025428D01*
X019406Y025431D02*
X018996Y025431D01*
X018997Y025433D02*
X019404Y025433D01*
X019402Y025436D02*
X018999Y025436D01*
X019000Y025438D02*
X019401Y025438D01*
X019399Y025441D02*
X019001Y025441D01*
X019003Y025443D02*
X019398Y025443D01*
X019396Y025445D02*
X019004Y025445D01*
X019005Y025448D02*
X019395Y025448D01*
X019393Y025450D02*
X019007Y025450D01*
X019009Y025453D02*
X019392Y025453D01*
X019390Y025455D02*
X019011Y025455D01*
X019013Y025458D02*
X019389Y025458D01*
X019387Y025460D02*
X019015Y025460D01*
X019017Y025462D02*
X019385Y025462D01*
X019383Y025465D02*
X019020Y025465D01*
X019022Y025467D02*
X019381Y025467D01*
X019378Y025470D02*
X019024Y025470D01*
X019026Y025472D02*
X019376Y025472D01*
X019373Y025475D02*
X019028Y025475D01*
X019030Y025477D02*
X019371Y025477D01*
X019368Y025479D02*
X019032Y025479D01*
X019034Y025482D02*
X019366Y025482D01*
X019364Y025484D02*
X019036Y025484D01*
X019039Y025487D02*
X019361Y025487D01*
X019359Y025489D02*
X019042Y025489D01*
X019045Y025492D02*
X019356Y025492D01*
X019354Y025494D02*
X019048Y025494D01*
X019051Y025497D02*
X019351Y025497D01*
X019349Y025499D02*
X019054Y025499D01*
X019057Y025501D02*
X019345Y025501D01*
X019342Y025504D02*
X019060Y025504D01*
X019063Y025506D02*
X019338Y025506D01*
X019334Y025509D02*
X019066Y025509D01*
X019069Y025511D02*
X019330Y025511D01*
X019326Y025514D02*
X019074Y025514D01*
X019078Y025516D02*
X019322Y025516D01*
X019318Y025518D02*
X019083Y025518D01*
X019087Y025521D02*
X019314Y025521D01*
X019310Y025523D02*
X019092Y025523D01*
X019097Y025526D02*
X019306Y025526D01*
X019302Y025528D02*
X019101Y025528D01*
X019106Y025531D02*
X019295Y025531D01*
X019288Y025533D02*
X019110Y025533D01*
X019118Y025536D02*
X019281Y025536D01*
X019274Y025538D02*
X019127Y025538D01*
X019135Y025540D02*
X019267Y025540D01*
X019260Y025543D02*
X019143Y025543D01*
X019151Y025545D02*
X019251Y025545D01*
X019229Y025548D02*
X019168Y025548D01*
X019194Y025550D02*
X019206Y025550D01*
X019201Y024004D02*
X019251Y024000D01*
X019300Y023986D01*
X019344Y023961D01*
X019058Y023961D01*
X019102Y023986D01*
X019150Y024000D01*
X019252Y024000D01*
X019260Y023998D02*
X019141Y023998D01*
X019133Y023995D02*
X019268Y023995D01*
X019277Y023993D02*
X019125Y023993D01*
X019117Y023990D02*
X019285Y023990D01*
X019293Y023988D02*
X019109Y023988D01*
X019101Y023985D02*
X019300Y023985D01*
X019305Y023983D02*
X019097Y023983D01*
X019092Y023981D02*
X019309Y023981D01*
X019313Y023978D02*
X019088Y023978D01*
X019084Y023976D02*
X019318Y023976D01*
X019322Y023973D02*
X019079Y023973D01*
X019075Y023971D02*
X019326Y023971D01*
X019331Y023968D02*
X019071Y023968D01*
X019066Y023966D02*
X019335Y023966D01*
X019339Y023964D02*
X019062Y023964D01*
X019058Y023961D02*
X019020Y023927D01*
X019381Y023927D01*
X019410Y023886D01*
X019429Y023839D01*
X019437Y023789D01*
X019437Y023317D01*
X019431Y023272D01*
X019416Y023230D01*
X018987Y023230D01*
X018987Y023227D02*
X019415Y023227D01*
X019413Y023225D02*
X018988Y023225D01*
X018989Y023223D02*
X019412Y023223D01*
X019410Y023220D02*
X018990Y023220D01*
X018991Y023219D02*
X018972Y023266D01*
X018965Y023317D01*
X018965Y023789D01*
X018973Y023839D01*
X019429Y023839D01*
X019429Y023837D02*
X018972Y023837D01*
X018973Y023839D02*
X018992Y023886D01*
X019020Y023927D01*
X019019Y023925D02*
X019383Y023925D01*
X019381Y023927D02*
X019344Y023961D01*
X019346Y023959D02*
X019055Y023959D01*
X019052Y023956D02*
X019349Y023956D01*
X019352Y023954D02*
X019050Y023954D01*
X019047Y023951D02*
X019354Y023951D01*
X019357Y023949D02*
X019044Y023949D01*
X019042Y023946D02*
X019360Y023946D01*
X019362Y023944D02*
X019039Y023944D01*
X019036Y023942D02*
X019365Y023942D01*
X019368Y023939D02*
X019034Y023939D01*
X019031Y023937D02*
X019371Y023937D01*
X019373Y023934D02*
X019028Y023934D01*
X019026Y023932D02*
X019376Y023932D01*
X019379Y023929D02*
X019023Y023929D01*
X019017Y023922D02*
X019385Y023922D01*
X019386Y023920D02*
X019015Y023920D01*
X019014Y023917D02*
X019388Y023917D01*
X019390Y023915D02*
X019012Y023915D01*
X019010Y023912D02*
X019391Y023912D01*
X019393Y023910D02*
X019008Y023910D01*
X019007Y023907D02*
X019395Y023907D01*
X019397Y023905D02*
X019005Y023905D01*
X019003Y023903D02*
X019398Y023903D01*
X019400Y023900D02*
X019002Y023900D01*
X019000Y023898D02*
X019402Y023898D01*
X019403Y023895D02*
X018998Y023895D01*
X018997Y023893D02*
X019405Y023893D01*
X019407Y023890D02*
X018995Y023890D01*
X018993Y023888D02*
X019408Y023888D01*
X019410Y023886D02*
X018992Y023886D01*
X018991Y023883D02*
X019411Y023883D01*
X019412Y023881D02*
X018990Y023881D01*
X018989Y023878D02*
X019413Y023878D01*
X019414Y023876D02*
X018988Y023876D01*
X018987Y023873D02*
X019415Y023873D01*
X019416Y023871D02*
X018986Y023871D01*
X018985Y023868D02*
X019417Y023868D01*
X019418Y023866D02*
X018984Y023866D01*
X018983Y023864D02*
X019419Y023864D01*
X019420Y023861D02*
X018982Y023861D01*
X018981Y023859D02*
X019421Y023859D01*
X019422Y023856D02*
X018980Y023856D01*
X018979Y023854D02*
X019423Y023854D01*
X019424Y023851D02*
X018978Y023851D01*
X018977Y023849D02*
X019425Y023849D01*
X019426Y023847D02*
X018976Y023847D01*
X018975Y023844D02*
X019427Y023844D01*
X019428Y023842D02*
X018974Y023842D01*
X018972Y023834D02*
X019430Y023834D01*
X019430Y023832D02*
X018972Y023832D01*
X018971Y023829D02*
X019430Y023829D01*
X019431Y023827D02*
X018971Y023827D01*
X018970Y023825D02*
X019431Y023825D01*
X019432Y023822D02*
X018970Y023822D01*
X018970Y023820D02*
X019432Y023820D01*
X019432Y023817D02*
X018969Y023817D01*
X018969Y023815D02*
X019433Y023815D01*
X019433Y023812D02*
X018968Y023812D01*
X018968Y023810D02*
X019434Y023810D01*
X019434Y023808D02*
X018968Y023808D01*
X018967Y023805D02*
X019434Y023805D01*
X019435Y023803D02*
X018967Y023803D01*
X018966Y023800D02*
X019435Y023800D01*
X019436Y023798D02*
X018966Y023798D01*
X018966Y023795D02*
X019436Y023795D01*
X019436Y023793D02*
X018965Y023793D01*
X018965Y023790D02*
X019437Y023790D01*
X019437Y023788D02*
X018965Y023788D01*
X018965Y023786D02*
X019437Y023786D01*
X019437Y023783D02*
X018965Y023783D01*
X018965Y023781D02*
X019437Y023781D01*
X019437Y023778D02*
X018965Y023778D01*
X018965Y023776D02*
X019437Y023776D01*
X019437Y023773D02*
X018965Y023773D01*
X018965Y023771D02*
X019437Y023771D01*
X019437Y023769D02*
X018965Y023769D01*
X018965Y023766D02*
X019437Y023766D01*
X019437Y023764D02*
X018965Y023764D01*
X018965Y023761D02*
X019437Y023761D01*
X019437Y023759D02*
X018965Y023759D01*
X018965Y023756D02*
X019437Y023756D01*
X019437Y023754D02*
X018965Y023754D01*
X018965Y023751D02*
X019437Y023751D01*
X019437Y023749D02*
X018965Y023749D01*
X018965Y023747D02*
X019437Y023747D01*
X019437Y023744D02*
X018965Y023744D01*
X018965Y023742D02*
X019437Y023742D01*
X019437Y023739D02*
X018965Y023739D01*
X018965Y023737D02*
X019437Y023737D01*
X019437Y023734D02*
X018965Y023734D01*
X018965Y023732D02*
X019437Y023732D01*
X019437Y023730D02*
X018965Y023730D01*
X018965Y023727D02*
X019437Y023727D01*
X019437Y023725D02*
X018965Y023725D01*
X018965Y023722D02*
X019437Y023722D01*
X019437Y023720D02*
X018965Y023720D01*
X018965Y023717D02*
X019437Y023717D01*
X019437Y023715D02*
X018965Y023715D01*
X018965Y023712D02*
X019437Y023712D01*
X019437Y023710D02*
X018965Y023710D01*
X018965Y023708D02*
X019437Y023708D01*
X019437Y023705D02*
X018965Y023705D01*
X018965Y023703D02*
X019437Y023703D01*
X019437Y023700D02*
X018965Y023700D01*
X018965Y023698D02*
X019437Y023698D01*
X019437Y023695D02*
X018965Y023695D01*
X018965Y023693D02*
X019437Y023693D01*
X019437Y023691D02*
X018965Y023691D01*
X018965Y023688D02*
X019437Y023688D01*
X019437Y023686D02*
X018965Y023686D01*
X018965Y023683D02*
X019437Y023683D01*
X019437Y023681D02*
X018965Y023681D01*
X018965Y023678D02*
X019437Y023678D01*
X019437Y023676D02*
X018965Y023676D01*
X018965Y023673D02*
X019437Y023673D01*
X019437Y023671D02*
X018965Y023671D01*
X018965Y023669D02*
X019437Y023669D01*
X019437Y023666D02*
X018965Y023666D01*
X018965Y023664D02*
X019437Y023664D01*
X019437Y023661D02*
X018965Y023661D01*
X018965Y023659D02*
X019437Y023659D01*
X019437Y023656D02*
X018965Y023656D01*
X018965Y023654D02*
X019437Y023654D01*
X019437Y023652D02*
X018965Y023652D01*
X018965Y023649D02*
X019437Y023649D01*
X019437Y023647D02*
X018965Y023647D01*
X018965Y023644D02*
X019437Y023644D01*
X019437Y023642D02*
X018965Y023642D01*
X018965Y023639D02*
X019437Y023639D01*
X019437Y023637D02*
X018965Y023637D01*
X018965Y023634D02*
X019437Y023634D01*
X019437Y023632D02*
X018965Y023632D01*
X018965Y023630D02*
X019437Y023630D01*
X019437Y023627D02*
X018965Y023627D01*
X018965Y023625D02*
X019437Y023625D01*
X019437Y023622D02*
X018965Y023622D01*
X018965Y023620D02*
X019437Y023620D01*
X019437Y023617D02*
X018965Y023617D01*
X018965Y023615D02*
X019437Y023615D01*
X019437Y023613D02*
X018965Y023613D01*
X018965Y023610D02*
X019437Y023610D01*
X019437Y023608D02*
X018965Y023608D01*
X018965Y023605D02*
X019437Y023605D01*
X019437Y023603D02*
X018965Y023603D01*
X018965Y023600D02*
X019437Y023600D01*
X019437Y023598D02*
X018965Y023598D01*
X018965Y023596D02*
X019437Y023596D01*
X019437Y023593D02*
X018965Y023593D01*
X018965Y023591D02*
X019437Y023591D01*
X019437Y023588D02*
X018965Y023588D01*
X018965Y023586D02*
X019437Y023586D01*
X019437Y023583D02*
X018965Y023583D01*
X018965Y023581D02*
X019437Y023581D01*
X019437Y023578D02*
X018965Y023578D01*
X018965Y023576D02*
X019437Y023576D01*
X019437Y023574D02*
X018965Y023574D01*
X018965Y023571D02*
X019437Y023571D01*
X019437Y023569D02*
X018965Y023569D01*
X018965Y023566D02*
X019437Y023566D01*
X019437Y023564D02*
X018965Y023564D01*
X018965Y023561D02*
X019437Y023561D01*
X019437Y023559D02*
X018965Y023559D01*
X018965Y023557D02*
X019437Y023557D01*
X019437Y023554D02*
X018965Y023554D01*
X018965Y023552D02*
X019437Y023552D01*
X019437Y023549D02*
X018965Y023549D01*
X018965Y023547D02*
X019437Y023547D01*
X019437Y023544D02*
X018965Y023544D01*
X018965Y023542D02*
X019437Y023542D01*
X019437Y023539D02*
X018965Y023539D01*
X018965Y023537D02*
X019437Y023537D01*
X019437Y023535D02*
X018965Y023535D01*
X018965Y023532D02*
X019437Y023532D01*
X019437Y023530D02*
X018965Y023530D01*
X018965Y023527D02*
X019437Y023527D01*
X019437Y023525D02*
X018965Y023525D01*
X018965Y023522D02*
X019437Y023522D01*
X019437Y023520D02*
X018965Y023520D01*
X018965Y023518D02*
X019437Y023518D01*
X019437Y023515D02*
X018965Y023515D01*
X018965Y023513D02*
X019437Y023513D01*
X019437Y023510D02*
X018965Y023510D01*
X018965Y023508D02*
X019437Y023508D01*
X019437Y023505D02*
X018965Y023505D01*
X018965Y023503D02*
X019437Y023503D01*
X019437Y023500D02*
X018965Y023500D01*
X018965Y023498D02*
X019437Y023498D01*
X019437Y023496D02*
X018965Y023496D01*
X018965Y023493D02*
X019437Y023493D01*
X019437Y023491D02*
X018965Y023491D01*
X018965Y023488D02*
X019437Y023488D01*
X019437Y023486D02*
X018965Y023486D01*
X018965Y023483D02*
X019437Y023483D01*
X019437Y023481D02*
X018965Y023481D01*
X018965Y023479D02*
X019437Y023479D01*
X019437Y023476D02*
X018965Y023476D01*
X018965Y023474D02*
X019437Y023474D01*
X019437Y023471D02*
X018965Y023471D01*
X018965Y023469D02*
X019437Y023469D01*
X019437Y023466D02*
X018965Y023466D01*
X018965Y023464D02*
X019437Y023464D01*
X019437Y023461D02*
X018965Y023461D01*
X018965Y023459D02*
X019437Y023459D01*
X019437Y023457D02*
X018965Y023457D01*
X018965Y023454D02*
X019437Y023454D01*
X019437Y023452D02*
X018965Y023452D01*
X018965Y023449D02*
X019437Y023449D01*
X019437Y023447D02*
X018965Y023447D01*
X018965Y023444D02*
X019437Y023444D01*
X019437Y023442D02*
X018965Y023442D01*
X018965Y023440D02*
X019437Y023440D01*
X019437Y023437D02*
X018965Y023437D01*
X018965Y023435D02*
X019437Y023435D01*
X019437Y023432D02*
X018965Y023432D01*
X018965Y023430D02*
X019437Y023430D01*
X019437Y023427D02*
X018965Y023427D01*
X018965Y023425D02*
X019437Y023425D01*
X019437Y023422D02*
X018965Y023422D01*
X018965Y023420D02*
X019437Y023420D01*
X019437Y023418D02*
X018965Y023418D01*
X018965Y023415D02*
X019437Y023415D01*
X019437Y023413D02*
X018965Y023413D01*
X018965Y023410D02*
X019437Y023410D01*
X019437Y023408D02*
X018965Y023408D01*
X018965Y023405D02*
X019437Y023405D01*
X019437Y023403D02*
X018965Y023403D01*
X018965Y023401D02*
X019437Y023401D01*
X019437Y023398D02*
X018965Y023398D01*
X018965Y023396D02*
X019437Y023396D01*
X019437Y023393D02*
X018965Y023393D01*
X018965Y023391D02*
X019437Y023391D01*
X019437Y023388D02*
X018965Y023388D01*
X018965Y023386D02*
X019437Y023386D01*
X019437Y023383D02*
X018965Y023383D01*
X018965Y023381D02*
X019437Y023381D01*
X019437Y023379D02*
X018965Y023379D01*
X018965Y023376D02*
X019437Y023376D01*
X019437Y023374D02*
X018965Y023374D01*
X018965Y023371D02*
X019437Y023371D01*
X019437Y023369D02*
X018965Y023369D01*
X018965Y023366D02*
X019437Y023366D01*
X019437Y023364D02*
X018965Y023364D01*
X018965Y023362D02*
X019437Y023362D01*
X019437Y023359D02*
X018965Y023359D01*
X018965Y023357D02*
X019437Y023357D01*
X019437Y023354D02*
X018965Y023354D01*
X018965Y023352D02*
X019437Y023352D01*
X019437Y023349D02*
X018965Y023349D01*
X018965Y023347D02*
X019437Y023347D01*
X019437Y023344D02*
X018965Y023344D01*
X018965Y023342D02*
X019437Y023342D01*
X019437Y023340D02*
X018965Y023340D01*
X018965Y023337D02*
X019437Y023337D01*
X019437Y023335D02*
X018965Y023335D01*
X018965Y023332D02*
X019437Y023332D01*
X019437Y023330D02*
X018965Y023330D01*
X018965Y023327D02*
X019437Y023327D01*
X019437Y023325D02*
X018965Y023325D01*
X018965Y023323D02*
X019437Y023323D01*
X019437Y023320D02*
X018965Y023320D01*
X018965Y023318D02*
X019437Y023318D01*
X019437Y023315D02*
X018965Y023315D01*
X018965Y023313D02*
X019436Y023313D01*
X019436Y023310D02*
X018966Y023310D01*
X018966Y023308D02*
X019436Y023308D01*
X019435Y023305D02*
X018966Y023305D01*
X018967Y023303D02*
X019435Y023303D01*
X019435Y023301D02*
X018967Y023301D01*
X018967Y023298D02*
X019434Y023298D01*
X019434Y023296D02*
X018968Y023296D01*
X018968Y023293D02*
X019434Y023293D01*
X019433Y023291D02*
X018968Y023291D01*
X018969Y023288D02*
X019433Y023288D01*
X019433Y023286D02*
X018969Y023286D01*
X018970Y023284D02*
X019432Y023284D01*
X019432Y023281D02*
X018970Y023281D01*
X018970Y023279D02*
X019432Y023279D01*
X019431Y023276D02*
X018971Y023276D01*
X018971Y023274D02*
X019431Y023274D01*
X019431Y023271D02*
X018971Y023271D01*
X018972Y023269D02*
X019430Y023269D01*
X019429Y023266D02*
X018972Y023266D01*
X018973Y023264D02*
X019428Y023264D01*
X019427Y023262D02*
X018974Y023262D01*
X018975Y023259D02*
X019426Y023259D01*
X019425Y023257D02*
X018976Y023257D01*
X018977Y023254D02*
X019425Y023254D01*
X019424Y023252D02*
X018978Y023252D01*
X018979Y023249D02*
X019423Y023249D01*
X019422Y023247D02*
X018980Y023247D01*
X018981Y023245D02*
X019421Y023245D01*
X019420Y023242D02*
X018982Y023242D01*
X018983Y023240D02*
X019420Y023240D01*
X019419Y023237D02*
X018984Y023237D01*
X018985Y023235D02*
X019418Y023235D01*
X019417Y023232D02*
X018986Y023232D01*
X018991Y023219D02*
X019020Y023177D01*
X019057Y023142D01*
X019101Y023117D01*
X019150Y023102D01*
X019201Y023098D01*
X019245Y023101D01*
X019288Y023112D01*
X019329Y023131D01*
X019364Y023158D01*
X019394Y023192D01*
X019416Y023230D01*
X019409Y023218D02*
X018992Y023218D01*
X018993Y023215D02*
X019408Y023215D01*
X019406Y023213D02*
X018995Y023213D01*
X018997Y023210D02*
X019405Y023210D01*
X019403Y023208D02*
X018998Y023208D01*
X019000Y023206D02*
X019402Y023206D01*
X019400Y023203D02*
X019002Y023203D01*
X019003Y023201D02*
X019399Y023201D01*
X019398Y023198D02*
X019005Y023198D01*
X019007Y023196D02*
X019396Y023196D01*
X019395Y023193D02*
X019008Y023193D01*
X019010Y023191D02*
X019393Y023191D01*
X019391Y023188D02*
X019012Y023188D01*
X019013Y023186D02*
X019389Y023186D01*
X019387Y023184D02*
X019015Y023184D01*
X019017Y023181D02*
X019384Y023181D01*
X019382Y023179D02*
X019018Y023179D01*
X019020Y023176D02*
X019380Y023176D01*
X019378Y023174D02*
X019023Y023174D01*
X019025Y023171D02*
X019376Y023171D01*
X019374Y023169D02*
X019028Y023169D01*
X019031Y023167D02*
X019371Y023167D01*
X019369Y023164D02*
X019033Y023164D01*
X019036Y023162D02*
X019367Y023162D01*
X019365Y023159D02*
X019039Y023159D01*
X019041Y023157D02*
X019362Y023157D01*
X019359Y023154D02*
X019044Y023154D01*
X019046Y023152D02*
X019356Y023152D01*
X019352Y023149D02*
X019049Y023149D01*
X019052Y023147D02*
X019349Y023147D01*
X019346Y023145D02*
X019054Y023145D01*
X019057Y023142D02*
X019343Y023142D01*
X019340Y023140D02*
X019061Y023140D01*
X019065Y023137D02*
X019336Y023137D01*
X019333Y023135D02*
X019070Y023135D01*
X019074Y023132D02*
X019330Y023132D01*
X019326Y023130D02*
X019078Y023130D01*
X019082Y023128D02*
X019321Y023128D01*
X019316Y023125D02*
X019087Y023125D01*
X019091Y023123D02*
X019311Y023123D01*
X019306Y023120D02*
X019095Y023120D01*
X019099Y023118D02*
X019301Y023118D01*
X019296Y023115D02*
X019106Y023115D01*
X019114Y023113D02*
X019290Y023113D01*
X019283Y023110D02*
X019122Y023110D01*
X019129Y023108D02*
X019274Y023108D01*
X019264Y023106D02*
X019137Y023106D01*
X019145Y023103D02*
X019255Y023103D01*
X019246Y023101D02*
X019164Y023101D01*
X019197Y023098D02*
X019205Y023098D01*
X019150Y024000D02*
X019201Y024004D01*
X019185Y024003D02*
X019217Y024003D01*
D39*
X016874Y018791D03*
X016126Y018791D03*
X016126Y017891D03*
X016874Y017891D03*
D40*
X017438Y018191D03*
X020000Y019191D03*
X019063Y022816D03*
X018625Y024316D03*
X019625Y024316D03*
X015813Y022316D03*
X015250Y022128D03*
X013438Y018566D03*
X010000Y019191D03*
X008625Y020566D03*
X006625Y018191D03*
X008500Y016566D03*
X006875Y014878D03*
X008750Y023253D03*
X015063Y005691D03*
M02*
