G75*
%MOIN*%
%OFA0B0*%
%FSLAX24Y24*%
%IPPOS*%
%LPD*%
%AMOC8*
5,1,8,0,0,1.08239X$1,22.5*
%
%ADD10OC8,0.1240*%
%ADD11C,0.1240*%
%ADD12OC8,0.0520*%
%ADD13C,0.0520*%
%ADD14OC8,0.0600*%
%ADD15C,0.0560*%
%ADD16C,0.0885*%
%ADD17OC8,0.0680*%
%ADD18C,0.0600*%
%ADD19C,0.0600*%
%ADD20C,0.1000*%
%ADD21C,0.0660*%
%ADD22R,0.0600X0.0600*%
%ADD23R,0.0700X0.0700*%
%ADD24C,0.0700*%
%ADD25C,0.2441*%
%ADD26R,0.0512X0.0591*%
%ADD27C,0.0574*%
%ADD28C,0.1306*%
%ADD29C,0.0550*%
%ADD30C,0.1750*%
%ADD31C,0.1500*%
%ADD32C,0.0357*%
%ADD33C,0.0004*%
%ADD34C,0.0400*%
%ADD35C,0.0400*%
%ADD36C,0.0160*%
%ADD37C,0.0080*%
D10*
X007500Y003691D03*
X015000Y003691D03*
D11*
X012000Y003691D03*
X004500Y003691D03*
D12*
X004000Y008191D03*
X004000Y009191D03*
X005500Y009191D03*
X005500Y008191D03*
X007000Y010191D03*
X008500Y009191D03*
X009500Y009191D03*
X008500Y008191D03*
X012000Y011691D03*
X011000Y012691D03*
X012000Y013691D03*
X011000Y014691D03*
X007000Y014191D03*
X007000Y013191D03*
X004000Y014191D03*
X002500Y014191D03*
X001500Y014191D03*
X001000Y016191D03*
X004000Y016191D03*
X002500Y011191D03*
X001500Y011191D03*
X001000Y009191D03*
X001000Y008191D03*
X012500Y009191D03*
X013500Y009191D03*
X013500Y008191D03*
X016500Y008191D03*
X016500Y009191D03*
X007300Y021691D03*
X007300Y022691D03*
D13*
X015000Y016951D02*
X015000Y016431D01*
X016000Y016431D02*
X016000Y016951D01*
X018000Y016951D02*
X018000Y016431D01*
X019000Y016431D02*
X019000Y016951D01*
X010750Y007451D02*
X010750Y006931D01*
X009750Y006931D02*
X009750Y007451D01*
X008750Y007451D02*
X008750Y006931D01*
X003000Y006951D02*
X003000Y006431D01*
X002000Y006431D02*
X002000Y006951D01*
X001000Y006951D02*
X001000Y006431D01*
D14*
X004000Y017191D03*
X004000Y018191D03*
X005000Y018191D03*
X005000Y017191D03*
X006000Y017191D03*
X014000Y016191D03*
X014000Y025191D03*
D15*
X018000Y018971D02*
X018000Y018411D01*
X019000Y018411D02*
X019000Y018971D01*
X007000Y024411D02*
X007000Y024971D01*
X006000Y024971D02*
X006000Y024411D01*
X005000Y024411D02*
X005000Y024971D01*
D16*
X009000Y025133D02*
X009000Y024248D01*
X011500Y024248D02*
X011500Y025133D01*
X011500Y019133D02*
X011500Y018248D01*
X009000Y018248D02*
X009000Y019133D01*
D17*
X006500Y019691D03*
X006500Y020691D03*
X006500Y021691D03*
X006500Y022691D03*
X003500Y022691D03*
X003500Y021691D03*
X003500Y020691D03*
X003500Y019691D03*
D18*
X001800Y019691D02*
X001200Y019691D01*
X001200Y020691D02*
X001800Y020691D01*
X001800Y021691D02*
X001200Y021691D01*
X001200Y018691D02*
X001800Y018691D01*
X001800Y017691D02*
X001200Y017691D01*
X016000Y019891D02*
X016000Y020491D01*
X017000Y020491D02*
X017000Y019891D01*
X018000Y019891D02*
X018000Y020491D01*
X019000Y020491D02*
X019000Y019891D01*
D19*
X014000Y014691D03*
X013000Y014691D03*
X013000Y013691D03*
X013000Y012691D03*
X013000Y010691D03*
X006000Y018191D03*
D20*
X005500Y003691D03*
X005500Y000791D03*
X004500Y000791D03*
X007500Y000791D03*
X012000Y000791D03*
X013000Y000791D03*
X015000Y000791D03*
X013000Y003691D03*
D21*
X012830Y016691D02*
X012170Y016691D01*
X007830Y016691D02*
X007170Y016691D01*
D22*
X005500Y013191D03*
X005500Y012191D03*
X005500Y011191D03*
X005500Y010191D03*
X013000Y011691D03*
X017500Y012191D03*
X017500Y013191D03*
X017500Y014191D03*
X017500Y015191D03*
X017500Y011191D03*
D23*
X020669Y022395D03*
D24*
X020669Y021395D03*
X020669Y020395D03*
X020669Y019395D03*
X020669Y018395D03*
X020669Y017395D03*
X020669Y016395D03*
X020669Y015395D03*
X020669Y014395D03*
X020669Y013395D03*
X020669Y012395D03*
X020669Y011395D03*
X020669Y010395D03*
X020669Y009395D03*
X020669Y008395D03*
X020669Y007395D03*
X020669Y006395D03*
X020669Y005395D03*
X020669Y004395D03*
X020669Y003395D03*
X021669Y003395D03*
X021669Y004395D03*
X021669Y005395D03*
X021669Y006395D03*
X021669Y007395D03*
X021669Y008395D03*
X021669Y009395D03*
X021669Y010395D03*
X021669Y011395D03*
X021669Y012395D03*
X021669Y013395D03*
X021669Y014395D03*
X021669Y015395D03*
X021669Y016395D03*
X021669Y017395D03*
X021669Y018395D03*
X021669Y019395D03*
X021669Y020395D03*
X021669Y021395D03*
X021669Y022395D03*
D25*
X001878Y001478D03*
X021169Y001478D03*
X001878Y024313D03*
D26*
X013626Y006691D03*
X014374Y006691D03*
X014374Y005691D03*
X013626Y005691D03*
X015626Y005691D03*
X016374Y005691D03*
X016374Y006691D03*
X015626Y006691D03*
D27*
X017646Y006584D02*
X018220Y006584D01*
X018220Y005797D02*
X017646Y005797D01*
X017646Y004813D02*
X018220Y004813D01*
X018220Y007569D02*
X017646Y007569D01*
D28*
X019000Y008777D03*
X019000Y003604D03*
D29*
X009900Y010316D02*
X009900Y010866D01*
X009000Y010866D02*
X009000Y010316D01*
X008100Y010316D02*
X008100Y010866D01*
D30*
X017500Y022070D03*
D31*
X017500Y024472D03*
D32*
X015800Y025018D02*
X015800Y025375D01*
X015800Y023730D02*
X015800Y023372D01*
X019200Y023372D02*
X019200Y023730D01*
X019200Y025018D02*
X019200Y025375D01*
D33*
X019176Y025509D02*
X019224Y025509D01*
X019244Y025506D02*
X019200Y025511D01*
X019156Y025506D01*
X019244Y025506D01*
X019285Y025492D01*
X019323Y025468D01*
X019354Y025437D01*
X019377Y025400D01*
X019392Y025358D01*
X019008Y025358D01*
X019003Y025315D01*
X019003Y025078D01*
X019008Y025035D01*
X019023Y024993D01*
X019046Y024956D01*
X019077Y024924D01*
X019115Y024901D01*
X019156Y024886D01*
X019200Y024881D01*
X019244Y024886D01*
X019285Y024901D01*
X019323Y024924D01*
X019354Y024956D01*
X019377Y024993D01*
X019392Y025035D01*
X019397Y025078D01*
X019397Y025315D01*
X019392Y025358D01*
X019391Y025360D02*
X019009Y025360D01*
X019008Y025358D02*
X019023Y025400D01*
X019046Y025437D01*
X019077Y025468D01*
X019115Y025492D01*
X019156Y025506D01*
X019149Y025504D02*
X019251Y025504D01*
X019258Y025501D02*
X019142Y025501D01*
X019135Y025499D02*
X019265Y025499D01*
X019272Y025497D02*
X019128Y025497D01*
X019121Y025494D02*
X019279Y025494D01*
X019286Y025492D02*
X019114Y025492D01*
X019110Y025489D02*
X019290Y025489D01*
X019294Y025487D02*
X019106Y025487D01*
X019103Y025484D02*
X019297Y025484D01*
X019301Y025482D02*
X019099Y025482D01*
X019095Y025479D02*
X019305Y025479D01*
X019309Y025477D02*
X019091Y025477D01*
X019087Y025475D02*
X019313Y025475D01*
X019317Y025472D02*
X019083Y025472D01*
X019079Y025470D02*
X019321Y025470D01*
X019324Y025467D02*
X019076Y025467D01*
X019074Y025465D02*
X019326Y025465D01*
X019329Y025462D02*
X019071Y025462D01*
X019069Y025460D02*
X019331Y025460D01*
X019334Y025458D02*
X019066Y025458D01*
X019064Y025455D02*
X019336Y025455D01*
X019339Y025453D02*
X019061Y025453D01*
X019059Y025450D02*
X019341Y025450D01*
X019343Y025448D02*
X019057Y025448D01*
X019054Y025445D02*
X019346Y025445D01*
X019348Y025443D02*
X019052Y025443D01*
X019049Y025441D02*
X019351Y025441D01*
X019353Y025438D02*
X019047Y025438D01*
X019045Y025436D02*
X019355Y025436D01*
X019356Y025433D02*
X019044Y025433D01*
X019042Y025431D02*
X019358Y025431D01*
X019360Y025428D02*
X019040Y025428D01*
X019039Y025426D02*
X019361Y025426D01*
X019363Y025423D02*
X019037Y025423D01*
X019036Y025421D02*
X019364Y025421D01*
X019366Y025419D02*
X019034Y025419D01*
X019033Y025416D02*
X019367Y025416D01*
X019369Y025414D02*
X019031Y025414D01*
X019030Y025411D02*
X019370Y025411D01*
X019372Y025409D02*
X019028Y025409D01*
X019027Y025406D02*
X019373Y025406D01*
X019375Y025404D02*
X019025Y025404D01*
X019024Y025402D02*
X019376Y025402D01*
X019378Y025399D02*
X019022Y025399D01*
X019021Y025397D02*
X019379Y025397D01*
X019379Y025394D02*
X019021Y025394D01*
X019020Y025392D02*
X019380Y025392D01*
X019381Y025389D02*
X019019Y025389D01*
X019018Y025387D02*
X019382Y025387D01*
X019383Y025384D02*
X019017Y025384D01*
X019016Y025382D02*
X019384Y025382D01*
X019384Y025380D02*
X019016Y025380D01*
X019015Y025377D02*
X019385Y025377D01*
X019386Y025375D02*
X019014Y025375D01*
X019013Y025372D02*
X019387Y025372D01*
X019388Y025370D02*
X019012Y025370D01*
X019011Y025367D02*
X019389Y025367D01*
X019390Y025365D02*
X019010Y025365D01*
X019010Y025363D02*
X019390Y025363D01*
X019392Y025355D02*
X019008Y025355D01*
X019007Y025353D02*
X019393Y025353D01*
X019393Y025350D02*
X019007Y025350D01*
X019007Y025348D02*
X019393Y025348D01*
X019393Y025345D02*
X019007Y025345D01*
X019006Y025343D02*
X019394Y025343D01*
X019394Y025341D02*
X019006Y025341D01*
X019006Y025338D02*
X019394Y025338D01*
X019394Y025336D02*
X019006Y025336D01*
X019005Y025333D02*
X019395Y025333D01*
X019395Y025331D02*
X019005Y025331D01*
X019005Y025328D02*
X019395Y025328D01*
X019396Y025326D02*
X019004Y025326D01*
X019004Y025324D02*
X019396Y025324D01*
X019396Y025321D02*
X019004Y025321D01*
X019004Y025319D02*
X019396Y025319D01*
X019397Y025316D02*
X019003Y025316D01*
X019003Y025314D02*
X019397Y025314D01*
X019397Y025311D02*
X019003Y025311D01*
X019003Y025309D02*
X019397Y025309D01*
X019397Y025306D02*
X019003Y025306D01*
X019003Y025304D02*
X019397Y025304D01*
X019397Y025302D02*
X019003Y025302D01*
X019003Y025299D02*
X019397Y025299D01*
X019397Y025297D02*
X019003Y025297D01*
X019003Y025294D02*
X019397Y025294D01*
X019397Y025292D02*
X019003Y025292D01*
X019003Y025289D02*
X019397Y025289D01*
X019397Y025287D02*
X019003Y025287D01*
X019003Y025285D02*
X019397Y025285D01*
X019397Y025282D02*
X019003Y025282D01*
X019003Y025280D02*
X019397Y025280D01*
X019397Y025277D02*
X019003Y025277D01*
X019003Y025275D02*
X019397Y025275D01*
X019397Y025272D02*
X019003Y025272D01*
X019003Y025270D02*
X019397Y025270D01*
X019397Y025267D02*
X019003Y025267D01*
X019003Y025265D02*
X019397Y025265D01*
X019397Y025263D02*
X019003Y025263D01*
X019003Y025260D02*
X019397Y025260D01*
X019397Y025258D02*
X019003Y025258D01*
X019003Y025255D02*
X019397Y025255D01*
X019397Y025253D02*
X019003Y025253D01*
X019003Y025250D02*
X019397Y025250D01*
X019397Y025248D02*
X019003Y025248D01*
X019003Y025246D02*
X019397Y025246D01*
X019397Y025243D02*
X019003Y025243D01*
X019003Y025241D02*
X019397Y025241D01*
X019397Y025238D02*
X019003Y025238D01*
X019003Y025236D02*
X019397Y025236D01*
X019397Y025233D02*
X019003Y025233D01*
X019003Y025231D02*
X019397Y025231D01*
X019397Y025228D02*
X019003Y025228D01*
X019003Y025226D02*
X019397Y025226D01*
X019397Y025224D02*
X019003Y025224D01*
X019003Y025221D02*
X019397Y025221D01*
X019397Y025219D02*
X019003Y025219D01*
X019003Y025216D02*
X019397Y025216D01*
X019397Y025214D02*
X019003Y025214D01*
X019003Y025211D02*
X019397Y025211D01*
X019397Y025209D02*
X019003Y025209D01*
X019003Y025207D02*
X019397Y025207D01*
X019397Y025204D02*
X019003Y025204D01*
X019003Y025202D02*
X019397Y025202D01*
X019397Y025199D02*
X019003Y025199D01*
X019003Y025197D02*
X019397Y025197D01*
X019397Y025194D02*
X019003Y025194D01*
X019003Y025192D02*
X019397Y025192D01*
X019397Y025189D02*
X019003Y025189D01*
X019003Y025187D02*
X019397Y025187D01*
X019397Y025185D02*
X019003Y025185D01*
X019003Y025182D02*
X019397Y025182D01*
X019397Y025180D02*
X019003Y025180D01*
X019003Y025177D02*
X019397Y025177D01*
X019397Y025175D02*
X019003Y025175D01*
X019003Y025172D02*
X019397Y025172D01*
X019397Y025170D02*
X019003Y025170D01*
X019003Y025168D02*
X019397Y025168D01*
X019397Y025165D02*
X019003Y025165D01*
X019003Y025163D02*
X019397Y025163D01*
X019397Y025160D02*
X019003Y025160D01*
X019003Y025158D02*
X019397Y025158D01*
X019397Y025155D02*
X019003Y025155D01*
X019003Y025153D02*
X019397Y025153D01*
X019397Y025150D02*
X019003Y025150D01*
X019003Y025148D02*
X019397Y025148D01*
X019397Y025146D02*
X019003Y025146D01*
X019003Y025143D02*
X019397Y025143D01*
X019397Y025141D02*
X019003Y025141D01*
X019003Y025138D02*
X019397Y025138D01*
X019397Y025136D02*
X019003Y025136D01*
X019003Y025133D02*
X019397Y025133D01*
X019397Y025131D02*
X019003Y025131D01*
X019003Y025129D02*
X019397Y025129D01*
X019397Y025126D02*
X019003Y025126D01*
X019003Y025124D02*
X019397Y025124D01*
X019397Y025121D02*
X019003Y025121D01*
X019003Y025119D02*
X019397Y025119D01*
X019397Y025116D02*
X019003Y025116D01*
X019003Y025114D02*
X019397Y025114D01*
X019397Y025111D02*
X019003Y025111D01*
X019003Y025109D02*
X019397Y025109D01*
X019397Y025107D02*
X019003Y025107D01*
X019003Y025104D02*
X019397Y025104D01*
X019397Y025102D02*
X019003Y025102D01*
X019003Y025099D02*
X019397Y025099D01*
X019397Y025097D02*
X019003Y025097D01*
X019003Y025094D02*
X019397Y025094D01*
X019397Y025092D02*
X019003Y025092D01*
X019003Y025090D02*
X019397Y025090D01*
X019397Y025087D02*
X019003Y025087D01*
X019003Y025085D02*
X019397Y025085D01*
X019397Y025082D02*
X019003Y025082D01*
X019003Y025080D02*
X019397Y025080D01*
X019397Y025077D02*
X019003Y025077D01*
X019004Y025075D02*
X019396Y025075D01*
X019396Y025072D02*
X019004Y025072D01*
X019004Y025070D02*
X019396Y025070D01*
X019396Y025068D02*
X019004Y025068D01*
X019005Y025065D02*
X019395Y025065D01*
X019395Y025063D02*
X019005Y025063D01*
X019005Y025060D02*
X019395Y025060D01*
X019395Y025058D02*
X019005Y025058D01*
X019006Y025055D02*
X019394Y025055D01*
X019394Y025053D02*
X019006Y025053D01*
X019006Y025051D02*
X019394Y025051D01*
X019393Y025048D02*
X019007Y025048D01*
X019007Y025046D02*
X019393Y025046D01*
X019393Y025043D02*
X019007Y025043D01*
X019007Y025041D02*
X019393Y025041D01*
X019392Y025038D02*
X019008Y025038D01*
X019008Y025036D02*
X019392Y025036D01*
X019392Y025033D02*
X019008Y025033D01*
X019009Y025031D02*
X019391Y025031D01*
X019390Y025029D02*
X019010Y025029D01*
X019011Y025026D02*
X019389Y025026D01*
X019388Y025024D02*
X019012Y025024D01*
X019013Y025021D02*
X019387Y025021D01*
X019386Y025019D02*
X019014Y025019D01*
X019014Y025016D02*
X019386Y025016D01*
X019385Y025014D02*
X019015Y025014D01*
X019016Y025012D02*
X019384Y025012D01*
X019383Y025009D02*
X019017Y025009D01*
X019018Y025007D02*
X019382Y025007D01*
X019381Y025004D02*
X019019Y025004D01*
X019020Y025002D02*
X019380Y025002D01*
X019380Y024999D02*
X019020Y024999D01*
X019021Y024997D02*
X019379Y024997D01*
X019378Y024994D02*
X019022Y024994D01*
X019023Y024992D02*
X019377Y024992D01*
X019375Y024990D02*
X019025Y024990D01*
X019026Y024987D02*
X019374Y024987D01*
X019372Y024985D02*
X019028Y024985D01*
X019029Y024982D02*
X019371Y024982D01*
X019369Y024980D02*
X019031Y024980D01*
X019032Y024977D02*
X019368Y024977D01*
X019366Y024975D02*
X019034Y024975D01*
X019035Y024973D02*
X019365Y024973D01*
X019363Y024970D02*
X019037Y024970D01*
X019039Y024968D02*
X019361Y024968D01*
X019360Y024965D02*
X019040Y024965D01*
X019042Y024963D02*
X019358Y024963D01*
X019357Y024960D02*
X019043Y024960D01*
X019045Y024958D02*
X019355Y024958D01*
X019354Y024955D02*
X019046Y024955D01*
X019049Y024953D02*
X019351Y024953D01*
X019349Y024951D02*
X019051Y024951D01*
X019054Y024948D02*
X019346Y024948D01*
X019344Y024946D02*
X019056Y024946D01*
X019058Y024943D02*
X019342Y024943D01*
X019339Y024941D02*
X019061Y024941D01*
X019063Y024938D02*
X019337Y024938D01*
X019334Y024936D02*
X019066Y024936D01*
X019068Y024934D02*
X019332Y024934D01*
X019329Y024931D02*
X019071Y024931D01*
X019073Y024929D02*
X019327Y024929D01*
X019325Y024926D02*
X019075Y024926D01*
X019078Y024924D02*
X019322Y024924D01*
X019318Y024921D02*
X019082Y024921D01*
X019086Y024919D02*
X019314Y024919D01*
X019310Y024916D02*
X019090Y024916D01*
X019094Y024914D02*
X019306Y024914D01*
X019302Y024912D02*
X019098Y024912D01*
X019102Y024909D02*
X019298Y024909D01*
X019295Y024907D02*
X019105Y024907D01*
X019109Y024904D02*
X019291Y024904D01*
X019287Y024902D02*
X019113Y024902D01*
X019119Y024899D02*
X019281Y024899D01*
X019274Y024897D02*
X019126Y024897D01*
X019133Y024895D02*
X019267Y024895D01*
X019260Y024892D02*
X019140Y024892D01*
X019147Y024890D02*
X019253Y024890D01*
X019246Y024887D02*
X019154Y024887D01*
X019171Y024885D02*
X019229Y024885D01*
X019208Y024882D02*
X019192Y024882D01*
X019198Y025511D02*
X019202Y025511D01*
X019200Y023964D02*
X019156Y023959D01*
X019115Y023945D01*
X019077Y023921D01*
X019046Y023890D01*
X019023Y023853D01*
X019008Y023811D01*
X019003Y023767D01*
X019003Y023334D01*
X019008Y023290D01*
X019023Y023249D01*
X019046Y023212D01*
X019077Y023180D01*
X019115Y023157D01*
X019285Y023157D01*
X019323Y023180D01*
X019354Y023212D01*
X019377Y023249D01*
X019392Y023290D01*
X019397Y023334D01*
X019397Y023767D01*
X019392Y023811D01*
X019377Y023853D01*
X019354Y023890D01*
X019323Y023921D01*
X019285Y023945D01*
X019244Y023959D01*
X019200Y023964D01*
X019194Y023964D02*
X019206Y023964D01*
X019227Y023961D02*
X019173Y023961D01*
X019155Y023959D02*
X019245Y023959D01*
X019252Y023956D02*
X019148Y023956D01*
X019141Y023954D02*
X019259Y023954D01*
X019266Y023951D02*
X019134Y023951D01*
X019127Y023949D02*
X019273Y023949D01*
X019280Y023946D02*
X019120Y023946D01*
X019114Y023944D02*
X019286Y023944D01*
X019290Y023942D02*
X019110Y023942D01*
X019106Y023939D02*
X019294Y023939D01*
X019298Y023937D02*
X019102Y023937D01*
X019098Y023934D02*
X019302Y023934D01*
X019306Y023932D02*
X019094Y023932D01*
X019090Y023929D02*
X019310Y023929D01*
X019314Y023927D02*
X019086Y023927D01*
X019083Y023925D02*
X019317Y023925D01*
X019321Y023922D02*
X019079Y023922D01*
X019076Y023920D02*
X019324Y023920D01*
X019327Y023917D02*
X019073Y023917D01*
X019071Y023915D02*
X019329Y023915D01*
X019332Y023912D02*
X019068Y023912D01*
X019066Y023910D02*
X019334Y023910D01*
X019336Y023907D02*
X019064Y023907D01*
X019061Y023905D02*
X019339Y023905D01*
X019341Y023903D02*
X019059Y023903D01*
X019056Y023900D02*
X019344Y023900D01*
X019346Y023898D02*
X019054Y023898D01*
X019051Y023895D02*
X019349Y023895D01*
X019351Y023893D02*
X019049Y023893D01*
X019046Y023890D02*
X019354Y023890D01*
X019355Y023888D02*
X019045Y023888D01*
X019043Y023886D02*
X019357Y023886D01*
X019358Y023883D02*
X019042Y023883D01*
X019040Y023881D02*
X019360Y023881D01*
X019361Y023878D02*
X019039Y023878D01*
X019037Y023876D02*
X019363Y023876D01*
X019364Y023873D02*
X019036Y023873D01*
X019034Y023871D02*
X019366Y023871D01*
X019367Y023868D02*
X019033Y023868D01*
X019031Y023866D02*
X019369Y023866D01*
X019371Y023864D02*
X019029Y023864D01*
X019028Y023861D02*
X019372Y023861D01*
X019374Y023859D02*
X019026Y023859D01*
X019025Y023856D02*
X019375Y023856D01*
X019377Y023854D02*
X019023Y023854D01*
X019022Y023851D02*
X019378Y023851D01*
X019379Y023849D02*
X019021Y023849D01*
X019020Y023847D02*
X019380Y023847D01*
X019380Y023844D02*
X019020Y023844D01*
X019019Y023842D02*
X019381Y023842D01*
X019382Y023839D02*
X019018Y023839D01*
X019017Y023837D02*
X019383Y023837D01*
X019384Y023834D02*
X019016Y023834D01*
X019015Y023832D02*
X019385Y023832D01*
X019385Y023829D02*
X019015Y023829D01*
X019014Y023827D02*
X019386Y023827D01*
X019387Y023825D02*
X019013Y023825D01*
X019012Y023822D02*
X019388Y023822D01*
X019389Y023820D02*
X019011Y023820D01*
X019010Y023817D02*
X019390Y023817D01*
X019391Y023815D02*
X019009Y023815D01*
X019009Y023812D02*
X019391Y023812D01*
X019392Y023810D02*
X019008Y023810D01*
X019008Y023808D02*
X019392Y023808D01*
X019393Y023805D02*
X019007Y023805D01*
X019007Y023803D02*
X019393Y023803D01*
X019393Y023800D02*
X019007Y023800D01*
X019007Y023798D02*
X019393Y023798D01*
X019394Y023795D02*
X019006Y023795D01*
X019006Y023793D02*
X019394Y023793D01*
X019394Y023790D02*
X019006Y023790D01*
X019005Y023788D02*
X019395Y023788D01*
X019395Y023786D02*
X019005Y023786D01*
X019005Y023783D02*
X019395Y023783D01*
X019395Y023781D02*
X019005Y023781D01*
X019004Y023778D02*
X019396Y023778D01*
X019396Y023776D02*
X019004Y023776D01*
X019004Y023773D02*
X019396Y023773D01*
X019396Y023771D02*
X019004Y023771D01*
X019003Y023769D02*
X019397Y023769D01*
X019397Y023766D02*
X019003Y023766D01*
X019003Y023764D02*
X019397Y023764D01*
X019397Y023761D02*
X019003Y023761D01*
X019003Y023759D02*
X019397Y023759D01*
X019397Y023756D02*
X019003Y023756D01*
X019003Y023754D02*
X019397Y023754D01*
X019397Y023751D02*
X019003Y023751D01*
X019003Y023749D02*
X019397Y023749D01*
X019397Y023747D02*
X019003Y023747D01*
X019003Y023744D02*
X019397Y023744D01*
X019397Y023742D02*
X019003Y023742D01*
X019003Y023739D02*
X019397Y023739D01*
X019397Y023737D02*
X019003Y023737D01*
X019003Y023734D02*
X019397Y023734D01*
X019397Y023732D02*
X019003Y023732D01*
X019003Y023730D02*
X019397Y023730D01*
X019397Y023727D02*
X019003Y023727D01*
X019003Y023725D02*
X019397Y023725D01*
X019397Y023722D02*
X019003Y023722D01*
X019003Y023720D02*
X019397Y023720D01*
X019397Y023717D02*
X019003Y023717D01*
X019003Y023715D02*
X019397Y023715D01*
X019397Y023712D02*
X019003Y023712D01*
X019003Y023710D02*
X019397Y023710D01*
X019397Y023708D02*
X019003Y023708D01*
X019003Y023705D02*
X019397Y023705D01*
X019397Y023703D02*
X019003Y023703D01*
X019003Y023700D02*
X019397Y023700D01*
X019397Y023698D02*
X019003Y023698D01*
X019003Y023695D02*
X019397Y023695D01*
X019397Y023693D02*
X019003Y023693D01*
X019003Y023691D02*
X019397Y023691D01*
X019397Y023688D02*
X019003Y023688D01*
X019003Y023686D02*
X019397Y023686D01*
X019397Y023683D02*
X019003Y023683D01*
X019003Y023681D02*
X019397Y023681D01*
X019397Y023678D02*
X019003Y023678D01*
X019003Y023676D02*
X019397Y023676D01*
X019397Y023673D02*
X019003Y023673D01*
X019003Y023671D02*
X019397Y023671D01*
X019397Y023669D02*
X019003Y023669D01*
X019003Y023666D02*
X019397Y023666D01*
X019397Y023664D02*
X019003Y023664D01*
X019003Y023661D02*
X019397Y023661D01*
X019397Y023659D02*
X019003Y023659D01*
X019003Y023656D02*
X019397Y023656D01*
X019397Y023654D02*
X019003Y023654D01*
X019003Y023652D02*
X019397Y023652D01*
X019397Y023649D02*
X019003Y023649D01*
X019003Y023647D02*
X019397Y023647D01*
X019397Y023644D02*
X019003Y023644D01*
X019003Y023642D02*
X019397Y023642D01*
X019397Y023639D02*
X019003Y023639D01*
X019003Y023637D02*
X019397Y023637D01*
X019397Y023634D02*
X019003Y023634D01*
X019003Y023632D02*
X019397Y023632D01*
X019397Y023630D02*
X019003Y023630D01*
X019003Y023627D02*
X019397Y023627D01*
X019397Y023625D02*
X019003Y023625D01*
X019003Y023622D02*
X019397Y023622D01*
X019397Y023620D02*
X019003Y023620D01*
X019003Y023617D02*
X019397Y023617D01*
X019397Y023615D02*
X019003Y023615D01*
X019003Y023613D02*
X019397Y023613D01*
X019397Y023610D02*
X019003Y023610D01*
X019003Y023608D02*
X019397Y023608D01*
X019397Y023605D02*
X019003Y023605D01*
X019003Y023603D02*
X019397Y023603D01*
X019397Y023600D02*
X019003Y023600D01*
X019003Y023598D02*
X019397Y023598D01*
X019397Y023596D02*
X019003Y023596D01*
X019003Y023593D02*
X019397Y023593D01*
X019397Y023591D02*
X019003Y023591D01*
X019003Y023588D02*
X019397Y023588D01*
X019397Y023586D02*
X019003Y023586D01*
X019003Y023583D02*
X019397Y023583D01*
X019397Y023581D02*
X019003Y023581D01*
X019003Y023578D02*
X019397Y023578D01*
X019397Y023576D02*
X019003Y023576D01*
X019003Y023574D02*
X019397Y023574D01*
X019397Y023571D02*
X019003Y023571D01*
X019003Y023569D02*
X019397Y023569D01*
X019397Y023566D02*
X019003Y023566D01*
X019003Y023564D02*
X019397Y023564D01*
X019397Y023561D02*
X019003Y023561D01*
X019003Y023559D02*
X019397Y023559D01*
X019397Y023557D02*
X019003Y023557D01*
X019003Y023554D02*
X019397Y023554D01*
X019397Y023552D02*
X019003Y023552D01*
X019003Y023549D02*
X019397Y023549D01*
X019397Y023547D02*
X019003Y023547D01*
X019003Y023544D02*
X019397Y023544D01*
X019397Y023542D02*
X019003Y023542D01*
X019003Y023539D02*
X019397Y023539D01*
X019397Y023537D02*
X019003Y023537D01*
X019003Y023535D02*
X019397Y023535D01*
X019397Y023532D02*
X019003Y023532D01*
X019003Y023530D02*
X019397Y023530D01*
X019397Y023527D02*
X019003Y023527D01*
X019003Y023525D02*
X019397Y023525D01*
X019397Y023522D02*
X019003Y023522D01*
X019003Y023520D02*
X019397Y023520D01*
X019397Y023518D02*
X019003Y023518D01*
X019003Y023515D02*
X019397Y023515D01*
X019397Y023513D02*
X019003Y023513D01*
X019003Y023510D02*
X019397Y023510D01*
X019397Y023508D02*
X019003Y023508D01*
X019003Y023505D02*
X019397Y023505D01*
X019397Y023503D02*
X019003Y023503D01*
X019003Y023500D02*
X019397Y023500D01*
X019397Y023498D02*
X019003Y023498D01*
X019003Y023496D02*
X019397Y023496D01*
X019397Y023493D02*
X019003Y023493D01*
X019003Y023491D02*
X019397Y023491D01*
X019397Y023488D02*
X019003Y023488D01*
X019003Y023486D02*
X019397Y023486D01*
X019397Y023483D02*
X019003Y023483D01*
X019003Y023481D02*
X019397Y023481D01*
X019397Y023479D02*
X019003Y023479D01*
X019003Y023476D02*
X019397Y023476D01*
X019397Y023474D02*
X019003Y023474D01*
X019003Y023471D02*
X019397Y023471D01*
X019397Y023469D02*
X019003Y023469D01*
X019003Y023466D02*
X019397Y023466D01*
X019397Y023464D02*
X019003Y023464D01*
X019003Y023461D02*
X019397Y023461D01*
X019397Y023459D02*
X019003Y023459D01*
X019003Y023457D02*
X019397Y023457D01*
X019397Y023454D02*
X019003Y023454D01*
X019003Y023452D02*
X019397Y023452D01*
X019397Y023449D02*
X019003Y023449D01*
X019003Y023447D02*
X019397Y023447D01*
X019397Y023444D02*
X019003Y023444D01*
X019003Y023442D02*
X019397Y023442D01*
X019397Y023440D02*
X019003Y023440D01*
X019003Y023437D02*
X019397Y023437D01*
X019397Y023435D02*
X019003Y023435D01*
X019003Y023432D02*
X019397Y023432D01*
X019397Y023430D02*
X019003Y023430D01*
X019003Y023427D02*
X019397Y023427D01*
X019397Y023425D02*
X019003Y023425D01*
X019003Y023422D02*
X019397Y023422D01*
X019397Y023420D02*
X019003Y023420D01*
X019003Y023418D02*
X019397Y023418D01*
X019397Y023415D02*
X019003Y023415D01*
X019003Y023413D02*
X019397Y023413D01*
X019397Y023410D02*
X019003Y023410D01*
X019003Y023408D02*
X019397Y023408D01*
X019397Y023405D02*
X019003Y023405D01*
X019003Y023403D02*
X019397Y023403D01*
X019397Y023401D02*
X019003Y023401D01*
X019003Y023398D02*
X019397Y023398D01*
X019397Y023396D02*
X019003Y023396D01*
X019003Y023393D02*
X019397Y023393D01*
X019397Y023391D02*
X019003Y023391D01*
X019003Y023388D02*
X019397Y023388D01*
X019397Y023386D02*
X019003Y023386D01*
X019003Y023383D02*
X019397Y023383D01*
X019397Y023381D02*
X019003Y023381D01*
X019003Y023379D02*
X019397Y023379D01*
X019397Y023376D02*
X019003Y023376D01*
X019003Y023374D02*
X019397Y023374D01*
X019397Y023371D02*
X019003Y023371D01*
X019003Y023369D02*
X019397Y023369D01*
X019397Y023366D02*
X019003Y023366D01*
X019003Y023364D02*
X019397Y023364D01*
X019397Y023362D02*
X019003Y023362D01*
X019003Y023359D02*
X019397Y023359D01*
X019397Y023357D02*
X019003Y023357D01*
X019003Y023354D02*
X019397Y023354D01*
X019397Y023352D02*
X019003Y023352D01*
X019003Y023349D02*
X019397Y023349D01*
X019397Y023347D02*
X019003Y023347D01*
X019003Y023344D02*
X019397Y023344D01*
X019397Y023342D02*
X019003Y023342D01*
X019003Y023340D02*
X019397Y023340D01*
X019397Y023337D02*
X019003Y023337D01*
X019003Y023335D02*
X019397Y023335D01*
X019397Y023332D02*
X019003Y023332D01*
X019004Y023330D02*
X019396Y023330D01*
X019396Y023327D02*
X019004Y023327D01*
X019004Y023325D02*
X019396Y023325D01*
X019396Y023323D02*
X019004Y023323D01*
X019005Y023320D02*
X019395Y023320D01*
X019395Y023318D02*
X019005Y023318D01*
X019005Y023315D02*
X019395Y023315D01*
X019394Y023313D02*
X019006Y023313D01*
X019006Y023310D02*
X019394Y023310D01*
X019394Y023308D02*
X019006Y023308D01*
X019006Y023305D02*
X019394Y023305D01*
X019393Y023303D02*
X019007Y023303D01*
X019007Y023301D02*
X019393Y023301D01*
X019393Y023298D02*
X019007Y023298D01*
X019007Y023296D02*
X019393Y023296D01*
X019392Y023293D02*
X019008Y023293D01*
X019008Y023291D02*
X019392Y023291D01*
X019391Y023288D02*
X019009Y023288D01*
X019010Y023286D02*
X019390Y023286D01*
X019389Y023284D02*
X019011Y023284D01*
X019011Y023281D02*
X019389Y023281D01*
X019388Y023279D02*
X019012Y023279D01*
X019013Y023276D02*
X019387Y023276D01*
X019386Y023274D02*
X019014Y023274D01*
X019015Y023271D02*
X019385Y023271D01*
X019384Y023269D02*
X019016Y023269D01*
X019016Y023266D02*
X019384Y023266D01*
X019383Y023264D02*
X019017Y023264D01*
X019018Y023262D02*
X019382Y023262D01*
X019381Y023259D02*
X019019Y023259D01*
X019020Y023257D02*
X019380Y023257D01*
X019379Y023254D02*
X019021Y023254D01*
X019022Y023252D02*
X019378Y023252D01*
X019378Y023249D02*
X019022Y023249D01*
X019024Y023247D02*
X019376Y023247D01*
X019375Y023245D02*
X019025Y023245D01*
X019027Y023242D02*
X019373Y023242D01*
X019372Y023240D02*
X019028Y023240D01*
X019030Y023237D02*
X019370Y023237D01*
X019369Y023235D02*
X019031Y023235D01*
X019033Y023232D02*
X019367Y023232D01*
X019365Y023230D02*
X019035Y023230D01*
X019036Y023227D02*
X019364Y023227D01*
X019362Y023225D02*
X019038Y023225D01*
X019039Y023223D02*
X019361Y023223D01*
X019359Y023220D02*
X019041Y023220D01*
X019042Y023218D02*
X019358Y023218D01*
X019356Y023215D02*
X019044Y023215D01*
X019045Y023213D02*
X019355Y023213D01*
X019353Y023210D02*
X019047Y023210D01*
X019050Y023208D02*
X019350Y023208D01*
X019348Y023206D02*
X019052Y023206D01*
X019055Y023203D02*
X019345Y023203D01*
X019343Y023201D02*
X019057Y023201D01*
X019059Y023198D02*
X019341Y023198D01*
X019338Y023196D02*
X019062Y023196D01*
X019064Y023193D02*
X019336Y023193D01*
X019333Y023191D02*
X019067Y023191D01*
X019069Y023188D02*
X019331Y023188D01*
X019328Y023186D02*
X019072Y023186D01*
X019074Y023184D02*
X019326Y023184D01*
X019324Y023181D02*
X019076Y023181D01*
X019080Y023179D02*
X019320Y023179D01*
X019316Y023176D02*
X019084Y023176D01*
X019088Y023174D02*
X019312Y023174D01*
X019309Y023171D02*
X019091Y023171D01*
X019095Y023169D02*
X019305Y023169D01*
X019301Y023167D02*
X019099Y023167D01*
X019103Y023164D02*
X019297Y023164D01*
X019293Y023162D02*
X019107Y023162D01*
X019111Y023159D02*
X019289Y023159D01*
X019285Y023157D02*
X019244Y023142D01*
X019200Y023137D01*
X019156Y023142D01*
X019115Y023157D01*
X019122Y023154D02*
X019278Y023154D01*
X019271Y023152D02*
X019129Y023152D01*
X019136Y023149D02*
X019264Y023149D01*
X019257Y023147D02*
X019143Y023147D01*
X019150Y023145D02*
X019250Y023145D01*
X019242Y023142D02*
X019158Y023142D01*
X019179Y023140D02*
X019221Y023140D01*
X015997Y023334D02*
X015992Y023290D01*
X015977Y023249D01*
X015954Y023212D01*
X015923Y023180D01*
X015885Y023157D01*
X015715Y023157D01*
X015756Y023142D01*
X015800Y023137D01*
X015844Y023142D01*
X015885Y023157D01*
X015889Y023159D02*
X015711Y023159D01*
X015715Y023157D02*
X015677Y023180D01*
X015646Y023212D01*
X015623Y023249D01*
X015608Y023290D01*
X015603Y023334D01*
X015603Y023767D01*
X015608Y023811D01*
X015623Y023853D01*
X015646Y023890D01*
X015677Y023921D01*
X015715Y023945D01*
X015756Y023959D01*
X015800Y023964D01*
X015844Y023959D01*
X015885Y023945D01*
X015923Y023921D01*
X015954Y023890D01*
X015977Y023853D01*
X015992Y023811D01*
X015997Y023767D01*
X015997Y023334D01*
X015997Y023335D02*
X015603Y023335D01*
X015603Y023337D02*
X015997Y023337D01*
X015997Y023340D02*
X015603Y023340D01*
X015603Y023342D02*
X015997Y023342D01*
X015997Y023344D02*
X015603Y023344D01*
X015603Y023347D02*
X015997Y023347D01*
X015997Y023349D02*
X015603Y023349D01*
X015603Y023352D02*
X015997Y023352D01*
X015997Y023354D02*
X015603Y023354D01*
X015603Y023357D02*
X015997Y023357D01*
X015997Y023359D02*
X015603Y023359D01*
X015603Y023362D02*
X015997Y023362D01*
X015997Y023364D02*
X015603Y023364D01*
X015603Y023366D02*
X015997Y023366D01*
X015997Y023369D02*
X015603Y023369D01*
X015603Y023371D02*
X015997Y023371D01*
X015997Y023374D02*
X015603Y023374D01*
X015603Y023376D02*
X015997Y023376D01*
X015997Y023379D02*
X015603Y023379D01*
X015603Y023381D02*
X015997Y023381D01*
X015997Y023383D02*
X015603Y023383D01*
X015603Y023386D02*
X015997Y023386D01*
X015997Y023388D02*
X015603Y023388D01*
X015603Y023391D02*
X015997Y023391D01*
X015997Y023393D02*
X015603Y023393D01*
X015603Y023396D02*
X015997Y023396D01*
X015997Y023398D02*
X015603Y023398D01*
X015603Y023401D02*
X015997Y023401D01*
X015997Y023403D02*
X015603Y023403D01*
X015603Y023405D02*
X015997Y023405D01*
X015997Y023408D02*
X015603Y023408D01*
X015603Y023410D02*
X015997Y023410D01*
X015997Y023413D02*
X015603Y023413D01*
X015603Y023415D02*
X015997Y023415D01*
X015997Y023418D02*
X015603Y023418D01*
X015603Y023420D02*
X015997Y023420D01*
X015997Y023422D02*
X015603Y023422D01*
X015603Y023425D02*
X015997Y023425D01*
X015997Y023427D02*
X015603Y023427D01*
X015603Y023430D02*
X015997Y023430D01*
X015997Y023432D02*
X015603Y023432D01*
X015603Y023435D02*
X015997Y023435D01*
X015997Y023437D02*
X015603Y023437D01*
X015603Y023440D02*
X015997Y023440D01*
X015997Y023442D02*
X015603Y023442D01*
X015603Y023444D02*
X015997Y023444D01*
X015997Y023447D02*
X015603Y023447D01*
X015603Y023449D02*
X015997Y023449D01*
X015997Y023452D02*
X015603Y023452D01*
X015603Y023454D02*
X015997Y023454D01*
X015997Y023457D02*
X015603Y023457D01*
X015603Y023459D02*
X015997Y023459D01*
X015997Y023461D02*
X015603Y023461D01*
X015603Y023464D02*
X015997Y023464D01*
X015997Y023466D02*
X015603Y023466D01*
X015603Y023469D02*
X015997Y023469D01*
X015997Y023471D02*
X015603Y023471D01*
X015603Y023474D02*
X015997Y023474D01*
X015997Y023476D02*
X015603Y023476D01*
X015603Y023479D02*
X015997Y023479D01*
X015997Y023481D02*
X015603Y023481D01*
X015603Y023483D02*
X015997Y023483D01*
X015997Y023486D02*
X015603Y023486D01*
X015603Y023488D02*
X015997Y023488D01*
X015997Y023491D02*
X015603Y023491D01*
X015603Y023493D02*
X015997Y023493D01*
X015997Y023496D02*
X015603Y023496D01*
X015603Y023498D02*
X015997Y023498D01*
X015997Y023500D02*
X015603Y023500D01*
X015603Y023503D02*
X015997Y023503D01*
X015997Y023505D02*
X015603Y023505D01*
X015603Y023508D02*
X015997Y023508D01*
X015997Y023510D02*
X015603Y023510D01*
X015603Y023513D02*
X015997Y023513D01*
X015997Y023515D02*
X015603Y023515D01*
X015603Y023518D02*
X015997Y023518D01*
X015997Y023520D02*
X015603Y023520D01*
X015603Y023522D02*
X015997Y023522D01*
X015997Y023525D02*
X015603Y023525D01*
X015603Y023527D02*
X015997Y023527D01*
X015997Y023530D02*
X015603Y023530D01*
X015603Y023532D02*
X015997Y023532D01*
X015997Y023535D02*
X015603Y023535D01*
X015603Y023537D02*
X015997Y023537D01*
X015997Y023539D02*
X015603Y023539D01*
X015603Y023542D02*
X015997Y023542D01*
X015997Y023544D02*
X015603Y023544D01*
X015603Y023547D02*
X015997Y023547D01*
X015997Y023549D02*
X015603Y023549D01*
X015603Y023552D02*
X015997Y023552D01*
X015997Y023554D02*
X015603Y023554D01*
X015603Y023557D02*
X015997Y023557D01*
X015997Y023559D02*
X015603Y023559D01*
X015603Y023561D02*
X015997Y023561D01*
X015997Y023564D02*
X015603Y023564D01*
X015603Y023566D02*
X015997Y023566D01*
X015997Y023569D02*
X015603Y023569D01*
X015603Y023571D02*
X015997Y023571D01*
X015997Y023574D02*
X015603Y023574D01*
X015603Y023576D02*
X015997Y023576D01*
X015997Y023578D02*
X015603Y023578D01*
X015603Y023581D02*
X015997Y023581D01*
X015997Y023583D02*
X015603Y023583D01*
X015603Y023586D02*
X015997Y023586D01*
X015997Y023588D02*
X015603Y023588D01*
X015603Y023591D02*
X015997Y023591D01*
X015997Y023593D02*
X015603Y023593D01*
X015603Y023596D02*
X015997Y023596D01*
X015997Y023598D02*
X015603Y023598D01*
X015603Y023600D02*
X015997Y023600D01*
X015997Y023603D02*
X015603Y023603D01*
X015603Y023605D02*
X015997Y023605D01*
X015997Y023608D02*
X015603Y023608D01*
X015603Y023610D02*
X015997Y023610D01*
X015997Y023613D02*
X015603Y023613D01*
X015603Y023615D02*
X015997Y023615D01*
X015997Y023617D02*
X015603Y023617D01*
X015603Y023620D02*
X015997Y023620D01*
X015997Y023622D02*
X015603Y023622D01*
X015603Y023625D02*
X015997Y023625D01*
X015997Y023627D02*
X015603Y023627D01*
X015603Y023630D02*
X015997Y023630D01*
X015997Y023632D02*
X015603Y023632D01*
X015603Y023634D02*
X015997Y023634D01*
X015997Y023637D02*
X015603Y023637D01*
X015603Y023639D02*
X015997Y023639D01*
X015997Y023642D02*
X015603Y023642D01*
X015603Y023644D02*
X015997Y023644D01*
X015997Y023647D02*
X015603Y023647D01*
X015603Y023649D02*
X015997Y023649D01*
X015997Y023652D02*
X015603Y023652D01*
X015603Y023654D02*
X015997Y023654D01*
X015997Y023656D02*
X015603Y023656D01*
X015603Y023659D02*
X015997Y023659D01*
X015997Y023661D02*
X015603Y023661D01*
X015603Y023664D02*
X015997Y023664D01*
X015997Y023666D02*
X015603Y023666D01*
X015603Y023669D02*
X015997Y023669D01*
X015997Y023671D02*
X015603Y023671D01*
X015603Y023673D02*
X015997Y023673D01*
X015997Y023676D02*
X015603Y023676D01*
X015603Y023678D02*
X015997Y023678D01*
X015997Y023681D02*
X015603Y023681D01*
X015603Y023683D02*
X015997Y023683D01*
X015997Y023686D02*
X015603Y023686D01*
X015603Y023688D02*
X015997Y023688D01*
X015997Y023691D02*
X015603Y023691D01*
X015603Y023693D02*
X015997Y023693D01*
X015997Y023695D02*
X015603Y023695D01*
X015603Y023698D02*
X015997Y023698D01*
X015997Y023700D02*
X015603Y023700D01*
X015603Y023703D02*
X015997Y023703D01*
X015997Y023705D02*
X015603Y023705D01*
X015603Y023708D02*
X015997Y023708D01*
X015997Y023710D02*
X015603Y023710D01*
X015603Y023712D02*
X015997Y023712D01*
X015997Y023715D02*
X015603Y023715D01*
X015603Y023717D02*
X015997Y023717D01*
X015997Y023720D02*
X015603Y023720D01*
X015603Y023722D02*
X015997Y023722D01*
X015997Y023725D02*
X015603Y023725D01*
X015603Y023727D02*
X015997Y023727D01*
X015997Y023730D02*
X015603Y023730D01*
X015603Y023732D02*
X015997Y023732D01*
X015997Y023734D02*
X015603Y023734D01*
X015603Y023737D02*
X015997Y023737D01*
X015997Y023739D02*
X015603Y023739D01*
X015603Y023742D02*
X015997Y023742D01*
X015997Y023744D02*
X015603Y023744D01*
X015603Y023747D02*
X015997Y023747D01*
X015997Y023749D02*
X015603Y023749D01*
X015603Y023751D02*
X015997Y023751D01*
X015997Y023754D02*
X015603Y023754D01*
X015603Y023756D02*
X015997Y023756D01*
X015997Y023759D02*
X015603Y023759D01*
X015603Y023761D02*
X015997Y023761D01*
X015997Y023764D02*
X015603Y023764D01*
X015603Y023766D02*
X015997Y023766D01*
X015997Y023769D02*
X015603Y023769D01*
X015604Y023771D02*
X015996Y023771D01*
X015996Y023773D02*
X015604Y023773D01*
X015604Y023776D02*
X015996Y023776D01*
X015996Y023778D02*
X015604Y023778D01*
X015605Y023781D02*
X015995Y023781D01*
X015995Y023783D02*
X015605Y023783D01*
X015605Y023786D02*
X015995Y023786D01*
X015995Y023788D02*
X015605Y023788D01*
X015606Y023790D02*
X015994Y023790D01*
X015994Y023793D02*
X015606Y023793D01*
X015606Y023795D02*
X015994Y023795D01*
X015993Y023798D02*
X015607Y023798D01*
X015607Y023800D02*
X015993Y023800D01*
X015993Y023803D02*
X015607Y023803D01*
X015607Y023805D02*
X015993Y023805D01*
X015992Y023808D02*
X015608Y023808D01*
X015608Y023810D02*
X015992Y023810D01*
X015991Y023812D02*
X015609Y023812D01*
X015609Y023815D02*
X015991Y023815D01*
X015990Y023817D02*
X015610Y023817D01*
X015611Y023820D02*
X015989Y023820D01*
X015988Y023822D02*
X015612Y023822D01*
X015613Y023825D02*
X015987Y023825D01*
X015986Y023827D02*
X015614Y023827D01*
X015615Y023829D02*
X015985Y023829D01*
X015985Y023832D02*
X015615Y023832D01*
X015616Y023834D02*
X015984Y023834D01*
X015983Y023837D02*
X015617Y023837D01*
X015618Y023839D02*
X015982Y023839D01*
X015981Y023842D02*
X015619Y023842D01*
X015620Y023844D02*
X015980Y023844D01*
X015980Y023847D02*
X015620Y023847D01*
X015621Y023849D02*
X015979Y023849D01*
X015978Y023851D02*
X015622Y023851D01*
X015623Y023854D02*
X015977Y023854D01*
X015975Y023856D02*
X015625Y023856D01*
X015626Y023859D02*
X015974Y023859D01*
X015972Y023861D02*
X015628Y023861D01*
X015629Y023864D02*
X015971Y023864D01*
X015969Y023866D02*
X015631Y023866D01*
X015633Y023868D02*
X015967Y023868D01*
X015966Y023871D02*
X015634Y023871D01*
X015636Y023873D02*
X015964Y023873D01*
X015963Y023876D02*
X015637Y023876D01*
X015639Y023878D02*
X015961Y023878D01*
X015960Y023881D02*
X015640Y023881D01*
X015642Y023883D02*
X015958Y023883D01*
X015957Y023886D02*
X015643Y023886D01*
X015645Y023888D02*
X015955Y023888D01*
X015954Y023890D02*
X015646Y023890D01*
X015649Y023893D02*
X015951Y023893D01*
X015949Y023895D02*
X015651Y023895D01*
X015654Y023898D02*
X015946Y023898D01*
X015944Y023900D02*
X015656Y023900D01*
X015659Y023903D02*
X015941Y023903D01*
X015939Y023905D02*
X015661Y023905D01*
X015664Y023907D02*
X015936Y023907D01*
X015934Y023910D02*
X015666Y023910D01*
X015668Y023912D02*
X015932Y023912D01*
X015929Y023915D02*
X015671Y023915D01*
X015673Y023917D02*
X015927Y023917D01*
X015924Y023920D02*
X015676Y023920D01*
X015679Y023922D02*
X015921Y023922D01*
X015917Y023925D02*
X015683Y023925D01*
X015686Y023927D02*
X015914Y023927D01*
X015910Y023929D02*
X015690Y023929D01*
X015694Y023932D02*
X015906Y023932D01*
X015902Y023934D02*
X015698Y023934D01*
X015702Y023937D02*
X015898Y023937D01*
X015894Y023939D02*
X015706Y023939D01*
X015710Y023942D02*
X015890Y023942D01*
X015886Y023944D02*
X015714Y023944D01*
X015720Y023946D02*
X015880Y023946D01*
X015873Y023949D02*
X015727Y023949D01*
X015734Y023951D02*
X015866Y023951D01*
X015859Y023954D02*
X015741Y023954D01*
X015748Y023956D02*
X015852Y023956D01*
X015845Y023959D02*
X015755Y023959D01*
X015773Y023961D02*
X015827Y023961D01*
X015806Y023964D02*
X015794Y023964D01*
X015603Y023332D02*
X015997Y023332D01*
X015996Y023330D02*
X015604Y023330D01*
X015604Y023327D02*
X015996Y023327D01*
X015996Y023325D02*
X015604Y023325D01*
X015604Y023323D02*
X015996Y023323D01*
X015995Y023320D02*
X015605Y023320D01*
X015605Y023318D02*
X015995Y023318D01*
X015995Y023315D02*
X015605Y023315D01*
X015606Y023313D02*
X015994Y023313D01*
X015994Y023310D02*
X015606Y023310D01*
X015606Y023308D02*
X015994Y023308D01*
X015994Y023305D02*
X015606Y023305D01*
X015607Y023303D02*
X015993Y023303D01*
X015993Y023301D02*
X015607Y023301D01*
X015607Y023298D02*
X015993Y023298D01*
X015993Y023296D02*
X015607Y023296D01*
X015608Y023293D02*
X015992Y023293D01*
X015992Y023291D02*
X015608Y023291D01*
X015609Y023288D02*
X015991Y023288D01*
X015990Y023286D02*
X015610Y023286D01*
X015611Y023284D02*
X015989Y023284D01*
X015989Y023281D02*
X015611Y023281D01*
X015612Y023279D02*
X015988Y023279D01*
X015987Y023276D02*
X015613Y023276D01*
X015614Y023274D02*
X015986Y023274D01*
X015985Y023271D02*
X015615Y023271D01*
X015616Y023269D02*
X015984Y023269D01*
X015984Y023266D02*
X015616Y023266D01*
X015617Y023264D02*
X015983Y023264D01*
X015982Y023262D02*
X015618Y023262D01*
X015619Y023259D02*
X015981Y023259D01*
X015980Y023257D02*
X015620Y023257D01*
X015621Y023254D02*
X015979Y023254D01*
X015978Y023252D02*
X015622Y023252D01*
X015622Y023249D02*
X015978Y023249D01*
X015976Y023247D02*
X015624Y023247D01*
X015625Y023245D02*
X015975Y023245D01*
X015973Y023242D02*
X015627Y023242D01*
X015628Y023240D02*
X015972Y023240D01*
X015970Y023237D02*
X015630Y023237D01*
X015631Y023235D02*
X015969Y023235D01*
X015967Y023232D02*
X015633Y023232D01*
X015635Y023230D02*
X015965Y023230D01*
X015964Y023227D02*
X015636Y023227D01*
X015638Y023225D02*
X015962Y023225D01*
X015961Y023223D02*
X015639Y023223D01*
X015641Y023220D02*
X015959Y023220D01*
X015958Y023218D02*
X015642Y023218D01*
X015644Y023215D02*
X015956Y023215D01*
X015955Y023213D02*
X015645Y023213D01*
X015647Y023210D02*
X015953Y023210D01*
X015950Y023208D02*
X015650Y023208D01*
X015652Y023206D02*
X015948Y023206D01*
X015945Y023203D02*
X015655Y023203D01*
X015657Y023201D02*
X015943Y023201D01*
X015941Y023198D02*
X015659Y023198D01*
X015662Y023196D02*
X015938Y023196D01*
X015936Y023193D02*
X015664Y023193D01*
X015667Y023191D02*
X015933Y023191D01*
X015931Y023188D02*
X015669Y023188D01*
X015672Y023186D02*
X015928Y023186D01*
X015926Y023184D02*
X015674Y023184D01*
X015676Y023181D02*
X015924Y023181D01*
X015920Y023179D02*
X015680Y023179D01*
X015684Y023176D02*
X015916Y023176D01*
X015912Y023174D02*
X015688Y023174D01*
X015691Y023171D02*
X015909Y023171D01*
X015905Y023169D02*
X015695Y023169D01*
X015699Y023167D02*
X015901Y023167D01*
X015897Y023164D02*
X015703Y023164D01*
X015707Y023162D02*
X015893Y023162D01*
X015878Y023154D02*
X015722Y023154D01*
X015729Y023152D02*
X015871Y023152D01*
X015864Y023149D02*
X015736Y023149D01*
X015743Y023147D02*
X015857Y023147D01*
X015850Y023145D02*
X015750Y023145D01*
X015758Y023142D02*
X015842Y023142D01*
X015821Y023140D02*
X015779Y023140D01*
X015800Y024881D02*
X015756Y024886D01*
X015715Y024901D01*
X015677Y024924D01*
X015646Y024956D01*
X015623Y024993D01*
X015608Y025035D01*
X015603Y025078D01*
X015603Y025315D01*
X015608Y025358D01*
X015992Y025358D01*
X015977Y025400D01*
X015954Y025437D01*
X015923Y025468D01*
X015885Y025492D01*
X015844Y025506D01*
X015756Y025506D01*
X015715Y025492D01*
X015677Y025468D01*
X015646Y025437D01*
X015623Y025400D01*
X015608Y025358D01*
X015609Y025360D02*
X015991Y025360D01*
X015992Y025358D02*
X015997Y025315D01*
X015997Y025078D01*
X015992Y025035D01*
X015977Y024993D01*
X015954Y024956D01*
X015923Y024924D01*
X015885Y024901D01*
X015844Y024886D01*
X015800Y024881D01*
X015792Y024882D02*
X015808Y024882D01*
X015829Y024885D02*
X015771Y024885D01*
X015754Y024887D02*
X015846Y024887D01*
X015853Y024890D02*
X015747Y024890D01*
X015740Y024892D02*
X015860Y024892D01*
X015867Y024895D02*
X015733Y024895D01*
X015726Y024897D02*
X015874Y024897D01*
X015881Y024899D02*
X015719Y024899D01*
X015713Y024902D02*
X015887Y024902D01*
X015891Y024904D02*
X015709Y024904D01*
X015705Y024907D02*
X015895Y024907D01*
X015898Y024909D02*
X015702Y024909D01*
X015698Y024912D02*
X015902Y024912D01*
X015906Y024914D02*
X015694Y024914D01*
X015690Y024916D02*
X015910Y024916D01*
X015914Y024919D02*
X015686Y024919D01*
X015682Y024921D02*
X015918Y024921D01*
X015922Y024924D02*
X015678Y024924D01*
X015675Y024926D02*
X015925Y024926D01*
X015927Y024929D02*
X015673Y024929D01*
X015671Y024931D02*
X015929Y024931D01*
X015932Y024934D02*
X015668Y024934D01*
X015666Y024936D02*
X015934Y024936D01*
X015937Y024938D02*
X015663Y024938D01*
X015661Y024941D02*
X015939Y024941D01*
X015942Y024943D02*
X015658Y024943D01*
X015656Y024946D02*
X015944Y024946D01*
X015946Y024948D02*
X015654Y024948D01*
X015651Y024951D02*
X015949Y024951D01*
X015951Y024953D02*
X015649Y024953D01*
X015646Y024955D02*
X015954Y024955D01*
X015955Y024958D02*
X015645Y024958D01*
X015643Y024960D02*
X015957Y024960D01*
X015958Y024963D02*
X015642Y024963D01*
X015640Y024965D02*
X015960Y024965D01*
X015961Y024968D02*
X015639Y024968D01*
X015637Y024970D02*
X015963Y024970D01*
X015965Y024973D02*
X015635Y024973D01*
X015634Y024975D02*
X015966Y024975D01*
X015968Y024977D02*
X015632Y024977D01*
X015631Y024980D02*
X015969Y024980D01*
X015971Y024982D02*
X015629Y024982D01*
X015628Y024985D02*
X015972Y024985D01*
X015974Y024987D02*
X015626Y024987D01*
X015625Y024990D02*
X015975Y024990D01*
X015977Y024992D02*
X015623Y024992D01*
X015622Y024994D02*
X015978Y024994D01*
X015979Y024997D02*
X015621Y024997D01*
X015620Y024999D02*
X015980Y024999D01*
X015980Y025002D02*
X015620Y025002D01*
X015619Y025004D02*
X015981Y025004D01*
X015982Y025007D02*
X015618Y025007D01*
X015617Y025009D02*
X015983Y025009D01*
X015984Y025012D02*
X015616Y025012D01*
X015615Y025014D02*
X015985Y025014D01*
X015986Y025016D02*
X015614Y025016D01*
X015614Y025019D02*
X015986Y025019D01*
X015987Y025021D02*
X015613Y025021D01*
X015612Y025024D02*
X015988Y025024D01*
X015989Y025026D02*
X015611Y025026D01*
X015610Y025029D02*
X015990Y025029D01*
X015991Y025031D02*
X015609Y025031D01*
X015608Y025033D02*
X015992Y025033D01*
X015992Y025036D02*
X015608Y025036D01*
X015608Y025038D02*
X015992Y025038D01*
X015993Y025041D02*
X015607Y025041D01*
X015607Y025043D02*
X015993Y025043D01*
X015993Y025046D02*
X015607Y025046D01*
X015607Y025048D02*
X015993Y025048D01*
X015994Y025051D02*
X015606Y025051D01*
X015606Y025053D02*
X015994Y025053D01*
X015994Y025055D02*
X015606Y025055D01*
X015605Y025058D02*
X015995Y025058D01*
X015995Y025060D02*
X015605Y025060D01*
X015605Y025063D02*
X015995Y025063D01*
X015995Y025065D02*
X015605Y025065D01*
X015604Y025068D02*
X015996Y025068D01*
X015996Y025070D02*
X015604Y025070D01*
X015604Y025072D02*
X015996Y025072D01*
X015996Y025075D02*
X015604Y025075D01*
X015603Y025077D02*
X015997Y025077D01*
X015997Y025080D02*
X015603Y025080D01*
X015603Y025082D02*
X015997Y025082D01*
X015997Y025085D02*
X015603Y025085D01*
X015603Y025087D02*
X015997Y025087D01*
X015997Y025090D02*
X015603Y025090D01*
X015603Y025092D02*
X015997Y025092D01*
X015997Y025094D02*
X015603Y025094D01*
X015603Y025097D02*
X015997Y025097D01*
X015997Y025099D02*
X015603Y025099D01*
X015603Y025102D02*
X015997Y025102D01*
X015997Y025104D02*
X015603Y025104D01*
X015603Y025107D02*
X015997Y025107D01*
X015997Y025109D02*
X015603Y025109D01*
X015603Y025111D02*
X015997Y025111D01*
X015997Y025114D02*
X015603Y025114D01*
X015603Y025116D02*
X015997Y025116D01*
X015997Y025119D02*
X015603Y025119D01*
X015603Y025121D02*
X015997Y025121D01*
X015997Y025124D02*
X015603Y025124D01*
X015603Y025126D02*
X015997Y025126D01*
X015997Y025129D02*
X015603Y025129D01*
X015603Y025131D02*
X015997Y025131D01*
X015997Y025133D02*
X015603Y025133D01*
X015603Y025136D02*
X015997Y025136D01*
X015997Y025138D02*
X015603Y025138D01*
X015603Y025141D02*
X015997Y025141D01*
X015997Y025143D02*
X015603Y025143D01*
X015603Y025146D02*
X015997Y025146D01*
X015997Y025148D02*
X015603Y025148D01*
X015603Y025150D02*
X015997Y025150D01*
X015997Y025153D02*
X015603Y025153D01*
X015603Y025155D02*
X015997Y025155D01*
X015997Y025158D02*
X015603Y025158D01*
X015603Y025160D02*
X015997Y025160D01*
X015997Y025163D02*
X015603Y025163D01*
X015603Y025165D02*
X015997Y025165D01*
X015997Y025168D02*
X015603Y025168D01*
X015603Y025170D02*
X015997Y025170D01*
X015997Y025172D02*
X015603Y025172D01*
X015603Y025175D02*
X015997Y025175D01*
X015997Y025177D02*
X015603Y025177D01*
X015603Y025180D02*
X015997Y025180D01*
X015997Y025182D02*
X015603Y025182D01*
X015603Y025185D02*
X015997Y025185D01*
X015997Y025187D02*
X015603Y025187D01*
X015603Y025189D02*
X015997Y025189D01*
X015997Y025192D02*
X015603Y025192D01*
X015603Y025194D02*
X015997Y025194D01*
X015997Y025197D02*
X015603Y025197D01*
X015603Y025199D02*
X015997Y025199D01*
X015997Y025202D02*
X015603Y025202D01*
X015603Y025204D02*
X015997Y025204D01*
X015997Y025207D02*
X015603Y025207D01*
X015603Y025209D02*
X015997Y025209D01*
X015997Y025211D02*
X015603Y025211D01*
X015603Y025214D02*
X015997Y025214D01*
X015997Y025216D02*
X015603Y025216D01*
X015603Y025219D02*
X015997Y025219D01*
X015997Y025221D02*
X015603Y025221D01*
X015603Y025224D02*
X015997Y025224D01*
X015997Y025226D02*
X015603Y025226D01*
X015603Y025228D02*
X015997Y025228D01*
X015997Y025231D02*
X015603Y025231D01*
X015603Y025233D02*
X015997Y025233D01*
X015997Y025236D02*
X015603Y025236D01*
X015603Y025238D02*
X015997Y025238D01*
X015997Y025241D02*
X015603Y025241D01*
X015603Y025243D02*
X015997Y025243D01*
X015997Y025246D02*
X015603Y025246D01*
X015603Y025248D02*
X015997Y025248D01*
X015997Y025250D02*
X015603Y025250D01*
X015603Y025253D02*
X015997Y025253D01*
X015997Y025255D02*
X015603Y025255D01*
X015603Y025258D02*
X015997Y025258D01*
X015997Y025260D02*
X015603Y025260D01*
X015603Y025263D02*
X015997Y025263D01*
X015997Y025265D02*
X015603Y025265D01*
X015603Y025267D02*
X015997Y025267D01*
X015997Y025270D02*
X015603Y025270D01*
X015603Y025272D02*
X015997Y025272D01*
X015997Y025275D02*
X015603Y025275D01*
X015603Y025277D02*
X015997Y025277D01*
X015997Y025280D02*
X015603Y025280D01*
X015603Y025282D02*
X015997Y025282D01*
X015997Y025285D02*
X015603Y025285D01*
X015603Y025287D02*
X015997Y025287D01*
X015997Y025289D02*
X015603Y025289D01*
X015603Y025292D02*
X015997Y025292D01*
X015997Y025294D02*
X015603Y025294D01*
X015603Y025297D02*
X015997Y025297D01*
X015997Y025299D02*
X015603Y025299D01*
X015603Y025302D02*
X015997Y025302D01*
X015997Y025304D02*
X015603Y025304D01*
X015603Y025306D02*
X015997Y025306D01*
X015997Y025309D02*
X015603Y025309D01*
X015603Y025311D02*
X015997Y025311D01*
X015997Y025314D02*
X015603Y025314D01*
X015603Y025316D02*
X015997Y025316D01*
X015996Y025319D02*
X015604Y025319D01*
X015604Y025321D02*
X015996Y025321D01*
X015996Y025324D02*
X015604Y025324D01*
X015604Y025326D02*
X015996Y025326D01*
X015995Y025328D02*
X015605Y025328D01*
X015605Y025331D02*
X015995Y025331D01*
X015995Y025333D02*
X015605Y025333D01*
X015606Y025336D02*
X015994Y025336D01*
X015994Y025338D02*
X015606Y025338D01*
X015606Y025341D02*
X015994Y025341D01*
X015994Y025343D02*
X015606Y025343D01*
X015607Y025345D02*
X015993Y025345D01*
X015993Y025348D02*
X015607Y025348D01*
X015607Y025350D02*
X015993Y025350D01*
X015993Y025353D02*
X015607Y025353D01*
X015608Y025355D02*
X015992Y025355D01*
X015990Y025363D02*
X015610Y025363D01*
X015610Y025365D02*
X015990Y025365D01*
X015989Y025367D02*
X015611Y025367D01*
X015612Y025370D02*
X015988Y025370D01*
X015987Y025372D02*
X015613Y025372D01*
X015614Y025375D02*
X015986Y025375D01*
X015985Y025377D02*
X015615Y025377D01*
X015616Y025380D02*
X015984Y025380D01*
X015984Y025382D02*
X015616Y025382D01*
X015617Y025384D02*
X015983Y025384D01*
X015982Y025387D02*
X015618Y025387D01*
X015619Y025389D02*
X015981Y025389D01*
X015980Y025392D02*
X015620Y025392D01*
X015621Y025394D02*
X015979Y025394D01*
X015979Y025397D02*
X015621Y025397D01*
X015622Y025399D02*
X015978Y025399D01*
X015976Y025402D02*
X015624Y025402D01*
X015625Y025404D02*
X015975Y025404D01*
X015973Y025406D02*
X015627Y025406D01*
X015628Y025409D02*
X015972Y025409D01*
X015970Y025411D02*
X015630Y025411D01*
X015631Y025414D02*
X015969Y025414D01*
X015967Y025416D02*
X015633Y025416D01*
X015634Y025419D02*
X015966Y025419D01*
X015964Y025421D02*
X015636Y025421D01*
X015637Y025423D02*
X015963Y025423D01*
X015961Y025426D02*
X015639Y025426D01*
X015640Y025428D02*
X015960Y025428D01*
X015958Y025431D02*
X015642Y025431D01*
X015644Y025433D02*
X015956Y025433D01*
X015955Y025436D02*
X015645Y025436D01*
X015647Y025438D02*
X015953Y025438D01*
X015951Y025441D02*
X015649Y025441D01*
X015652Y025443D02*
X015948Y025443D01*
X015946Y025445D02*
X015654Y025445D01*
X015657Y025448D02*
X015943Y025448D01*
X015941Y025450D02*
X015659Y025450D01*
X015661Y025453D02*
X015939Y025453D01*
X015936Y025455D02*
X015664Y025455D01*
X015666Y025458D02*
X015934Y025458D01*
X015931Y025460D02*
X015669Y025460D01*
X015671Y025462D02*
X015929Y025462D01*
X015926Y025465D02*
X015674Y025465D01*
X015676Y025467D02*
X015924Y025467D01*
X015921Y025470D02*
X015679Y025470D01*
X015683Y025472D02*
X015917Y025472D01*
X015913Y025475D02*
X015687Y025475D01*
X015691Y025477D02*
X015909Y025477D01*
X015905Y025479D02*
X015695Y025479D01*
X015699Y025482D02*
X015901Y025482D01*
X015897Y025484D02*
X015703Y025484D01*
X015706Y025487D02*
X015894Y025487D01*
X015890Y025489D02*
X015710Y025489D01*
X015714Y025492D02*
X015886Y025492D01*
X015879Y025494D02*
X015721Y025494D01*
X015728Y025497D02*
X015872Y025497D01*
X015865Y025499D02*
X015735Y025499D01*
X015742Y025501D02*
X015858Y025501D01*
X015851Y025504D02*
X015749Y025504D01*
X015756Y025506D02*
X015800Y025511D01*
X015844Y025506D01*
X015824Y025509D02*
X015776Y025509D01*
X015798Y025511D02*
X015802Y025511D01*
D34*
X014000Y025191D02*
X013500Y025191D01*
X011813Y023503D01*
X010188Y023503D01*
X009000Y024691D01*
X008750Y023253D02*
X013438Y018566D01*
X013500Y017816D02*
X012375Y017816D01*
X011500Y018691D01*
X011313Y018628D01*
X009188Y018628D01*
X009000Y018691D01*
X006563Y018691D01*
X005000Y020253D01*
X005000Y024691D01*
X007000Y024691D02*
X007000Y023816D01*
X007875Y022941D01*
X007875Y022253D01*
X007313Y021691D01*
X007300Y021691D01*
X008625Y020566D02*
X010000Y019191D01*
X008500Y016566D02*
X008500Y012503D01*
X006125Y010128D01*
X006125Y009691D01*
X005688Y009253D01*
X005500Y009191D01*
X004000Y009191D01*
X004000Y008191D02*
X003438Y008191D01*
X002438Y007191D01*
X002438Y007128D01*
X002000Y006691D01*
X004000Y008191D02*
X004188Y008128D01*
X004750Y008128D01*
X005688Y007191D01*
X007500Y007191D01*
X007500Y003691D01*
X007500Y007191D02*
X008750Y007191D01*
X009750Y007191D02*
X010188Y007628D01*
X010188Y007691D01*
X011688Y009191D01*
X012500Y009191D01*
X013000Y010691D02*
X012813Y010753D01*
X012063Y010753D01*
X010500Y012316D01*
X010875Y012691D01*
X011000Y012691D01*
X010500Y012316D02*
X009000Y010816D01*
X009000Y010591D01*
X011000Y013691D02*
X013000Y011691D01*
X013000Y012691D02*
X013063Y012878D01*
X014000Y013816D01*
X014000Y014691D01*
X014625Y014941D02*
X014000Y015566D01*
X013625Y015566D01*
X012500Y016691D01*
X013500Y017816D02*
X014625Y016691D01*
X015000Y016691D01*
X014625Y014941D02*
X014625Y010253D01*
X016500Y008378D01*
X016500Y008191D01*
X017500Y007566D02*
X016563Y006628D01*
X016374Y006691D01*
X016375Y006691D01*
X016375Y005691D01*
X016374Y005691D01*
X016313Y005503D01*
X016313Y005003D01*
X015000Y003691D01*
X015188Y003628D01*
X019000Y003628D01*
X019000Y003604D01*
X017933Y007569D02*
X017875Y007566D01*
X017500Y007566D01*
X019000Y008753D02*
X019000Y008777D01*
X019000Y008753D02*
X020063Y009816D01*
X017688Y012191D01*
X017500Y012191D01*
X017500Y013191D02*
X017563Y013191D01*
X019563Y015191D01*
X019563Y018691D01*
X019000Y018691D01*
X018938Y018878D01*
X017688Y020128D01*
X017188Y020128D01*
X017000Y020191D01*
X017000Y020378D01*
X015250Y022128D01*
X014563Y022316D02*
X015063Y022816D01*
X016125Y022816D01*
X016563Y023253D01*
X018000Y023253D01*
X018438Y022816D01*
X019063Y022816D01*
X020000Y022878D02*
X020000Y019191D01*
X020375Y018691D02*
X019563Y018691D01*
X020375Y018691D02*
X020625Y018441D01*
X020669Y018395D01*
X018000Y018691D02*
X017313Y018691D01*
X016000Y020003D01*
X016000Y020191D01*
X014563Y021628D01*
X014563Y022316D01*
X020000Y022878D02*
X020188Y023066D01*
X021125Y023066D01*
X021625Y022566D01*
X021625Y022441D01*
X021669Y022395D01*
X012000Y013691D02*
X013000Y012691D01*
X013000Y010691D02*
X014063Y009628D01*
X014063Y007941D01*
X013688Y007566D01*
X013688Y006878D01*
X013626Y006691D01*
X013625Y006691D01*
X013625Y005691D01*
X013626Y005691D01*
X015000Y003691D02*
X015000Y000791D01*
X020063Y009816D02*
X020625Y010378D01*
X020669Y010395D01*
X011000Y013691D02*
X011000Y014691D01*
X007500Y016691D02*
X006375Y016691D01*
X006250Y016566D01*
X004563Y016566D01*
X004188Y016941D01*
X004000Y017003D01*
X002500Y015503D01*
X002500Y014191D01*
X004000Y015003D02*
X004000Y016191D01*
X004000Y017003D02*
X004000Y017191D01*
X004000Y015003D02*
X005500Y013503D01*
X006875Y014878D01*
X005500Y013503D02*
X005500Y013191D01*
X005500Y011191D02*
X002500Y011191D01*
X003500Y019691D02*
X002500Y020691D01*
X001500Y020691D01*
D35*
X006625Y018191D03*
X008500Y016566D03*
X006875Y014878D03*
X010000Y019191D03*
X008625Y020566D03*
X008750Y023253D03*
X013438Y018566D03*
X015250Y022128D03*
X015813Y022316D03*
X018625Y024316D03*
X019625Y024316D03*
X019063Y022816D03*
X020000Y019191D03*
X017438Y018191D03*
X015063Y005691D03*
D36*
X015190Y006049D02*
X015138Y006071D01*
X014987Y006071D01*
X014847Y006013D01*
X014810Y005975D01*
X014810Y006060D01*
X014704Y006166D01*
X014044Y006166D01*
X014005Y006127D01*
X014005Y006254D01*
X014044Y006215D01*
X014704Y006215D01*
X014810Y006321D01*
X014810Y006471D01*
X015190Y006471D01*
X015190Y006321D01*
X015296Y006215D01*
X015956Y006215D01*
X016000Y006259D01*
X016008Y006251D01*
X016049Y006228D01*
X016094Y006215D01*
X016326Y006215D01*
X016326Y006643D01*
X016422Y006643D01*
X016422Y006739D01*
X016326Y006739D01*
X016326Y007143D01*
X016716Y007533D01*
X017179Y007533D01*
X017179Y007532D01*
X017191Y007459D01*
X017213Y007389D01*
X017247Y007324D01*
X017290Y007264D01*
X017342Y007212D01*
X017401Y007169D01*
X017467Y007136D01*
X017537Y007113D01*
X017609Y007101D01*
X017920Y007101D01*
X017920Y007555D01*
X017947Y007555D01*
X017947Y007101D01*
X018257Y007101D01*
X018329Y007113D01*
X018399Y007136D01*
X018465Y007169D01*
X018468Y007171D01*
X018468Y006987D01*
X018313Y007051D01*
X017553Y007051D01*
X017382Y006980D01*
X017250Y006849D01*
X017179Y006677D01*
X017179Y006491D01*
X017250Y006320D01*
X017379Y006191D01*
X017250Y006061D01*
X017179Y005890D01*
X017179Y005704D01*
X017250Y005532D01*
X017382Y005401D01*
X017553Y005330D01*
X018313Y005330D01*
X018485Y005401D01*
X018616Y005532D01*
X018687Y005704D01*
X018687Y005890D01*
X018617Y006059D01*
X018907Y006349D01*
X018907Y007844D01*
X018779Y007973D01*
X018777Y007975D01*
X018837Y007959D01*
X018920Y007948D01*
X018920Y008697D01*
X019080Y008697D01*
X019080Y007948D01*
X019163Y007959D01*
X019268Y007987D01*
X019369Y008029D01*
X019464Y008083D01*
X019550Y008150D01*
X019627Y008227D01*
X019694Y008314D01*
X019748Y008408D01*
X019790Y008509D01*
X019819Y008614D01*
X019829Y008697D01*
X019080Y008697D01*
X019080Y008857D01*
X019829Y008857D01*
X019819Y008940D01*
X019790Y009045D01*
X019748Y009146D01*
X019694Y009241D01*
X019627Y009327D01*
X019550Y009405D01*
X019464Y009471D01*
X019369Y009526D01*
X019268Y009567D01*
X019163Y009596D01*
X019080Y009607D01*
X019080Y008857D01*
X018920Y008857D01*
X018920Y008697D01*
X018171Y008697D01*
X018181Y008614D01*
X018210Y008509D01*
X018252Y008408D01*
X018306Y008314D01*
X018373Y008227D01*
X018376Y008223D01*
X017346Y008223D01*
X017218Y008094D01*
X017096Y007973D01*
X016905Y007973D01*
X016940Y008008D01*
X016940Y008373D01*
X016880Y008433D01*
X016880Y008454D01*
X016822Y008593D01*
X016665Y008751D01*
X016682Y008751D01*
X016940Y009008D01*
X016940Y009191D01*
X016940Y009373D01*
X016682Y009631D01*
X016500Y009631D01*
X016318Y009631D01*
X016060Y009373D01*
X016060Y009355D01*
X015005Y010410D01*
X015005Y014562D01*
X016968Y012599D01*
X017027Y012540D01*
X017020Y012514D01*
X017020Y012211D01*
X017480Y012211D01*
X017480Y012171D01*
X017020Y012171D01*
X017020Y011867D01*
X017032Y011821D01*
X017056Y011780D01*
X017089Y011747D01*
X017131Y011723D01*
X017176Y011711D01*
X017480Y011711D01*
X017480Y012171D01*
X017520Y012171D01*
X017520Y012211D01*
X017980Y012211D01*
X017980Y012514D01*
X017973Y012540D01*
X018032Y012599D01*
X018091Y012658D01*
X020204Y012658D01*
X020139Y012501D01*
X020139Y012290D01*
X020220Y012095D01*
X020369Y011946D01*
X020491Y011895D01*
X020369Y011845D01*
X020220Y011695D01*
X020139Y011501D01*
X020139Y011290D01*
X020220Y011095D01*
X020369Y010946D01*
X020492Y010895D01*
X020466Y010886D01*
X020392Y010849D01*
X020324Y010800D01*
X020265Y010741D01*
X020216Y010673D01*
X020178Y010599D01*
X020152Y010519D01*
X020139Y010437D01*
X020139Y010414D01*
X020651Y010414D01*
X020651Y010377D01*
X020139Y010377D01*
X020139Y010354D01*
X020152Y010271D01*
X020178Y010192D01*
X020216Y010117D01*
X020265Y010050D01*
X020324Y009991D01*
X020392Y009942D01*
X020466Y009904D01*
X020492Y009896D01*
X020369Y009845D01*
X020220Y009695D01*
X020139Y009501D01*
X020139Y009290D01*
X020220Y009095D01*
X020369Y008946D01*
X020491Y008895D01*
X020369Y008845D01*
X020220Y008695D01*
X020139Y008501D01*
X020139Y008290D01*
X020220Y008095D01*
X020369Y007946D01*
X020491Y007895D01*
X020369Y007845D01*
X020220Y007695D01*
X020139Y007501D01*
X020139Y007290D01*
X020220Y007095D01*
X020369Y006946D01*
X020491Y006895D01*
X020369Y006845D01*
X020220Y006695D01*
X020139Y006501D01*
X020139Y006290D01*
X020220Y006095D01*
X020369Y005946D01*
X020491Y005895D01*
X020369Y005845D01*
X020220Y005695D01*
X020139Y005501D01*
X020139Y005290D01*
X020220Y005095D01*
X020369Y004946D01*
X020491Y004895D01*
X020369Y004845D01*
X020220Y004695D01*
X020139Y004501D01*
X020139Y004290D01*
X020220Y004095D01*
X020369Y003946D01*
X020492Y003895D01*
X020466Y003886D01*
X020392Y003849D01*
X020324Y003800D01*
X020265Y003741D01*
X020216Y003673D01*
X020178Y003599D01*
X020152Y003519D01*
X019829Y003519D01*
X019829Y003524D02*
X019080Y003524D01*
X019080Y003684D01*
X018920Y003684D01*
X018920Y004433D01*
X018837Y004422D01*
X018732Y004394D01*
X018631Y004352D01*
X018536Y004298D01*
X018450Y004231D01*
X018373Y004154D01*
X018306Y004068D01*
X018252Y003973D01*
X018210Y003872D01*
X018181Y003767D01*
X018171Y003684D01*
X018920Y003684D01*
X018920Y003524D01*
X018171Y003524D01*
X018181Y003441D01*
X018210Y003336D01*
X018252Y003235D01*
X018306Y003140D01*
X018373Y003054D01*
X018450Y002976D01*
X018536Y002910D01*
X018631Y002855D01*
X018732Y002814D01*
X018837Y002785D01*
X018920Y002775D01*
X018920Y003524D01*
X019080Y003524D01*
X019080Y002775D01*
X019163Y002785D01*
X019268Y002814D01*
X019369Y002855D01*
X019464Y002910D01*
X019550Y002976D01*
X019627Y003054D01*
X019694Y003140D01*
X019748Y003235D01*
X019790Y003336D01*
X019819Y003441D01*
X019829Y003524D01*
X019829Y003684D02*
X019819Y003767D01*
X019790Y003872D01*
X019748Y003973D01*
X019694Y004068D01*
X019627Y004154D01*
X019550Y004231D01*
X019464Y004298D01*
X019369Y004352D01*
X019268Y004394D01*
X019163Y004422D01*
X019080Y004433D01*
X019080Y003684D01*
X019829Y003684D01*
X019800Y003836D02*
X020374Y003836D01*
X020320Y003995D02*
X019736Y003995D01*
X019628Y004153D02*
X020196Y004153D01*
X020139Y004312D02*
X019440Y004312D01*
X019080Y004312D02*
X018920Y004312D01*
X018920Y004153D02*
X019080Y004153D01*
X019080Y003995D02*
X018920Y003995D01*
X018920Y003836D02*
X019080Y003836D01*
X019080Y003678D02*
X020219Y003678D01*
X020152Y003519D02*
X020139Y003437D01*
X020139Y003414D01*
X020651Y003414D01*
X020651Y003377D01*
X020139Y003377D01*
X020139Y003354D01*
X020152Y003271D01*
X020178Y003192D01*
X020216Y003117D01*
X020265Y003050D01*
X020324Y002991D01*
X020392Y002942D01*
X020466Y002904D01*
X020545Y002878D01*
X020628Y002865D01*
X020651Y002865D01*
X020651Y003377D01*
X020688Y003377D01*
X020688Y002865D01*
X020711Y002865D01*
X020793Y002878D01*
X020873Y002904D01*
X020947Y002942D01*
X021015Y002991D01*
X021074Y003050D01*
X021123Y003117D01*
X021160Y003192D01*
X021169Y003218D01*
X021220Y003095D01*
X021369Y002946D01*
X021564Y002865D01*
X021775Y002865D01*
X021970Y002946D01*
X022119Y003095D01*
X022199Y003290D01*
X022199Y003501D01*
X022119Y003695D01*
X021970Y003845D01*
X021847Y003895D01*
X021970Y003946D01*
X022119Y004095D01*
X022199Y004290D01*
X022199Y004501D01*
X022119Y004695D01*
X021970Y004845D01*
X021847Y004895D01*
X021970Y004946D01*
X022119Y005095D01*
X022199Y005290D01*
X022199Y005501D01*
X022119Y005695D01*
X021970Y005845D01*
X021847Y005895D01*
X021970Y005946D01*
X022119Y006095D01*
X022199Y006290D01*
X022199Y006501D01*
X022119Y006695D01*
X021970Y006845D01*
X021847Y006895D01*
X021970Y006946D01*
X022119Y007095D01*
X022199Y007290D01*
X022199Y007501D01*
X022119Y007695D01*
X021970Y007845D01*
X021847Y007895D01*
X021970Y007946D01*
X022119Y008095D01*
X022199Y008290D01*
X022199Y008501D01*
X022119Y008695D01*
X021970Y008845D01*
X021847Y008895D01*
X021970Y008946D01*
X022119Y009095D01*
X022199Y009290D01*
X022199Y009501D01*
X022119Y009695D01*
X021970Y009845D01*
X021847Y009895D01*
X021970Y009946D01*
X022119Y010095D01*
X022199Y010290D01*
X022199Y010501D01*
X022119Y010695D01*
X021970Y010845D01*
X021847Y010895D01*
X021970Y010946D01*
X022119Y011095D01*
X022199Y011290D01*
X022199Y011501D01*
X022119Y011695D01*
X021970Y011845D01*
X021847Y011895D01*
X021970Y011946D01*
X022119Y012095D01*
X022199Y012290D01*
X022199Y012501D01*
X022119Y012695D01*
X021970Y012845D01*
X021847Y012895D01*
X021970Y012946D01*
X022119Y013095D01*
X022199Y013290D01*
X022199Y013501D01*
X022119Y013695D01*
X021970Y013845D01*
X021847Y013895D01*
X021970Y013946D01*
X022119Y014095D01*
X022199Y014290D01*
X022199Y014501D01*
X022119Y014695D01*
X021970Y014845D01*
X021847Y014895D01*
X021970Y014946D01*
X022119Y015095D01*
X022199Y015290D01*
X022199Y015501D01*
X022119Y015695D01*
X021970Y015845D01*
X021847Y015895D01*
X021970Y015946D01*
X022119Y016095D01*
X022199Y016290D01*
X022199Y016501D01*
X022119Y016695D01*
X021970Y016845D01*
X021847Y016895D01*
X021970Y016946D01*
X022119Y017095D01*
X022199Y017290D01*
X022199Y017501D01*
X022119Y017695D01*
X021970Y017845D01*
X021847Y017895D01*
X021970Y017946D01*
X022119Y018095D01*
X022199Y018290D01*
X022199Y018501D01*
X022119Y018695D01*
X021970Y018845D01*
X021847Y018895D01*
X021970Y018946D01*
X022119Y019095D01*
X022199Y019290D01*
X022199Y019501D01*
X022119Y019695D01*
X021970Y019845D01*
X022267Y019845D01*
X022267Y020003D02*
X022027Y020003D01*
X021970Y019946D02*
X022119Y020095D01*
X022199Y020290D01*
X022199Y020501D01*
X022119Y020695D01*
X021970Y020845D01*
X021847Y020895D01*
X021970Y020946D01*
X022119Y021095D01*
X022199Y021290D01*
X022199Y021501D01*
X022119Y021695D01*
X021970Y021845D01*
X021847Y021895D01*
X021970Y021946D01*
X022119Y022095D01*
X022199Y022290D01*
X022199Y022501D01*
X022119Y022695D01*
X021970Y022845D01*
X021822Y022906D01*
X021447Y023281D01*
X021340Y023388D01*
X021201Y023446D01*
X020112Y023446D01*
X019972Y023388D01*
X019785Y023200D01*
X019678Y023093D01*
X019620Y022954D01*
X019620Y019115D01*
X019678Y018975D01*
X019785Y018868D01*
X019924Y018811D01*
X020076Y018811D01*
X020215Y018868D01*
X020322Y018975D01*
X020327Y018988D01*
X020369Y018946D01*
X020492Y018895D01*
X020466Y018886D01*
X020392Y018849D01*
X020324Y018800D01*
X020265Y018741D01*
X020216Y018673D01*
X020178Y018599D01*
X020152Y018519D01*
X020139Y018437D01*
X020139Y018414D01*
X020651Y018414D01*
X020651Y018377D01*
X020139Y018377D01*
X020139Y018354D01*
X020152Y018271D01*
X020178Y018192D01*
X020216Y018117D01*
X020265Y018050D01*
X020324Y017991D01*
X020392Y017942D01*
X020466Y017904D01*
X020492Y017896D01*
X020369Y017845D01*
X020220Y017695D01*
X020139Y017501D01*
X020139Y017290D01*
X020220Y017095D01*
X020369Y016946D01*
X020491Y016895D01*
X020369Y016845D01*
X020220Y016695D01*
X020139Y016501D01*
X020139Y016290D01*
X020220Y016095D01*
X020369Y015946D01*
X020491Y015895D01*
X020369Y015845D01*
X020220Y015695D01*
X020139Y015501D01*
X020139Y015290D01*
X020220Y015095D01*
X020369Y014946D01*
X020491Y014895D01*
X020369Y014845D01*
X020220Y014695D01*
X020139Y014501D01*
X020139Y014290D01*
X020220Y014095D01*
X020369Y013946D01*
X020491Y013895D01*
X020369Y013845D01*
X020220Y013695D01*
X020139Y013501D01*
X020139Y013290D01*
X020219Y013098D01*
X017980Y013098D01*
X017980Y013171D01*
X017520Y013171D01*
X017520Y013211D01*
X017480Y013211D01*
X017480Y013671D01*
X017176Y013671D01*
X017131Y013658D01*
X017089Y013635D01*
X017056Y013601D01*
X017032Y013560D01*
X017020Y013514D01*
X017020Y013211D01*
X017480Y013211D01*
X017480Y013171D01*
X017020Y013171D01*
X017020Y013169D01*
X015220Y014969D01*
X015220Y015907D01*
X015122Y016005D01*
X015249Y016058D01*
X015373Y016181D01*
X015440Y016343D01*
X015440Y017038D01*
X015373Y017200D01*
X015249Y017324D01*
X015088Y017391D01*
X014912Y017391D01*
X014751Y017324D01*
X014640Y017213D01*
X013882Y017971D01*
X017120Y017971D01*
X017222Y017868D01*
X017362Y017811D01*
X017513Y017811D01*
X017653Y017868D01*
X017760Y017975D01*
X017773Y018007D01*
X017908Y017951D01*
X018091Y017951D01*
X018261Y018021D01*
X018390Y018150D01*
X018460Y018319D01*
X018460Y019062D01*
X018390Y019231D01*
X018261Y019361D01*
X018112Y019422D01*
X018112Y019422D01*
X018184Y019446D01*
X018252Y019480D01*
X018313Y019524D01*
X018366Y019578D01*
X018411Y019639D01*
X018445Y019706D01*
X018468Y019778D01*
X018480Y019853D01*
X018480Y020171D01*
X018020Y020171D01*
X018020Y020211D01*
X017980Y020211D01*
X017980Y020971D01*
X017962Y020971D01*
X017888Y020959D01*
X017816Y020935D01*
X017748Y020901D01*
X017687Y020857D01*
X017634Y020803D01*
X017589Y020742D01*
X017555Y020675D01*
X017532Y020603D01*
X017520Y020528D01*
X017520Y020211D01*
X017980Y020211D01*
X017980Y020171D01*
X017520Y020171D01*
X017520Y019853D01*
X017532Y019778D01*
X017555Y019706D01*
X017589Y019639D01*
X017634Y019578D01*
X017687Y019524D01*
X017748Y019480D01*
X017816Y019446D01*
X017888Y019422D01*
X017739Y019361D01*
X017610Y019231D01*
X017544Y019071D01*
X017470Y019071D01*
X017117Y019424D01*
X017184Y019446D01*
X017252Y019480D01*
X017313Y019524D01*
X017366Y019578D01*
X017411Y019639D01*
X017445Y019706D01*
X017468Y019778D01*
X017480Y019853D01*
X017480Y020171D01*
X017020Y020171D01*
X017020Y020211D01*
X016980Y020211D01*
X016980Y020971D01*
X016962Y020971D01*
X016888Y020959D01*
X016816Y020935D01*
X016748Y020901D01*
X016687Y020857D01*
X016634Y020803D01*
X016589Y020742D01*
X016555Y020675D01*
X016532Y020603D01*
X016520Y020528D01*
X016520Y020211D01*
X016980Y020211D01*
X016980Y020171D01*
X016520Y020171D01*
X016520Y020020D01*
X016480Y020060D01*
X016480Y020586D01*
X016407Y020762D01*
X016272Y020897D01*
X016095Y020971D01*
X015905Y020971D01*
X015800Y020927D01*
X014942Y021785D01*
X014942Y022158D01*
X015220Y022436D01*
X015451Y022436D01*
X015433Y022391D01*
X015433Y022240D01*
X015490Y022100D01*
X015597Y021993D01*
X015737Y021936D01*
X015888Y021936D01*
X016028Y021993D01*
X016130Y022096D01*
X016445Y022096D01*
X016445Y021931D01*
X016517Y021663D01*
X016656Y021422D01*
X016852Y021226D01*
X017093Y021087D01*
X017361Y021015D01*
X017639Y021015D01*
X017907Y021087D01*
X018148Y021226D01*
X018344Y021422D01*
X018483Y021663D01*
X018555Y021931D01*
X018555Y022209D01*
X018494Y022436D01*
X019138Y022436D01*
X019278Y022493D01*
X019385Y022600D01*
X019442Y022740D01*
X019442Y022891D01*
X019398Y022998D01*
X019398Y022998D01*
X019406Y023006D01*
X019417Y023010D01*
X019423Y023023D01*
X019437Y023037D01*
X019453Y023048D01*
X019468Y023051D01*
X019474Y023060D01*
X019483Y023066D01*
X019487Y023081D01*
X019497Y023097D01*
X019511Y023111D01*
X019524Y023118D01*
X019528Y023128D01*
X019536Y023136D01*
X019536Y023151D01*
X019542Y023169D01*
X019553Y023186D01*
X019564Y023195D01*
X019566Y023206D01*
X019572Y023216D01*
X019568Y023230D01*
X019570Y023250D01*
X019571Y023251D01*
X019579Y023259D01*
X019579Y023274D01*
X019589Y023301D01*
X019579Y023322D01*
X019579Y023324D01*
X019586Y023389D01*
X019579Y023398D01*
X019579Y023704D01*
X019586Y023713D01*
X019579Y023778D01*
X019579Y023780D01*
X019589Y023800D01*
X019579Y023828D01*
X019579Y023843D01*
X019571Y023851D01*
X019570Y023852D01*
X019568Y023871D01*
X019572Y023886D01*
X019566Y023895D01*
X019564Y023906D01*
X019553Y023916D01*
X019542Y023932D01*
X019540Y023940D01*
X019549Y023936D01*
X019701Y023936D01*
X019840Y023993D01*
X019947Y024100D01*
X020005Y024240D01*
X020005Y024391D01*
X019947Y024531D01*
X019840Y024638D01*
X019701Y024696D01*
X019549Y024696D01*
X019410Y024638D01*
X019308Y024536D01*
X018942Y024536D01*
X018840Y024638D01*
X018701Y024696D01*
X018549Y024696D01*
X018430Y024646D01*
X018430Y024657D01*
X018288Y024998D01*
X018027Y025260D01*
X017685Y025402D01*
X017315Y025402D01*
X016973Y025260D01*
X016712Y024998D01*
X016570Y024657D01*
X016570Y024287D01*
X016682Y024017D01*
X016593Y024105D01*
X016443Y024167D01*
X016281Y024167D01*
X016131Y024105D01*
X016071Y024045D01*
X016068Y024051D01*
X016053Y024054D01*
X016037Y024064D01*
X016032Y024069D01*
X016032Y024743D01*
X016104Y024815D01*
X016124Y024861D01*
X016124Y024862D01*
X016127Y024870D01*
X016128Y024873D01*
X016136Y024880D01*
X016136Y024891D01*
X016151Y024926D01*
X016153Y024930D01*
X016164Y024939D01*
X016166Y024950D01*
X016172Y024960D01*
X016168Y024974D01*
X016170Y024994D01*
X016171Y024995D01*
X016179Y025003D01*
X016179Y025018D01*
X016189Y025046D01*
X016179Y025066D01*
X016179Y025068D01*
X016186Y025133D01*
X016179Y025142D01*
X016179Y025251D01*
X016186Y025260D01*
X016179Y025325D01*
X016179Y025327D01*
X016189Y025347D01*
X016179Y025375D01*
X016179Y025390D01*
X016171Y025398D01*
X016170Y025399D01*
X016169Y025411D01*
X018831Y025411D01*
X018830Y025399D01*
X018829Y025398D01*
X018821Y025390D01*
X018821Y025375D01*
X018811Y025347D01*
X018821Y025327D01*
X018821Y025325D01*
X018814Y025260D01*
X018821Y025251D01*
X018821Y025142D01*
X018814Y025133D01*
X018821Y025068D01*
X018821Y025066D01*
X018811Y025046D01*
X018821Y025018D01*
X018821Y025003D01*
X018829Y024995D01*
X018830Y024994D01*
X018832Y024974D01*
X018828Y024960D01*
X018834Y024950D01*
X018836Y024939D01*
X018847Y024930D01*
X018849Y024926D01*
X018864Y024891D01*
X018864Y024880D01*
X018872Y024873D01*
X018873Y024870D01*
X018876Y024862D01*
X018876Y024861D01*
X018896Y024815D01*
X018997Y024714D01*
X019129Y024659D01*
X019271Y024659D01*
X019403Y024714D01*
X019504Y024815D01*
X019524Y024861D01*
X019524Y024862D01*
X019527Y024870D01*
X019528Y024873D01*
X019536Y024880D01*
X019536Y024891D01*
X019551Y024926D01*
X019553Y024930D01*
X019564Y024939D01*
X019566Y024950D01*
X019572Y024960D01*
X019568Y024974D01*
X019570Y024994D01*
X019571Y024995D01*
X019579Y025003D01*
X019579Y025018D01*
X019589Y025046D01*
X019579Y025066D01*
X019579Y025068D01*
X019586Y025133D01*
X019579Y025142D01*
X019579Y025251D01*
X019586Y025260D01*
X019579Y025325D01*
X019579Y025327D01*
X019589Y025347D01*
X019579Y025375D01*
X019579Y025390D01*
X019571Y025398D01*
X019570Y025399D01*
X019569Y025411D01*
X021366Y025411D01*
X021484Y025403D01*
X021711Y025342D01*
X021915Y025224D01*
X022081Y025058D01*
X022199Y024854D01*
X022260Y024627D01*
X022267Y024509D01*
X022267Y002361D01*
X022029Y002599D01*
X021710Y002783D01*
X021354Y002878D01*
X020985Y002878D01*
X020629Y002783D01*
X020309Y002599D01*
X020049Y002338D01*
X019864Y002019D01*
X019769Y001662D01*
X019769Y001294D01*
X019864Y000937D01*
X020049Y000618D01*
X020287Y000380D01*
X015542Y000380D01*
X015567Y000412D01*
X015611Y000489D01*
X015645Y000572D01*
X015668Y000658D01*
X015680Y000746D01*
X015680Y000771D01*
X015020Y000771D01*
X015020Y000811D01*
X014980Y000811D01*
X014980Y001471D01*
X014955Y001471D01*
X014867Y001459D01*
X014781Y001436D01*
X014699Y001402D01*
X014621Y001357D01*
X014551Y001303D01*
X014488Y001240D01*
X014433Y001169D01*
X014389Y001092D01*
X014355Y001010D01*
X014332Y000923D01*
X014320Y000835D01*
X014320Y000811D01*
X014980Y000811D01*
X014980Y000771D01*
X014320Y000771D01*
X014320Y000746D01*
X014332Y000658D01*
X014355Y000572D01*
X014389Y000489D01*
X014433Y000412D01*
X014458Y000380D01*
X013551Y000380D01*
X013576Y000405D01*
X013680Y000655D01*
X013680Y000926D01*
X013576Y001176D01*
X013385Y001367D01*
X013135Y001471D01*
X012865Y001471D01*
X012615Y001367D01*
X012500Y001252D01*
X012385Y001367D01*
X012135Y001471D01*
X011865Y001471D01*
X011615Y001367D01*
X011424Y001176D01*
X011320Y000926D01*
X011320Y000655D01*
X011424Y000405D01*
X011449Y000380D01*
X008051Y000380D01*
X008076Y000405D01*
X008180Y000655D01*
X008180Y000926D01*
X008076Y001176D01*
X007885Y001367D01*
X007635Y001471D01*
X007365Y001471D01*
X007115Y001367D01*
X006924Y001176D01*
X006820Y000926D01*
X006820Y000655D01*
X006924Y000405D01*
X006949Y000380D01*
X006051Y000380D01*
X006076Y000405D01*
X006180Y000655D01*
X006180Y000926D01*
X006076Y001176D01*
X005885Y001367D01*
X005635Y001471D01*
X005365Y001471D01*
X005115Y001367D01*
X005000Y001252D01*
X004885Y001367D01*
X004635Y001471D01*
X004365Y001471D01*
X004115Y001367D01*
X003924Y001176D01*
X003820Y000926D01*
X003820Y000655D01*
X003924Y000405D01*
X003949Y000380D01*
X002761Y000380D01*
X002999Y000618D01*
X003183Y000937D01*
X003278Y001294D01*
X003278Y001662D01*
X003183Y002019D01*
X002999Y002338D01*
X002738Y002599D01*
X002419Y002783D01*
X002062Y002878D01*
X001694Y002878D01*
X001337Y002783D01*
X001018Y002599D01*
X000780Y002361D01*
X000780Y006045D01*
X000912Y005991D01*
X001088Y005991D01*
X001249Y006058D01*
X001373Y006181D01*
X001440Y006343D01*
X001440Y007038D01*
X001373Y007200D01*
X001249Y007324D01*
X001088Y007391D01*
X000912Y007391D01*
X000780Y007336D01*
X000780Y007788D01*
X000818Y007751D01*
X001182Y007751D01*
X001440Y008008D01*
X001440Y008373D01*
X001182Y008631D01*
X000818Y008631D01*
X000780Y008593D01*
X000780Y008788D01*
X000818Y008751D01*
X001182Y008751D01*
X001440Y009008D01*
X001440Y009373D01*
X001182Y009631D01*
X000818Y009631D01*
X000780Y009593D01*
X000780Y015788D01*
X000818Y015751D01*
X001182Y015751D01*
X001440Y016008D01*
X001440Y016373D01*
X001182Y016631D01*
X000818Y016631D01*
X000780Y016593D01*
X000780Y017450D01*
X000793Y017419D01*
X000928Y017284D01*
X001105Y017211D01*
X001895Y017211D01*
X002072Y017284D01*
X002207Y017419D01*
X002280Y017595D01*
X002280Y017786D01*
X002207Y017962D01*
X002072Y018097D01*
X001895Y018171D01*
X001105Y018171D01*
X000928Y018097D01*
X000793Y017962D01*
X000780Y017931D01*
X000780Y018450D01*
X000793Y018419D01*
X000928Y018284D01*
X001105Y018211D01*
X001895Y018211D01*
X002072Y018284D01*
X002207Y018419D01*
X002228Y018471D01*
X002784Y018471D01*
X003655Y017599D01*
X003693Y017562D01*
X003520Y017389D01*
X003520Y017211D01*
X003980Y017211D01*
X003980Y017171D01*
X003520Y017171D01*
X003520Y016992D01*
X003801Y016711D01*
X003980Y016711D01*
X003980Y017171D01*
X004020Y017171D01*
X004020Y017211D01*
X004480Y017211D01*
X004480Y017389D01*
X004399Y017471D01*
X004409Y017471D01*
X004520Y017359D01*
X004520Y016992D01*
X004801Y016711D01*
X005199Y016711D01*
X005480Y016992D01*
X005480Y017389D01*
X005399Y017471D01*
X005601Y017471D01*
X005520Y017389D01*
X005520Y016992D01*
X005801Y016711D01*
X006199Y016711D01*
X006480Y016992D01*
X006480Y017389D01*
X006307Y017562D01*
X006345Y017599D01*
X006556Y017811D01*
X006694Y017811D01*
X007284Y017221D01*
X013284Y017221D01*
X013834Y016671D01*
X013801Y016671D01*
X013520Y016389D01*
X013520Y016208D01*
X013281Y016447D01*
X013340Y016589D01*
X013340Y016792D01*
X013262Y016979D01*
X013119Y017123D01*
X012931Y017201D01*
X012069Y017201D01*
X011881Y017123D01*
X011738Y016979D01*
X011660Y016792D01*
X011660Y016589D01*
X011738Y016402D01*
X011881Y016258D01*
X012069Y016181D01*
X012473Y016181D01*
X013410Y015243D01*
X013549Y015186D01*
X013843Y015186D01*
X013871Y015157D01*
X013728Y015097D01*
X013593Y014962D01*
X013520Y014786D01*
X013520Y014595D01*
X013593Y014419D01*
X013620Y014392D01*
X013620Y013973D01*
X013466Y013819D01*
X013407Y013962D01*
X013272Y014097D01*
X013095Y014171D01*
X012905Y014171D01*
X012728Y014097D01*
X012593Y013962D01*
X012520Y013786D01*
X012520Y013708D01*
X012440Y013788D01*
X012440Y013873D01*
X012182Y014131D01*
X011818Y014131D01*
X011560Y013873D01*
X011560Y013508D01*
X011818Y013251D01*
X011903Y013251D01*
X012520Y012633D01*
X012520Y012595D01*
X012593Y012419D01*
X012728Y012284D01*
X012905Y012211D01*
X013095Y012211D01*
X013272Y012284D01*
X013407Y012419D01*
X013480Y012595D01*
X013480Y012758D01*
X014245Y013523D01*
X014245Y010177D01*
X014303Y010038D01*
X014410Y009931D01*
X016060Y008281D01*
X016060Y008008D01*
X016315Y007754D01*
X015727Y007166D01*
X015296Y007166D01*
X015190Y007060D01*
X015190Y006911D01*
X014810Y006911D01*
X014810Y007060D01*
X014704Y007166D01*
X014067Y007166D01*
X014067Y007408D01*
X014278Y007618D01*
X014385Y007725D01*
X014442Y007865D01*
X014442Y009704D01*
X014385Y009843D01*
X013480Y010748D01*
X013480Y010786D01*
X013407Y010962D01*
X013272Y011097D01*
X013095Y011171D01*
X012905Y011171D01*
X012817Y011134D01*
X012799Y011133D01*
X012220Y011133D01*
X012102Y011251D01*
X012182Y011251D01*
X012440Y011508D01*
X012440Y011691D01*
X012440Y011873D01*
X012182Y012131D01*
X012000Y012131D01*
X011818Y012131D01*
X011560Y011873D01*
X011560Y011793D01*
X011102Y012251D01*
X011182Y012251D01*
X011440Y012508D01*
X011440Y012873D01*
X011182Y013131D01*
X010818Y013131D01*
X010728Y013041D01*
X010660Y013013D01*
X010553Y012906D01*
X010285Y012638D01*
X010285Y012638D01*
X010178Y012531D01*
X008968Y011321D01*
X008909Y011321D01*
X008742Y011251D01*
X008614Y011123D01*
X008550Y010968D01*
X008486Y011123D01*
X008358Y011251D01*
X008191Y011321D01*
X008009Y011321D01*
X007842Y011251D01*
X007714Y011123D01*
X007645Y010956D01*
X007645Y010459D01*
X007596Y010411D01*
X007402Y010411D01*
X007182Y010631D01*
X007165Y010631D01*
X008822Y012288D01*
X008880Y012427D01*
X008880Y016641D01*
X008822Y016781D01*
X008715Y016888D01*
X008576Y016946D01*
X008424Y016946D01*
X008299Y016894D01*
X008266Y016958D01*
X008219Y017023D01*
X008162Y017080D01*
X008097Y017127D01*
X008026Y017163D01*
X007949Y017188D01*
X007870Y017201D01*
X007530Y017201D01*
X007530Y016721D01*
X007470Y016721D01*
X007470Y017201D01*
X007130Y017201D01*
X007051Y017188D01*
X006974Y017163D01*
X006903Y017127D01*
X006838Y017080D01*
X006781Y017023D01*
X006734Y016958D01*
X006697Y016886D01*
X006673Y016810D01*
X006660Y016731D01*
X006660Y016721D01*
X007470Y016721D01*
X007470Y016661D01*
X006660Y016661D01*
X006660Y016650D01*
X006673Y016571D01*
X006697Y016495D01*
X006734Y016423D01*
X006781Y016358D01*
X006838Y016302D01*
X006903Y016254D01*
X006974Y016218D01*
X007051Y016193D01*
X007130Y016181D01*
X007470Y016181D01*
X007470Y016661D01*
X007530Y016661D01*
X007530Y016181D01*
X007870Y016181D01*
X007949Y016193D01*
X008026Y016218D01*
X008097Y016254D01*
X008120Y016271D01*
X008120Y012660D01*
X005979Y010519D01*
X005968Y010560D01*
X005944Y010601D01*
X005911Y010635D01*
X005869Y010658D01*
X005824Y010671D01*
X005520Y010671D01*
X005520Y010211D01*
X005480Y010211D01*
X005480Y010671D01*
X005176Y010671D01*
X005131Y010658D01*
X005089Y010635D01*
X005056Y010601D01*
X005032Y010560D01*
X005020Y010514D01*
X005020Y010211D01*
X005480Y010211D01*
X005480Y010171D01*
X005020Y010171D01*
X005020Y009867D01*
X005032Y009821D01*
X005056Y009780D01*
X005089Y009747D01*
X005131Y009723D01*
X005176Y009711D01*
X005480Y009711D01*
X005480Y010171D01*
X005520Y010171D01*
X005520Y009711D01*
X005608Y009711D01*
X005528Y009631D01*
X005318Y009631D01*
X005258Y009571D01*
X004242Y009571D01*
X004182Y009631D01*
X003818Y009631D01*
X003560Y009373D01*
X003560Y009008D01*
X003818Y008751D01*
X004182Y008751D01*
X004242Y008811D01*
X005258Y008811D01*
X005318Y008751D01*
X005682Y008751D01*
X005833Y008901D01*
X005879Y008916D01*
X005890Y008926D01*
X005903Y008931D01*
X005947Y008975D01*
X005994Y009016D01*
X006000Y009028D01*
X006447Y009475D01*
X006505Y009615D01*
X006505Y009971D01*
X006560Y010026D01*
X006560Y010008D01*
X006818Y009751D01*
X007182Y009751D01*
X007402Y009971D01*
X007779Y009971D01*
X007790Y009982D01*
X007842Y009930D01*
X008009Y009861D01*
X008191Y009861D01*
X008358Y009930D01*
X008486Y010058D01*
X008550Y010213D01*
X008614Y010058D01*
X008742Y009930D01*
X008909Y009861D01*
X009091Y009861D01*
X009258Y009930D01*
X009386Y010058D01*
X009450Y010213D01*
X009514Y010058D01*
X009642Y009930D01*
X009809Y009861D01*
X009991Y009861D01*
X010158Y009930D01*
X010286Y010058D01*
X010355Y010225D01*
X010355Y010956D01*
X010286Y011123D01*
X010158Y011251D01*
X010027Y011305D01*
X010500Y011778D01*
X011740Y010538D01*
X011847Y010431D01*
X011987Y010373D01*
X012639Y010373D01*
X012728Y010284D01*
X012905Y010211D01*
X012943Y010211D01*
X013523Y009631D01*
X013318Y009631D01*
X013060Y009373D01*
X013060Y009008D01*
X013318Y008751D01*
X013682Y008751D01*
X013683Y008751D01*
X013683Y008630D01*
X013682Y008631D01*
X013318Y008631D01*
X013060Y008373D01*
X013060Y008008D01*
X013318Y007751D01*
X013353Y007751D01*
X013308Y007641D01*
X013308Y007166D01*
X013296Y007166D01*
X013190Y007060D01*
X013190Y006321D01*
X013245Y006266D01*
X013245Y006115D01*
X013190Y006060D01*
X013190Y005321D01*
X013296Y005215D01*
X013956Y005215D01*
X014000Y005259D01*
X014044Y005215D01*
X014704Y005215D01*
X014810Y005321D01*
X014810Y005406D01*
X014847Y005368D01*
X014987Y005311D01*
X015138Y005311D01*
X015190Y005332D01*
X015190Y005321D01*
X015296Y005215D01*
X015956Y005215D01*
X016000Y005259D01*
X016008Y005251D01*
X016049Y005228D01*
X016094Y005215D01*
X016326Y005215D01*
X016326Y005643D01*
X016422Y005643D01*
X016422Y005739D01*
X016326Y005739D01*
X016326Y006166D01*
X016094Y006166D01*
X016049Y006154D01*
X016008Y006130D01*
X016000Y006122D01*
X015956Y006166D01*
X015296Y006166D01*
X015190Y006060D01*
X015190Y006049D01*
X015190Y006055D02*
X015175Y006055D01*
X014950Y006055D02*
X014810Y006055D01*
X014810Y006372D02*
X015190Y006372D01*
X015190Y007006D02*
X014810Y007006D01*
X014706Y007165D02*
X015294Y007165D01*
X015884Y007323D02*
X014067Y007323D01*
X014141Y007482D02*
X016042Y007482D01*
X016201Y007640D02*
X014299Y007640D01*
X014415Y007799D02*
X016270Y007799D01*
X016111Y007957D02*
X014442Y007957D01*
X014442Y008116D02*
X016060Y008116D01*
X016060Y008274D02*
X014442Y008274D01*
X014442Y008433D02*
X015908Y008433D01*
X015750Y008591D02*
X014442Y008591D01*
X014442Y008750D02*
X015591Y008750D01*
X015433Y008908D02*
X014442Y008908D01*
X014442Y009067D02*
X015274Y009067D01*
X015116Y009225D02*
X014442Y009225D01*
X014442Y009384D02*
X014957Y009384D01*
X014799Y009542D02*
X014442Y009542D01*
X014442Y009701D02*
X014640Y009701D01*
X014482Y009859D02*
X014369Y009859D01*
X014323Y010018D02*
X014210Y010018D01*
X014246Y010176D02*
X014052Y010176D01*
X013893Y010335D02*
X014245Y010335D01*
X014245Y010493D02*
X013735Y010493D01*
X013576Y010652D02*
X014245Y010652D01*
X014245Y010810D02*
X013470Y010810D01*
X013401Y010969D02*
X014245Y010969D01*
X014245Y011127D02*
X013200Y011127D01*
X013324Y011211D02*
X013020Y011211D01*
X013020Y011671D01*
X013020Y011711D01*
X012980Y011711D01*
X012980Y012171D01*
X012676Y012171D01*
X012631Y012158D01*
X012589Y012135D01*
X012556Y012101D01*
X012532Y012060D01*
X012520Y012014D01*
X012520Y011711D01*
X012980Y011711D01*
X012980Y011671D01*
X012520Y011671D01*
X012520Y011367D01*
X012532Y011321D01*
X012556Y011280D01*
X012589Y011247D01*
X012631Y011223D01*
X012676Y011211D01*
X012980Y011211D01*
X012980Y011671D01*
X013020Y011671D01*
X013480Y011671D01*
X013480Y011367D01*
X013468Y011321D01*
X013444Y011280D01*
X013411Y011247D01*
X013369Y011223D01*
X013324Y011211D01*
X013447Y011286D02*
X014245Y011286D01*
X014245Y011444D02*
X013480Y011444D01*
X013480Y011603D02*
X014245Y011603D01*
X014245Y011761D02*
X013480Y011761D01*
X013480Y011711D02*
X013480Y012014D01*
X013468Y012060D01*
X013444Y012101D01*
X013411Y012135D01*
X013369Y012158D01*
X013324Y012171D01*
X013020Y012171D01*
X013020Y011711D01*
X013480Y011711D01*
X013480Y011920D02*
X014245Y011920D01*
X014245Y012078D02*
X013457Y012078D01*
X013383Y012395D02*
X014245Y012395D01*
X014245Y012237D02*
X013158Y012237D01*
X013020Y012078D02*
X012980Y012078D01*
X012980Y011920D02*
X013020Y011920D01*
X013020Y011761D02*
X012980Y011761D01*
X012980Y011603D02*
X013020Y011603D01*
X013020Y011444D02*
X012980Y011444D01*
X012980Y011286D02*
X013020Y011286D01*
X012553Y011286D02*
X012217Y011286D01*
X012376Y011444D02*
X012520Y011444D01*
X012520Y011603D02*
X012440Y011603D01*
X012440Y011691D02*
X012000Y011691D01*
X012000Y012131D01*
X012000Y011691D01*
X012000Y011691D01*
X012440Y011691D01*
X012440Y011761D02*
X012520Y011761D01*
X012520Y011920D02*
X012393Y011920D01*
X012543Y012078D02*
X012235Y012078D01*
X012000Y012078D02*
X012000Y012078D01*
X012000Y011920D02*
X012000Y011920D01*
X012000Y011761D02*
X012000Y011761D01*
X012000Y011691D02*
X012000Y011691D01*
X011765Y012078D02*
X011275Y012078D01*
X011433Y011920D02*
X011607Y011920D01*
X011327Y012395D02*
X012617Y012395D01*
X012537Y012554D02*
X011440Y012554D01*
X011440Y012712D02*
X012441Y012712D01*
X012283Y012871D02*
X011440Y012871D01*
X011284Y013029D02*
X012124Y013029D01*
X011966Y013188D02*
X008880Y013188D01*
X008880Y013346D02*
X011722Y013346D01*
X011564Y013505D02*
X008880Y013505D01*
X008880Y013663D02*
X011560Y013663D01*
X011560Y013822D02*
X008880Y013822D01*
X008880Y013980D02*
X011667Y013980D01*
X011229Y014297D02*
X012715Y014297D01*
X012728Y014284D02*
X012905Y014211D01*
X013095Y014211D01*
X013272Y014284D01*
X013407Y014419D01*
X013480Y014595D01*
X013480Y014786D01*
X013407Y014962D01*
X013272Y015097D01*
X013095Y015171D01*
X012905Y015171D01*
X012728Y015097D01*
X012593Y014962D01*
X012520Y014786D01*
X012520Y014595D01*
X012593Y014419D01*
X012728Y014284D01*
X012827Y014139D02*
X008880Y014139D01*
X008880Y014297D02*
X010771Y014297D01*
X010818Y014251D02*
X010560Y014508D01*
X010560Y014691D01*
X011000Y014691D01*
X011000Y015131D01*
X010818Y015131D01*
X010560Y014873D01*
X010560Y014691D01*
X011000Y014691D01*
X011000Y014691D01*
X011000Y015131D01*
X011182Y015131D01*
X011440Y014873D01*
X011440Y014691D01*
X011000Y014691D01*
X011000Y014691D01*
X011000Y014691D01*
X011440Y014691D01*
X011440Y014508D01*
X011182Y014251D01*
X011000Y014251D01*
X011000Y014691D01*
X011000Y014691D01*
X011000Y014251D01*
X010818Y014251D01*
X011000Y014297D02*
X011000Y014297D01*
X011000Y014456D02*
X011000Y014456D01*
X011000Y014614D02*
X011000Y014614D01*
X011000Y014773D02*
X011000Y014773D01*
X011000Y014931D02*
X011000Y014931D01*
X011000Y015090D02*
X011000Y015090D01*
X011223Y015090D02*
X012720Y015090D01*
X012580Y014931D02*
X011382Y014931D01*
X011440Y014773D02*
X012520Y014773D01*
X012520Y014614D02*
X011440Y014614D01*
X011387Y014456D02*
X012578Y014456D01*
X012611Y013980D02*
X012333Y013980D01*
X012440Y013822D02*
X012535Y013822D01*
X013173Y014139D02*
X013620Y014139D01*
X013620Y014297D02*
X013285Y014297D01*
X013422Y014456D02*
X013578Y014456D01*
X013520Y014614D02*
X013480Y014614D01*
X013480Y014773D02*
X013520Y014773D01*
X013580Y014931D02*
X013420Y014931D01*
X013280Y015090D02*
X013720Y015090D01*
X013405Y015248D02*
X008880Y015248D01*
X008880Y015090D02*
X010777Y015090D01*
X010618Y014931D02*
X008880Y014931D01*
X008880Y014773D02*
X010560Y014773D01*
X010560Y014614D02*
X008880Y014614D01*
X008880Y014456D02*
X010613Y014456D01*
X010699Y013029D02*
X008880Y013029D01*
X008880Y012871D02*
X010518Y012871D01*
X010553Y012906D02*
X010553Y012906D01*
X010359Y012712D02*
X008880Y012712D01*
X008880Y012554D02*
X010201Y012554D01*
X010178Y012531D02*
X010178Y012531D01*
X010042Y012395D02*
X008867Y012395D01*
X008771Y012237D02*
X009884Y012237D01*
X009725Y012078D02*
X008612Y012078D01*
X008454Y011920D02*
X009567Y011920D01*
X009408Y011761D02*
X008295Y011761D01*
X008137Y011603D02*
X009250Y011603D01*
X009091Y011444D02*
X007978Y011444D01*
X007925Y011286D02*
X007820Y011286D01*
X007718Y011127D02*
X007661Y011127D01*
X007650Y010969D02*
X007503Y010969D01*
X007645Y010810D02*
X007344Y010810D01*
X007186Y010652D02*
X007645Y010652D01*
X007645Y010493D02*
X007320Y010493D01*
X007291Y009859D02*
X013294Y009859D01*
X013136Y010018D02*
X010245Y010018D01*
X010335Y010176D02*
X012977Y010176D01*
X012677Y010335D02*
X010355Y010335D01*
X010355Y010493D02*
X011785Y010493D01*
X011627Y010652D02*
X010355Y010652D01*
X010355Y010810D02*
X011468Y010810D01*
X011310Y010969D02*
X010350Y010969D01*
X010282Y011127D02*
X011151Y011127D01*
X010993Y011286D02*
X010075Y011286D01*
X010166Y011444D02*
X010834Y011444D01*
X010676Y011603D02*
X010324Y011603D01*
X010483Y011761D02*
X010517Y011761D01*
X011116Y012237D02*
X012842Y012237D01*
X013463Y012554D02*
X014245Y012554D01*
X014245Y012712D02*
X013480Y012712D01*
X013592Y012871D02*
X014245Y012871D01*
X014245Y013029D02*
X013751Y013029D01*
X013909Y013188D02*
X014245Y013188D01*
X014245Y013346D02*
X014068Y013346D01*
X014226Y013505D02*
X014245Y013505D01*
X015005Y013505D02*
X016062Y013505D01*
X015904Y013663D02*
X015005Y013663D01*
X015005Y013822D02*
X015745Y013822D01*
X015587Y013980D02*
X015005Y013980D01*
X015005Y014139D02*
X015428Y014139D01*
X015270Y014297D02*
X015005Y014297D01*
X015005Y014456D02*
X015111Y014456D01*
X015417Y014773D02*
X017063Y014773D01*
X017020Y014816D02*
X017125Y014711D01*
X017875Y014711D01*
X017980Y014816D01*
X017980Y015565D01*
X020166Y015565D01*
X020139Y015407D02*
X017980Y015407D01*
X017980Y015565D02*
X017875Y015671D01*
X017125Y015671D01*
X017020Y015565D01*
X015220Y015565D01*
X015220Y015407D02*
X017020Y015407D01*
X017020Y015565D02*
X017020Y014816D01*
X017020Y014931D02*
X015258Y014931D01*
X015220Y015090D02*
X017020Y015090D01*
X017020Y015248D02*
X015220Y015248D01*
X015220Y015724D02*
X020248Y015724D01*
X020460Y015882D02*
X015220Y015882D01*
X015208Y016041D02*
X015792Y016041D01*
X015751Y016058D02*
X015912Y015991D01*
X016088Y015991D01*
X016249Y016058D01*
X016373Y016181D01*
X016440Y016343D01*
X016440Y017038D01*
X016373Y017200D01*
X016249Y017324D01*
X016088Y017391D01*
X015912Y017391D01*
X015751Y017324D01*
X015627Y017200D01*
X015560Y017038D01*
X015560Y016343D01*
X015627Y016181D01*
X015751Y016058D01*
X015620Y016199D02*
X015380Y016199D01*
X015440Y016358D02*
X015560Y016358D01*
X015560Y016516D02*
X015440Y016516D01*
X015440Y016675D02*
X015560Y016675D01*
X015560Y016833D02*
X015440Y016833D01*
X015440Y016992D02*
X015560Y016992D01*
X015606Y017150D02*
X015394Y017150D01*
X015264Y017309D02*
X015736Y017309D01*
X016264Y017309D02*
X017736Y017309D01*
X017751Y017324D02*
X017627Y017200D01*
X017560Y017038D01*
X017560Y016343D01*
X017627Y016181D01*
X017751Y016058D01*
X017912Y015991D01*
X018088Y015991D01*
X018249Y016058D01*
X018373Y016181D01*
X018440Y016343D01*
X018440Y017038D01*
X018373Y017200D01*
X018249Y017324D01*
X018088Y017391D01*
X017912Y017391D01*
X017751Y017324D01*
X017606Y017150D02*
X016394Y017150D01*
X016440Y016992D02*
X017560Y016992D01*
X017560Y016833D02*
X016440Y016833D01*
X016440Y016675D02*
X017560Y016675D01*
X017560Y016516D02*
X016440Y016516D01*
X016440Y016358D02*
X017560Y016358D01*
X017620Y016199D02*
X016380Y016199D01*
X016208Y016041D02*
X017792Y016041D01*
X018208Y016041D02*
X018792Y016041D01*
X018751Y016058D02*
X018912Y015991D01*
X019088Y015991D01*
X019249Y016058D01*
X019373Y016181D01*
X019440Y016343D01*
X019440Y017038D01*
X019373Y017200D01*
X019249Y017324D01*
X019088Y017391D01*
X018912Y017391D01*
X018751Y017324D01*
X018627Y017200D01*
X018560Y017038D01*
X018560Y016343D01*
X018627Y016181D01*
X018751Y016058D01*
X018620Y016199D02*
X018380Y016199D01*
X018440Y016358D02*
X018560Y016358D01*
X018560Y016516D02*
X018440Y016516D01*
X018440Y016675D02*
X018560Y016675D01*
X018560Y016833D02*
X018440Y016833D01*
X018440Y016992D02*
X018560Y016992D01*
X018606Y017150D02*
X018394Y017150D01*
X018264Y017309D02*
X018736Y017309D01*
X019264Y017309D02*
X020139Y017309D01*
X020139Y017467D02*
X014386Y017467D01*
X014544Y017309D02*
X014736Y017309D01*
X014227Y017626D02*
X020191Y017626D01*
X020309Y017784D02*
X014069Y017784D01*
X013910Y017943D02*
X017148Y017943D01*
X017055Y018411D02*
X013785Y018411D01*
X013817Y018490D01*
X013817Y018641D01*
X013760Y018781D01*
X013653Y018888D01*
X013653Y018888D01*
X009072Y023468D01*
X009072Y023468D01*
X008965Y023575D01*
X008826Y023633D01*
X008674Y023633D01*
X008535Y023575D01*
X008428Y023468D01*
X008370Y023329D01*
X008370Y023177D01*
X008428Y023038D01*
X008535Y022931D01*
X009993Y021473D01*
X007705Y021473D01*
X007740Y021508D01*
X007740Y021691D01*
X007740Y021873D01*
X007482Y022131D01*
X007300Y022131D01*
X007118Y022131D01*
X006957Y021969D01*
X006735Y022191D01*
X006957Y022412D01*
X007118Y022251D01*
X007482Y022251D01*
X007740Y022508D01*
X007740Y022873D01*
X007482Y023131D01*
X007118Y023131D01*
X006957Y022969D01*
X006715Y023211D01*
X006285Y023211D01*
X005980Y022906D01*
X005980Y022475D01*
X006265Y022191D01*
X005980Y021906D01*
X005980Y021475D01*
X006265Y021191D01*
X005980Y020906D01*
X005980Y020475D01*
X006265Y020191D01*
X005980Y019906D01*
X005980Y019810D01*
X005380Y020410D01*
X005380Y024140D01*
X005390Y024150D01*
X005460Y024319D01*
X005460Y025062D01*
X005390Y025231D01*
X005261Y025361D01*
X005140Y025411D01*
X005860Y025411D01*
X005739Y025361D01*
X005610Y025231D01*
X005540Y025062D01*
X005540Y024319D01*
X005610Y024150D01*
X005739Y024021D01*
X005908Y023951D01*
X006091Y023951D01*
X006261Y024021D01*
X006390Y024150D01*
X006460Y024319D01*
X006460Y025062D01*
X006390Y025231D01*
X006261Y025361D01*
X006140Y025411D01*
X006866Y025411D01*
X006823Y025397D01*
X006759Y025364D01*
X006700Y025321D01*
X006649Y025270D01*
X006607Y025212D01*
X006574Y025147D01*
X006551Y025078D01*
X006540Y025007D01*
X006540Y024701D01*
X006990Y024701D01*
X006990Y024681D01*
X006540Y024681D01*
X006540Y024374D01*
X006551Y024303D01*
X006574Y024234D01*
X006607Y024169D01*
X006649Y024111D01*
X006700Y024060D01*
X006759Y024017D01*
X006823Y023984D01*
X006892Y023962D01*
X006964Y023951D01*
X006990Y023951D01*
X006990Y024681D01*
X007010Y024681D01*
X007010Y024701D01*
X007460Y024701D01*
X007460Y025007D01*
X007449Y025078D01*
X007426Y025147D01*
X007393Y025212D01*
X007351Y025270D01*
X007300Y025321D01*
X007241Y025364D01*
X007177Y025397D01*
X007134Y025411D01*
X008441Y025411D01*
X008378Y025257D01*
X008378Y024124D01*
X007360Y024124D01*
X007351Y024111D02*
X007393Y024169D01*
X007426Y024234D01*
X007449Y024303D01*
X007460Y024374D01*
X007460Y024681D01*
X007010Y024681D01*
X007010Y023951D01*
X007036Y023951D01*
X007108Y023962D01*
X007177Y023984D01*
X007241Y024017D01*
X007300Y024060D01*
X007351Y024111D01*
X007442Y024283D02*
X008378Y024283D01*
X008378Y024441D02*
X007460Y024441D01*
X007460Y024600D02*
X008378Y024600D01*
X008378Y024758D02*
X007460Y024758D01*
X007460Y024917D02*
X008378Y024917D01*
X008378Y025075D02*
X007449Y025075D01*
X007377Y025234D02*
X008378Y025234D01*
X008434Y025392D02*
X007186Y025392D01*
X006814Y025392D02*
X006184Y025392D01*
X006387Y025234D02*
X006623Y025234D01*
X006551Y025075D02*
X006455Y025075D01*
X006460Y024917D02*
X006540Y024917D01*
X006540Y024758D02*
X006460Y024758D01*
X006460Y024600D02*
X006540Y024600D01*
X006540Y024441D02*
X006460Y024441D01*
X006445Y024283D02*
X006558Y024283D01*
X006640Y024124D02*
X006364Y024124D01*
X006128Y023966D02*
X006881Y023966D01*
X006990Y023966D02*
X007010Y023966D01*
X007119Y023966D02*
X008443Y023966D01*
X008472Y023895D02*
X008378Y024124D01*
X008472Y023895D02*
X008647Y023720D01*
X008876Y023626D01*
X009124Y023626D01*
X009353Y023720D01*
X009393Y023760D01*
X009972Y023181D01*
X010112Y023123D01*
X011888Y023123D01*
X012028Y023181D01*
X012135Y023288D01*
X013657Y024811D01*
X013701Y024811D01*
X013801Y024711D01*
X014199Y024711D01*
X014480Y024992D01*
X014480Y025389D01*
X014459Y025411D01*
X015431Y025411D01*
X015430Y025399D01*
X015429Y025398D01*
X015421Y025390D01*
X015421Y025375D01*
X015411Y025347D01*
X015421Y025327D01*
X015421Y025325D01*
X015414Y025260D01*
X015421Y025251D01*
X015421Y025142D01*
X015414Y025133D01*
X015421Y025068D01*
X015421Y025066D01*
X015411Y025046D01*
X015421Y025018D01*
X015421Y025003D01*
X015429Y024995D01*
X015430Y024994D01*
X015432Y024974D01*
X015428Y024960D01*
X015434Y024950D01*
X015436Y024939D01*
X015447Y024930D01*
X015449Y024926D01*
X015464Y024891D01*
X015464Y024880D01*
X015472Y024873D01*
X015473Y024870D01*
X015476Y024862D01*
X015476Y024861D01*
X015496Y024815D01*
X015593Y024718D01*
X015593Y024095D01*
X015583Y024092D01*
X015577Y024078D01*
X015563Y024064D01*
X015547Y024054D01*
X015532Y024051D01*
X015526Y024041D01*
X015517Y024035D01*
X015513Y024021D01*
X015503Y024004D01*
X015489Y023990D01*
X015476Y023984D01*
X015472Y023973D01*
X015464Y023965D01*
X015464Y023951D01*
X015458Y023932D01*
X015447Y023916D01*
X015436Y023906D01*
X015434Y023895D01*
X015428Y023886D01*
X015432Y023871D01*
X015430Y023852D01*
X015429Y023851D01*
X015421Y023843D01*
X015421Y023828D01*
X015411Y023800D01*
X015421Y023780D01*
X015421Y023778D01*
X015414Y023713D01*
X015421Y023704D01*
X015421Y023398D01*
X015414Y023389D01*
X015421Y023324D01*
X015421Y023322D01*
X015411Y023301D01*
X015421Y023274D01*
X015421Y023259D01*
X015429Y023251D01*
X015430Y023250D01*
X015432Y023230D01*
X015428Y023216D01*
X015434Y023206D01*
X015436Y023196D01*
X014987Y023196D01*
X014847Y023138D01*
X014347Y022638D01*
X014240Y022531D01*
X014183Y022391D01*
X014183Y021552D01*
X014240Y021413D01*
X015520Y020133D01*
X015520Y019795D01*
X015593Y019619D01*
X015728Y019484D01*
X015905Y019411D01*
X016055Y019411D01*
X017055Y018411D01*
X017048Y018418D02*
X013788Y018418D01*
X013817Y018577D02*
X016889Y018577D01*
X016731Y018735D02*
X013779Y018735D01*
X013647Y018894D02*
X016572Y018894D01*
X016414Y019052D02*
X013488Y019052D01*
X013330Y019211D02*
X016255Y019211D01*
X016097Y019369D02*
X013171Y019369D01*
X013013Y019528D02*
X015684Y019528D01*
X015565Y019686D02*
X012854Y019686D01*
X012696Y019845D02*
X015520Y019845D01*
X015520Y020003D02*
X012537Y020003D01*
X012379Y020162D02*
X015492Y020162D01*
X015333Y020320D02*
X012220Y020320D01*
X012062Y020479D02*
X015175Y020479D01*
X015016Y020637D02*
X011903Y020637D01*
X011745Y020796D02*
X014858Y020796D01*
X014699Y020954D02*
X011586Y020954D01*
X011428Y021113D02*
X014541Y021113D01*
X014382Y021271D02*
X011269Y021271D01*
X011111Y021430D02*
X014233Y021430D01*
X014183Y021588D02*
X010952Y021588D01*
X010794Y021747D02*
X014183Y021747D01*
X014183Y021905D02*
X010635Y021905D01*
X010477Y022064D02*
X014183Y022064D01*
X014183Y022222D02*
X010318Y022222D01*
X010160Y022381D02*
X014183Y022381D01*
X014249Y022539D02*
X010001Y022539D01*
X009843Y022698D02*
X014407Y022698D01*
X014566Y022856D02*
X009684Y022856D01*
X009526Y023015D02*
X014724Y023015D01*
X014933Y023173D02*
X012009Y023173D01*
X012178Y023332D02*
X015420Y023332D01*
X015421Y023490D02*
X012337Y023490D01*
X012495Y023649D02*
X015421Y023649D01*
X015414Y023807D02*
X012654Y023807D01*
X012812Y023966D02*
X015464Y023966D01*
X015593Y024124D02*
X012971Y024124D01*
X013129Y024283D02*
X015593Y024283D01*
X015593Y024441D02*
X013288Y024441D01*
X013446Y024600D02*
X015593Y024600D01*
X015552Y024758D02*
X014246Y024758D01*
X014405Y024917D02*
X015454Y024917D01*
X015420Y025075D02*
X014480Y025075D01*
X014480Y025234D02*
X015421Y025234D01*
X015423Y025392D02*
X014477Y025392D01*
X013754Y024758D02*
X013605Y024758D01*
X015165Y022381D02*
X015433Y022381D01*
X015440Y022222D02*
X015006Y022222D01*
X014942Y022064D02*
X015527Y022064D01*
X014942Y021905D02*
X016452Y021905D01*
X016445Y022064D02*
X016098Y022064D01*
X016494Y021747D02*
X014981Y021747D01*
X015140Y021588D02*
X016560Y021588D01*
X016652Y021430D02*
X015298Y021430D01*
X015457Y021271D02*
X016807Y021271D01*
X017048Y021113D02*
X015615Y021113D01*
X015774Y020954D02*
X015865Y020954D01*
X016135Y020954D02*
X016873Y020954D01*
X016980Y020954D02*
X017020Y020954D01*
X017020Y020971D02*
X017020Y020211D01*
X017480Y020211D01*
X017480Y020528D01*
X017468Y020603D01*
X017445Y020675D01*
X017411Y020742D01*
X017366Y020803D01*
X017313Y020857D01*
X017252Y020901D01*
X017184Y020935D01*
X017112Y020959D01*
X017038Y020971D01*
X017020Y020971D01*
X017127Y020954D02*
X017873Y020954D01*
X017980Y020954D02*
X018020Y020954D01*
X018020Y020971D02*
X018020Y020211D01*
X018480Y020211D01*
X018480Y020528D01*
X018468Y020603D01*
X018445Y020675D01*
X018411Y020742D01*
X018366Y020803D01*
X018313Y020857D01*
X018252Y020901D01*
X018184Y020935D01*
X018112Y020959D01*
X018038Y020971D01*
X018020Y020971D01*
X018127Y020954D02*
X018865Y020954D01*
X018905Y020971D02*
X018728Y020897D01*
X018593Y020762D01*
X018520Y020586D01*
X018520Y019795D01*
X018593Y019619D01*
X018728Y019484D01*
X018887Y019418D01*
X018823Y019397D01*
X018759Y019364D01*
X018700Y019321D01*
X018649Y019270D01*
X018607Y019212D01*
X018574Y019147D01*
X018551Y019078D01*
X018540Y019007D01*
X018540Y018701D01*
X018990Y018701D01*
X018990Y018681D01*
X018540Y018681D01*
X018540Y018374D01*
X018551Y018303D01*
X018574Y018234D01*
X018607Y018169D01*
X018649Y018111D01*
X018700Y018060D01*
X018759Y018017D01*
X018823Y017984D01*
X018892Y017962D01*
X018964Y017951D01*
X018990Y017951D01*
X018990Y018681D01*
X019010Y018681D01*
X019010Y018701D01*
X019460Y018701D01*
X019460Y019007D01*
X019449Y019078D01*
X019426Y019147D01*
X019393Y019212D01*
X019351Y019270D01*
X019300Y019321D01*
X019241Y019364D01*
X019177Y019397D01*
X019113Y019418D01*
X019272Y019484D01*
X019407Y019619D01*
X019480Y019795D01*
X019480Y020586D01*
X019407Y020762D01*
X019272Y020897D01*
X019095Y020971D01*
X018905Y020971D01*
X019135Y020954D02*
X019620Y020954D01*
X019620Y020796D02*
X019374Y020796D01*
X019459Y020637D02*
X019620Y020637D01*
X019620Y020479D02*
X019480Y020479D01*
X019480Y020320D02*
X019620Y020320D01*
X019620Y020162D02*
X019480Y020162D01*
X019480Y020003D02*
X019620Y020003D01*
X019620Y019845D02*
X019480Y019845D01*
X019435Y019686D02*
X019620Y019686D01*
X019620Y019528D02*
X019316Y019528D01*
X019231Y019369D02*
X019620Y019369D01*
X019620Y019211D02*
X019394Y019211D01*
X019453Y019052D02*
X019646Y019052D01*
X019760Y018894D02*
X019460Y018894D01*
X019460Y018735D02*
X020261Y018735D01*
X020240Y018894D02*
X020488Y018894D01*
X020171Y018577D02*
X019460Y018577D01*
X019460Y018681D02*
X019010Y018681D01*
X019010Y017951D01*
X019036Y017951D01*
X019108Y017962D01*
X019177Y017984D01*
X019241Y018017D01*
X019300Y018060D01*
X019351Y018111D01*
X019393Y018169D01*
X019426Y018234D01*
X019449Y018303D01*
X019460Y018374D01*
X019460Y018681D01*
X019460Y018418D02*
X020139Y018418D01*
X020156Y018260D02*
X019435Y018260D01*
X019341Y018101D02*
X020228Y018101D01*
X020391Y017943D02*
X017727Y017943D01*
X018341Y018101D02*
X018659Y018101D01*
X018565Y018260D02*
X018435Y018260D01*
X018460Y018418D02*
X018540Y018418D01*
X018540Y018577D02*
X018460Y018577D01*
X018460Y018735D02*
X018540Y018735D01*
X018540Y018894D02*
X018460Y018894D01*
X018460Y019052D02*
X018547Y019052D01*
X018606Y019211D02*
X018398Y019211D01*
X018240Y019369D02*
X018769Y019369D01*
X018684Y019528D02*
X018316Y019528D01*
X018435Y019686D02*
X018565Y019686D01*
X018520Y019845D02*
X018479Y019845D01*
X018480Y020003D02*
X018520Y020003D01*
X018520Y020162D02*
X018480Y020162D01*
X018480Y020320D02*
X018520Y020320D01*
X018520Y020479D02*
X018480Y020479D01*
X018457Y020637D02*
X018541Y020637D01*
X018626Y020796D02*
X018372Y020796D01*
X018020Y020796D02*
X017980Y020796D01*
X017980Y020637D02*
X018020Y020637D01*
X018020Y020479D02*
X017980Y020479D01*
X017980Y020320D02*
X018020Y020320D01*
X017520Y020320D02*
X017480Y020320D01*
X017480Y020162D02*
X017520Y020162D01*
X017520Y020003D02*
X017480Y020003D01*
X017479Y019845D02*
X017521Y019845D01*
X017565Y019686D02*
X017435Y019686D01*
X017316Y019528D02*
X017684Y019528D01*
X017760Y019369D02*
X017171Y019369D01*
X017330Y019211D02*
X017602Y019211D01*
X017888Y019422D02*
X017888Y019422D01*
X017520Y020479D02*
X017480Y020479D01*
X017457Y020637D02*
X017543Y020637D01*
X017628Y020796D02*
X017372Y020796D01*
X017020Y020796D02*
X016980Y020796D01*
X016980Y020637D02*
X017020Y020637D01*
X017020Y020479D02*
X016980Y020479D01*
X016980Y020320D02*
X017020Y020320D01*
X016520Y020320D02*
X016480Y020320D01*
X016480Y020162D02*
X016520Y020162D01*
X016520Y020479D02*
X016480Y020479D01*
X016459Y020637D02*
X016543Y020637D01*
X016628Y020796D02*
X016374Y020796D01*
X017952Y021113D02*
X019620Y021113D01*
X019620Y021271D02*
X018193Y021271D01*
X018348Y021430D02*
X019620Y021430D01*
X019620Y021588D02*
X018440Y021588D01*
X018506Y021747D02*
X019620Y021747D01*
X019620Y021905D02*
X018548Y021905D01*
X018555Y022064D02*
X019620Y022064D01*
X019620Y022222D02*
X018551Y022222D01*
X018509Y022381D02*
X019620Y022381D01*
X019620Y022539D02*
X019323Y022539D01*
X019425Y022698D02*
X019620Y022698D01*
X019620Y022856D02*
X019442Y022856D01*
X019419Y023015D02*
X019645Y023015D01*
X019545Y023173D02*
X019758Y023173D01*
X019916Y023332D02*
X019580Y023332D01*
X019579Y023490D02*
X020917Y023490D01*
X021000Y023456D02*
X021340Y023456D01*
X021654Y023586D01*
X021895Y023826D01*
X022025Y024140D01*
X022025Y024481D01*
X021895Y024795D01*
X021654Y025035D01*
X021340Y025166D01*
X021000Y025166D01*
X020686Y025035D01*
X020445Y024795D01*
X020315Y024481D01*
X020315Y024140D01*
X020445Y023826D01*
X020686Y023586D01*
X021000Y023456D01*
X021396Y023332D02*
X022267Y023332D01*
X022267Y023490D02*
X021423Y023490D01*
X021717Y023649D02*
X022267Y023649D01*
X022267Y023807D02*
X021876Y023807D01*
X021953Y023966D02*
X022267Y023966D01*
X022267Y024124D02*
X022018Y024124D01*
X022025Y024283D02*
X022267Y024283D01*
X022267Y024441D02*
X022025Y024441D01*
X021976Y024600D02*
X022261Y024600D01*
X022224Y024758D02*
X021910Y024758D01*
X021773Y024917D02*
X022163Y024917D01*
X022064Y025075D02*
X021558Y025075D01*
X021524Y025392D02*
X019577Y025392D01*
X019579Y025234D02*
X021899Y025234D01*
X020782Y025075D02*
X019580Y025075D01*
X019546Y024917D02*
X020567Y024917D01*
X020430Y024758D02*
X019448Y024758D01*
X019372Y024600D02*
X018878Y024600D01*
X018952Y024758D02*
X018388Y024758D01*
X018322Y024917D02*
X018854Y024917D01*
X018820Y025075D02*
X018212Y025075D01*
X018053Y025234D02*
X018821Y025234D01*
X018823Y025392D02*
X017708Y025392D01*
X017292Y025392D02*
X016177Y025392D01*
X016179Y025234D02*
X016947Y025234D01*
X016788Y025075D02*
X016180Y025075D01*
X016146Y024917D02*
X016678Y024917D01*
X016612Y024758D02*
X016048Y024758D01*
X016032Y024600D02*
X016570Y024600D01*
X016570Y024441D02*
X016032Y024441D01*
X016032Y024283D02*
X016572Y024283D01*
X016548Y024124D02*
X016637Y024124D01*
X016176Y024124D02*
X016032Y024124D01*
X019586Y023807D02*
X020464Y023807D01*
X020387Y023966D02*
X019773Y023966D01*
X019957Y024124D02*
X020322Y024124D01*
X020315Y024283D02*
X020005Y024283D01*
X019984Y024441D02*
X020315Y024441D01*
X020364Y024600D02*
X019878Y024600D01*
X019579Y023649D02*
X020623Y023649D01*
X021555Y023173D02*
X022267Y023173D01*
X022267Y023015D02*
X021713Y023015D01*
X021942Y022856D02*
X022267Y022856D01*
X022267Y022698D02*
X022117Y022698D01*
X022183Y022539D02*
X022267Y022539D01*
X022267Y022381D02*
X022199Y022381D01*
X022171Y022222D02*
X022267Y022222D01*
X022267Y022064D02*
X022087Y022064D01*
X022267Y021905D02*
X021871Y021905D01*
X022068Y021747D02*
X022267Y021747D01*
X022267Y021588D02*
X022163Y021588D01*
X022199Y021430D02*
X022267Y021430D01*
X022267Y021271D02*
X022192Y021271D01*
X022126Y021113D02*
X022267Y021113D01*
X022267Y020954D02*
X021978Y020954D01*
X022019Y020796D02*
X022267Y020796D01*
X022267Y020637D02*
X022143Y020637D01*
X022199Y020479D02*
X022267Y020479D01*
X022267Y020320D02*
X022199Y020320D01*
X022146Y020162D02*
X022267Y020162D01*
X021970Y019946D02*
X021847Y019895D01*
X021970Y019845D01*
X022123Y019686D02*
X022267Y019686D01*
X022267Y019528D02*
X022188Y019528D01*
X022199Y019369D02*
X022267Y019369D01*
X022267Y019211D02*
X022166Y019211D01*
X022076Y019052D02*
X022267Y019052D01*
X022267Y018894D02*
X021851Y018894D01*
X022079Y018735D02*
X022267Y018735D01*
X022267Y018577D02*
X022168Y018577D01*
X022199Y018418D02*
X022267Y018418D01*
X022267Y018260D02*
X022187Y018260D01*
X022121Y018101D02*
X022267Y018101D01*
X022267Y017943D02*
X021961Y017943D01*
X022030Y017784D02*
X022267Y017784D01*
X022267Y017626D02*
X022148Y017626D01*
X022199Y017467D02*
X022267Y017467D01*
X022267Y017309D02*
X022199Y017309D01*
X022141Y017150D02*
X022267Y017150D01*
X022267Y016992D02*
X022015Y016992D01*
X021981Y016833D02*
X022267Y016833D01*
X022267Y016675D02*
X022127Y016675D01*
X022193Y016516D02*
X022267Y016516D01*
X022267Y016358D02*
X022199Y016358D01*
X022162Y016199D02*
X022267Y016199D01*
X022267Y016041D02*
X022064Y016041D01*
X021879Y015882D02*
X022267Y015882D01*
X022267Y015724D02*
X022091Y015724D01*
X022173Y015565D02*
X022267Y015565D01*
X022267Y015407D02*
X022199Y015407D01*
X022182Y015248D02*
X022267Y015248D01*
X022267Y015090D02*
X022113Y015090D01*
X022267Y014931D02*
X021934Y014931D01*
X022042Y014773D02*
X022267Y014773D01*
X022267Y014614D02*
X022152Y014614D01*
X022199Y014456D02*
X022267Y014456D01*
X022267Y014297D02*
X022199Y014297D01*
X022137Y014139D02*
X022267Y014139D01*
X022267Y013980D02*
X022004Y013980D01*
X021993Y013822D02*
X022267Y013822D01*
X022267Y013663D02*
X022132Y013663D01*
X022198Y013505D02*
X022267Y013505D01*
X022267Y013346D02*
X022199Y013346D01*
X022157Y013188D02*
X022267Y013188D01*
X022267Y013029D02*
X022053Y013029D01*
X021907Y012871D02*
X022267Y012871D01*
X022267Y012712D02*
X022102Y012712D01*
X022177Y012554D02*
X022267Y012554D01*
X022267Y012395D02*
X022199Y012395D01*
X022177Y012237D02*
X022267Y012237D01*
X022267Y012078D02*
X022102Y012078D01*
X022267Y011920D02*
X021906Y011920D01*
X022053Y011761D02*
X022267Y011761D01*
X022267Y011603D02*
X022157Y011603D01*
X022199Y011444D02*
X022267Y011444D01*
X022267Y011286D02*
X022198Y011286D01*
X022132Y011127D02*
X022267Y011127D01*
X022267Y010969D02*
X021992Y010969D01*
X022004Y010810D02*
X022267Y010810D01*
X022267Y010652D02*
X022137Y010652D01*
X022199Y010493D02*
X022267Y010493D01*
X022267Y010335D02*
X022199Y010335D01*
X022152Y010176D02*
X022267Y010176D01*
X022267Y010018D02*
X022041Y010018D01*
X021935Y009859D02*
X022267Y009859D01*
X022267Y009701D02*
X022114Y009701D01*
X022182Y009542D02*
X022267Y009542D01*
X022267Y009384D02*
X022199Y009384D01*
X022172Y009225D02*
X022267Y009225D01*
X022267Y009067D02*
X022090Y009067D01*
X022267Y008908D02*
X021878Y008908D01*
X022065Y008750D02*
X022267Y008750D01*
X022267Y008591D02*
X022162Y008591D01*
X022199Y008433D02*
X022267Y008433D01*
X022267Y008274D02*
X022193Y008274D01*
X022127Y008116D02*
X022267Y008116D01*
X022267Y007957D02*
X021981Y007957D01*
X022016Y007799D02*
X022267Y007799D01*
X022267Y007640D02*
X022142Y007640D01*
X022199Y007482D02*
X022267Y007482D01*
X022267Y007323D02*
X022199Y007323D01*
X022147Y007165D02*
X022267Y007165D01*
X022267Y007006D02*
X022030Y007006D01*
X021962Y006848D02*
X022267Y006848D01*
X022267Y006689D02*
X022121Y006689D01*
X022187Y006531D02*
X022267Y006531D01*
X022267Y006372D02*
X022199Y006372D01*
X022168Y006214D02*
X022267Y006214D01*
X022267Y006055D02*
X022079Y006055D01*
X022267Y005897D02*
X021850Y005897D01*
X022076Y005738D02*
X022267Y005738D01*
X022267Y005580D02*
X022167Y005580D01*
X022199Y005421D02*
X022267Y005421D01*
X022267Y005263D02*
X022188Y005263D01*
X022122Y005104D02*
X022267Y005104D01*
X022267Y004946D02*
X021969Y004946D01*
X022027Y004787D02*
X022267Y004787D01*
X022267Y004629D02*
X022146Y004629D01*
X022199Y004470D02*
X022267Y004470D01*
X022267Y004312D02*
X022199Y004312D01*
X022143Y004153D02*
X022267Y004153D01*
X022267Y003995D02*
X022018Y003995D01*
X021978Y003836D02*
X022267Y003836D01*
X022267Y003678D02*
X022126Y003678D01*
X022192Y003519D02*
X022267Y003519D01*
X022267Y003361D02*
X022199Y003361D01*
X022163Y003202D02*
X022267Y003202D01*
X022267Y003044D02*
X022067Y003044D01*
X022267Y002885D02*
X021822Y002885D01*
X021808Y002727D02*
X022267Y002727D01*
X022267Y002568D02*
X022060Y002568D01*
X022218Y002410D02*
X022267Y002410D01*
X021516Y002885D02*
X020814Y002885D01*
X020688Y002885D02*
X020651Y002885D01*
X020524Y002885D02*
X019420Y002885D01*
X019617Y003044D02*
X020271Y003044D01*
X020175Y003202D02*
X019730Y003202D01*
X019797Y003361D02*
X020139Y003361D01*
X020651Y003361D02*
X020688Y003361D01*
X020688Y003202D02*
X020651Y003202D01*
X020651Y003044D02*
X020688Y003044D01*
X021067Y003044D02*
X021271Y003044D01*
X021176Y003202D02*
X021164Y003202D01*
X020531Y002727D02*
X002516Y002727D01*
X002768Y002568D02*
X020279Y002568D01*
X020120Y002410D02*
X002927Y002410D01*
X003049Y002251D02*
X019999Y002251D01*
X019907Y002093D02*
X003140Y002093D01*
X003206Y001934D02*
X019842Y001934D01*
X019799Y001776D02*
X003248Y001776D01*
X003278Y001617D02*
X019769Y001617D01*
X019769Y001459D02*
X015134Y001459D01*
X015133Y001459D02*
X015045Y001471D01*
X015020Y001471D01*
X015020Y000811D01*
X015680Y000811D01*
X015680Y000835D01*
X015668Y000923D01*
X015645Y001010D01*
X015611Y001092D01*
X015567Y001169D01*
X015512Y001240D01*
X015449Y001303D01*
X015379Y001357D01*
X015301Y001402D01*
X015219Y001436D01*
X015133Y001459D01*
X015020Y001459D02*
X014980Y001459D01*
X014866Y001459D02*
X013164Y001459D01*
X012836Y001459D02*
X012164Y001459D01*
X011836Y001459D02*
X007664Y001459D01*
X007952Y001300D02*
X011548Y001300D01*
X011409Y001142D02*
X008091Y001142D01*
X008156Y000983D02*
X011344Y000983D01*
X011320Y000825D02*
X008180Y000825D01*
X008180Y000666D02*
X011320Y000666D01*
X011381Y000508D02*
X008119Y000508D01*
X007336Y001459D02*
X005664Y001459D01*
X005336Y001459D02*
X004664Y001459D01*
X004952Y001300D02*
X005048Y001300D01*
X004336Y001459D02*
X003278Y001459D01*
X003278Y001300D02*
X004048Y001300D01*
X003909Y001142D02*
X003238Y001142D01*
X003195Y000983D02*
X003844Y000983D01*
X003820Y000825D02*
X003118Y000825D01*
X003026Y000666D02*
X003820Y000666D01*
X003881Y000508D02*
X002888Y000508D01*
X001240Y002727D02*
X000780Y002727D01*
X000780Y002885D02*
X018580Y002885D01*
X018383Y003044D02*
X015484Y003044D01*
X015331Y002891D02*
X015800Y003359D01*
X015800Y003671D01*
X015020Y003671D01*
X015020Y003711D01*
X014980Y003711D01*
X014980Y004491D01*
X014669Y004491D01*
X014200Y004022D01*
X014200Y003711D01*
X014980Y003711D01*
X014980Y003671D01*
X014200Y003671D01*
X014200Y003359D01*
X014669Y002891D01*
X014980Y002891D01*
X014980Y003671D01*
X015020Y003671D01*
X015020Y002891D01*
X015331Y002891D01*
X015643Y003202D02*
X018270Y003202D01*
X018203Y003361D02*
X015800Y003361D01*
X015800Y003519D02*
X018171Y003519D01*
X018200Y003836D02*
X015800Y003836D01*
X015800Y003711D02*
X015800Y004022D01*
X015331Y004491D01*
X015020Y004491D01*
X015020Y003711D01*
X015800Y003711D01*
X015800Y003995D02*
X018264Y003995D01*
X018372Y004153D02*
X015669Y004153D01*
X015510Y004312D02*
X018560Y004312D01*
X018485Y004417D02*
X018616Y004548D01*
X018687Y004720D01*
X018687Y004905D01*
X018616Y005077D01*
X018485Y005209D01*
X018313Y005280D01*
X017553Y005280D01*
X017382Y005209D01*
X017250Y005077D01*
X017179Y004905D01*
X017179Y004720D01*
X017250Y004548D01*
X017382Y004417D01*
X017553Y004346D01*
X018313Y004346D01*
X018485Y004417D01*
X018538Y004470D02*
X020139Y004470D01*
X020192Y004629D02*
X018649Y004629D01*
X018687Y004787D02*
X020312Y004787D01*
X020370Y004946D02*
X018670Y004946D01*
X018589Y005104D02*
X020216Y005104D01*
X020151Y005263D02*
X018354Y005263D01*
X018505Y005421D02*
X020139Y005421D01*
X020172Y005580D02*
X018636Y005580D01*
X018687Y005738D02*
X020263Y005738D01*
X020488Y005897D02*
X018684Y005897D01*
X018619Y006055D02*
X020260Y006055D01*
X020171Y006214D02*
X018772Y006214D01*
X018907Y006372D02*
X020139Y006372D01*
X020152Y006531D02*
X018907Y006531D01*
X018907Y006689D02*
X020217Y006689D01*
X020376Y006848D02*
X018907Y006848D01*
X018907Y007006D02*
X020309Y007006D01*
X020191Y007165D02*
X018907Y007165D01*
X018907Y007323D02*
X020139Y007323D01*
X020139Y007482D02*
X018907Y007482D01*
X018907Y007640D02*
X020197Y007640D01*
X020323Y007799D02*
X018907Y007799D01*
X018920Y007957D02*
X019080Y007957D01*
X019151Y007957D02*
X020358Y007957D01*
X020211Y008116D02*
X019506Y008116D01*
X019664Y008274D02*
X020146Y008274D01*
X020139Y008433D02*
X019759Y008433D01*
X019812Y008591D02*
X020177Y008591D01*
X020274Y008750D02*
X019080Y008750D01*
X019080Y008908D02*
X018920Y008908D01*
X018920Y008857D02*
X018920Y009607D01*
X018837Y009596D01*
X018732Y009567D01*
X018631Y009526D01*
X018536Y009471D01*
X018450Y009405D01*
X018373Y009327D01*
X018306Y009241D01*
X018252Y009146D01*
X018210Y009045D01*
X018181Y008940D01*
X018171Y008857D01*
X018920Y008857D01*
X018920Y008750D02*
X016666Y008750D01*
X016823Y008591D02*
X018188Y008591D01*
X018241Y008433D02*
X016880Y008433D01*
X016940Y008274D02*
X018336Y008274D01*
X018795Y007957D02*
X018849Y007957D01*
X018920Y008116D02*
X019080Y008116D01*
X019080Y008274D02*
X018920Y008274D01*
X018920Y008433D02*
X019080Y008433D01*
X019080Y008591D02*
X018920Y008591D01*
X018920Y009067D02*
X019080Y009067D01*
X019080Y009225D02*
X018920Y009225D01*
X018920Y009384D02*
X019080Y009384D01*
X019080Y009542D02*
X018920Y009542D01*
X018671Y009542D02*
X016771Y009542D01*
X016929Y009384D02*
X018429Y009384D01*
X018297Y009225D02*
X016940Y009225D01*
X016940Y009191D02*
X016500Y009191D01*
X016500Y009631D01*
X016500Y009191D01*
X016500Y009191D01*
X016500Y009191D01*
X016940Y009191D01*
X016940Y009067D02*
X018219Y009067D01*
X018177Y008908D02*
X016840Y008908D01*
X016500Y009225D02*
X016500Y009225D01*
X016500Y009384D02*
X016500Y009384D01*
X016500Y009542D02*
X016500Y009542D01*
X016229Y009542D02*
X015873Y009542D01*
X015715Y009701D02*
X020225Y009701D01*
X020156Y009542D02*
X019329Y009542D01*
X019571Y009384D02*
X020139Y009384D01*
X020166Y009225D02*
X019703Y009225D01*
X019781Y009067D02*
X020248Y009067D01*
X020461Y008908D02*
X019823Y008908D01*
X020404Y009859D02*
X015556Y009859D01*
X015398Y010018D02*
X020297Y010018D01*
X020186Y010176D02*
X015239Y010176D01*
X015081Y010335D02*
X020142Y010335D01*
X020148Y010493D02*
X015005Y010493D01*
X015005Y010652D02*
X020205Y010652D01*
X020339Y010810D02*
X017974Y010810D01*
X017980Y010816D02*
X017980Y011565D01*
X017875Y011671D01*
X017125Y011671D01*
X017020Y011565D01*
X017020Y010816D01*
X017125Y010711D01*
X017875Y010711D01*
X017980Y010816D01*
X017980Y010969D02*
X020346Y010969D01*
X020207Y011127D02*
X017980Y011127D01*
X017980Y011286D02*
X020141Y011286D01*
X020139Y011444D02*
X017980Y011444D01*
X017943Y011603D02*
X020181Y011603D01*
X020286Y011761D02*
X017925Y011761D01*
X017911Y011747D02*
X017944Y011780D01*
X017968Y011821D01*
X017980Y011867D01*
X017980Y012171D01*
X017520Y012171D01*
X017520Y011711D01*
X017824Y011711D01*
X017869Y011723D01*
X017911Y011747D01*
X017980Y011920D02*
X020433Y011920D01*
X020237Y012078D02*
X017980Y012078D01*
X017980Y012237D02*
X020161Y012237D01*
X020139Y012395D02*
X017980Y012395D01*
X017987Y012554D02*
X020161Y012554D01*
X020182Y013188D02*
X017520Y013188D01*
X017520Y013211D02*
X017980Y013211D01*
X017980Y013514D01*
X017968Y013560D01*
X017944Y013601D01*
X017911Y013635D01*
X017869Y013658D01*
X017824Y013671D01*
X017520Y013671D01*
X017520Y013211D01*
X017480Y013188D02*
X017002Y013188D01*
X017020Y013346D02*
X016843Y013346D01*
X016685Y013505D02*
X017020Y013505D01*
X017148Y013663D02*
X016526Y013663D01*
X016368Y013822D02*
X017020Y013822D01*
X017020Y013816D02*
X017125Y013711D01*
X017875Y013711D01*
X017980Y013816D01*
X017980Y014565D01*
X017875Y014671D01*
X017125Y014671D01*
X017020Y014565D01*
X017020Y013816D01*
X017020Y013980D02*
X016209Y013980D01*
X016051Y014139D02*
X017020Y014139D01*
X017020Y014297D02*
X015892Y014297D01*
X015734Y014456D02*
X017020Y014456D01*
X017069Y014614D02*
X015575Y014614D01*
X015005Y013346D02*
X016221Y013346D01*
X016379Y013188D02*
X015005Y013188D01*
X015005Y013029D02*
X016538Y013029D01*
X016696Y012871D02*
X015005Y012871D01*
X015005Y012712D02*
X016855Y012712D01*
X016968Y012599D02*
X016968Y012599D01*
X017013Y012554D02*
X015005Y012554D01*
X015005Y012395D02*
X017020Y012395D01*
X017020Y012237D02*
X015005Y012237D01*
X015005Y012078D02*
X017020Y012078D01*
X017020Y011920D02*
X015005Y011920D01*
X015005Y011761D02*
X017075Y011761D01*
X017057Y011603D02*
X015005Y011603D01*
X015005Y011444D02*
X017020Y011444D01*
X017020Y011286D02*
X015005Y011286D01*
X015005Y011127D02*
X017020Y011127D01*
X017020Y010969D02*
X015005Y010969D01*
X015005Y010810D02*
X017026Y010810D01*
X017480Y011761D02*
X017520Y011761D01*
X017520Y011920D02*
X017480Y011920D01*
X017480Y012078D02*
X017520Y012078D01*
X017480Y013346D02*
X017520Y013346D01*
X017520Y013505D02*
X017480Y013505D01*
X017480Y013663D02*
X017520Y013663D01*
X017852Y013663D02*
X020207Y013663D01*
X020141Y013505D02*
X017980Y013505D01*
X017980Y013346D02*
X020139Y013346D01*
X020346Y013822D02*
X017980Y013822D01*
X017980Y013980D02*
X020335Y013980D01*
X020202Y014139D02*
X017980Y014139D01*
X017980Y014297D02*
X020139Y014297D01*
X020139Y014456D02*
X017980Y014456D01*
X017931Y014614D02*
X020186Y014614D01*
X020297Y014773D02*
X017937Y014773D01*
X017980Y014931D02*
X020405Y014931D01*
X020225Y015090D02*
X017980Y015090D01*
X017980Y015248D02*
X020157Y015248D01*
X020274Y016041D02*
X019208Y016041D01*
X019380Y016199D02*
X020177Y016199D01*
X020139Y016358D02*
X019440Y016358D01*
X019440Y016516D02*
X020146Y016516D01*
X020211Y016675D02*
X019440Y016675D01*
X019440Y016833D02*
X020358Y016833D01*
X020323Y016992D02*
X019440Y016992D01*
X019394Y017150D02*
X020197Y017150D01*
X019010Y018101D02*
X018990Y018101D01*
X018990Y018260D02*
X019010Y018260D01*
X019010Y018418D02*
X018990Y018418D01*
X018990Y018577D02*
X019010Y018577D01*
X013830Y016675D02*
X013340Y016675D01*
X013323Y016833D02*
X013671Y016833D01*
X013513Y016992D02*
X013250Y016992D01*
X013354Y017150D02*
X013053Y017150D01*
X013310Y016516D02*
X013647Y016516D01*
X013520Y016358D02*
X013370Y016358D01*
X012771Y015882D02*
X008880Y015882D01*
X008880Y015724D02*
X012930Y015724D01*
X013088Y015565D02*
X008880Y015565D01*
X008880Y015407D02*
X013247Y015407D01*
X012613Y016041D02*
X008880Y016041D01*
X008880Y016199D02*
X012024Y016199D01*
X011782Y016358D02*
X008880Y016358D01*
X008880Y016516D02*
X011690Y016516D01*
X011660Y016675D02*
X008866Y016675D01*
X008770Y016833D02*
X011677Y016833D01*
X011750Y016992D02*
X008242Y016992D01*
X008051Y017150D02*
X011947Y017150D01*
X013389Y013980D02*
X013620Y013980D01*
X013469Y013822D02*
X013465Y013822D01*
X013453Y009701D02*
X006505Y009701D01*
X006505Y009859D02*
X006709Y009859D01*
X006560Y010018D02*
X006552Y010018D01*
X006475Y009542D02*
X008229Y009542D01*
X008318Y009631D02*
X008060Y009373D01*
X008060Y009008D01*
X008318Y008751D01*
X008682Y008751D01*
X008940Y009008D01*
X008940Y009373D01*
X008682Y009631D01*
X008318Y009631D01*
X008071Y009384D02*
X006355Y009384D01*
X006197Y009225D02*
X008060Y009225D01*
X008060Y009067D02*
X006038Y009067D01*
X005854Y008908D02*
X008160Y008908D01*
X008318Y008631D02*
X008060Y008373D01*
X008060Y008008D01*
X008318Y007751D01*
X008428Y007751D01*
X008377Y007700D01*
X008323Y007571D01*
X005845Y007571D01*
X005665Y007751D01*
X005682Y007751D01*
X005940Y008008D01*
X005940Y008191D01*
X005940Y008373D01*
X005682Y008631D01*
X005500Y008631D01*
X005318Y008631D01*
X005060Y008373D01*
X005060Y008355D01*
X004965Y008450D01*
X004826Y008508D01*
X004305Y008508D01*
X004182Y008631D01*
X003818Y008631D01*
X003758Y008571D01*
X003362Y008571D01*
X003222Y008513D01*
X003115Y008406D01*
X002115Y007406D01*
X002106Y007383D01*
X002088Y007391D01*
X001912Y007391D01*
X001751Y007324D01*
X001627Y007200D01*
X001560Y007038D01*
X001560Y006343D01*
X001627Y006181D01*
X001751Y006058D01*
X001912Y005991D01*
X002088Y005991D01*
X002249Y006058D01*
X002373Y006181D01*
X002440Y006343D01*
X002440Y006593D01*
X002560Y006713D01*
X002560Y006343D01*
X002627Y006181D01*
X002751Y006058D01*
X002912Y005991D01*
X003088Y005991D01*
X003249Y006058D01*
X003373Y006181D01*
X003440Y006343D01*
X003440Y007038D01*
X003373Y007200D01*
X003249Y007324D01*
X003149Y007365D01*
X003595Y007811D01*
X003758Y007811D01*
X003818Y007751D01*
X004106Y007751D01*
X004112Y007748D01*
X004126Y007748D01*
X004139Y007744D01*
X004201Y007748D01*
X004593Y007748D01*
X005365Y006975D01*
X005472Y006868D01*
X005612Y006811D01*
X007120Y006811D01*
X007120Y004442D01*
X006700Y004022D01*
X006700Y003359D01*
X007169Y002891D01*
X007831Y002891D01*
X008300Y003359D01*
X008300Y004022D01*
X007880Y004442D01*
X007880Y006811D01*
X008323Y006811D01*
X008377Y006681D01*
X008501Y006558D01*
X008662Y006491D01*
X008838Y006491D01*
X008999Y006558D01*
X009123Y006681D01*
X009190Y006843D01*
X009190Y007538D01*
X009123Y007700D01*
X008999Y007824D01*
X008838Y007891D01*
X008822Y007891D01*
X008940Y008008D01*
X008940Y008373D01*
X008682Y008631D01*
X008318Y008631D01*
X008278Y008591D02*
X005722Y008591D01*
X005500Y008591D02*
X005500Y008591D01*
X005500Y008631D02*
X005500Y008191D01*
X005500Y008191D01*
X005500Y008631D01*
X005500Y008433D02*
X005500Y008433D01*
X005500Y008274D02*
X005500Y008274D01*
X005500Y008191D02*
X005940Y008191D01*
X005500Y008191D01*
X005500Y008191D01*
X005120Y008433D02*
X004983Y008433D01*
X005278Y008591D02*
X004222Y008591D01*
X003778Y008591D02*
X001222Y008591D01*
X001380Y008433D02*
X003142Y008433D01*
X002984Y008274D02*
X001440Y008274D01*
X001440Y008116D02*
X002825Y008116D01*
X002667Y007957D02*
X001389Y007957D01*
X001230Y007799D02*
X002508Y007799D01*
X002350Y007640D02*
X000780Y007640D01*
X000780Y007482D02*
X002191Y007482D01*
X001750Y007323D02*
X001250Y007323D01*
X001388Y007165D02*
X001612Y007165D01*
X001560Y007006D02*
X001440Y007006D01*
X001440Y006848D02*
X001560Y006848D01*
X001560Y006689D02*
X001440Y006689D01*
X001440Y006531D02*
X001560Y006531D01*
X001560Y006372D02*
X001440Y006372D01*
X001386Y006214D02*
X001614Y006214D01*
X001757Y006055D02*
X001243Y006055D01*
X000780Y005897D02*
X007120Y005897D01*
X007120Y006055D02*
X003243Y006055D01*
X003386Y006214D02*
X007120Y006214D01*
X007120Y006372D02*
X003440Y006372D01*
X003440Y006531D02*
X007120Y006531D01*
X007120Y006689D02*
X003440Y006689D01*
X003440Y006848D02*
X005523Y006848D01*
X005335Y007006D02*
X003440Y007006D01*
X003388Y007165D02*
X005176Y007165D01*
X005018Y007323D02*
X003250Y007323D01*
X003266Y007482D02*
X004859Y007482D01*
X004701Y007640D02*
X003424Y007640D01*
X003583Y007799D02*
X003770Y007799D01*
X003660Y008908D02*
X001340Y008908D01*
X001440Y009067D02*
X003560Y009067D01*
X003560Y009225D02*
X001440Y009225D01*
X001429Y009384D02*
X003571Y009384D01*
X003729Y009542D02*
X001271Y009542D01*
X000780Y009701D02*
X005598Y009701D01*
X005520Y009859D02*
X005480Y009859D01*
X005480Y010018D02*
X005520Y010018D01*
X005480Y010176D02*
X000780Y010176D01*
X000780Y010018D02*
X005020Y010018D01*
X005022Y009859D02*
X000780Y009859D01*
X000780Y010335D02*
X005020Y010335D01*
X005020Y010493D02*
X000780Y010493D01*
X000780Y010652D02*
X005119Y010652D01*
X005131Y010723D02*
X005176Y010711D01*
X005480Y010711D01*
X005480Y011171D01*
X005020Y011171D01*
X005020Y010867D01*
X005032Y010821D01*
X005056Y010780D01*
X005089Y010747D01*
X005131Y010723D01*
X005039Y010810D02*
X002742Y010810D01*
X002682Y010751D02*
X002940Y011008D01*
X002940Y011191D01*
X002940Y011373D01*
X002682Y011631D01*
X002500Y011631D01*
X002318Y011631D01*
X002060Y011373D01*
X002060Y011191D01*
X002500Y011191D01*
X002500Y011631D01*
X002500Y011191D01*
X002500Y011191D01*
X002940Y011191D01*
X002500Y011191D01*
X002500Y011191D01*
X002500Y011191D01*
X002060Y011191D01*
X002060Y011008D01*
X002318Y010751D01*
X002500Y010751D01*
X002682Y010751D01*
X002500Y010751D02*
X002500Y011191D01*
X002500Y011191D01*
X002500Y010751D01*
X002500Y010810D02*
X002500Y010810D01*
X002500Y010969D02*
X002500Y010969D01*
X002500Y011127D02*
X002500Y011127D01*
X002500Y011286D02*
X002500Y011286D01*
X002500Y011444D02*
X002500Y011444D01*
X002500Y011603D02*
X002500Y011603D01*
X002710Y011603D02*
X005057Y011603D01*
X005056Y011601D02*
X005032Y011560D01*
X005020Y011514D01*
X005020Y011211D01*
X005480Y011211D01*
X005480Y011671D01*
X005176Y011671D01*
X005131Y011658D01*
X005089Y011635D01*
X005056Y011601D01*
X005125Y011711D02*
X005020Y011816D01*
X005020Y012565D01*
X005125Y012671D01*
X005875Y012671D01*
X005980Y012565D01*
X005980Y011816D01*
X005875Y011711D01*
X005125Y011711D01*
X005075Y011761D02*
X000780Y011761D01*
X000780Y011603D02*
X001290Y011603D01*
X001318Y011631D02*
X001060Y011373D01*
X001060Y011008D01*
X001318Y010751D01*
X001682Y010751D01*
X001940Y011008D01*
X001940Y011373D01*
X001682Y011631D01*
X001318Y011631D01*
X001131Y011444D02*
X000780Y011444D01*
X000780Y011286D02*
X001060Y011286D01*
X001060Y011127D02*
X000780Y011127D01*
X000780Y010969D02*
X001100Y010969D01*
X001258Y010810D02*
X000780Y010810D01*
X001742Y010810D02*
X002258Y010810D01*
X002100Y010969D02*
X001900Y010969D01*
X001940Y011127D02*
X002060Y011127D01*
X002060Y011286D02*
X001940Y011286D01*
X001869Y011444D02*
X002131Y011444D01*
X002290Y011603D02*
X001710Y011603D01*
X000780Y011920D02*
X005020Y011920D01*
X005020Y012078D02*
X000780Y012078D01*
X000780Y012237D02*
X005020Y012237D01*
X005020Y012395D02*
X000780Y012395D01*
X000780Y012554D02*
X005020Y012554D01*
X005125Y012711D02*
X005020Y012816D01*
X005020Y013446D01*
X004440Y014026D01*
X004440Y014008D01*
X004182Y013751D01*
X003818Y013751D01*
X003560Y014008D01*
X003560Y014373D01*
X003818Y014631D01*
X003835Y014631D01*
X003678Y014788D01*
X003620Y014927D01*
X003620Y015948D01*
X003560Y016008D01*
X003560Y016373D01*
X003818Y016631D01*
X004182Y016631D01*
X004440Y016373D01*
X004440Y016008D01*
X004380Y015948D01*
X004380Y015160D01*
X005500Y014040D01*
X006553Y015093D01*
X006660Y015200D01*
X006799Y015258D01*
X006951Y015258D01*
X007090Y015200D01*
X007197Y015093D01*
X007255Y014954D01*
X007255Y014802D01*
X007197Y014663D01*
X007165Y014631D01*
X007182Y014631D01*
X007440Y014373D01*
X007440Y014008D01*
X007182Y013751D01*
X006818Y013751D01*
X006560Y014008D01*
X006560Y014026D01*
X005980Y013446D01*
X005980Y012816D01*
X005875Y012711D01*
X005125Y012711D01*
X005124Y012712D02*
X000780Y012712D01*
X000780Y012871D02*
X005020Y012871D01*
X005020Y013029D02*
X000780Y013029D01*
X000780Y013188D02*
X005020Y013188D01*
X005020Y013346D02*
X000780Y013346D01*
X000780Y013505D02*
X004961Y013505D01*
X004803Y013663D02*
X000780Y013663D01*
X000780Y013822D02*
X001247Y013822D01*
X001318Y013751D02*
X001682Y013751D01*
X001940Y014008D01*
X001940Y014373D01*
X001682Y014631D01*
X001318Y014631D01*
X001060Y014373D01*
X001060Y014008D01*
X001318Y013751D01*
X001088Y013980D02*
X000780Y013980D01*
X000780Y014139D02*
X001060Y014139D01*
X001060Y014297D02*
X000780Y014297D01*
X000780Y014456D02*
X001143Y014456D01*
X001301Y014614D02*
X000780Y014614D01*
X000780Y014773D02*
X003693Y014773D01*
X003620Y014931D02*
X000780Y014931D01*
X000780Y015090D02*
X003620Y015090D01*
X003620Y015248D02*
X000780Y015248D01*
X000780Y015407D02*
X003620Y015407D01*
X003620Y015565D02*
X000780Y015565D01*
X000780Y015724D02*
X003620Y015724D01*
X003620Y015882D02*
X001314Y015882D01*
X001440Y016041D02*
X003560Y016041D01*
X003560Y016199D02*
X001440Y016199D01*
X001440Y016358D02*
X003560Y016358D01*
X003703Y016516D02*
X001297Y016516D01*
X000780Y016675D02*
X007470Y016675D01*
X007470Y016833D02*
X007530Y016833D01*
X007530Y016992D02*
X007470Y016992D01*
X007470Y017150D02*
X007530Y017150D01*
X007196Y017309D02*
X006480Y017309D01*
X006480Y017150D02*
X006949Y017150D01*
X006758Y016992D02*
X006480Y016992D01*
X006321Y016833D02*
X006680Y016833D01*
X006690Y016516D02*
X004297Y016516D01*
X004440Y016358D02*
X006782Y016358D01*
X007032Y016199D02*
X004440Y016199D01*
X004440Y016041D02*
X008120Y016041D01*
X008120Y016199D02*
X007968Y016199D01*
X008120Y015882D02*
X004380Y015882D01*
X004380Y015724D02*
X008120Y015724D01*
X008120Y015565D02*
X004380Y015565D01*
X004380Y015407D02*
X008120Y015407D01*
X008120Y015248D02*
X006975Y015248D01*
X006775Y015248D02*
X004380Y015248D01*
X004451Y015090D02*
X006549Y015090D01*
X006391Y014931D02*
X004609Y014931D01*
X004768Y014773D02*
X006232Y014773D01*
X006074Y014614D02*
X004926Y014614D01*
X005085Y014456D02*
X005915Y014456D01*
X005757Y014297D02*
X005243Y014297D01*
X005402Y014139D02*
X005598Y014139D01*
X006197Y013663D02*
X008120Y013663D01*
X008120Y013505D02*
X007308Y013505D01*
X007182Y013631D02*
X007440Y013373D01*
X007440Y013008D01*
X007182Y012751D01*
X006818Y012751D01*
X006560Y013008D01*
X006560Y013373D01*
X006818Y013631D01*
X007182Y013631D01*
X007253Y013822D02*
X008120Y013822D01*
X008120Y013980D02*
X007412Y013980D01*
X007440Y014139D02*
X008120Y014139D01*
X008120Y014297D02*
X007440Y014297D01*
X007357Y014456D02*
X008120Y014456D01*
X008120Y014614D02*
X007199Y014614D01*
X007243Y014773D02*
X008120Y014773D01*
X008120Y014931D02*
X007255Y014931D01*
X007199Y015090D02*
X008120Y015090D01*
X007530Y016199D02*
X007470Y016199D01*
X007470Y016358D02*
X007530Y016358D01*
X007530Y016516D02*
X007470Y016516D01*
X007037Y017467D02*
X006402Y017467D01*
X006371Y017626D02*
X006879Y017626D01*
X006720Y017784D02*
X006530Y017784D01*
X006045Y018671D02*
X005905Y018671D01*
X005728Y018597D01*
X005593Y018462D01*
X005520Y018286D01*
X005520Y018095D01*
X005593Y017919D01*
X005601Y017911D01*
X005399Y017911D01*
X005480Y017992D01*
X005480Y018389D01*
X005199Y018671D01*
X004831Y018671D01*
X004654Y018848D01*
X003966Y018848D01*
X003644Y019171D01*
X003715Y019171D01*
X004020Y019475D01*
X004020Y019691D01*
X004020Y019906D01*
X003735Y020191D01*
X004020Y020475D01*
X004020Y020906D01*
X003735Y021191D01*
X004020Y021475D01*
X004020Y021906D01*
X003735Y022191D01*
X004020Y022475D01*
X004020Y022906D01*
X003715Y023211D01*
X003285Y023211D01*
X002980Y022906D01*
X002980Y022475D01*
X003265Y022191D01*
X002980Y021906D01*
X002980Y021475D01*
X003265Y021191D01*
X002980Y020906D01*
X002980Y020475D01*
X003265Y020191D01*
X002980Y019906D01*
X002980Y019834D01*
X002904Y019911D01*
X002228Y019911D01*
X002207Y019962D01*
X002072Y020097D01*
X001895Y020171D01*
X001105Y020171D01*
X000928Y020097D01*
X000793Y019962D01*
X000780Y019931D01*
X000780Y020458D01*
X000789Y020439D01*
X000834Y020378D01*
X000887Y020324D01*
X000948Y020280D01*
X001016Y020246D01*
X001088Y020222D01*
X001162Y020211D01*
X001480Y020211D01*
X001480Y020671D01*
X001520Y020671D01*
X001520Y020711D01*
X001480Y020711D01*
X001480Y021171D01*
X001162Y021171D01*
X001088Y021159D01*
X001016Y021135D01*
X000948Y021101D01*
X000887Y021057D01*
X000834Y021003D01*
X000789Y020942D01*
X000780Y020924D01*
X000780Y021450D01*
X000793Y021419D01*
X000928Y021284D01*
X001105Y021211D01*
X001895Y021211D01*
X002072Y021284D01*
X002207Y021419D01*
X002280Y021595D01*
X002280Y021786D01*
X002207Y021962D01*
X002072Y022097D01*
X001895Y022171D01*
X001105Y022171D01*
X000928Y022097D01*
X000793Y021962D01*
X000780Y021931D01*
X000780Y023430D01*
X001018Y023192D01*
X001337Y023008D01*
X001694Y022912D01*
X002062Y022912D01*
X002419Y023008D01*
X002738Y023192D01*
X002999Y023453D01*
X003183Y023772D01*
X003278Y024128D01*
X003278Y024497D01*
X003183Y024853D01*
X002999Y025173D01*
X002761Y025411D01*
X004860Y025411D01*
X004739Y025361D01*
X004610Y025231D01*
X004540Y025062D01*
X004540Y024319D01*
X004610Y024150D01*
X004620Y024140D01*
X004620Y020177D01*
X004678Y020038D01*
X006045Y018671D01*
X005981Y018735D02*
X004767Y018735D01*
X005293Y018577D02*
X005707Y018577D01*
X005575Y018418D02*
X005451Y018418D01*
X005480Y018260D02*
X005520Y018260D01*
X005520Y018101D02*
X005480Y018101D01*
X005431Y017943D02*
X005583Y017943D01*
X005598Y017467D02*
X005402Y017467D01*
X005480Y017309D02*
X005520Y017309D01*
X005520Y017150D02*
X005480Y017150D01*
X005480Y016992D02*
X005520Y016992D01*
X005679Y016833D02*
X005321Y016833D01*
X004679Y016833D02*
X004321Y016833D01*
X004199Y016711D02*
X004020Y016711D01*
X004020Y017171D01*
X004480Y017171D01*
X004480Y016992D01*
X004199Y016711D01*
X004020Y016833D02*
X003980Y016833D01*
X003980Y016992D02*
X004020Y016992D01*
X004020Y017150D02*
X003980Y017150D01*
X004402Y017467D02*
X004412Y017467D01*
X004480Y017309D02*
X004520Y017309D01*
X004520Y017150D02*
X004480Y017150D01*
X004480Y016992D02*
X004520Y016992D01*
X003679Y016833D02*
X000780Y016833D01*
X000780Y016992D02*
X003520Y016992D01*
X003520Y017150D02*
X000780Y017150D01*
X000780Y017309D02*
X000903Y017309D01*
X000785Y017943D02*
X000780Y017943D01*
X000780Y018101D02*
X000937Y018101D01*
X000986Y018260D02*
X000780Y018260D01*
X000780Y018418D02*
X000794Y018418D01*
X002014Y018260D02*
X002995Y018260D01*
X002836Y018418D02*
X002206Y018418D01*
X002063Y018101D02*
X003153Y018101D01*
X003312Y017943D02*
X002215Y017943D01*
X002280Y017784D02*
X003470Y017784D01*
X003629Y017626D02*
X002280Y017626D01*
X002227Y017467D02*
X003598Y017467D01*
X003520Y017309D02*
X002097Y017309D01*
X003762Y019052D02*
X005664Y019052D01*
X005822Y018894D02*
X003921Y018894D01*
X003755Y019211D02*
X005505Y019211D01*
X005347Y019369D02*
X003914Y019369D01*
X004020Y019528D02*
X005188Y019528D01*
X005030Y019686D02*
X004020Y019686D01*
X004020Y019691D02*
X003500Y019691D01*
X004020Y019691D01*
X004020Y019845D02*
X004871Y019845D01*
X004713Y020003D02*
X003923Y020003D01*
X003764Y020162D02*
X004627Y020162D01*
X004620Y020320D02*
X003865Y020320D01*
X004020Y020479D02*
X004620Y020479D01*
X004620Y020637D02*
X004020Y020637D01*
X004020Y020796D02*
X004620Y020796D01*
X004620Y020954D02*
X003972Y020954D01*
X003813Y021113D02*
X004620Y021113D01*
X004620Y021271D02*
X003816Y021271D01*
X003974Y021430D02*
X004620Y021430D01*
X004620Y021588D02*
X004020Y021588D01*
X004020Y021747D02*
X004620Y021747D01*
X004620Y021905D02*
X004020Y021905D01*
X003862Y022064D02*
X004620Y022064D01*
X004620Y022222D02*
X003767Y022222D01*
X003925Y022381D02*
X004620Y022381D01*
X004620Y022539D02*
X004020Y022539D01*
X004020Y022698D02*
X004620Y022698D01*
X004620Y022856D02*
X004020Y022856D01*
X003911Y023015D02*
X004620Y023015D01*
X004620Y023173D02*
X003753Y023173D01*
X003247Y023173D02*
X002705Y023173D01*
X002878Y023332D02*
X004620Y023332D01*
X004620Y023490D02*
X003020Y023490D01*
X003112Y023649D02*
X004620Y023649D01*
X004620Y023807D02*
X003192Y023807D01*
X003235Y023966D02*
X004620Y023966D01*
X004620Y024124D02*
X003277Y024124D01*
X003278Y024283D02*
X004555Y024283D01*
X004540Y024441D02*
X003278Y024441D01*
X003251Y024600D02*
X004540Y024600D01*
X004540Y024758D02*
X003208Y024758D01*
X003146Y024917D02*
X004540Y024917D01*
X004545Y025075D02*
X003055Y025075D01*
X002938Y025234D02*
X004613Y025234D01*
X004816Y025392D02*
X002779Y025392D01*
X000878Y023332D02*
X000780Y023332D01*
X000780Y023173D02*
X001051Y023173D01*
X000780Y023015D02*
X001325Y023015D01*
X000780Y022856D02*
X002980Y022856D01*
X002980Y022698D02*
X000780Y022698D01*
X000780Y022539D02*
X002980Y022539D01*
X003075Y022381D02*
X000780Y022381D01*
X000780Y022222D02*
X003233Y022222D01*
X003138Y022064D02*
X002106Y022064D01*
X002231Y021905D02*
X002980Y021905D01*
X002980Y021747D02*
X002280Y021747D01*
X002277Y021588D02*
X002980Y021588D01*
X003026Y021430D02*
X002211Y021430D01*
X002042Y021271D02*
X003184Y021271D01*
X003187Y021113D02*
X002029Y021113D01*
X002052Y021101D02*
X001984Y021135D01*
X001912Y021159D01*
X001838Y021171D01*
X001520Y021171D01*
X001520Y020711D01*
X002280Y020711D01*
X002280Y020728D01*
X002268Y020803D01*
X002245Y020875D01*
X002211Y020942D01*
X002166Y021003D01*
X002113Y021057D01*
X002052Y021101D01*
X002202Y020954D02*
X003028Y020954D01*
X002980Y020796D02*
X002269Y020796D01*
X002280Y020671D02*
X001520Y020671D01*
X001520Y020211D01*
X001838Y020211D01*
X001912Y020222D01*
X001984Y020246D01*
X002052Y020280D01*
X002113Y020324D01*
X002166Y020378D01*
X002211Y020439D01*
X002245Y020506D01*
X002268Y020578D01*
X002280Y020653D01*
X002280Y020671D01*
X002278Y020637D02*
X002980Y020637D01*
X002980Y020479D02*
X002231Y020479D01*
X002107Y020320D02*
X003135Y020320D01*
X003236Y020162D02*
X001917Y020162D01*
X002166Y020003D02*
X003077Y020003D01*
X002980Y019845D02*
X002970Y019845D01*
X003500Y019691D02*
X003500Y019691D01*
X005380Y020479D02*
X005980Y020479D01*
X005980Y020637D02*
X005380Y020637D01*
X005380Y020796D02*
X005980Y020796D01*
X006028Y020954D02*
X005380Y020954D01*
X005380Y021113D02*
X006187Y021113D01*
X006184Y021271D02*
X005380Y021271D01*
X005380Y021430D02*
X006026Y021430D01*
X005980Y021588D02*
X005380Y021588D01*
X005380Y021747D02*
X005980Y021747D01*
X005980Y021905D02*
X005380Y021905D01*
X005380Y022064D02*
X006138Y022064D01*
X006233Y022222D02*
X005380Y022222D01*
X005380Y022381D02*
X006075Y022381D01*
X005980Y022539D02*
X005380Y022539D01*
X005380Y022698D02*
X005980Y022698D01*
X005980Y022856D02*
X005380Y022856D01*
X005380Y023015D02*
X006089Y023015D01*
X006247Y023173D02*
X005380Y023173D01*
X005380Y023332D02*
X008371Y023332D01*
X008372Y023173D02*
X006753Y023173D01*
X006911Y023015D02*
X007002Y023015D01*
X007598Y023015D02*
X008451Y023015D01*
X008535Y022931D02*
X008535Y022931D01*
X008610Y022856D02*
X007740Y022856D01*
X007740Y022698D02*
X008768Y022698D01*
X008927Y022539D02*
X007740Y022539D01*
X007612Y022381D02*
X009085Y022381D01*
X009244Y022222D02*
X006767Y022222D01*
X006862Y022064D02*
X007051Y022064D01*
X007300Y022064D02*
X007300Y022064D01*
X007300Y022131D02*
X007300Y021691D01*
X007300Y021691D01*
X007300Y022131D01*
X007300Y021905D02*
X007300Y021905D01*
X007300Y021747D02*
X007300Y021747D01*
X007300Y021691D02*
X007740Y021691D01*
X007300Y021691D01*
X007300Y021691D01*
X007740Y021747D02*
X009719Y021747D01*
X009561Y021905D02*
X007708Y021905D01*
X007549Y022064D02*
X009402Y022064D01*
X009878Y021588D02*
X007740Y021588D01*
X006988Y022381D02*
X006925Y022381D01*
X006990Y024124D02*
X007010Y024124D01*
X007010Y024283D02*
X006990Y024283D01*
X006990Y024441D02*
X007010Y024441D01*
X007010Y024600D02*
X006990Y024600D01*
X005872Y023966D02*
X005380Y023966D01*
X005380Y024124D02*
X005636Y024124D01*
X005555Y024283D02*
X005445Y024283D01*
X005460Y024441D02*
X005540Y024441D01*
X005540Y024600D02*
X005460Y024600D01*
X005460Y024758D02*
X005540Y024758D01*
X005540Y024917D02*
X005460Y024917D01*
X005455Y025075D02*
X005545Y025075D01*
X005613Y025234D02*
X005387Y025234D01*
X005184Y025392D02*
X005816Y025392D01*
X005380Y023807D02*
X008561Y023807D01*
X008450Y023490D02*
X005380Y023490D01*
X005380Y023649D02*
X008821Y023649D01*
X009050Y023490D02*
X009663Y023490D01*
X009822Y023332D02*
X009209Y023332D01*
X009367Y023173D02*
X009991Y023173D01*
X009505Y023649D02*
X009179Y023649D01*
X006135Y020320D02*
X005470Y020320D01*
X005629Y020162D02*
X006236Y020162D01*
X006077Y020003D02*
X005787Y020003D01*
X005946Y019845D02*
X005980Y019845D01*
X003089Y023015D02*
X002431Y023015D01*
X000958Y021271D02*
X000780Y021271D01*
X000780Y021113D02*
X000971Y021113D01*
X000798Y020954D02*
X000780Y020954D01*
X000780Y021430D02*
X000789Y021430D01*
X000780Y022064D02*
X000894Y022064D01*
X001480Y021113D02*
X001520Y021113D01*
X001520Y020954D02*
X001480Y020954D01*
X001480Y020796D02*
X001520Y020796D01*
X001520Y020637D02*
X001480Y020637D01*
X001480Y020479D02*
X001520Y020479D01*
X001520Y020320D02*
X001480Y020320D01*
X001083Y020162D02*
X000780Y020162D01*
X000780Y020320D02*
X000893Y020320D01*
X000834Y020003D02*
X000780Y020003D01*
X001699Y014614D02*
X002301Y014614D01*
X002318Y014631D02*
X002060Y014373D01*
X002060Y014191D01*
X002500Y014191D01*
X002500Y014631D01*
X002682Y014631D01*
X002940Y014373D01*
X002940Y014191D01*
X002500Y014191D01*
X002500Y014191D01*
X002500Y014631D01*
X002318Y014631D01*
X002500Y014614D02*
X002500Y014614D01*
X002500Y014456D02*
X002500Y014456D01*
X002500Y014297D02*
X002500Y014297D01*
X002500Y014191D02*
X002500Y014191D01*
X002500Y014191D01*
X002940Y014191D01*
X002940Y014008D01*
X002682Y013751D01*
X002500Y013751D01*
X002500Y014191D01*
X002060Y014191D01*
X002060Y014008D01*
X002318Y013751D01*
X002500Y013751D01*
X002500Y014191D01*
X002500Y014191D01*
X002500Y014139D02*
X002500Y014139D01*
X002500Y013980D02*
X002500Y013980D01*
X002500Y013822D02*
X002500Y013822D01*
X002753Y013822D02*
X003747Y013822D01*
X003588Y013980D02*
X002912Y013980D01*
X002940Y014139D02*
X003560Y014139D01*
X003560Y014297D02*
X002940Y014297D01*
X002857Y014456D02*
X003643Y014456D01*
X003801Y014614D02*
X002699Y014614D01*
X002143Y014456D02*
X001857Y014456D01*
X001940Y014297D02*
X002060Y014297D01*
X002060Y014139D02*
X001940Y014139D01*
X001912Y013980D02*
X002088Y013980D01*
X002247Y013822D02*
X001753Y013822D01*
X002869Y011444D02*
X005020Y011444D01*
X005020Y011286D02*
X002940Y011286D01*
X002940Y011127D02*
X005020Y011127D01*
X005020Y010969D02*
X002900Y010969D01*
X000780Y008750D02*
X013683Y008750D01*
X013278Y008591D02*
X008722Y008591D01*
X008880Y008433D02*
X013120Y008433D01*
X013060Y008274D02*
X008940Y008274D01*
X008940Y008116D02*
X013060Y008116D01*
X013111Y007957D02*
X008889Y007957D01*
X009024Y007799D02*
X009480Y007799D01*
X009463Y007786D02*
X009414Y007737D01*
X009374Y007681D01*
X009342Y007619D01*
X009321Y007554D01*
X009310Y007485D01*
X009310Y007191D01*
X009750Y007191D01*
X009750Y007891D01*
X009715Y007891D01*
X009647Y007880D01*
X009581Y007858D01*
X009519Y007827D01*
X009463Y007786D01*
X009353Y007640D02*
X009148Y007640D01*
X009190Y007482D02*
X009310Y007482D01*
X009310Y007323D02*
X009190Y007323D01*
X009190Y007165D02*
X009310Y007165D01*
X009310Y007191D02*
X009310Y006896D01*
X009321Y006828D01*
X009342Y006762D01*
X009374Y006700D01*
X009414Y006644D01*
X009463Y006595D01*
X009519Y006554D01*
X009581Y006523D01*
X009647Y006501D01*
X009715Y006491D01*
X009750Y006491D01*
X009785Y006491D01*
X009853Y006501D01*
X009919Y006523D01*
X009981Y006554D01*
X010037Y006595D01*
X010086Y006644D01*
X010126Y006700D01*
X010158Y006762D01*
X010179Y006828D01*
X010190Y006896D01*
X010190Y007191D01*
X010190Y007485D01*
X010179Y007554D01*
X010158Y007619D01*
X010126Y007681D01*
X010086Y007737D01*
X010037Y007786D01*
X009981Y007827D01*
X009919Y007858D01*
X009853Y007880D01*
X009785Y007891D01*
X009750Y007891D01*
X009750Y007191D01*
X009750Y007191D01*
X009750Y007191D01*
X010190Y007191D01*
X009750Y007191D01*
X009750Y007191D01*
X009310Y007191D01*
X009310Y007006D02*
X009190Y007006D01*
X009190Y006848D02*
X009318Y006848D01*
X009382Y006689D02*
X009126Y006689D01*
X008934Y006531D02*
X009566Y006531D01*
X009750Y006531D02*
X009750Y006531D01*
X009750Y006491D02*
X009750Y007191D01*
X009750Y007191D01*
X009750Y006491D01*
X009934Y006531D02*
X010566Y006531D01*
X010501Y006558D02*
X010662Y006491D01*
X010838Y006491D01*
X010999Y006558D01*
X011123Y006681D01*
X011190Y006843D01*
X011190Y007538D01*
X011123Y007700D01*
X010999Y007824D01*
X010838Y007891D01*
X010662Y007891D01*
X010501Y007824D01*
X010377Y007700D01*
X010310Y007538D01*
X010310Y006843D01*
X010377Y006681D01*
X010501Y006558D01*
X010374Y006689D02*
X010118Y006689D01*
X010182Y006848D02*
X010310Y006848D01*
X010310Y007006D02*
X010190Y007006D01*
X010190Y007165D02*
X010310Y007165D01*
X010310Y007323D02*
X010190Y007323D01*
X010190Y007482D02*
X010310Y007482D01*
X010352Y007640D02*
X010147Y007640D01*
X010020Y007799D02*
X010476Y007799D01*
X011024Y007799D02*
X013270Y007799D01*
X013308Y007640D02*
X011148Y007640D01*
X011190Y007482D02*
X013308Y007482D01*
X013308Y007323D02*
X011190Y007323D01*
X011190Y007165D02*
X013294Y007165D01*
X013190Y007006D02*
X011190Y007006D01*
X011190Y006848D02*
X013190Y006848D01*
X013190Y006689D02*
X011126Y006689D01*
X010934Y006531D02*
X013190Y006531D01*
X013190Y006372D02*
X007880Y006372D01*
X007880Y006214D02*
X013245Y006214D01*
X013190Y006055D02*
X007880Y006055D01*
X007880Y005897D02*
X013190Y005897D01*
X013190Y005738D02*
X007880Y005738D01*
X007880Y005580D02*
X013190Y005580D01*
X013190Y005421D02*
X007880Y005421D01*
X007880Y005263D02*
X013248Y005263D01*
X014005Y006214D02*
X017356Y006214D01*
X017248Y006055D02*
X016798Y006055D01*
X016774Y006096D01*
X016740Y006130D01*
X016699Y006154D01*
X016654Y006166D01*
X016422Y006166D01*
X016422Y005739D01*
X016810Y005739D01*
X016810Y006010D01*
X016798Y006055D01*
X016810Y005897D02*
X017182Y005897D01*
X017179Y005738D02*
X016422Y005738D01*
X016422Y005643D02*
X016810Y005643D01*
X016810Y005372D01*
X016798Y005326D01*
X016774Y005285D01*
X016740Y005251D01*
X016699Y005228D01*
X016654Y005215D01*
X016422Y005215D01*
X016422Y005643D01*
X016422Y005580D02*
X016326Y005580D01*
X016326Y005421D02*
X016422Y005421D01*
X016422Y005263D02*
X016326Y005263D01*
X016752Y005263D02*
X017512Y005263D01*
X017361Y005421D02*
X016810Y005421D01*
X016810Y005580D02*
X017231Y005580D01*
X017277Y005104D02*
X007880Y005104D01*
X007880Y004946D02*
X017196Y004946D01*
X017179Y004787D02*
X007880Y004787D01*
X007880Y004629D02*
X017217Y004629D01*
X017328Y004470D02*
X015352Y004470D01*
X015020Y004470D02*
X014980Y004470D01*
X014980Y004312D02*
X015020Y004312D01*
X015020Y004153D02*
X014980Y004153D01*
X014980Y003995D02*
X015020Y003995D01*
X015020Y003836D02*
X014980Y003836D01*
X014980Y003678D02*
X013680Y003678D01*
X013680Y003555D02*
X013680Y003826D01*
X013576Y004076D01*
X013385Y004267D01*
X013135Y004371D01*
X012865Y004371D01*
X012615Y004267D01*
X012585Y004237D01*
X012453Y004369D01*
X012159Y004491D01*
X011841Y004491D01*
X011547Y004369D01*
X011322Y004144D01*
X011200Y003850D01*
X011200Y003531D01*
X011322Y003237D01*
X011547Y003012D01*
X011841Y002891D01*
X012159Y002891D01*
X012453Y003012D01*
X012585Y003144D01*
X012615Y003114D01*
X012865Y003011D01*
X013135Y003011D01*
X013385Y003114D01*
X013576Y003305D01*
X013680Y003555D01*
X013665Y003519D02*
X014200Y003519D01*
X014200Y003361D02*
X013599Y003361D01*
X013473Y003202D02*
X014357Y003202D01*
X014516Y003044D02*
X013215Y003044D01*
X012785Y003044D02*
X012484Y003044D01*
X011516Y003044D02*
X007984Y003044D01*
X008143Y003202D02*
X011357Y003202D01*
X011271Y003361D02*
X008300Y003361D01*
X008300Y003519D02*
X011205Y003519D01*
X011200Y003678D02*
X008300Y003678D01*
X008300Y003836D02*
X011200Y003836D01*
X011260Y003995D02*
X008300Y003995D01*
X008169Y004153D02*
X011331Y004153D01*
X011490Y004312D02*
X008010Y004312D01*
X007880Y004470D02*
X011791Y004470D01*
X012209Y004470D02*
X014648Y004470D01*
X014490Y004312D02*
X013278Y004312D01*
X013499Y004153D02*
X014331Y004153D01*
X014200Y003995D02*
X013610Y003995D01*
X013676Y003836D02*
X014200Y003836D01*
X015020Y003678D02*
X018920Y003678D01*
X018920Y003519D02*
X019080Y003519D01*
X019080Y003361D02*
X018920Y003361D01*
X018920Y003202D02*
X019080Y003202D01*
X019080Y003044D02*
X018920Y003044D01*
X018920Y002885D02*
X019080Y002885D01*
X019769Y001300D02*
X015452Y001300D01*
X015583Y001142D02*
X019810Y001142D01*
X019852Y000983D02*
X015652Y000983D01*
X015680Y000825D02*
X019929Y000825D01*
X020021Y000666D02*
X015669Y000666D01*
X015619Y000508D02*
X020159Y000508D01*
X016422Y005897D02*
X016326Y005897D01*
X016326Y006055D02*
X016422Y006055D01*
X016422Y006215D02*
X016654Y006215D01*
X016699Y006228D01*
X016740Y006251D01*
X016774Y006285D01*
X016798Y006326D01*
X016810Y006372D01*
X017228Y006372D01*
X017179Y006531D02*
X016810Y006531D01*
X016810Y006643D02*
X016810Y006372D01*
X016810Y006643D02*
X016422Y006643D01*
X016422Y006215D01*
X016422Y006372D02*
X016326Y006372D01*
X016326Y006531D02*
X016422Y006531D01*
X016422Y006689D02*
X017184Y006689D01*
X017250Y006848D02*
X016810Y006848D01*
X016810Y006739D02*
X016810Y007010D01*
X016798Y007055D01*
X016774Y007096D01*
X016740Y007130D01*
X016699Y007154D01*
X016654Y007166D01*
X016422Y007166D01*
X016422Y006739D01*
X016810Y006739D01*
X016810Y007006D02*
X017444Y007006D01*
X017410Y007165D02*
X016658Y007165D01*
X016506Y007323D02*
X017247Y007323D01*
X017187Y007482D02*
X016665Y007482D01*
X016422Y007165D02*
X016348Y007165D01*
X016326Y007006D02*
X016422Y007006D01*
X016422Y006848D02*
X016326Y006848D01*
X017301Y007555D02*
X017328Y007582D01*
X017920Y007582D01*
X017920Y007555D01*
X017301Y007555D01*
X017239Y008116D02*
X016940Y008116D01*
X017920Y007482D02*
X017947Y007482D01*
X017947Y007323D02*
X017920Y007323D01*
X017920Y007165D02*
X017947Y007165D01*
X018422Y007006D02*
X018468Y007006D01*
X018456Y007165D02*
X018468Y007165D01*
X016071Y009384D02*
X016032Y009384D01*
X013229Y009542D02*
X012771Y009542D01*
X012682Y009631D02*
X012940Y009373D01*
X012940Y009191D01*
X012500Y009191D01*
X012500Y009631D01*
X012682Y009631D01*
X012500Y009631D02*
X012500Y009191D01*
X012500Y009191D01*
X012500Y009191D01*
X012500Y009191D01*
X012060Y009191D01*
X012060Y009373D01*
X012318Y009631D01*
X012500Y009631D01*
X012500Y009542D02*
X012500Y009542D01*
X012500Y009384D02*
X012500Y009384D01*
X012500Y009225D02*
X012500Y009225D01*
X012500Y009191D02*
X012940Y009191D01*
X012940Y009008D01*
X012682Y008751D01*
X012500Y008751D01*
X012500Y009191D01*
X012060Y009191D01*
X012060Y009008D01*
X012318Y008751D01*
X012500Y008751D01*
X012500Y009191D01*
X012500Y009191D01*
X012500Y009067D02*
X012500Y009067D01*
X012500Y008908D02*
X012500Y008908D01*
X012160Y008908D02*
X009840Y008908D01*
X009940Y009008D02*
X009682Y008751D01*
X009318Y008751D01*
X009060Y009008D01*
X009060Y009373D01*
X009318Y009631D01*
X009682Y009631D01*
X009940Y009373D01*
X009940Y009008D01*
X009940Y009067D02*
X012060Y009067D01*
X012060Y009225D02*
X009940Y009225D01*
X009929Y009384D02*
X012071Y009384D01*
X012229Y009542D02*
X009771Y009542D01*
X009555Y010018D02*
X009345Y010018D01*
X009435Y010176D02*
X009465Y010176D01*
X009229Y009542D02*
X008771Y009542D01*
X008929Y009384D02*
X009071Y009384D01*
X009060Y009225D02*
X008940Y009225D01*
X008940Y009067D02*
X009060Y009067D01*
X009160Y008908D02*
X008840Y008908D01*
X008120Y008433D02*
X005880Y008433D01*
X005940Y008274D02*
X008060Y008274D01*
X008060Y008116D02*
X005940Y008116D01*
X005889Y007957D02*
X008111Y007957D01*
X008270Y007799D02*
X005730Y007799D01*
X005775Y007640D02*
X008352Y007640D01*
X008374Y006689D02*
X007880Y006689D01*
X007880Y006531D02*
X008566Y006531D01*
X009750Y006689D02*
X009750Y006689D01*
X009750Y006848D02*
X009750Y006848D01*
X009750Y007006D02*
X009750Y007006D01*
X009750Y007165D02*
X009750Y007165D01*
X009750Y007323D02*
X009750Y007323D01*
X009750Y007482D02*
X009750Y007482D01*
X009750Y007640D02*
X009750Y007640D01*
X009750Y007799D02*
X009750Y007799D01*
X008655Y010018D02*
X008445Y010018D01*
X008535Y010176D02*
X008565Y010176D01*
X008550Y010969D02*
X008550Y010969D01*
X008482Y011127D02*
X008618Y011127D01*
X008825Y011286D02*
X008275Y011286D01*
X007538Y012078D02*
X005980Y012078D01*
X005980Y011920D02*
X007379Y011920D01*
X007221Y011761D02*
X005925Y011761D01*
X005869Y011658D02*
X005824Y011671D01*
X005520Y011671D01*
X005520Y011211D01*
X005480Y011211D01*
X005480Y011171D01*
X005520Y011171D01*
X005520Y011211D01*
X005980Y011211D01*
X005980Y011514D01*
X005968Y011560D01*
X005944Y011601D01*
X005911Y011635D01*
X005869Y011658D01*
X005943Y011603D02*
X007062Y011603D01*
X006904Y011444D02*
X005980Y011444D01*
X005980Y011286D02*
X006745Y011286D01*
X006587Y011127D02*
X005980Y011127D01*
X005980Y011171D02*
X005520Y011171D01*
X005520Y010711D01*
X005824Y010711D01*
X005869Y010723D01*
X005911Y010747D01*
X005944Y010780D01*
X005968Y010821D01*
X005980Y010867D01*
X005980Y011171D01*
X005980Y010969D02*
X006428Y010969D01*
X006270Y010810D02*
X005961Y010810D01*
X005881Y010652D02*
X006111Y010652D01*
X005520Y010652D02*
X005480Y010652D01*
X005480Y010810D02*
X005520Y010810D01*
X005520Y010969D02*
X005480Y010969D01*
X005480Y011127D02*
X005520Y011127D01*
X005520Y011286D02*
X005480Y011286D01*
X005480Y011444D02*
X005520Y011444D01*
X005520Y011603D02*
X005480Y011603D01*
X005980Y012237D02*
X007696Y012237D01*
X007855Y012395D02*
X005980Y012395D01*
X005980Y012554D02*
X008013Y012554D01*
X008120Y012712D02*
X005876Y012712D01*
X005980Y012871D02*
X006698Y012871D01*
X006560Y013029D02*
X005980Y013029D01*
X005980Y013188D02*
X006560Y013188D01*
X006560Y013346D02*
X005980Y013346D01*
X006039Y013505D02*
X006692Y013505D01*
X006747Y013822D02*
X006356Y013822D01*
X006514Y013980D02*
X006588Y013980D01*
X007440Y013346D02*
X008120Y013346D01*
X008120Y013188D02*
X007440Y013188D01*
X007440Y013029D02*
X008120Y013029D01*
X008120Y012871D02*
X007302Y012871D01*
X005520Y010493D02*
X005480Y010493D01*
X005480Y010335D02*
X005520Y010335D01*
X004644Y013822D02*
X004253Y013822D01*
X004412Y013980D02*
X004486Y013980D01*
X002560Y006689D02*
X002536Y006689D01*
X002560Y006531D02*
X002440Y006531D01*
X002440Y006372D02*
X002560Y006372D01*
X002614Y006214D02*
X002386Y006214D01*
X002243Y006055D02*
X002757Y006055D01*
X004047Y004369D02*
X003822Y004144D01*
X003700Y003850D01*
X003700Y003531D01*
X003822Y003237D01*
X004047Y003012D01*
X004341Y002891D01*
X004659Y002891D01*
X004953Y003012D01*
X005085Y003144D01*
X005115Y003114D01*
X005365Y003011D01*
X005635Y003011D01*
X005885Y003114D01*
X006076Y003305D01*
X006180Y003555D01*
X006180Y003826D01*
X006076Y004076D01*
X005885Y004267D01*
X005635Y004371D01*
X005365Y004371D01*
X005115Y004267D01*
X005085Y004237D01*
X004953Y004369D01*
X004659Y004491D01*
X004341Y004491D01*
X004047Y004369D01*
X003990Y004312D02*
X000780Y004312D01*
X000780Y004470D02*
X004291Y004470D01*
X004709Y004470D02*
X007120Y004470D01*
X007120Y004629D02*
X000780Y004629D01*
X000780Y004787D02*
X007120Y004787D01*
X007120Y004946D02*
X000780Y004946D01*
X000780Y005104D02*
X007120Y005104D01*
X007120Y005263D02*
X000780Y005263D01*
X000780Y005421D02*
X007120Y005421D01*
X007120Y005580D02*
X000780Y005580D01*
X000780Y005738D02*
X007120Y005738D01*
X006990Y004312D02*
X005778Y004312D01*
X005999Y004153D02*
X006831Y004153D01*
X006700Y003995D02*
X006110Y003995D01*
X006176Y003836D02*
X006700Y003836D01*
X006700Y003678D02*
X006180Y003678D01*
X006165Y003519D02*
X006700Y003519D01*
X006700Y003361D02*
X006099Y003361D01*
X005973Y003202D02*
X006857Y003202D01*
X007016Y003044D02*
X005715Y003044D01*
X005285Y003044D02*
X004984Y003044D01*
X004016Y003044D02*
X000780Y003044D01*
X000780Y003202D02*
X003857Y003202D01*
X003771Y003361D02*
X000780Y003361D01*
X000780Y003519D02*
X003705Y003519D01*
X003700Y003678D02*
X000780Y003678D01*
X000780Y003836D02*
X003700Y003836D01*
X003760Y003995D02*
X000780Y003995D01*
X000780Y004153D02*
X003831Y004153D01*
X005010Y004312D02*
X005222Y004312D01*
X005952Y001300D02*
X007048Y001300D01*
X006909Y001142D02*
X006091Y001142D01*
X006156Y000983D02*
X006844Y000983D01*
X006820Y000825D02*
X006180Y000825D01*
X006180Y000666D02*
X006820Y000666D01*
X006881Y000508D02*
X006119Y000508D01*
X000987Y002568D02*
X000780Y002568D01*
X000780Y002410D02*
X000829Y002410D01*
X012452Y001300D02*
X012548Y001300D01*
X013452Y001300D02*
X014548Y001300D01*
X014417Y001142D02*
X013591Y001142D01*
X013656Y000983D02*
X014348Y000983D01*
X014320Y000825D02*
X013680Y000825D01*
X013680Y000666D02*
X014331Y000666D01*
X014381Y000508D02*
X013619Y000508D01*
X014980Y000825D02*
X015020Y000825D01*
X015020Y000983D02*
X014980Y000983D01*
X014980Y001142D02*
X015020Y001142D01*
X015020Y001300D02*
X014980Y001300D01*
X014980Y003044D02*
X015020Y003044D01*
X015020Y003202D02*
X014980Y003202D01*
X014980Y003361D02*
X015020Y003361D01*
X015020Y003519D02*
X014980Y003519D01*
X014752Y005263D02*
X015248Y005263D01*
X012722Y004312D02*
X012510Y004312D01*
X012840Y008908D02*
X013160Y008908D01*
X013060Y009067D02*
X012940Y009067D01*
X012940Y009225D02*
X013060Y009225D01*
X013071Y009384D02*
X012929Y009384D01*
D37*
X014374Y006691D02*
X015626Y006691D01*
X015688Y006691D01*
X015688Y006816D01*
X016625Y007753D01*
X017188Y007753D01*
X017438Y008003D01*
X018438Y008003D01*
X018688Y007753D01*
X018688Y006441D01*
X018063Y005816D01*
X017938Y005816D01*
X017933Y005797D01*
X015626Y005691D02*
X015063Y005691D01*
X014374Y005691D01*
X017188Y012691D02*
X015000Y014878D01*
X015000Y015816D01*
X013375Y017441D01*
X007375Y017441D01*
X006625Y018191D01*
X006125Y017691D01*
X004500Y017691D01*
X005000Y017191D01*
X004500Y017691D02*
X003875Y017691D01*
X002875Y018691D01*
X001500Y018691D01*
X001500Y019691D02*
X002813Y019691D01*
X003875Y018628D01*
X004563Y018628D01*
X005000Y018191D01*
X006938Y021253D02*
X006500Y021691D01*
X006938Y021253D02*
X010250Y021253D01*
X013313Y018191D01*
X017438Y018191D01*
X017500Y022070D02*
X017500Y022128D01*
X017313Y022316D01*
X015813Y022316D01*
X015800Y023551D02*
X015813Y023566D01*
X015813Y025191D01*
X015800Y025196D01*
X018625Y024316D02*
X019625Y024316D01*
X020669Y021395D02*
X020688Y021378D01*
X020688Y021066D01*
X021188Y020566D01*
X021188Y013191D01*
X020875Y012878D01*
X018000Y012878D01*
X017813Y012691D01*
X017188Y012691D01*
X008100Y010591D02*
X008063Y010566D01*
X007688Y010191D01*
X007000Y010191D01*
M02*
