G75*
%MOIN*%
%OFA0B0*%
%FSLAX24Y24*%
%IPPOS*%
%LPD*%
%AMOC8*
5,1,8,0,0,1.08239X$1,22.5*
%
%ADD10C,0.0000*%
%ADD11C,0.0236*%
D10*
X000500Y001281D02*
X000500Y024509D01*
X000502Y024575D01*
X000507Y024641D01*
X000517Y024707D01*
X000530Y024772D01*
X000546Y024836D01*
X000566Y024899D01*
X000590Y024961D01*
X000617Y025021D01*
X000647Y025080D01*
X000681Y025137D01*
X000718Y025192D01*
X000758Y025245D01*
X000800Y025296D01*
X000846Y025344D01*
X000894Y025390D01*
X000945Y025432D01*
X000998Y025472D01*
X001053Y025509D01*
X001110Y025543D01*
X001169Y025573D01*
X001229Y025600D01*
X001291Y025624D01*
X001354Y025644D01*
X001418Y025660D01*
X001483Y025673D01*
X001549Y025683D01*
X001615Y025688D01*
X001681Y025690D01*
X001681Y025691D02*
X021366Y025691D01*
X021366Y025690D02*
X021432Y025688D01*
X021498Y025683D01*
X021564Y025673D01*
X021629Y025660D01*
X021693Y025644D01*
X021756Y025624D01*
X021818Y025600D01*
X021878Y025573D01*
X021937Y025543D01*
X021994Y025509D01*
X022049Y025472D01*
X022102Y025432D01*
X022153Y025390D01*
X022201Y025344D01*
X022247Y025296D01*
X022289Y025245D01*
X022329Y025192D01*
X022366Y025137D01*
X022400Y025080D01*
X022430Y025021D01*
X022457Y024961D01*
X022481Y024899D01*
X022501Y024836D01*
X022517Y024772D01*
X022530Y024707D01*
X022540Y024641D01*
X022545Y024575D01*
X022547Y024509D01*
X022547Y001281D01*
X022545Y001215D01*
X022540Y001149D01*
X022530Y001083D01*
X022517Y001018D01*
X022501Y000954D01*
X022481Y000891D01*
X022457Y000829D01*
X022430Y000769D01*
X022400Y000710D01*
X022366Y000653D01*
X022329Y000598D01*
X022289Y000545D01*
X022247Y000494D01*
X022201Y000446D01*
X022153Y000400D01*
X022102Y000358D01*
X022049Y000318D01*
X021994Y000281D01*
X021937Y000247D01*
X021878Y000217D01*
X021818Y000190D01*
X021756Y000166D01*
X021693Y000146D01*
X021629Y000130D01*
X021564Y000117D01*
X021498Y000107D01*
X021432Y000102D01*
X021366Y000100D01*
X001681Y000100D01*
X001615Y000102D01*
X001549Y000107D01*
X001483Y000117D01*
X001418Y000130D01*
X001354Y000146D01*
X001291Y000166D01*
X001229Y000190D01*
X001169Y000217D01*
X001110Y000247D01*
X001053Y000281D01*
X000998Y000318D01*
X000945Y000358D01*
X000894Y000400D01*
X000846Y000446D01*
X000800Y000494D01*
X000758Y000545D01*
X000718Y000598D01*
X000681Y000653D01*
X000647Y000710D01*
X000617Y000769D01*
X000590Y000829D01*
X000566Y000891D01*
X000546Y000954D01*
X000530Y001018D01*
X000517Y001083D01*
X000507Y001149D01*
X000502Y001215D01*
X000500Y001281D01*
X016234Y023759D02*
X016236Y023781D01*
X016242Y023803D01*
X016251Y023823D01*
X016264Y023841D01*
X016280Y023857D01*
X016298Y023870D01*
X016318Y023879D01*
X016340Y023885D01*
X016362Y023887D01*
X016384Y023885D01*
X016406Y023879D01*
X016426Y023870D01*
X016444Y023857D01*
X016460Y023841D01*
X016473Y023823D01*
X016482Y023803D01*
X016488Y023781D01*
X016490Y023759D01*
X016488Y023737D01*
X016482Y023715D01*
X016473Y023695D01*
X016460Y023677D01*
X016444Y023661D01*
X016426Y023648D01*
X016406Y023639D01*
X016384Y023633D01*
X016362Y023631D01*
X016340Y023633D01*
X016318Y023639D01*
X016298Y023648D01*
X016280Y023661D01*
X016264Y023677D01*
X016251Y023695D01*
X016242Y023715D01*
X016236Y023737D01*
X016234Y023759D01*
X018510Y023759D02*
X018512Y023781D01*
X018518Y023803D01*
X018527Y023823D01*
X018540Y023841D01*
X018556Y023857D01*
X018574Y023870D01*
X018594Y023879D01*
X018616Y023885D01*
X018638Y023887D01*
X018660Y023885D01*
X018682Y023879D01*
X018702Y023870D01*
X018720Y023857D01*
X018736Y023841D01*
X018749Y023823D01*
X018758Y023803D01*
X018764Y023781D01*
X018766Y023759D01*
X018764Y023737D01*
X018758Y023715D01*
X018749Y023695D01*
X018736Y023677D01*
X018720Y023661D01*
X018702Y023648D01*
X018682Y023639D01*
X018660Y023633D01*
X018638Y023631D01*
X018616Y023633D01*
X018594Y023639D01*
X018574Y023648D01*
X018556Y023661D01*
X018540Y023677D01*
X018527Y023695D01*
X018518Y023715D01*
X018512Y023737D01*
X018510Y023759D01*
X020595Y024311D02*
X020597Y024358D01*
X020603Y024406D01*
X020613Y024452D01*
X020626Y024498D01*
X020643Y024542D01*
X020664Y024585D01*
X020689Y024625D01*
X020716Y024664D01*
X020747Y024700D01*
X020781Y024734D01*
X020817Y024765D01*
X020856Y024792D01*
X020896Y024817D01*
X020939Y024838D01*
X020983Y024855D01*
X021029Y024868D01*
X021075Y024878D01*
X021123Y024884D01*
X021170Y024886D01*
X021217Y024884D01*
X021265Y024878D01*
X021311Y024868D01*
X021357Y024855D01*
X021401Y024838D01*
X021444Y024817D01*
X021484Y024792D01*
X021523Y024765D01*
X021559Y024734D01*
X021593Y024700D01*
X021624Y024664D01*
X021651Y024625D01*
X021676Y024585D01*
X021697Y024542D01*
X021714Y024498D01*
X021727Y024452D01*
X021737Y024406D01*
X021743Y024358D01*
X021745Y024311D01*
X021743Y024264D01*
X021737Y024216D01*
X021727Y024170D01*
X021714Y024124D01*
X021697Y024080D01*
X021676Y024037D01*
X021651Y023997D01*
X021624Y023958D01*
X021593Y023922D01*
X021559Y023888D01*
X021523Y023857D01*
X021484Y023830D01*
X021444Y023805D01*
X021401Y023784D01*
X021357Y023767D01*
X021311Y023754D01*
X021265Y023744D01*
X021217Y023738D01*
X021170Y023736D01*
X021123Y023738D01*
X021075Y023744D01*
X021029Y023754D01*
X020983Y023767D01*
X020939Y023784D01*
X020896Y023805D01*
X020856Y023830D01*
X020817Y023857D01*
X020781Y023888D01*
X020747Y023922D01*
X020716Y023958D01*
X020689Y023997D01*
X020664Y024037D01*
X020643Y024080D01*
X020626Y024124D01*
X020613Y024170D01*
X020603Y024216D01*
X020597Y024264D01*
X020595Y024311D01*
D11*
X019200Y023767D02*
X019200Y023334D01*
X019200Y025072D02*
X019200Y025317D01*
X015800Y025317D02*
X015800Y025072D01*
X015800Y023767D02*
X015800Y023334D01*
M02*
