G75*
%MOIN*%
%OFA0B0*%
%FSLAX24Y24*%
%IPPOS*%
%LPD*%
%AMOC8*
5,1,8,0,0,1.08239X$1,22.5*
%
%ADD10C,0.0060*%
%ADD11C,0.0020*%
D10*
X019116Y002243D02*
X019757Y002243D01*
X019757Y002564D01*
X019650Y002670D01*
X019437Y002670D01*
X019330Y002564D01*
X019330Y002243D01*
X019330Y002026D02*
X019757Y002026D01*
X019330Y002026D02*
X019330Y001706D01*
X019437Y001599D01*
X019757Y001599D01*
X019650Y002888D02*
X019757Y002995D01*
X019757Y003315D01*
X019544Y003208D02*
X019544Y002995D01*
X019650Y002888D01*
X019330Y002888D02*
X019330Y003208D01*
X019437Y003315D01*
X019544Y003208D01*
X019650Y003533D02*
X019650Y003960D01*
X019650Y004177D02*
X019757Y004284D01*
X019757Y004497D01*
X019650Y004604D01*
X019330Y004604D01*
X019437Y004822D02*
X019544Y004928D01*
X019544Y005249D01*
X019650Y005249D02*
X019330Y005249D01*
X019330Y004928D01*
X019437Y004822D01*
X019757Y004928D02*
X019757Y005142D01*
X019650Y005249D01*
X019757Y005466D02*
X019757Y005680D01*
X019864Y005573D02*
X019437Y005573D01*
X019330Y005680D01*
X019330Y006540D02*
X019757Y006540D01*
X019544Y006540D02*
X019757Y006754D01*
X019757Y006861D01*
X019650Y007078D02*
X019757Y007184D01*
X019757Y007398D01*
X019650Y007505D01*
X019544Y007505D01*
X019544Y007078D01*
X019650Y007078D02*
X019437Y007078D01*
X019330Y007184D01*
X019330Y007398D01*
X019757Y007722D02*
X019330Y007936D01*
X019757Y008149D01*
X019864Y009011D02*
X019437Y009011D01*
X019864Y009438D01*
X019437Y009438D01*
X019330Y009331D01*
X019330Y009118D01*
X019437Y009011D01*
X019864Y009011D02*
X019971Y009118D01*
X019971Y009331D01*
X019864Y009438D01*
X019437Y009656D02*
X019437Y009763D01*
X019330Y009763D01*
X019330Y009656D01*
X019437Y009656D01*
X019437Y009978D02*
X019330Y010085D01*
X019330Y010298D01*
X019437Y010405D01*
X019544Y010405D01*
X019650Y010298D01*
X019650Y009978D01*
X019437Y009978D01*
X019650Y009978D02*
X019864Y010192D01*
X019971Y010405D01*
X019757Y011912D02*
X019437Y011912D01*
X019330Y012018D01*
X019437Y012125D01*
X019330Y012232D01*
X019437Y012339D01*
X019757Y012339D01*
X019757Y012556D02*
X019437Y012556D01*
X019330Y012663D01*
X019437Y012770D01*
X019330Y012876D01*
X019437Y012983D01*
X019757Y012983D01*
X019757Y013201D02*
X019437Y013201D01*
X019330Y013308D01*
X019437Y013414D01*
X019330Y013521D01*
X019437Y013628D01*
X019757Y013628D01*
X019437Y013845D02*
X019437Y013952D01*
X019330Y013952D01*
X019330Y013845D01*
X019437Y013845D01*
X019330Y014168D02*
X019330Y014488D01*
X019437Y014595D01*
X019544Y014488D01*
X019544Y014274D01*
X019650Y014168D01*
X019757Y014274D01*
X019757Y014595D01*
X019757Y014812D02*
X019757Y014919D01*
X019650Y015026D01*
X019757Y015132D01*
X019650Y015239D01*
X019330Y015239D01*
X019330Y015026D02*
X019650Y015026D01*
X019757Y014812D02*
X019330Y014812D01*
X019330Y015457D02*
X019330Y015777D01*
X019437Y015884D01*
X019650Y015884D01*
X019757Y015777D01*
X019757Y015457D01*
X019971Y015457D02*
X019330Y015457D01*
X019437Y016101D02*
X019544Y016208D01*
X019544Y016528D01*
X019650Y016528D02*
X019330Y016528D01*
X019330Y016208D01*
X019437Y016101D01*
X019757Y016208D02*
X019757Y016422D01*
X019650Y016528D01*
X019544Y016746D02*
X019757Y017066D01*
X019650Y017283D02*
X019757Y017390D01*
X019757Y017603D01*
X019650Y017710D01*
X019544Y017710D01*
X019544Y017283D01*
X019650Y017283D02*
X019437Y017283D01*
X019330Y017390D01*
X019330Y017603D01*
X019330Y017066D02*
X019544Y016746D01*
X019330Y016746D02*
X019971Y016746D01*
X019757Y017927D02*
X019330Y017927D01*
X019544Y017927D02*
X019757Y018141D01*
X019757Y018248D01*
X019437Y018465D02*
X019437Y018571D01*
X019330Y018571D01*
X019330Y018465D01*
X019437Y018465D01*
X019437Y018787D02*
X019330Y018894D01*
X019330Y019214D01*
X019437Y019431D02*
X019330Y019538D01*
X019330Y019752D01*
X019437Y019858D01*
X019650Y019858D01*
X019757Y019752D01*
X019757Y019538D01*
X019650Y019431D01*
X019437Y019431D01*
X019757Y019214D02*
X019757Y018894D01*
X019650Y018787D01*
X019437Y018787D01*
X019330Y020076D02*
X019757Y020076D01*
X019757Y020183D01*
X019650Y020289D01*
X019757Y020396D01*
X019650Y020503D01*
X019330Y020503D01*
X019330Y020289D02*
X019650Y020289D01*
X019971Y004177D02*
X019330Y004177D01*
D11*
X013130Y005451D02*
X012910Y005451D01*
X012983Y005451D02*
X012983Y005561D01*
X013020Y005597D01*
X013093Y005597D01*
X013130Y005561D01*
X013130Y005451D01*
X012983Y005524D02*
X012910Y005597D01*
X012910Y005672D02*
X012910Y005818D01*
X012910Y005745D02*
X013130Y005745D01*
X013057Y005672D01*
X013020Y005893D02*
X012947Y005893D01*
X012910Y005929D01*
X012910Y006003D01*
X012947Y006039D01*
X012983Y006039D01*
X013020Y006003D01*
X013020Y005893D01*
X013093Y005966D01*
X013130Y006039D01*
X013130Y006451D02*
X012910Y006451D01*
X012983Y006451D02*
X012983Y006561D01*
X013020Y006597D01*
X013093Y006597D01*
X013130Y006561D01*
X013130Y006451D01*
X012983Y006524D02*
X012910Y006597D01*
X012910Y006672D02*
X012910Y006818D01*
X012910Y006745D02*
X013130Y006745D01*
X013057Y006672D01*
X013020Y006893D02*
X013057Y006966D01*
X013057Y007003D01*
X013020Y007039D01*
X012947Y007039D01*
X012910Y007003D01*
X012910Y006929D01*
X012947Y006893D01*
X013020Y006893D02*
X013130Y006893D01*
X013130Y007039D01*
X017010Y006893D02*
X017047Y006893D01*
X017193Y007039D01*
X017230Y007039D01*
X017230Y006893D01*
X017230Y006745D02*
X017010Y006745D01*
X017010Y006672D02*
X017010Y006818D01*
X017157Y006672D02*
X017230Y006745D01*
X017193Y006597D02*
X017120Y006597D01*
X017083Y006561D01*
X017083Y006451D01*
X017083Y006524D02*
X017010Y006597D01*
X017010Y006451D02*
X017230Y006451D01*
X017230Y006561D01*
X017193Y006597D01*
X017193Y006039D02*
X017157Y006039D01*
X017120Y006003D01*
X017120Y005929D01*
X017157Y005893D01*
X017193Y005893D01*
X017230Y005929D01*
X017230Y006003D01*
X017193Y006039D01*
X017120Y006003D02*
X017083Y006039D01*
X017047Y006039D01*
X017010Y006003D01*
X017010Y005929D01*
X017047Y005893D01*
X017083Y005893D01*
X017120Y005929D01*
X017010Y005818D02*
X017010Y005672D01*
X017010Y005745D02*
X017230Y005745D01*
X017157Y005672D01*
X017193Y005597D02*
X017120Y005597D01*
X017083Y005561D01*
X017083Y005451D01*
X017083Y005524D02*
X017010Y005597D01*
X017010Y005451D02*
X017230Y005451D01*
X017230Y005561D01*
X017193Y005597D01*
M02*
