%
M48
M72
T01C0.0157
T02C0.0240
T03C0.0256
T04C0.0320
T05C0.0350
T06C0.0360
T07C0.0374
T08C0.0394
T09C0.0400
T10C0.0440
T11C0.0590
T12C0.0906
T13C0.1000
T14C0.1083
T15C0.1150
T16C0.1350
%
T01
X15800Y23551
X15800Y25196
X19200Y25196
X19200Y23551
T02
X19063Y22816
X18625Y24316
X19625Y24316
X15813Y22316
X15250Y22128
X13438Y18566
X10000Y19191
X8625Y20566
X6625Y18191
X8500Y16566
X6875Y14878
X8750Y23253
X17438Y18191
X20000Y19191
X15063Y5691
T03
X16362Y23759
X18638Y23759
T04
X19000Y16691
X18000Y16691
X16000Y16691
X15000Y16691
X12000Y13691
X11000Y14691
X11000Y12691
X12000Y11691
X12500Y9191
X13500Y9191
X13500Y8191
X10750Y7191
X9750Y7191
X8750Y7191
X8500Y8191
X8500Y9191
X9500Y9191
X7000Y10191
X5500Y9191
X5500Y8191
X4000Y8191
X4000Y9191
X2500Y11191
X1500Y11191
X1000Y9191
X1000Y8191
X1000Y6691
X2000Y6691
X3000Y6691
X7000Y13191
X7000Y14191
X4000Y14191
X2500Y14191
X1500Y14191
X1000Y16191
X4000Y16191
X3500Y19691
X3500Y20691
X3500Y21691
X3500Y22691
X6500Y22691
X7300Y22691
X7300Y21691
X6500Y21691
X6500Y20691
X6500Y19691
X16500Y9191
X16500Y8191
T05
X9900Y10591
X9000Y10591
X8100Y10591
T06
X18000Y18691
X19000Y18691
X7000Y24691
X6000Y24691
X5000Y24691
T07
X17933Y7569
X17933Y6584
X17933Y5797
X17933Y4813
T08
X20669Y4395
X20669Y3395
X21669Y3395
X21669Y4395
X21669Y5395
X20669Y5395
X20669Y6395
X20669Y7395
X20669Y8395
X20669Y9395
X20669Y10395
X20669Y11395
X20669Y12395
X20669Y13395
X20669Y14395
X20669Y15395
X20669Y16395
X20669Y17395
X20669Y18395
X20669Y19395
X20669Y20395
X20669Y21395
X20669Y22395
X21669Y22395
X21669Y21395
X21669Y20395
X21669Y19395
X21669Y18395
X21669Y17395
X21669Y16395
X21669Y15395
X21669Y14395
X21669Y13395
X21669Y12395
X21669Y11395
X21669Y10395
X21669Y9395
X21669Y8395
X21669Y7395
X21669Y6395
T09
X17500Y11191
X17500Y12191
X17500Y13191
X17500Y14191
X17500Y15191
X14000Y14691
X13000Y14691
X13000Y13691
X13000Y12691
X13000Y11691
X13000Y10691
X14000Y16191
X16000Y20191
X17000Y20191
X18000Y20191
X19000Y20191
X14000Y25191
X6000Y18191
X5000Y18191
X4000Y18191
X4000Y17191
X5000Y17191
X6000Y17191
X5500Y13191
X5500Y12191
X5500Y11191
X5500Y10191
X5500Y3691
X4500Y3691
X4500Y791
X5500Y791
X7500Y791
X7500Y3691
X12000Y3691
X13000Y3691
X15000Y3691
X15000Y791
X13000Y791
X12000Y791
X1500Y17691
X1500Y18691
X1500Y19691
X1500Y20691
X1500Y21691
T10
X7500Y16691
X12500Y16691
T11
X11500Y18691
X9000Y18691
X9000Y24691
X11500Y24691
T12
X19000Y8777
X19000Y3604
T13
X17500Y24472
T14
X1878Y1478
X21169Y1478
X1878Y24313
T15
X21170Y24311
T16
X17500Y22070
M30
